<svg version="1.1" xmlns="http://www.w3.org/2000/svg" xmlns:xlink="http://www.w3.org/1999/xlink" width="312.4085" height="423.3364" viewBox="0,0,312.4085,423.3364"><g transform="translate(-12.33875,-98.33185)"><g data-paper-data="{&quot;isPaintingLayer&quot;:true}" fill-rule="nonzero" stroke-linejoin="miter" stroke-miterlimit="10" stroke-dasharray="" stroke-dashoffset="0" style="mix-blend-mode: normal"><g data-paper-data="{&quot;index&quot;:null}" stroke="#000000" stroke-width="2" stroke-linecap="butt"><path d="M180.00006,409.48731c77.5818,0 140.47426,14.90342 140.47426,33.28773c0,18.38429 -62.89247,33.28773 -140.47426,33.28773c-77.5818,0 -140.47426,-14.90342 -140.47426,-33.28773c0,-18.38429 62.89247,-33.28773 140.47426,-33.28773z" fill="#3300ff"/><path d="M251.23582,520.66824c-13.97207,0 -25.29868,-11.32661 -25.29868,-25.29868c0,-13.97207 11.32661,-25.29868 25.29868,-25.29868c13.97207,0 25.29868,11.32661 25.29868,25.29868c0,13.97207 -11.32661,25.29868 -25.29868,25.29868z" fill="#000000"/><path d="M108.76429,520.66824c-13.97207,0 -25.29868,-11.32661 -25.29868,-25.29868c0,-13.97207 11.32661,-25.29868 25.29868,-25.29868c13.97207,0 25.29868,11.32661 25.29868,25.29868c0,13.97207 -11.32661,25.29868 -25.29868,25.29868z" fill="#000000"/></g><g fill="#ffc266" stroke="none" stroke-linecap="butt"><path d="M200.50004,413.75008v-54h13v54z" stroke-width="NaN"/><path d="M230.50004,427.75008c0,4.40937 -12.49451,-7.61129 -16.49874,-4.78885c-3.76963,2.65708 -0.87727,14.28885 -6.50126,14.28885c-5.12943,0 -4.82932,-10.3574 -8.47629,-12.61207c-4.59908,-2.8433 -15.52371,6.88648 -15.52371,2.11207c0,-8.56041 12.40202,-20.5 24,-20.5c11.59798,0 23,12.93959 23,21.5z" stroke-width="0"/></g><g fill="#ffc266" stroke="none" stroke-linecap="butt"><path d="M173.50004,432.75008v-54h13v54z" stroke-width="NaN"/><path d="M203.50004,446.75008c0,4.40937 -12.49451,-7.61129 -16.49874,-4.78885c-3.76963,2.65708 -0.87727,14.28885 -6.50126,14.28885c-5.12942,0 -4.82932,-10.35739 -8.47629,-12.61207c-4.59908,-2.8433 -15.52371,6.88648 -15.52371,2.11207c0,-8.56041 12.40202,-20.5 24,-20.5c11.59798,0 23,12.93959 23,21.5z" stroke-width="0"/></g><path d="M282.85294,222.64045c17.79814,0 41.89431,0 41.89431,0c0,0 -24.09617,64.45278 -41.89431,64.45278c-17.79814,0 -32.22639,-14.42825 -32.22639,-32.22639c0,-17.79814 14.42825,-32.22639 32.22639,-32.22639z" fill="#e5e5e5" stroke="none" stroke-width="NaN" stroke-linecap="butt"/><path d="M138.09273,302.90486c15.92438,-5.61046 73.80344,-52.84435 111.68638,-50.60764c42.94975,2.53587 65.33373,56.10359 65.33373,77.21215c0,18.25871 -24.16199,56.47541 -68.09069,69.27342c-51.65044,15.04762 -126.03802,2.60414 -153.00728,-6.07003c-13.14216,-4.22693 -43.42474,-21.98488 -58.70654,-52.99257c-7.73537,-15.69552 -4.94078,-32.67443 -8.40911,-48.70215c-5.33617,-24.65933 -14.56047,-45.69997 -14.56047,-45.69997c0,0 84.40814,72.15369 125.75398,57.58679z" fill="#f8f8f8" stroke="none" stroke-width="0" stroke-linecap="butt"/><path d="M244.71618,172.50138c0,0 12.92491,16.58399 19.47396,46.41855c6.99378,31.86055 36.36101,69.8733 36.36101,69.8733h-100.50672c0,0 12.44401,-49.15651 11.21855,-71.28603c-1.1592,-20.93295 -18.38357,-58.10103 -18.38357,-58.10103z" fill="#ffffff" stroke="none" stroke-width="0" stroke-linecap="round"/><path d="M229.15641,98.33185c24.73565,0 44.78783,17.21653 44.78783,38.45419c0,21.23766 -20.0522,38.45419 -44.78783,38.45419c-24.73565,0 -44.78783,-17.21653 -44.78783,-38.45419c0,-21.23766 20.0522,-38.45419 44.78783,-38.45419z" fill="#f2f2f2" stroke="none" stroke-width="0" stroke-linecap="butt"/><path d="M249.32858,171.10448l22.07824,-20.76789l10.19215,32.02629z" fill="#ff9e00" stroke="none" stroke-width="0" stroke-linecap="round"/><path d="M115.76451,337.38468c-34.58949,-16.63474 -80.51173,-107.74068 -80.51173,-107.74068c0,0 33.534,8.1318 63.6645,0.90973c12.55998,-3.01055 61.82902,-23.4036 84.00653,-12.75079c30.82918,14.80856 58.47286,77.62004 49.31505,98.22419c-15.74564,35.42612 -81.88485,37.99229 -116.47434,21.35755z" fill="#ffffff" stroke="none" stroke-width="0" stroke-linecap="butt"/><path d="M105.99256,345.07751c-28.67277,-13.78928 -85.73978,-113.31108 -85.73978,-113.31108c0,0 46.79783,30.74081 71.77436,24.75412c10.41153,-2.49558 51.25284,-19.40029 69.63677,-10.5697c25.55569,12.27548 48.47077,64.34273 40.87945,81.42243c-13.05227,29.36629 -67.87802,31.49351 -96.55079,17.70423z" fill="#e5e5e5" stroke="none" stroke-width="0" stroke-linecap="butt"/><g stroke-linecap="butt"><path d="M241.00005,125.69001c5.24695,0 9.50045,5.06368 9.50045,11.31006c0,6.24637 -4.2535,11.31006 -9.50045,11.31006c-5.24695,0 -9.50045,-5.06368 -9.50045,-11.31006c0,-6.24637 4.2535,-11.31006 9.50045,-11.31006z" fill="#00c0c0" stroke="none" stroke-width="0"/><path d="M240.65621,131.11882c2.93829,0 5.32025,2.83567 5.32025,6.33364c0,3.49798 -2.38197,6.33364 -5.32025,6.33364c-2.93829,0 -5.32025,-2.83567 -5.32025,-6.33364c0,-3.49798 2.38197,-6.33364 5.32025,-6.33364z" fill="#000000" stroke="#000000" stroke-width="2.5"/></g><g stroke="none" stroke-width="1.88565" stroke-linecap="butt"><g><g><path d="M185.48316,263.4895c-0.22949,-0.0509 -0.97961,-0.2621 -1.06449,-0.8391c-0.08294,-0.5752 0.54191,-0.9127 0.74634,-1.024c0.1986,-0.0584 3.48646,-0.5091 6.81676,-2.7247c-0.32009,-0.2621 -0.6228,-0.5186 -0.91211,-0.7731c-1.39225,1.2822 -5.19124,2.6267 -8.15707,2.8869c-0.40109,-0.0773 -1.13771,-0.3281 -1.19171,-0.9051c-0.05011,-0.5789 0.59396,-0.8863 0.80606,-0.9881c0.20054,-0.0471 3.5694,-0.3243 7.05208,-2.4155c-0.34321,-0.3564 -0.66146,-0.7109 -0.95067,-1.0541c-1.26309,1.1484 -5.31273,2.3684 -8.40005,2.4721c-0.39536,-0.0999 -1.11849,-0.3866 -1.13771,-0.9692c-0.01933,-0.5827 0.64213,-0.8505 0.85812,-0.9391c0.20821,-0.0377 3.76422,-0.1282 7.46472,-2.1836c-0.21404,-0.3243 -0.41264,-0.6524 -0.5958,-0.9805c-1.34409,0.9391 -4.9502,1.7819 -7.8968,1.7819c-0.19093,0 -0.37992,-0.0037 -0.56308,-0.0113c-0.38565,-0.1282 -1.08372,-0.4714 -1.05866,-1.0541c0.02506,-0.5788 0.7039,-0.7995 0.92561,-0.873l0.49753,-0.0189c0.88706,0 3.97826,-0.1206 7.26234,-1.6763c-0.14276,-0.4092 -0.24493,-0.7769 -0.31631,-1.0937c-1.56969,0.8957 -4.86532,1.6198 -7.59399,1.6198c-0.19093,0 -0.37798,-0.0038 -0.56308,-0.0113c-0.38565,-0.1282 -1.08566,-0.4714 -1.0606,-1.0541c0.02506,-0.5789 0.7039,-0.7995 0.92756,-0.8731l0.4917,-0.015c0.91027,0 4.14025,-0.132 7.51882,-1.8008l0.08866,-0.0434c0.20054,-0.5148 0.93911,-0.8881 1.26309,-1.0315l0.6094,-0.2658l0.0675,0.6486c0.65757,6.3056 7.96225,11.5534 8.03557,11.6081l0.65952,0.4676l-2.27553,1.0503l-0.21793,-0.181c-1.3132,1.3143 -5.02148,2.8511 -7.96031,3.2622l-0.08877,0.0151z" fill="#871212"/><path d="M186.93719,247.3332c0,0 -1.37108,0.6034 -0.95077,1.0711c0,0 -0.00184,0.0207 -0.00378,0.0584c-0.16782,-0.0547 -0.35292,-0.0584 -0.37409,-0.0584c-0.00194,0 -0.00194,0 -0.00194,0c-3.44218,1.7008 -6.69926,1.8517 -7.73675,1.8517c-0.21977,0 -0.33932,-0.0076 -0.33932,-0.0076c-1.34603,0.4375 0,1.0051 0,1.0051c0.17927,0.0075 0.36059,0.0113 0.54375,0.0113c3.19531,0 7.12735,-1.0277 7.89097,-1.9328c0.02117,-0.0302 0.027,-0.0434 0.04633,-0.0698c0.05972,0.5375 0.22171,1.3106 0.60163,2.2572c-0.0675,-0.0076 -0.12344,-0.0113 -0.14655,-0.0113c-0.00777,0 -0.01156,0 -0.01156,0c-3.4384,1.697 -6.69159,1.8479 -7.73287,1.8479c-0.22366,0 -0.34515,-0.0076 -0.34515,-0.0076c-1.34603,0.4413 0,1.0089 0,1.0089c0.17927,0.0075 0.36059,0.0113 0.54375,0.0113c3.19531,0 7.12735,-1.0277 7.89097,-1.9328c0.05983,-0.0717 0.08866,-0.1301 0.12722,-0.1886c0.29514,0.6072 0.6769,1.2672 1.17831,1.9705c-0.0405,0.0038 -0.06944,0.0038 -0.06944,0.0038c-4.00332,2.3646 -7.91214,2.4344 -7.91214,2.4344c-1.30747,0.5336 0.07711,1.0013 0.07711,1.0013c3.27825,-0.1113 7.53416,-1.518 8.26506,-2.5381c0.06555,-0.0924 0.10032,-0.166 0.13693,-0.2357c0.4782,0.6128 1.05477,1.252 1.72012,1.912c-3.8086,2.4759 -7.59593,2.7549 -7.59593,2.7549c-1.27659,0.6072 0.13305,1.0013 0.13305,1.0013c3.26475,-0.2866 7.43588,-1.9214 8.10696,-2.9793c0.02894,-0.0453 0.03661,-0.0754 0.05788,-0.115c0.52442,0.4827 1.10294,0.9711 1.74517,1.4727c-3.64855,2.6323 -7.37995,3.1113 -7.37995,3.1113c-1.24192,0.6732 0.18899,0.99 0.18899,0.99c3.24348,-0.4601 7.31818,-2.3137 7.93147,-3.4036c0.01534,-0.0302 0.01728,-0.0434 0.03078,-0.0698l0.35875,0.2979l1.25726,-0.5826c0,0 -7.54572,-5.344 -8.23223,-11.94M187.76053,245.9378l0.13499,1.2955c0.63446,6.0925 7.76753,11.2234 7.83892,11.2743l1.31903,0.9353l-1.47335,0.6807l-1.25726,0.5789l-0.56308,0.2621l-0.11382,-0.0962c-1.64291,1.3483 -5.28563,2.7191 -7.91981,3.0906l-0.17549,0.0264l-0.17355,-0.0396c-0.30475,-0.066 -1.30747,-0.3526 -1.43469,-1.2294c-0.05983,-0.4055 0.06361,-0.9976 0.99116,-1.5029l0.09449,-0.0509c-0.72507,0.1546 -1.42897,0.2659 -2.0711,0.3243l-0.17743,0.0132l-0.1716,-0.0471c-0.30087,-0.0849 -1.28436,-0.4224 -1.36536,-1.303c-0.03661,-0.413 0.11771,-0.9994 1.07226,-1.452l0.16577,-0.0773l0.18132,-0.0169c0.03273,-0.0038 2.9736,-0.249 6.15735,-2.0102c-0.08877,-0.098 -0.17549,-0.1942 -0.26037,-0.2903c-1.74129,1.1936 -5.60583,2.1986 -8.31517,2.291l-0.17938,0.0076l-0.16966,-0.0641c-0.2931,-0.1 -1.25736,-0.4941 -1.28631,-1.3747c-0.0135,-0.4111 0.17549,-0.99 1.15326,-1.3878l0.16966,-0.0698l0.18316,-0.0038c0.03283,0 3.1992,-0.0867 6.61827,-1.8479c-0.03088,-0.0471 -0.05983,-0.0999 -0.09061,-0.1471c-1.75295,0.9466 -5.1353,1.5953 -7.72325,1.5953c-0.19666,0 -0.39148,-0.0038 -0.5823,-0.0113l-0.17938,-0.0076l-0.16393,-0.0697c-0.28727,-0.1207 -1.21871,-0.5808 -1.18015,-1.4652c0.01739,-0.4111 0.25065,-0.9711 1.25542,-1.303l0.17549,-0.0547l0.18316,0.0114c0.0135,0 0.11566,0.0037 0.29115,0.0037c0.82733,0 3.62534,-0.1093 6.67226,-1.4538c-0.0135,-0.0434 -0.027,-0.0886 -0.03855,-0.1282c-1.83783,0.824 -4.8962,1.3765 -7.28167,1.3765c-0.19666,0 -0.39137,-0.0038 -0.5823,-0.0113l-0.17938,-0.0076l-0.16393,-0.0697c-0.28727,-0.1207 -1.21871,-0.5808 -1.18015,-1.4652c0.01739,-0.4111 0.25076,-0.9711 1.25736,-1.2992l0.17549,-0.0547l0.18316,0.0076c0.01156,0 0.11188,0.0075 0.28543,0.0075c0.87734,0 3.98205,-0.1245 7.24495,-1.7197c0.31621,-0.5563 1.00272,-0.924 1.43081,-1.1125l1.21871,-0.5375zM185.33079,261.0966c0.40497,-0.0641 3.03148,-0.5205 5.85076,-2.2458c-0.03088,-0.0227 -0.05983,-0.0472 -0.08877,-0.0736c-1.22638,0.9278 -3.55396,1.8103 -5.76199,2.3194z" fill="#000000"/></g><path d="M243.25943,218.0302l-6.56233,0.9353c-6.02031,0.0415 -17.35541,7.1617 -21.51877,19.8088c-4.16336,12.6508 -20.90558,21.766 -20.90558,21.766c-9.80396,-7.3069 -8.27662,-13.1222 -8.27662,-13.1222c19.68493,-9.8224 16.31025,-18.3851 25.22899,-26.9516c8.91875,-8.5627 20.6896,-7.6991 20.6896,-7.6991z" fill="#ba2915"/><g fill="#871212"><path d="M193.86972,242.8642c-0.32009,4.007 8.27662,12.3341 8.27662,12.3341l-2.21959,1.7706c-9.25428,-4.5237 -8.79347,-12.2794 -8.79347,-12.2794z"/><path d="M200.39339,236.6869c1.17054,6.1283 9.86757,10.8085 9.86757,10.8085l-2.65156,2.7512c-8.91875,-4.9499 -9.48182,-10.9198 -9.48182,-10.9198z"/><path d="M204.13449,230.8753c1.66807,3.9617 11.42949,6.9561 11.42949,6.9561l-1.2862,3.381c-9.32178,-2.1213 -11.37365,-8.1648 -11.37365,-8.1648z"/><path d="M209.23502,222.6086c1.06255,2.1421 11.15183,6.5847 11.15183,6.5847l-2.02866,2.7983c-9.18096,-1.9121 -10.83941,-7.0712 -10.83941,-7.0712z"/><path d="M216.63808,216.4689c0.67107,-0.2263 11.63975,4.9027 11.63975,4.9027l-3.23192,2.7889l-11.62625,-5.5759c0,0 2.54735,-1.8894 3.21842,-2.1157z"/><path d="M223.67482,214.1194l4.5529,-1.3237l9.54738,6.0095l-4.52201,0.6864l-9.57826,-5.3722"/></g><path d="M194.23031,261.1004l-0.25065,-0.1848c-9.94284,-7.4144 -8.51776,-13.3655 -8.45026,-13.6163l0.054,-0.2056l0.19287,-0.0961c12.57108,-6.2717 15.63529,-12.0248 18.59733,-17.5856c1.62174,-3.0453 3.29758,-6.1962 6.51406,-9.2811c7.59593,-7.2937 17.3053,-7.8594 20.09952,-7.8594c0.61902,0 0.96427,0.0264 0.96427,0.0264l12.95295,5.9756l-8.13784,1.1597c-6.19775,0.0452 -17.17798,7.4784 -21.13118,19.4844c-4.17492,12.681 -20.43894,21.6585 -21.12934,22.0357l-0.27571,0.1471zM186.43189,247.7273c-0.12916,1.0428 -0.25843,6.0775 7.87941,12.2454c2.17326,-1.2445 16.64006,-9.8959 20.40806,-21.3417c4.2463,-12.8979 15.68745,-20.0935 21.97396,-20.1369l4.9231,-0.7052l-9.86747,-4.5784c-0.01739,0.0189 -0.31242,0.0038 -0.76178,0.0019c-2.70167,0 -12.09094,0.5487 -19.42262,7.5879c-3.10665,2.9831 -4.67439,5.9284 -6.33478,9.0435c-3.01594,5.6626 -6.13414,11.5157 -18.79787,17.8835z" fill="#000000"/></g><g><path d="M259.0336,202.0022c3.85677,2.0045 1.44635,6.8355 1.44635,6.8355c7.10986,2.8285 4.94048,6.8336 4.94048,6.8336c-3.97826,-2.242 -7.4725,0.4714 -18.3389,2.7116c-10.86457,2.2401 -22.03563,-2.7116 -22.03563,-2.7116c19.16041,-19.4467 33.98575,-13.6691 33.98769,-13.6691z" fill="#ba2915"/><g fill="#871212"><path d="M239.77481,204.6459c0,0 5.6676,3.9391 3.48462,14.3196h-1.73556c0,0 1.5929,-8.8078 -3.33797,-13.4277z"/><path d="M248.42367,201.5893c4.70139,5.9511 3.64273,15.138 3.64273,15.138l-2.17715,0.5468c0.92367,-11.1857 -3.99565,-15.0362 -3.99565,-15.0362z"/><path d="M233.24152,208.4851c0,0 3.61573,4.4784 2.65146,10.1052l-1.24376,-0.1905c0,0 -0.98738,-7.6802 -2.7345,-8.8267z"/><path d="M261.86259,214.6606h-2.02671c0.38565,-3.7826 -2.93699,-6.6601 -2.93699,-6.6601c0.64019,-4.3163 -2.14626,-6.7997 -2.14626,-6.7997l2.74984,0.3904c1.23998,1.2369 1.39808,6.3376 1.52919,6.6582c2.95243,2.0025 2.83288,6.4112 2.83094,6.4112z"/></g><path d="M265.84463,215.8919l-0.23327,0.4318l-0.43392,-0.2432c-2.36225,-1.3294 -4.76121,-0.7279 -9.19456,0.5412c-2.28514,0.6543 -5.12947,1.467 -8.80114,2.225c-1.90522,0.3922 -3.94543,0.5902 -6.07053,0.5902c-8.63721,0 -16.18875,-3.3017 -16.26402,-3.3357l-0.6228,-0.2753l0.47431,-0.4808c11.904,-12.0795 22.1745,-14.6157 28.69828,-14.6157c3.62728,0 5.72538,0.8014 5.81599,0.8354c3.1587,1.6386 2.70361,5.0799 1.90522,7.0259c2.58785,1.1069 4.21163,2.5098 4.82871,4.1729c0.64019,1.7254 -0.07138,3.0717 -0.10227,3.1283zM265.03479,213.0634c-0.52841,-1.3916 -2.05381,-2.6323 -4.37362,-3.6204c-4.20969,-1.7027 -8.25545,0.2772 -8.25545,0.2772c3.87415,-2.3344 6.66838,-1.9026 7.83319,-1.5368c0.45887,-1.1691 1.3672,-4.3125 -1.43091,-5.7663c-0.00767,0 -2.01516,-0.7467 -5.40907,-0.7467c-6.24418,0 -16.05581,2.4174 -27.51229,13.8331c1.97077,0.7712 8.23612,2.9887 15.22653,2.9887c2.05565,0 4.0342,-0.1923 5.87193,-0.5713c3.6369,-0.7486 6.462,-1.5576 8.72976,-2.2062c4.39479,-1.2578 6.9673,-1.8744 9.44143,-0.7128c0.10799,-0.4281 0.18316,-1.1239 -0.12149,-1.9385z" fill="#000000"/></g><g><path d="M206.60473,199.8809c0,0 -2.41052,-1.7688 -1.20521,-3.8882c1.20521,-2.1195 3.37469,-3.0303 3.37469,-2.8115c0,0.2187 20.84964,16.9915 44.35085,-0.7637v-2.4155c0,0 8.79725,3.9881 5.90475,12.0021c0,0 -5.27612,-1.6499 -10.16844,3.5356c-4.8961,5.1855 -9.23495,16.2637 -46.71698,5.7739c0,0 -3.01215,-0.9429 -1.44625,-3.7713c1.5658,-2.8285 6.26913,-5.5401 5.90659,-7.6614z" fill="#ba2915"/><g fill="#871212"><path d="M212.8122,196.0549c-2.59173,1.9441 -0.90444,4.7726 -1.06255,5.9549c-0.1581,1.1823 -0.44547,3.8278 -2.01127,5.6531c-1.5659,1.8254 -1.74712,5.0819 -1.74712,5.0819l-3.85677,-0.8995c0.42226,-0.9428 0.36253,-2.7097 2.77295,-5.1855c2.41052,-2.4759 2.53007,-5.459 2.53007,-5.459c-1.68729,-5.2232 1.60057,-6.3697 1.60057,-6.3697z"/><path d="M219.86039,199.1794c0,0 -0.6228,0.8599 -0.6228,2.8059c0,1.9459 0.64213,3.8655 -0.51491,5.8304c-1.15704,1.9648 -2.49335,6.7431 -2.49335,6.7431l-2.80966,-0.5261c0,0 0.10994,-0.9523 0.89473,-3.1642c0.78489,-2.2118 2.83278,-3.9146 2.43169,-7.2465c-0.40109,-3.3319 0.79839,-5.87 0.76362,-5.3798z"/><path d="M227.1169,200.3957c-0.57842,2.6342 -0.4647,3.7298 -0.06361,7.2465c0.40109,3.5167 -1.22454,7.5143 -1.22454,7.5143l-2.69196,-0.1735c0,0 2.14821,-4.3388 1.34593,-7.7952c-0.80218,-3.4564 0.56318,-6.9128 0.56318,-7.0618z"/><path d="M232.45857,200.4145h2.51851c2.34681,7.5388 -0.10799,9.6715 -0.10799,9.6715c0.60163,3.3055 -1.50996,5.0724 -1.50996,5.0724h-1.44441c2.16948,-2.7568 0.84472,-5.376 0.84472,-5.376c1.50792,-4.4199 -0.30087,-9.3698 -0.30087,-9.3698z"/><path d="M243.12055,198.1819c3.48656,7.7274 1.12237,10.784 1.24959,11.1668c0.12732,0.3828 -0.36253,1.4538 -0.36253,1.4538l-2.09032,1.3747c0.84462,-1.6104 0.40303,-2.5136 0.40303,-2.5136c1.72401,-6.0887 -1.93611,-10.5879 -1.93611,-10.5879z"/><path d="M250.59693,194.3427c2.9331,2.0026 2.9331,7.9348 2.9331,7.9348l-2.12898,1.1786c0.84278,-5.6966 -2.57241,-8.0932 -2.57241,-8.0932z"/><path d="M253.127,190.1792c9.68237,5.3816 5.68682,11.7495 5.68682,11.7495l-0.027,-0.7279c0.47431,-6.8147 -5.17969,-8.5533 -5.17969,-8.5533z"/></g><path d="M259.4849,202.1606l-0.15432,0.4299l-0.44353,-0.1376c-0.00767,-0.0019 -0.75595,-0.2282 -1.91678,-0.2282c-1.97272,0 -4.92126,0.6317 -7.75404,3.6337c-0.47053,0.4959 -0.93338,1.0484 -1.42314,1.6292c-3.07003,3.6525 -7.27778,8.6551 -19.90481,8.6551c-6.79181,0 -15.49651,-1.4727 -25.87501,-4.3766c-0.07721,-0.0226 -1.54085,-0.494 -2.06537,-1.7687c-0.32582,-0.7958 -0.21599,-1.6971 0.32787,-2.6795c0.69807,-1.2578 1.93611,-2.4476 3.13364,-3.5997c1.32864,-1.2766 2.6939,-2.5928 2.72867,-3.562c-0.01739,-0.0132 -0.03671,-0.0208 -0.054,-0.034l0.01544,-0.0415c-0.94105,-0.7957 -2.15404,-2.5022 -1.12043,-4.32c1.13771,-2.0044 3.16259,-3.0868 3.73722,-3.0868h0.48208l0.03283,0.281c0.89667,0.7335 9.18484,7.1334 21.24685,7.1334c7.6981,0 15.15331,-2.6607 22.16683,-7.9065v-2.9209l0.68457,0.3111c0.09061,0.0434 9.15979,4.2654 6.15541,12.5886zM253.60714,190.7826v1.863l-0.1851,0.1415c-7.24301,5.4702 -14.96432,8.244 -22.9459,8.244c-11.26361,0 -19.96453,-5.6664 -21.8177,-7.3974c-0.3837,0.1264 -1.90716,0.9485 -2.83666,2.5871c-0.98349,1.7311 0.98932,3.2207 1.0741,3.2829l0.15432,0.1132l0.01156,0.0735c0.80412,0.5808 2.52618,1.5387 5.93175,2.3703c0,0 -3.25319,0.0924 -5.98381,-1.3747c-0.32592,1.1918 -1.58901,2.4193 -2.92533,3.7053c-1.14743,1.1013 -2.33341,2.2421 -2.96204,3.3754c-0.39915,0.7222 -0.49364,1.352 -0.28154,1.8724c0.35098,0.8636 1.44247,1.2219 1.45402,1.2257c10.27633,2.8756 18.89237,4.3351 25.59347,4.3351c9.12123,0 13.58352,-2.5871 16.55518,-5.442c-2.50501,0.6279 -10.20505,2.1308 -16.32569,-1.2747c0,0 8.66615,2.9322 17.46729,0.0924c0.52064,-0.5714 1.00272,-1.1389 1.46558,-1.6877c0.50141,-0.5958 0.97572,-1.1615 1.45781,-1.6706c4.14608,-4.3936 8.73375,-4.0655 10.20699,-3.7751c1.90911,-6.0548 -3.1857,-9.5772 -5.1083,-10.6596z" fill="#000000"/></g></g></g></g></svg>