<svg version="1.1" xmlns="http://www.w3.org/2000/svg" xmlns:xlink="http://www.w3.org/1999/xlink" width="109.50527" height="89.68576" viewBox="0,0,109.50527,89.68576"><g transform="translate(-125.24737,-280.42197)"><g stroke="#000000" stroke-miterlimit="10"><path d="M130.24737,368.57803c-2.20914,0 -4,-1.79086 -4,-4v-79.15606c0,-2.20914 1.79086,-4 4,-4h99.50527c2.20914,0 4,1.79086 4,4v79.15606c0,2.20914 -1.79086,4 -4,4z" fill="#ff0099" stroke-width="2"/><path d="M156.11978,311.90375c0,-9.75595 10.69154,-17.66471 23.88022,-17.66471c13.18868,0 23.88022,7.90876 23.88022,17.66471c-0.54897,6.90345 -4.39176,13.60386 -11.52838,20.10122c-7.13662,6.90345 -11.2539,14.82211 -12.35184,23.75599c-1.09794,-8.93388 -5.21522,-16.85254 -12.35184,-23.75599c-7.13662,-6.49736 -10.97941,-13.19777 -11.52838,-20.10122zM171.76544,311.90375c0,3.36412 3.68674,6.09128 8.23456,6.09128c4.54782,0 8.23456,-2.72716 8.23456,-6.09128c0,-3.36412 -3.68674,-6.09128 -8.23456,-6.09128c-4.54782,0 -8.23456,2.72716 -8.23456,6.09128" fill="none" stroke-width="3.5"/></g></g></svg>