<svg version="1.1" xmlns="http://www.w3.org/2000/svg" xmlns:xlink="http://www.w3.org/1999/xlink" width="86.74864" height="110.25989" viewBox="0,0,86.74864,110.25989"><g transform="translate(-136.62568,-269.87008)"><g data-paper-data="{&quot;isPaintingLayer&quot;:true}" stroke-miterlimit="10" stroke-dasharray="" stroke-dashoffset="0" style="mix-blend-mode: normal"><path d="M141.87568,378.87998c-2.20914,0 -4,-1.79086 -4,-4v-99.75989c0,-2.20914 1.79086,-4 4,-4h76.24864c2.20914,0 4,1.79086 4,4v99.75989c0,2.20914 -1.79086,4 -4,4z" fill="#00e6e6" fill-rule="nonzero" stroke="#000000" stroke-width="2.5" stroke-linecap="butt" stroke-linejoin="miter"/><g><g data-paper-data="{&quot;index&quot;:null}" fill-rule="nonzero" stroke="#000000" stroke-width="2" stroke-linecap="butt" stroke-linejoin="miter"><path d="M178.98417,349.20913c16.94767,0 30.68648,3.25564 30.68648,7.27167c0,4.01603 -13.7388,7.27167 -30.68648,7.27167c-16.94767,0 -30.68648,-3.25564 -30.68648,-7.27167c0,-4.01603 13.7388,-7.27167 30.68648,-7.27167z" fill="#85ff66"/><path d="M194.54555,373.49651c-3.05219,0 -5.52647,-2.47429 -5.52647,-5.52647c0,-3.05219 2.47429,-5.52647 5.52647,-5.52647c3.05219,0 5.52647,2.47429 5.52647,5.52647c0,3.05219 -2.47429,5.52647 -5.52647,5.52647z" fill="#000000"/><path d="M163.42277,373.49651c-3.05219,0 -5.52647,-2.47429 -5.52647,-5.52647c0,-3.05219 2.47429,-5.52647 5.52647,-5.52647c3.05219,0 5.52647,2.47429 5.52647,5.52647c0,3.05219 -2.47429,5.52647 -5.52647,5.52647z" fill="#000000"/></g><g fill="#ffc266" fill-rule="nonzero" stroke="none" stroke-linecap="butt" stroke-linejoin="miter"><path d="M172.64913,354.9735v-11.79625h2.83984v11.79625z" stroke-width="NaN"/><path d="M179.20259,358.03179c0,0.96322 -2.72941,-1.66268 -3.60413,-1.04612c-0.82347,0.58044 -0.19164,3.12139 -1.42019,3.12139c-1.12052,0 -1.05496,-2.26256 -1.85164,-2.7551c-1.00466,-0.62112 -3.39114,1.50435 -3.39114,0.46138c0,-1.87001 2.70921,-4.47821 5.24278,-4.47821c2.53357,0 5.02433,2.82664 5.02433,4.69666z" stroke-width="0"/></g><g fill="#ffc266" fill-rule="nonzero" stroke="none" stroke-linecap="butt" stroke-linejoin="miter"><path d="M182.47934,354.9735v-11.79625h2.83984v11.79625z" stroke-width="NaN"/><path d="M189.03281,358.03179c0,0.96322 -2.72941,-1.66268 -3.60413,-1.04612c-0.82347,0.58044 -0.19164,3.12139 -1.42019,3.12139c-1.12052,0 -1.05496,-2.26256 -1.85164,-2.7551c-1.00466,-0.62112 -3.39114,1.50435 -3.39114,0.46138c0,-1.87001 2.70921,-4.47821 5.24278,-4.47821c2.53357,0 5.02433,2.82664 5.02433,4.69666z" stroke-width="0"/></g><path d="M158.30431,329.46957l-13.17976,-29.70908c0,0 10.15081,5.62068 14.37864,6.21931c3.98618,0.56442 10.59737,-2.72412 10.59737,-2.72412c0,0 0.23983,7.67912 -1.48511,11.51231c-2.12364,4.7192 -10.31115,14.70158 -10.31115,14.70158z" fill="#e5e5e5" fill-rule="nonzero" stroke="none" stroke-width="0" stroke-linecap="round" stroke-linejoin="miter"/><path d="M185.53763,303.0372c0,0 6.14522,3.24485 10.16895,2.72566c4.8502,-0.62583 17.13718,-6.22085 17.13718,-6.22085c0,0 -7.14808,15.01527 -9.75886,20.49948c-1.74992,3.67589 -4.38426,9.20959 -4.38426,9.20959c0,0 -8.36945,-11.61842 -10.62503,-16.18616c-2.03695,-4.12501 -2.53798,-10.02773 -2.53798,-10.02773z" fill="#e5e5e5" fill-rule="nonzero" stroke="none" stroke-width="0" stroke-linecap="round" stroke-linejoin="miter"/><path d="M199.27943,333.40164c0,9.59137 -9.29128,17.3667 -20.75266,17.3667c-11.46138,0 -20.75266,-7.77534 -20.75266,-17.3667c0,-9.59137 9.29128,-17.3667 20.75266,-17.3667c11.46138,0 20.75266,7.77534 20.75266,17.3667z" fill="#f8f8f8" fill-rule="nonzero" stroke="none" stroke-width="0" stroke-linecap="butt" stroke-linejoin="miter"/><path d="M187.28523,292.55167c0,0 -2.83117,6.4623 -1.23735,13.79384c1.67853,7.72126 9.64764,17.44438 9.64764,17.44438h-34.40573c0,0 6.60733,-9.17751 8.29586,-16.86968c1.58115,-7.20303 0.11443,-14.58699 0.11443,-14.58699z" fill="#ffffff" fill-rule="nonzero" stroke="none" stroke-width="0" stroke-linecap="round" stroke-linejoin="miter"/><path d="M189.34001,287.09044c0,5.12746 -4.84125,9.28409 -10.81323,9.28409c-5.97198,0 -10.81323,-4.15663 -10.81323,-9.28409c0,-5.12746 4.84125,-9.28409 10.81323,-9.28409c5.97198,0 10.81323,4.15663 10.81323,9.28409z" fill="#f2f2f2" fill-rule="nonzero" stroke="none" stroke-width="0" stroke-linecap="butt" stroke-linejoin="miter"/><path d="M176.14431,286.32586c0,1.50808 -1.02693,2.73061 -2.29372,2.73061c-1.26678,0 -2.29372,-1.22254 -2.29372,-2.73061c0,-1.50808 1.02693,-2.73061 2.29372,-2.73061c1.26678,0 2.29372,1.22254 2.29372,2.73061z" fill="#000000" fill-rule="nonzero" stroke="none" stroke-width="0" stroke-linecap="butt" stroke-linejoin="miter"/><path d="M185.75606,286.54432c0,1.50808 -1.02693,2.73061 -2.29372,2.73061c-1.26678,0 -2.29372,-1.22254 -2.29372,-2.73061c0,-1.50808 1.02693,-2.73061 2.29372,-2.73061c1.26678,0 2.29372,1.22254 2.29372,2.73061z" fill="#000000" fill-rule="nonzero" stroke="none" stroke-width="0" stroke-linecap="butt" stroke-linejoin="miter"/><path d="M178.32881,298.88667l-3.50543,-7.31805h7.31805z" fill="#ff9e00" fill-rule="nonzero" stroke="none" stroke-width="0" stroke-linecap="round" stroke-linejoin="miter"/><g fill-rule="nonzero" stroke="#000000" stroke-width="1" stroke-linejoin="miter"><path d="M196.56283,294.23249c-0.05195,-0.33853 0.05953,-1.23942 0.36479,-1.75101c0.6184,-1.03631 1.34302,-2.08487 2.33468,-2.77243c1.21578,-0.84224 2.595,-1.38242 4.01273,-1.67805c1.15742,-0.24135 2.40326,-0.16839 3.57498,0.07296c1.01092,0.22997 2.04226,0.64058 2.84539,1.31326c1.00946,0.84574 2.26055,2.7412 2.40764,3.13722c0.11907,0.32364 -1.15713,-1.05907 -1.82397,-1.45917c-0.8291,-0.49699 -1.65266,-0.96101 -2.55355,-1.16734c-0.97735,-0.26324 -2.02475,-0.30701 -2.99131,-0.21888c-1.09175,0.09952 -2.21503,0.33182 -3.21018,0.72959c-1.11072,0.44446 -2.16016,1.06082 -3.13722,1.75101c-0.51246,0.36188 -0.84545,0.88222 -1.2403,1.31326c-0.21304,0.24981 -0.55536,0.90323 -0.51071,0.65663z" fill="#009933" stroke-linecap="round"/><g stroke-linecap="round"><path d="M193.57062,279.14259c0,0 -0.16602,0.10871 -0.11338,0.11732c0.20189,0.03315 0.42214,-0.08851 0.62245,-0.03379c0.42465,0.11571 0.87518,0.24628 1.2091,0.53295c0.39459,0.33876 0.75346,0.77765 0.89885,1.27669c0.11723,0.40273 -0.06969,0.83984 -0.16308,1.24888c-0.04348,0.19098 -0.14869,0.36409 -0.24459,0.53493c-0.13585,0.24149 -0.26609,0.49238 -0.44943,0.69999c-0.13824,0.15663 -0.30835,0.2968 -0.50114,0.37784c-0.20023,0.08422 -0.42853,0.12931 -0.64431,0.1034c-0.19462,-0.0232 -0.42765,-0.08084 -0.53496,-0.24459c-0.11402,-0.1735 -0.13349,-0.44055 -0.03379,-0.62245c0.21969,-0.40019 0.58723,-0.70531 0.92868,-1.00823c0.19311,-0.17148 0.42523,-0.30074 0.66223,-0.4037c0.21035,-0.09111 0.43746,-0.15771 0.6662,-0.173c0.24715,-0.01655 0.50018,0.01649 0.73974,0.07955c0.25944,0.06806 0.51322,0.17259 0.74377,0.31022c0.22457,0.13421 0.42748,0.30809 0.6085,0.49714c0.20493,0.21429 0.41426,0.43886 0.5429,0.70598c0.10848,0.22527 0.14314,0.48579 0.15114,0.7358c0.00855,0.27158 -0.0448,0.54357 -0.10141,0.80937c-0.05055,0.2377 -0.1125,0.47765 -0.21876,0.696c-0.11116,0.22816 -0.2365,0.46346 -0.42757,0.63042c-0.20703,0.18088 -0.46054,0.33827 -0.7318,0.38181c-0.24097,0.03867 -0.51497,-0.01319 -0.71788,-0.14916c-0.18593,-0.12482 -0.38391,-0.34854 -0.35598,-0.57074c0.04926,-0.39228 0.28404,-0.76359 0.55881,-1.04801c0.16877,-0.17487 0.44662,-0.21508 0.68806,-0.2426c0.24625,-0.02816 0.49717,0.02898 0.73977,0.07955c0.23779,0.04932 0.46837,0.13433 0.69603,0.21873c0.22909,0.08487 0.47403,0.14837 0.67417,0.28836c0.20487,0.14332 0.40133,0.32315 0.51704,0.54488c0.19337,0.37066 0.40241,0.77532 0.38975,1.19317c-0.0134,0.43784 -0.22798,0.8617 -0.46335,1.23099c-0.13048,0.20493 -0.37708,0.31311 -0.5926,0.42555c-0.18514,0.0966 -0.3889,0.21733 -0.5966,0.19489c-0.19918,-0.0213 -0.40475,-0.14586 -0.51307,-0.31422c-0.11749,-0.18283 -0.13162,-0.42894 -0.1034,-0.64431c0.02845,-0.21803 0.1179,-0.4423 0.26647,-0.60454c0.13923,-0.15202 0.34527,-0.25369 0.54885,-0.28635c0.19331,-0.03102 0.39541,0.03645 0.57871,0.10538c0.23198,0.08729 0.44916,0.21581 0.65228,0.35796c0.19608,0.13719 0.38884,0.28892 0.5389,0.47528c0.1294,0.16057 0.21537,0.35522 0.28638,0.54885c0.0673,0.18391 0.13953,0.37944 0.12528,0.57471c-0.01771,0.24222 -0.21876,0.69603 -0.21876,0.69603" fill="none"/><path d="M192.48978,277.34981c0.52813,0.166 0.93568,0.54246 1.16713,1.01687c0.2318,0.4742 0.28754,1.04634 0.11256,1.60317c-0.17501,0.55682 -0.54801,0.99419 -1.00943,1.25051c-0.46124,0.25673 -1.01086,0.33237 -1.53902,0.16638c-0.52813,-0.16597 -0.93565,-0.54246 -1.16711,-1.01687c-0.23183,-0.4742 -0.28757,-1.04632 -0.11256,-1.60314c0.17498,-0.55682 0.54801,-0.99419 1.00943,-1.25054c0.46122,-0.2567 1.01086,-0.33237 1.53899,-0.16638z" fill="#ffff00"/></g><g><path d="M208.16326,289.41722c0,0 0.08376,-0.98669 0.21888,-1.45917c0.06304,-0.22034 0.20925,-0.41528 0.36479,-0.58367c0.14183,-0.15351 0.32627,-0.26645 0.51071,-0.36479c0.18327,-0.09776 0.38084,-0.26236 0.58367,-0.21888c0.20166,0.04319 0.3683,0.24368 0.43775,0.43775c0.06595,0.18444 0.10594,0.504 -0.07296,0.58367c-0.37734,0.16781 -0.84253,0.11148 -1.2403,0c-0.24864,-0.06975 -0.43104,-0.30234 -0.58367,-0.51071c-0.12286,-0.16751 -0.16839,-0.3823 -0.21888,-0.58367c-0.04757,-0.18998 -0.08522,-0.38814 -0.07296,-0.58367c0.01255,-0.19991 0.05632,-0.40448 0.14592,-0.58367c0.10856,-0.21742 0.27257,-0.40565 0.43775,-0.58367c0.15234,-0.16401 0.33007,-0.30526 0.51071,-0.43775c0.18473,-0.13541 0.37355,-0.27287 0.58367,-0.36479c0.18356,-0.08025 0.38376,-0.13337 0.58367,-0.14592c0.19553,-0.01226 0.39777,0.01109 0.58367,0.07296c0.1859,0.06187 0.37209,0.15321 0.51071,0.29183c0.13862,0.13862 0.26586,0.31664 0.29183,0.51071c0.02656,0.19845 0.00292,0.44972 -0.14592,0.58367c-0.14563,0.13103 -0.38902,0.09572 -0.58367,0.07296c-0.2288,-0.02685 -0.4611,-0.0966 -0.65663,-0.21888c-0.20399,-0.12753 -0.39952,-0.29738 -0.51071,-0.51071c-0.18853,-0.361 -0.36479,-0.75994 -0.36479,-1.16734c0,-0.47744 0.16635,-0.95197 0.36479,-1.38622c0.19611,-0.429 0.46898,-0.83377 0.80255,-1.16734c0.14679,-0.14679 0.37939,-0.18269 0.58367,-0.21888c0.21537,-0.03794 0.44125,-0.03794 0.65663,0c0.20428,0.03619 0.43075,0.0785 0.58367,0.21888c0.16022,0.14679 0.27841,0.36684 0.29183,0.58367c0.01284,0.2072 -0.05808,0.45234 -0.21888,0.58367c-0.15146,0.12403 -0.38785,0.07296 -0.58367,0.07296c-0.22004,0 -0.45993,0.02539 -0.65663,-0.07296c-0.21508,-0.10769 -0.37734,-0.31051 -0.51071,-0.51071c-0.11527,-0.17277 -0.18269,-0.37939 -0.21888,-0.58367c-0.03794,-0.21537 -0.03794,-0.44125 0,-0.65663c0.03619,-0.20428 0.11703,-0.40273 0.21888,-0.58367c0.11907,-0.21187 0.27257,-0.40565 0.43775,-0.58367c0.15234,-0.16401 0.31314,-0.3324 0.51071,-0.43775c0.17685,-0.09426 0.39544,-0.07734 0.58367,-0.14592c0.0823,-0.03006 0.21888,-0.14592 0.21888,-0.14592" fill="none" stroke-linecap="round"/><path d="M212.97854,276.50352c0.52326,0 0.99749,0.21654 1.34098,0.56674c0.34349,0.34991 0.55595,0.83319 0.55595,1.36666c0,0.53347 -0.21246,1.01675 -0.55595,1.36666c-0.34349,0.3502 -0.81772,0.56674 -1.34098,0.56674c-0.52326,0 -0.99749,-0.21654 -1.34098,-0.56674c-0.34349,-0.34991 -0.55595,-0.83319 -0.55595,-1.36666c0,-0.53347 0.21246,-1.01675 0.55595,-1.36666c0.34349,-0.3502 0.81772,-0.56674 1.34098,-0.56674z" fill="#ffff00" stroke-linecap="butt"/></g></g><g fill-rule="evenodd"><g><path d="M186.06251,300.75162c0.20339,0.95825 0.30294,1.93636 0.29675,2.91673c0.05464,1.49653 -0.19922,2.98809 -0.74531,4.37859c-2.36015,0 -4.77553,-2.41068 -5.12054,-2.76913c0.01048,-0.06749 0.01048,-0.13631 0,-0.20379v-2.15063c1.78558,-0.89974 3.65012,-1.62682 5.56911,-2.17176z" fill="#14e148" stroke="none" stroke-width="1" stroke-linecap="butt" stroke-linejoin="miter"/><path d="M180.43818,302.24861c0.01048,-0.06749 0.01048,-0.13625 0,-0.20379c0.34502,-0.35845 2.76728,-2.76913 5.12054,-2.76913c0.20431,0.47357 0.35706,0.9685 0.45545,1.47593c-1.90244,0.54783 -3.75071,1.27485 -5.52078,2.17176z" fill="#acff74" stroke="none" stroke-width="1" stroke-linecap="butt" stroke-linejoin="miter"/><path d="M186.35926,303.66834c0.04567,1.50371 -0.22006,3.00042 -0.77981,4.39265c-2.53958,0 -5.16887,-2.81133 -5.16887,-2.81133v-3.16265c0,0 2.62929,-2.81133 5.16887,-2.81133c0.55975,1.39224 0.82548,2.88894 0.77981,4.39265z" fill="none" stroke="#149948" stroke-width="0.96" stroke-linecap="butt" stroke-linejoin="miter"/><g fill="none" stroke="#00b82b" stroke-width="0.768" stroke-linecap="round" stroke-linejoin="round"><path d="M183.39872,306.26881c-0.68466,-0.36748 -1.33187,-0.80302 -1.93231,-1.30026"/><path d="M184.71681,306.87318c0,0 -0.22081,-0.07727 -0.56589,-0.21786"/></g></g><g><path d="M175.61438,302.9163c-1.73668,-0.98366 -3.59287,-1.73037 -5.52084,-2.2209c0.1036,-0.48248 0.25386,-0.95333 0.44857,-1.40566c2.36015,0 4.77553,2.41068 5.12054,2.76913c-0.01048,0.06749 -0.01048,0.13631 0,0.20379z" fill="#acff74" stroke="none" stroke-width="1" stroke-linecap="butt" stroke-linejoin="miter"/><path d="M175.66954,305.08806c-0.01042,0.06749 -0.01042,0.13625 0,0.20379c-0.34502,0.35845 -2.76728,2.76913 -5.12054,2.76913c-0.55032,-1.39432 -0.80661,-2.89091 -0.7522,-4.39265c0.00845,-1.00079 0.12415,-1.99771 0.34508,-2.97292c1.92791,0.49053 3.78411,1.23723 5.52078,2.2209z" fill="#14e148" stroke="none" stroke-width="1" stroke-linecap="butt" stroke-linejoin="miter"/><path d="M170.57661,299.27567c2.53958,0 5.16887,2.81133 5.16887,2.81133v3.16265c0,0 -2.62929,2.81133 -5.16887,2.81133c-0.55975,-1.39224 -0.82548,-2.88894 -0.77981,-4.39265c-0.04567,-1.50371 0.22006,-3.00042 0.77981,-4.39265z" fill="none" stroke="#149948" stroke-width="0.96" stroke-linecap="butt" stroke-linejoin="miter"/><g fill="none" stroke="#00b82b" stroke-width="0.768" stroke-linecap="round" stroke-linejoin="round"><path d="M174.53782,305.05992c-0.16918,0.15726 -0.34658,0.30503 -0.53139,0.44278"/><path d="M173.37844,305.92443c-0.63372,0.38467 -1.30426,0.7026 -2.0013,0.94876"/></g></g><g stroke-linecap="butt" stroke-linejoin="miter"><path d="M180.4589,305.29186c-0.08531,0.25201 -0.31799,0.42125 -0.57972,0.42171h-3.60231c-0.26173,-0.00046 -0.49441,-0.1697 -0.57972,-0.42171l0.04833,-0.0422v-2.28416h4.66509v2.28416z" fill="#14e148" stroke="none" stroke-width="1"/><path d="M175.69715,302.04481c0.08531,-0.25201 0.31799,-0.42125 0.57972,-0.42171h3.60231c0.26173,0.00046 0.49441,0.1697 0.57972,0.42171l-0.04833,0.0422v0.8785h-4.66509v-0.8785z" fill="#acff74" stroke="none" stroke-width="1"/><path d="M176.19748,305.71356c-0.29537,0 -0.53481,0 -0.53481,0v-4.09043c0,0 0.23944,0 0.53481,0h3.768c0.29537,0 0.53481,0 0.53481,0v4.09043c0,0 -0.23944,0 -0.53481,0z" fill="none" stroke="#149948" stroke-width="0.96"/></g></g></g><path d="M139.58844,376.03887v-48.49923h80.82313v48.49923z" fill-opacity="0.50196" fill="#ffffff" fill-rule="nonzero" stroke="none" stroke-width="NaN" stroke-linecap="butt" stroke-linejoin="miter"/><path d="M207.50001,347.11627l-33,28l-22,-19" data-paper-data="{&quot;index&quot;:null}" fill="none" fill-rule="nonzero" stroke="#000000" stroke-width="3.5" stroke-linecap="round" stroke-linejoin="miter"/><text transform="translate(180,342.70755) scale(0.33272,0.33272)" font-size="40" xml:space="preserve" fill="#000000" fill-rule="nonzero" stroke="none" stroke-width="1" stroke-linecap="butt" stroke-linejoin="miter" stroke-miterlimit="10" stroke-dasharray="" stroke-dashoffset="0" font-family="Playful" font-weight="normal" text-anchor="middle" style="mix-blend-mode: normal"><tspan x="0" dy="0">Веселун</tspan></text></g></g></svg>