<svg version="1.1" xmlns="http://www.w3.org/2000/svg" xmlns:xlink="http://www.w3.org/1999/xlink" width="312.4085" height="461.12825" viewBox="0,0,312.4085,461.12825"><g transform="translate(-12.33875,-60.54)"><g data-paper-data="{&quot;isPaintingLayer&quot;:true}" stroke-miterlimit="10" stroke-dasharray="" stroke-dashoffset="0" style="mix-blend-mode: normal"><g data-paper-data="{&quot;index&quot;:null}" fill-rule="nonzero" stroke="#000000" stroke-width="2" stroke-linecap="butt" stroke-linejoin="miter"><path d="M180.00006,409.48729c77.5818,0 140.47426,14.90342 140.47426,33.28773c0,18.38429 -62.89247,33.28773 -140.47426,33.28773c-77.5818,0 -140.47426,-14.90342 -140.47426,-33.28773c0,-18.38429 62.89247,-33.28773 140.47426,-33.28773z" fill="#ff0000"/><path d="M251.23582,520.66825c-13.97207,0 -25.29868,-11.32661 -25.29868,-25.29868c0,-13.97207 11.32661,-25.29868 25.29868,-25.29868c13.97207,0 25.29868,11.32661 25.29868,25.29868c0,13.97207 -11.32661,25.29868 -25.29868,25.29868z" fill="#000000"/><path d="M108.76429,520.66825c-13.97207,0 -25.29868,-11.32661 -25.29868,-25.29868c0,-13.97207 11.32661,-25.29868 25.29868,-25.29868c13.97207,0 25.29868,11.32661 25.29868,25.29868c0,13.97207 -11.32661,25.29868 -25.29868,25.29868z" fill="#000000"/></g><g fill="#ffc266" fill-rule="nonzero" stroke="none" stroke-linecap="butt" stroke-linejoin="miter"><path d="M200.50002,413.75006v-54h13v54z" stroke-width="NaN"/><path d="M230.50002,427.75006c0,4.40937 -12.49451,-7.61129 -16.49874,-4.78885c-3.76963,2.65708 -0.87727,14.28885 -6.50126,14.28885c-5.12943,0 -4.82932,-10.3574 -8.47629,-12.61207c-4.59908,-2.8433 -15.52371,6.88648 -15.52371,2.11207c0,-8.56041 12.40202,-20.5 24,-20.5c11.59798,0 23,12.93959 23,21.5z" stroke-width="0"/></g><g fill="#ffc266" fill-rule="nonzero" stroke="none" stroke-linecap="butt" stroke-linejoin="miter"><path d="M173.50002,432.75006v-54h13v54z" stroke-width="NaN"/><path d="M203.50002,446.75006c0,4.40937 -12.49451,-7.61129 -16.49874,-4.78885c-3.76963,2.65708 -0.87727,14.28885 -6.50126,14.28885c-5.12942,0 -4.82932,-10.35739 -8.47629,-12.61207c-4.59908,-2.8433 -15.52371,6.88648 -15.52371,2.11207c0,-8.56041 12.40202,-20.5 24,-20.5c11.59798,0 23,12.93959 23,21.5z" stroke-width="0"/></g><path d="M282.85294,222.64043c17.79814,0 41.89431,0 41.89431,0c0,0 -24.09617,64.45278 -41.89431,64.45278c-17.79814,0 -32.22639,-14.42825 -32.22639,-32.22639c0,-17.79814 14.42825,-32.22639 32.22639,-32.22639z" fill="#e5e5e5" fill-rule="nonzero" stroke="none" stroke-width="NaN" stroke-linecap="butt" stroke-linejoin="miter"/><path d="M138.09273,302.90486c15.92438,-5.61046 73.80344,-52.84435 111.68638,-50.60764c42.94975,2.53587 65.33373,56.10359 65.33373,77.21215c0,18.25871 -24.16199,56.47541 -68.09069,69.27342c-51.65044,15.04762 -126.03802,2.60414 -153.00728,-6.07003c-13.14216,-4.22693 -43.42474,-21.98488 -58.70654,-52.99257c-7.73537,-15.69552 -4.94078,-32.67443 -8.40911,-48.70215c-5.33617,-24.65933 -14.56047,-45.69997 -14.56047,-45.69997c0,0 84.40814,72.15369 125.75398,57.58679z" fill="#f8f8f8" fill-rule="nonzero" stroke="none" stroke-width="0" stroke-linecap="butt" stroke-linejoin="miter"/><path d="M244.71616,172.50136c0,0 12.92491,16.58399 19.47396,46.41855c6.99378,31.86055 36.36101,69.8733 36.36101,69.8733h-100.50672c0,0 12.44401,-49.15651 11.21855,-71.28603c-1.1592,-20.93295 -18.38357,-58.10103 -18.38357,-58.10103z" fill="#ffffff" fill-rule="nonzero" stroke="none" stroke-width="0" stroke-linecap="round" stroke-linejoin="miter"/><path d="M229.15641,98.33185c24.73565,0 44.78783,17.21653 44.78783,38.45419c0,21.23766 -20.0522,38.45419 -44.78783,38.45419c-24.73565,0 -44.78783,-17.21653 -44.78783,-38.45419c0,-21.23766 20.0522,-38.45419 44.78783,-38.45419z" fill="#f2f2f2" fill-rule="nonzero" stroke="none" stroke-width="0" stroke-linecap="butt" stroke-linejoin="miter"/><path d="M233.13831,166.34062l27.68581,-12.33897l-0.92285,33.5963z" fill="#ff9e00" fill-rule="nonzero" stroke="none" stroke-width="0" stroke-linecap="round" stroke-linejoin="miter"/><path d="M115.76451,337.38466c-34.58949,-16.63474 -80.51173,-107.74068 -80.51173,-107.74068c0,0 33.534,8.1318 63.6645,0.90973c12.55998,-3.01055 61.82902,-23.4036 84.00653,-12.75079c30.82918,14.80856 58.47286,77.62004 49.31505,98.22419c-15.74564,35.42612 -81.88485,37.99229 -116.47434,21.35755z" fill="#ffffff" fill-rule="nonzero" stroke="none" stroke-width="0" stroke-linecap="butt" stroke-linejoin="miter"/><path d="M105.99256,345.07748c-28.67277,-13.78928 -85.73978,-113.31108 -85.73978,-113.31108c0,0 46.79783,30.74081 71.77436,24.75412c10.41153,-2.49558 51.25284,-19.40029 69.63677,-10.5697c25.55569,12.27548 48.47077,64.34273 40.87945,81.42243c-13.05227,29.36629 -67.87802,31.49351 -96.55079,17.70423z" fill="#e5e5e5" fill-rule="nonzero" stroke="none" stroke-width="0" stroke-linecap="butt" stroke-linejoin="miter"/><g fill-rule="nonzero" stroke-linecap="butt" stroke-linejoin="miter"><path d="M217.00003,125.69c5.24695,0 9.50045,5.06368 9.50045,11.31006c0,6.24637 -4.2535,11.31006 -9.50045,11.31006c-5.24695,0 -9.50045,-5.06368 -9.50045,-11.31006c0,-6.24637 4.2535,-11.31006 9.50045,-11.31006z" fill="#00c0c0" stroke="none" stroke-width="0"/><path d="M216.65619,131.11881c2.93829,0 5.32025,2.83567 5.32025,6.33364c0,3.49798 -2.38197,6.33364 -5.32025,6.33364c-2.93829,0 -5.32025,-2.83567 -5.32025,-6.33364c0,-3.49798 2.38197,-6.33364 5.32025,-6.33364z" fill="#000000" stroke="#000000" stroke-width="2.5"/></g><g fill-rule="nonzero" stroke-linecap="butt" stroke-linejoin="miter"><path d="M254.00003,125.69c5.24695,0 9.50045,5.06368 9.50045,11.31006c0,6.24637 -4.2535,11.31006 -9.50045,11.31006c-5.24695,0 -9.50045,-5.06368 -9.50045,-11.31006c0,-6.24637 4.2535,-11.31006 9.50045,-11.31006z" fill="#00c0c0" stroke="none" stroke-width="0"/><path d="M253.65619,131.11881c2.9383,0 5.32025,2.83567 5.32025,6.33364c0,3.49798 -2.38197,6.33364 -5.32025,6.33364c-2.9383,0 -5.32025,-2.83567 -5.32025,-6.33364c0,-3.49798 2.38197,-6.33364 5.32025,-6.33364z" fill="#000000" stroke="#000000" stroke-width="2.5"/></g><g><path d="M234.616,64.212c0,-1.7629 1.4291,-3.192 3.192,-3.192c1.76289,0 3.192,1.4291 3.192,3.192c0,1.7629 -1.42911,3.192 -3.192,3.192c-1.76289,0 -3.192,-1.4291 -3.192,-3.192z" fill="#c9e2b3" fill-rule="nonzero" stroke="#149948" stroke-width="0.96" stroke-linecap="butt" stroke-linejoin="miter"/><g><path d="M270.244,99.408c5.604,3.672 8.94,11.316 4.188,15.6c-4.752,4.284 -16.14,5.28 -27.48,2.088c-6.3395,-1.7783 -12.1509,-5.0731 -16.932,-9.6z" fill="#c9e2b3" fill-rule="nonzero" stroke="#149948" stroke-width="0.96" stroke-linecap="butt" stroke-linejoin="miter"/><path d="M257.344,76.092c4.716,6.672 7.308,14.064 8.688,26.064c-2.7163,1.4749 -5.5959,2.6268 -8.58,3.432c-0.62,-6.5117 -1.7556,-12.9639 -3.396,-19.296c-2.94,-10.692 -11.88,-21.6 -16.248,-21.6c2.9584,-0.0207 5.907,0.3424 8.772,1.08c4.1691,2.7776 7.8133,6.2716 10.764,10.32z" fill="#ff7bd0" fill-rule="nonzero" stroke="none" stroke-width="1" stroke-linecap="butt" stroke-linejoin="miter"/><path d="M270.28,99.348c-1.3377,1.0139 -2.7451,1.9322 -4.212,2.748c-1.38,-12.048 -3.972,-19.392 -8.688,-26.064c-2.9668,-4.0301 -6.6231,-7.5036 -10.8,-10.26c22.152,5.808 24.12,33.228 23.7,33.576z" fill="#ffa1e2" fill-rule="nonzero" stroke="none" stroke-width="1" stroke-linecap="butt" stroke-linejoin="miter"/><path d="M254.056,86.172c1.6404,6.3321 2.776,12.7843 3.396,19.296c-6.4178,1.6254 -13.025,2.3802 -19.644,2.244c-3.9182,0.0216 -7.8339,-0.2028 -11.724,-0.672c0.1187,-6.5567 0.7607,-13.0935 1.92,-19.548c1.836,-10.32 7.536,-22.8 9.804,-22.8c4.392,0 13.308,10.908 16.248,21.48z" fill="#ffff4f" fill-rule="nonzero" stroke="none" stroke-width="1" stroke-linecap="butt" stroke-linejoin="miter"/><path d="M228.004,87.6c-1.1406,6.44 -1.7666,12.9606 -1.872,19.5c-7.992,-1.02 -14.964,-3.336 -20.724,-7.752c-0.552,-0.396 1.956,-34.656 32.4,-34.656c-2.268,0 -7.968,12.48 -9.804,22.908z" fill="#149948" fill-rule="nonzero" stroke="none" stroke-width="1" stroke-linecap="butt" stroke-linejoin="miter"/><path d="M270.292,99.348c-3.8239,2.8683 -8.1683,4.9672 -12.792,6.18c-6.4178,1.6254 -13.025,2.3802 -19.644,2.244c-3.9182,0.0216 -7.8339,-0.2028 -11.724,-0.672c-7.992,-1.02 -14.964,-3.336 -20.724,-7.752c-0.552,-0.396 1.956,-34.656 32.4,-34.656c30.432,0 32.94,34.26 32.484,34.656z" fill="none" fill-rule="evenodd" stroke="#149948" stroke-width="0.96" stroke-linecap="butt" stroke-linejoin="miter"/><path d="M274.24,109.344c0.168,1.68 -0.6,3.6 -3.024,4.884" fill="none" fill-rule="evenodd" stroke="#ffffff" stroke-width="1.272" stroke-linecap="round" stroke-linejoin="round"/><path d="M272.716,105.528c0.3652,0.4492 0.6679,0.9457 0.9,1.476" fill="none" fill-rule="evenodd" stroke="#ffffff" stroke-width="1.272" stroke-linecap="round" stroke-linejoin="round"/><path d="M209.392,97.62c0.204,-1.62 0.408,-2.544 0.408,-2.544" fill="none" fill-rule="evenodd" stroke="#047f30" stroke-width="1.92" stroke-linecap="round" stroke-linejoin="round"/><path d="M210.52,91.812c0.7903,-3.3372 2.0595,-6.5424 3.768,-9.516" fill="none" fill-rule="evenodd" stroke="#047f30" stroke-width="1.92" stroke-linecap="round" stroke-linejoin="round"/></g><path d="M243.496,100.596c-1.8483,-0.0454 -3.6055,-0.812 -4.896,-2.136c-0.5564,-0.4011 -0.83,-1.0883 -0.7012,-1.762c0.1287,-0.6738 0.6362,-1.2118 1.3013,-1.3795c0.6651,-0.1677 1.3671,0.0653 1.7999,0.5975c0.7778,0.8963 1.99,1.285 3.144,1.008c0.5599,-0.157 0.977,-0.6257 1.068,-1.2c0,-0.42 0.228,-1.692 -2.892,-2.544c-2.2536,-0.484 -3.976,-2.3066 -4.332,-4.584c-0.1686,-1.9878 0.9318,-3.8666 2.748,-4.692c2.0198,-0.8645 4.3411,-0.6383 6.156,0.6c0.5273,0.3473 0.8293,0.9495 0.7923,1.5798c-0.0371,0.6303 -0.4076,1.1929 -0.972,1.476c-0.5644,0.283 -1.237,0.2435 -1.7643,-0.1038c0,0 -1.524,-0.936 -2.604,-0.384c-0.336,0.168 -0.9,0.552 -0.84,1.2c0.06,0.648 0.54,1.2 1.74,1.536c5.616,1.392 5.76,4.992 5.568,6.372c-0.2739,1.9012 -1.5976,3.485 -3.42,4.092c-0.6092,0.2142 -1.2502,0.3237 -1.896,0.324z" fill="#ffa1e2" fill-rule="nonzero" stroke="#149948" stroke-width="0.636" stroke-linecap="butt" stroke-linejoin="miter"/></g><g fill="none" fill-rule="evenodd" stroke="#dd3627" stroke-linecap="butt" stroke-linejoin="miter"><path d="M234.50062,131.69203h5.71542" stroke-width="2.128"/><path d="M201.21805,134c0,-9.11547 7.27586,-16.505 16.25108,-16.505c8.97522,0 16.25108,7.38953 16.25108,16.505c0,9.11547 -7.27586,16.505 -16.25108,16.505c-8.97522,0 -16.25108,-7.38953 -16.25108,-16.505z" stroke-width="2.128"/><path d="M240.17014,134c0,-9.11547 7.27586,-16.505 16.25108,-16.505c8.97522,0 16.25108,7.38953 16.25108,16.505c0,9.11547 -7.27586,16.505 -16.25108,16.505c-8.97522,0 -16.25108,-7.38953 -16.25108,-16.505z" stroke-width="2.128"/><path d="M190.384,124.79163l10.4668,6.9004" stroke-width="2.56"/><path d="M281.09623,125.23463l-8.10258,6.45739" stroke-width="2.56"/></g><g fill-rule="nonzero" stroke-linecap="butt" stroke-linejoin="miter"><g><path d="M200.84815,453.626c0,-0.159 0,-0.478 0,-0.637c0,-1.911 0.59768,-3.663 1.79491,-5.415c2.39259,0 4.78331,-0.318 7.1759,-0.796c2.09469,-0.478 3.88772,-1.115 5.38286,-2.071c5.68264,1.752 11.06549,3.982 12.56063,7.008c-3.58795,1.592 -8.07335,2.548 -12.56063,2.866c-4.78331,0.16 -9.86826,-0.159 -14.35367,-0.955z" fill="#ffffff" stroke="#db20a5" stroke-width="0.848"/><path d="M209.52106,446.937c-2.09469,0.478 -4.78518,0.796 -7.17777,0.796c-6.28031,-2.229 -12.85853,-3.981 -19.7384,-5.574c-7.47567,-1.752 -14.65344,-2.866 -17.34394,-3.344l-0.29978,-0.159c0,-3.026 0.59768,-5.893 1.19723,-8.76c0,0 5.98054,-2.07 19.13885,-2.707c5.38286,-0.319 10.46594,-0.319 15.5509,0c0,0 1.19536,8.281 1.79491,10.83c0.59768,2.548 5.98054,4.777 12.26085,6.688c-1.19723,0.956 -2.99027,1.593 -5.38286,2.23z" fill="#ffc0ec" stroke="#db20a5" stroke-width="1.28"/><path d="M227.46454,451.715c0.2979,0.955 0.59768,1.752 0.59768,2.548c-2.99027,1.593 -7.17777,2.548 -11.3634,2.707c-5.38473,0.319 -10.76759,0 -15.85067,-0.796c-0.29978,-0.796 -0.29978,-1.752 -0.29978,-2.548c4.78518,0.796 9.87014,1.115 14.65344,0.955c4.78518,-0.318 8.97268,-1.274 12.56063,-2.866z" fill="#ffffff" stroke="#db20a5" stroke-width="0.848"/><path d="M201.14793,456.333c0,0 -12.86041,-2.07 -20.33608,-3.026c-7.47755,-0.955 -16.44835,-2.07 -16.44835,-2.07v-12.581l1.19536,0.159c2.69237,0.478 9.87014,1.752 17.34581,3.344c6.87799,1.434 13.45808,3.345 19.7384,5.415c-1.19723,1.752 -2.09469,3.663 -2.09469,5.415c0,1.115 0.29978,2.23 0.59955,3.344z" fill="#ff7bd0" stroke="#db20a5" stroke-width="1.28"/><g fill="#ffff4f" stroke="#db20a5" stroke-width="0.848"><path d="M184.3998,446.141c0,0 -3.88772,3.185 -15.5509,3.185c-11.66317,0 -15.5509,-3.185 -15.5509,-4.937c0,-1.752 2.69237,-2.708 5.98054,-1.752c5.08496,1.593 10.46782,3.026 16.15045,4.141"/><path d="M176.62435,446.459c-4.78518,0 -9.27058,-0.637 -13.75599,-1.592c-6.28031,-1.593 -9.87014,-4.3 -9.27058,-6.211c0.2979,-1.593 3.58795,-2.389 6.57822,-1.115c4.4854,2.07 9.27058,3.822 14.65344,5.574"/><path d="M171.54126,442.956c-4.78518,-1.115 -9.27058,-2.549 -13.15831,-4.46c-4.78518,-2.707 -5.08496,-5.415 -3.88772,-6.529c1.49513,-1.434 4.78331,-1.274 6.87799,0.318c3.28817,2.548 6.87799,4.937 10.46594,7.167"/><path d="M169.74635,438.656c-3.88772,-1.434 -7.17777,-3.026 -9.57036,-5.097c-3.88772,-3.026 -3.58795,-5.574 -1.79304,-6.529c1.79304,-0.956 5.08308,-0.797 6.57822,0.955c2.39259,2.708 4.78518,5.415 7.77545,8.122"/><path d="M171.83917,436.426c-3.58795,-2.867 -6.87799,-6.052 -9.27058,-9.396c-2.09281,-3.663 -0.59768,-5.734 2.69237,-5.734c2.69049,0 4.18563,1.911 6.28031,4.619c2.69049,2.707 5.68076,5.415 8.97081,7.963"/><path d="M176.92412,443.274c0,0 -7.77545,-2.07 -9.57036,-5.415c-1.79491,-3.822 3.88772,-4.459 6.58009,-2.707l4.18563,2.389c-5.38286,-3.345 -6.57822,-5.097 -6.28031,-6.53c0.29978,-1.752 4.1875,-2.867 7.77545,-0.318c2.39259,1.911 5.08496,4.459 8.6729,7.166c3.29005,1.911 4.1875,4.937 2.09281,7.326c-2.39259,2.548 -8.07335,3.663 -13.15831,2.708c-7.77545,-1.274 -10.16804,-5.097 -8.37313,-6.052c1.79491,-0.956 4.4854,0 4.4854,0"/></g><path d="M195.16552,447.256c0.82626,0 1.57383,0.178 2.1153,0.466c0.54147,0.289 0.87497,0.687 0.87497,1.126c0,0.44 -0.3335,0.838 -0.87497,1.126c-0.54147,0.288 -1.28904,0.467 -2.1153,0.467c-0.82438,0 -1.57195,-0.179 -2.11342,-0.467c-0.54147,-0.288 -0.87685,-0.686 -0.87685,-1.126c0,-0.439 0.33537,-0.837 0.87685,-1.126c0.54147,-0.288 1.28904,-0.466 2.11342,-0.466z" fill="#ffffff" stroke="#db20a5" stroke-width="0.848"/><path d="M208.32382,442.478c-5.08308,1.592 -9.56849,3.822 -13.15831,6.37c0.29978,-1.911 1.19723,-3.663 2.39259,-5.415c1.49513,-1.752 2.99027,-3.344 5.08496,-4.937" fill="none" stroke="#db20a5" stroke-width="1.024"/><path d="M191.57757,442.956c4.78518,-0.797 9.27058,-1.275 14.05576,-1.752" fill="none" stroke="#db20a5" stroke-width="1.024"/><path d="M228.362,454.263c-2.99214,1.593 -7.17777,2.548 -11.36527,2.707c-5.38286,0.319 -10.76572,0 -15.8488,-0.796c-0.29978,-0.796 -0.29978,-1.752 -0.29978,-2.548c0,-0.159 0,-0.478 0,-0.637c0,-1.911 0.59768,-3.663 1.79491,-5.415c2.39259,0 4.78331,-0.318 7.1759,-0.796c2.09469,-0.478 3.88772,-1.115 5.38286,-2.071c5.68264,1.752 11.06549,3.982 12.56063,7.008v0.159c0.29978,0.796 0.59955,1.752 0.59955,2.389z" fill="none" stroke="#db20a5" stroke-width="1.28"/><path d="M183.50234,430.852c4.1875,-0.637 8.6729,-0.956 12.86041,-1.115l0.89746,4.141l-9.57036,1.433z" fill="#ffffff" stroke="#ffffff" stroke-width="0.5"/><path d="M203.83842,431.17l0.29978,5.574c-3.58982,0.319 -7.17777,0.956 -10.16804,1.912c-4.1875,1.592 -6.28031,3.025 -9.57036,3.025c-3.29005,0 -6.57822,-2.548 -2.09281,-5.414c5.98054,-2.867 13.45621,-4.778 21.53144,-5.097z" fill="#8b49d4" stroke="#8b49d4" stroke-width="0.848"/><path d="M192.77293,452.352l2.39259,0.318" fill="none" stroke="#ffc0ec" stroke-width="1.28"/><path d="M181.40953,450.759l7.47567,1.115" fill="none" stroke="#ffc0ec" stroke-width="1.28"/></g><path d="M225.73896,452.406v4.3c0,0.159 -0.29978,0.318 -0.29978,0.477c-2.69237,1.115 -5.68264,1.911 -8.97268,2.23c-3.28817,0.318 -6.57822,0.478 -9.86826,0.478c-3.29005,0 -6.57822,-0.16 -9.86826,-0.478c-6.28031,-0.478 -11.66317,-0.956 -17.64371,-1.593l-4.78518,-0.477c-7.17777,-0.637 -14.05576,-1.593 -14.05576,-1.593c-0.59768,-0.159 -0.89746,-0.319 -0.89746,-0.637v-5.893c0,-0.159 0,-0.318 0.29978,-0.477c0.2979,-0.16 0.59768,-0.16 0.89558,-0.16c0,0 8.97268,1.115 16.44835,2.071c7.47755,1.115 20.33608,3.026 20.33608,3.026c5.08496,0.796 10.46782,1.114 15.5509,0.796c4.1875,-0.159 7.77545,-1.115 10.76572,-2.548c0.29978,-0.159 0.59768,-0.159 0.89746,-0.159c0.59768,0 1.19723,0.318 1.19723,0.637z" fill="#db20a5" stroke="none" stroke-width="1"/></g><g fill-rule="nonzero"><path d="M230.20076,431.583c0,-0.159 0,-0.477 0,-0.637c-0.28581,-1.752 0,-3.663 0.85564,-5.415c2.2811,-0.159 4.84622,-0.477 6.8433,-1.114c1.99529,-0.478 3.70656,-1.274 4.84622,-2.23c5.70186,1.593 11.11969,3.663 12.83097,6.53c-3.13674,1.752 -7.12911,2.866 -11.4055,3.344c-4.84622,0.319 -9.40842,0.159 -13.97062,-0.478z" fill="#ffffff" stroke="#db20a5" stroke-width="0.848" stroke-linecap="round" stroke-linejoin="round"/><path d="M237.89969,424.735c-2.2811,0.637 -4.5622,0.956 -6.8433,1.115c-6.27347,-1.911 -12.83097,-3.504 -19.67427,-4.778c-7.12732,-1.433 -14.25464,-2.389 -16.82155,-2.707l-0.28581,-0.159c-0.28402,-2.867 -0.28402,-5.893 0,-8.76c0,0 5.41784,-2.229 17.67897,-3.344c4.84622,-0.478 9.97825,-0.796 14.82626,-0.637c0,0 1.99529,8.281 3.13495,10.67c1.14144,2.389 6.55928,4.619 12.83097,6.211c-1.13966,0.956 -2.85093,1.752 -4.84622,2.389z" fill="#ffc0ec" stroke="#db20a5" stroke-width="1.28" stroke-linecap="round" stroke-linejoin="round"/><path d="M255.8609,428.876c0.57161,0.955 0.85564,1.752 0.85564,2.548c-2.85093,1.593 -6.55749,2.707 -10.54987,3.026c-5.13203,0.637 -10.26406,0.478 -15.39609,-0.159c-0.28402,-0.797 -0.56983,-1.752 -0.56983,-2.548c4.5622,0.477 9.40842,0.637 13.97062,0.318c4.27639,-0.478 8.26876,-1.592 11.4055,-3.344c0,0 0,0.159 0.28402,0.159z" fill="#ffffff" stroke="#db20a5" stroke-width="0.848" stroke-linecap="round" stroke-linejoin="round"/><path d="M258.142,435.75c0,0.159 0,0.319 -0.28402,0.478c-2.2811,1.115 -5.13203,2.07 -8.26876,2.548c-4.27639,0.637 -8.83859,0.955 -13.40079,0.955c-1.71127,0 -3.42076,0 -5.13203,-0.159c-5.98766,-0.318 -11.11969,-0.637 -16.53753,-0.955l-5.13203,-0.319c-6.55749,-0.478 -13.40079,-1.115 -13.40079,-1.115c-0.28402,-0.159 -0.85564,-0.318 -0.85564,-0.637l-0.85564,-5.892c0,-0.16 0,-0.319 0.28581,-0.478c0.28581,-0.159 0.56983,-0.159 0.85564,-0.159c0,0 8.83859,0.796 15.96592,1.433c7.12911,0.796 19.67427,2.23 19.67427,2.23c4.84622,0.637 9.97825,0.637 14.82626,0.159c3.99059,-0.319 7.41313,-1.274 9.97825,-2.867c0.28581,-0.159 0.57161,-0.159 0.85564,-0.159c0.56983,0 1.14144,0.318 1.14144,0.637z" fill="#db20a5" stroke="none" stroke-width="1" stroke-linecap="butt" stroke-linejoin="miter"/><path d="M231.05639,434.131c0,0 -12.54516,-1.592 -19.67427,-2.229c-7.41313,-0.796 -15.96592,-1.433 -15.96592,-1.433l-1.71127,-12.423l1.14144,0.16c2.56512,0.318 9.69423,1.274 16.82155,2.707c6.8433,1.274 13.40079,2.867 19.67248,4.778c-0.85385,1.752 -1.42546,3.663 -1.13966,5.415c0,0.955 0.28581,2.07 0.85564,3.025z" fill="#ff7bd0" stroke="#db20a5" stroke-width="1.28" stroke-linecap="round" stroke-linejoin="round"/><g fill="#ffff4f" stroke="#db20a5" stroke-width="0.848" stroke-linecap="butt" stroke-linejoin="miter"><path d="M214.01155,424.735c0,0 -3.13674,3.345 -14.25643,3.822c-11.11969,0.478 -15.11207,-2.707 -15.39609,-4.459c-0.28581,-1.752 2.27931,-2.707 5.70186,-1.911c5.13203,1.433 10.26406,2.548 15.96592,3.504"/><path d="M206.31262,425.372c-4.27639,0.159 -8.83859,-0.159 -13.11499,-1.115c-5.98766,-1.274 -9.98004,-3.822 -9.69423,-5.892c0.28402,-1.593 3.13495,-2.548 5.98766,-1.274c4.56041,1.911 9.40842,3.663 14.54045,5.096"/><path d="M201.18059,422.028c-4.84801,-0.797 -9.1244,-2.23 -13.11499,-3.982c-4.84801,-2.389 -5.41784,-5.096 -4.5622,-6.37c1.42546,-1.433 4.27639,-1.433 6.55749,0c3.42076,2.389 7.12732,4.618 10.83389,6.848"/><path d="M198.89949,417.887c-3.70656,-1.274 -7.12732,-2.867 -9.98004,-4.778c-3.99059,-2.866 -3.70656,-5.415 -2.2811,-6.529c1.42725,-1.115 4.5622,-0.956 6.27347,0.637c2.56691,2.707 5.41784,5.255 8.55279,7.803"/><path d="M200.61076,415.498c-3.99237,-2.867 -7.12911,-5.733 -9.98004,-8.918c-2.56512,-3.663 -1.13966,-5.893 1.99529,-6.052c2.2811,-0.159 4.27818,1.752 6.55928,4.3c2.85093,2.707 5.98588,5.255 9.40842,7.644"/><path d="M206.59842,422.187c0,0 -7.69894,-1.752 -9.69423,-5.096c-2.2811,-3.663 2.85093,-4.46 5.70186,-2.867l3.99237,2.389c-5.70364,-3.344 -6.8433,-4.937 -6.8433,-6.37c0.28402,-1.752 3.99059,-3.026 7.41313,-0.797c2.56512,1.911 5.13203,4.3 9.12261,6.848c3.42254,1.912 4.5622,4.778 2.85271,7.326c-1.99708,2.708 -7.41313,3.982 -12.26114,3.186c-7.41313,-0.956 -9.97825,-4.619 -8.55279,-5.734c1.42546,-1.115 4.27639,-0.159 4.27639,-0.159"/></g><path d="M224.21309,425.372c0.78597,0 1.4987,0.179 2.01494,0.467c0.51624,0.288 0.83599,0.686 0.83599,1.126c0,0.439 -0.31975,0.837 -0.83599,1.126c-0.51624,0.288 -1.22897,0.466 -2.01494,0.466c-0.78597,0 -1.4987,-0.178 -2.01494,-0.466c-0.51624,-0.289 -0.83599,-0.687 -0.83599,-1.126c0,-0.44 0.31975,-0.838 0.83599,-1.126c0.51624,-0.288 1.22897,-0.467 2.01494,-0.467z" fill="#ffffff" stroke="#db20a5" stroke-width="0.848" stroke-linecap="round" stroke-linejoin="round"/><path d="M235.90261,420.117c-4.5622,1.752 -8.55279,4.14 -11.68952,6.848c0.28581,-1.752 0.85564,-3.663 1.71127,-5.415c1.13966,-1.752 2.56512,-3.504 4.27639,-5.096" fill="none" stroke="#db20a5" stroke-width="1.024" stroke-linecap="round" stroke-linejoin="round"/><path d="M220.22072,421.231c4.27818,-0.955 8.84038,-1.751 13.40079,-2.229" fill="none" stroke="#db20a5" stroke-width="1.024" stroke-linecap="round" stroke-linejoin="round"/><path d="M245.88265,434.291c-5.13203,0.637 -10.26406,0.478 -15.39609,-0.16c-0.28581,-0.796 -0.57161,-1.751 -0.57161,-2.548c0,-0.159 0,-0.477 0,-0.637c0,-1.911 0.28581,-3.663 1.14144,-5.415c2.2811,-0.159 4.84622,-0.477 6.8433,-1.114c1.99529,-0.478 3.70656,-1.274 4.84622,-2.23c5.70186,1.593 11.11969,3.663 12.83097,6.53v0.159c0.56983,0.955 0.85564,1.752 0.85564,2.548c-2.56691,1.593 -6.27347,2.707 -10.54987,2.867z" fill="none" stroke="#db20a5" stroke-width="1.28" stroke-linecap="round" stroke-linejoin="round"/><path d="M210.8123,409.287c3.99237,-0.796 7.98296,-1.115 12.26114,-1.274l0.85385,4.141l-8.83859,1.433z" fill="#ffffff" stroke="#ffffff" stroke-width="0.5" stroke-linecap="round" stroke-linejoin="round"/><path d="M230.20076,409.128l1.13966,5.415c-3.42076,0.318 -6.55749,1.114 -9.40842,2.388c-3.70656,1.593 -5.70186,3.186 -8.83859,3.345c-3.70656,0.159 -6.55749,-2.23 -2.56512,-5.256c5.13203,-3.185 12.25935,-5.255 19.67248,-5.892z" fill="#8b49d4" stroke="#8b49d4" stroke-width="0.848" stroke-linecap="round" stroke-linejoin="round"/><path d="M224.78292,431.265l-2.2811,-0.319" fill="none" stroke="#ffc0ec" stroke-width="1.28" stroke-linecap="round" stroke-linejoin="round"/><path d="M218.79525,430.309l-7.12732,-0.796" fill="none" stroke="#ffc0ec" stroke-width="1.28" stroke-linecap="round" stroke-linejoin="round"/></g></g></g></svg>