<svg version="1.1" xmlns="http://www.w3.org/2000/svg" xmlns:xlink="http://www.w3.org/1999/xlink" width="310" height="471.7311" viewBox="0,0,310,471.7311"><g transform="translate(-25,-49.93715)"><g data-paper-data="{&quot;isPaintingLayer&quot;:true}" stroke-miterlimit="10" stroke-dasharray="" stroke-dashoffset="0" style="mix-blend-mode: normal"><g data-paper-data="{&quot;index&quot;:null}" fill-rule="nonzero" stroke="#000000" stroke-width="2" stroke-linecap="butt" stroke-linejoin="miter"><path d="M180.00006,409.48728c77.5818,0 140.47426,14.90342 140.47426,33.28773c0,18.38429 -62.89247,33.28773 -140.47426,33.28773c-77.5818,0 -140.47426,-14.90342 -140.47426,-33.28773c0,-18.38429 62.89247,-33.28773 140.47426,-33.28773z" fill="#ff0099"/><path d="M251.23582,520.66824c-13.97207,0 -25.29868,-11.32661 -25.29868,-25.29868c0,-13.97207 11.32661,-25.29868 25.29868,-25.29868c13.97207,0 25.29868,11.32661 25.29868,25.29868c0,13.97207 -11.32661,25.29868 -25.29868,25.29868z" fill="#000000"/><path d="M108.76429,520.66824c-13.97207,0 -25.29868,-11.32661 -25.29868,-25.29868c0,-13.97207 11.32661,-25.29868 25.29868,-25.29868c13.97207,0 25.29868,11.32661 25.29868,25.29868c0,13.97207 -11.32661,25.29868 -25.29868,25.29868z" fill="#000000"/></g><g fill="#ffc266" fill-rule="nonzero" stroke="none" stroke-linecap="butt" stroke-linejoin="miter"><g><path d="M150.99998,435.875v-54h13v54z" stroke-width="NaN"/><path d="M180.99998,449.875c0,4.40937 -12.49451,-7.61129 -16.49874,-4.78885c-3.76963,2.65708 -0.87727,14.28885 -6.50126,14.28885c-5.12943,0 -4.82932,-10.3574 -8.47629,-12.61207c-4.59908,-2.8433 -15.52371,6.88648 -15.52371,2.11207c0,-8.56041 12.40202,-20.5 24,-20.5c11.59798,0 23,12.93959 23,21.5z" stroke-width="0"/></g><g><path d="M195.99998,435.875v-54h13v54z" stroke-width="NaN"/><path d="M225.99998,449.875c0,4.40937 -12.49451,-7.61129 -16.49874,-4.78885c-3.76963,2.65708 -0.87727,14.28885 -6.50126,14.28885c-5.12942,0 -4.82932,-10.35739 -8.47629,-12.61207c-4.59908,-2.8433 -15.52371,6.88648 -15.52371,2.11207c0,-8.56041 12.40202,-20.5 24,-20.5c11.59798,0 23,12.93959 23,21.5z" stroke-width="0"/></g></g><path d="M85.33333,319.125l-60.33333,-136c0,0 46.46761,25.72992 65.82147,28.47029c18.24766,2.58374 48.51186,-12.47029 48.51186,-12.47029c0,0 1.09787,35.15291 -6.79841,52.70019c-9.72145,21.60322 -47.20159,67.29981 -47.20159,67.29981z" fill="#e5e5e5" fill-rule="nonzero" stroke="none" stroke-width="0" stroke-linecap="round" stroke-linejoin="miter"/><path d="M210,198.125c0,0 28.13112,14.85404 46.55068,12.47733c22.2029,-2.86489 78.44932,-28.47733 78.44932,-28.47733c0,0 -32.72196,68.7358 -44.6734,93.84101c-8.01067,16.82723 -20.06996,42.15899 -20.06996,42.15899c0,0 -38.31306,-53.18594 -48.63845,-74.09579c-9.32461,-18.88318 -11.61819,-45.90421 -11.61819,-45.90421z" fill="#e5e5e5" fill-rule="nonzero" stroke="none" stroke-width="0" stroke-linecap="round" stroke-linejoin="miter"/><path d="M272.90624,337.125c0,43.90664 -42.53295,79.5 -95,79.5c-52.46705,0 -95,-35.59336 -95,-79.5c0,-43.90664 42.53295,-79.5 95,-79.5c52.46705,0 95,35.59336 95,79.5z" fill="#f8f8f8" fill-rule="nonzero" stroke="none" stroke-width="0" stroke-linecap="butt" stroke-linejoin="miter"/><path d="M218,150.125c0,0 -12.9603,29.58263 -5.66426,63.14441c7.68387,35.34579 44.16426,79.85559 44.16426,79.85559h-157.5c0,0 30.24656,-42.01211 37.97617,-77.22475c7.23808,-32.97348 0.52383,-66.77525 0.52383,-66.77525z" fill="#ffffff" fill-rule="nonzero" stroke="none" stroke-width="0" stroke-linecap="round" stroke-linejoin="miter"/><path d="M227.40625,125.125c0,23.4721 -22.1619,42.5 -49.5,42.5c-27.3381,0 -49.5,-19.0279 -49.5,-42.5c0,-23.4721 22.1619,-42.5 49.5,-42.5c27.3381,0 49.5,19.0279 49.5,42.5z" fill="#f2f2f2" fill-rule="nonzero" stroke="none" stroke-width="0" stroke-linecap="butt" stroke-linejoin="miter"/><path d="M166.99998,121.625c0,6.90356 -4.70101,12.5 -10.5,12.5c-5.79899,0 -10.5,-5.59644 -10.5,-12.5c0,-6.90356 4.70101,-12.5 10.5,-12.5c5.79899,0 10.5,5.59644 10.5,12.5z" fill="#00c0c0" fill-rule="nonzero" stroke="none" stroke-width="0" stroke-linecap="butt" stroke-linejoin="miter"/><path d="M211,122.625c0,6.90356 -4.70101,12.5 -10.5,12.5c-5.79899,0 -10.5,-5.59644 -10.5,-12.5c0,-6.90356 4.70101,-12.5 10.5,-12.5c5.79899,0 10.5,5.59644 10.5,12.5z" fill="#00c0c0" fill-rule="nonzero" stroke="none" stroke-width="0" stroke-linecap="butt" stroke-linejoin="miter"/><path d="M162.75999,122.125c0,3.86599 -2.63257,7 -5.88,7c-3.24743,0 -5.88,-3.13401 -5.88,-7c0,-3.86599 2.63257,-7 5.88,-7c3.24743,0 5.88,3.13401 5.88,7z" fill="#000000" fill-rule="nonzero" stroke="#000000" stroke-width="2.5" stroke-linecap="butt" stroke-linejoin="miter"/><path d="M206.75998,123.125c0,3.86599 -2.63256,7 -5.88,7c-3.24743,0 -5.88,-3.13401 -5.88,-7c0,-3.86599 2.63256,-7 5.88,-7c3.24743,0 5.88,3.13401 5.88,7z" fill="#000000" fill-rule="nonzero" stroke="#000000" stroke-width="2.5" stroke-linecap="butt" stroke-linejoin="miter"/><path d="M177.00001,179.125l-16.04688,-33.5h33.5z" fill="#ff9e00" fill-rule="nonzero" stroke="none" stroke-width="0" stroke-linecap="round" stroke-linejoin="miter"/><path d="M201.8289,77.3793c-3.5789,2.3609 -11.2395,6.1673 -23.3528,6.1673c-12.1134,-0.0121 -19.762,-3.7582 -23.3529,-6.1673c0.1077,-0.6263 0.2154,-1.1925 0.3471,-1.8309c1.4962,-7.9018 4.1295,-19.2366 7.7205,-23.332c1.0544,-1.3408 2.7564,-1.9889 4.4287,-1.6864c1.693,0.3894 3.2239,1.2986 4.381,2.6018c1.7116,1.8671 3.9739,2.2887 6.4995,2.2887c2.5256,0 4.7879,-0.4216 6.4995,-2.2766c2.4179,-2.5657 5.9969,-4.1437 8.8097,-0.9155c2.8129,3.2282 5.0752,11.0336 6.6432,18.0682c0.407,1.8309 0.7661,3.6136 1.0893,5.2518c0.1197,0.6384 0.2274,1.2407 0.2872,1.8309z" fill="none" fill-rule="evenodd" stroke="#5e154d" stroke-width="0.96" stroke-linecap="round" stroke-linejoin="round"/><g><path d="M182.4979,102.4459c-1.3167,0.0964 -2.6453,0.0964 -3.9979,0.0964c-21.5455,0 -39.0811,-8.5162 -39.0811,-18.9957c0,-10.4796 17.5356,-18.9836 39.0811,-18.9836c11.1558,0 21.1624,2.3006 28.3442,5.9143c4.5246,4.3002 6.4756,10.1302 3.2558,16.3457c-4.6921,9.022 -17.8468,13.4909 -27.6021,15.6229z" fill="#fff2bb" fill-rule="nonzero" stroke="none" stroke-width="1" stroke-linecap="butt" stroke-linejoin="miter"/><g><path d="M217.5811,83.5466c0,9.8411 -15.3811,17.9236 -35.0832,18.8993c-1.3167,0.0964 -2.6453,0.0964 -3.9979,0.0964c-21.5455,0 -39.0811,-8.5162 -39.0811,-18.9957c0,-10.4796 17.5356,-18.9836 39.0811,-18.9836c11.1558,0 21.1624,2.3006 28.3442,5.9143c6.6552,3.4088 10.7369,8.0102 10.7369,13.0693z" fill="none" fill-rule="evenodd" stroke="#5e154d" stroke-width="0.96" stroke-linecap="round" stroke-linejoin="round"/><path d="M181.46658,102.482c10.03181,-2.1681 23.55936,-6.637 28.38446,-15.659c3.31106,-6.2155 1.30476,-12.0214 -3.34808,-16.3457c6.88075,3.4329 11.07815,8.0102 11.07815,13.0693c0,9.817 -15.81706,17.9236 -36.11452,18.9354z" fill="#ffffff" fill-rule="nonzero" stroke="none" stroke-width="1" stroke-linecap="butt" stroke-linejoin="miter"/><path d="M164.40635,98.0734c-1.04634,-0.1566 -2.04332,-0.3614 -3.01572,-0.5782" fill="none" fill-rule="evenodd" stroke="#efdc8f" stroke-width="1.92" stroke-linecap="round" stroke-linejoin="round"/><path d="M157.32867,96.375c-4.45232,-1.346 -8.62153,-3.4634 -12.30897,-6.2516" fill="none" fill-rule="evenodd" stroke="#efdc8f" stroke-width="1.92" stroke-linecap="round" stroke-linejoin="round"/><path d="M201.43168,77.3793c0.6893,3.7462 1.07092,6.348 1.07092,6.348c-2.41568,2.27 -5.32281,3.9786 -8.50554,4.9988c-5.34204,1.7225 -9.37942,2.2284 -16.60478,2.2284c-7.22535,0 -11.26273,-0.53 -16.60478,-2.2525c-3.18046,-1.0131 -6.08739,-2.7133 -8.50554,-4.9747c0,0 0.38162,-2.6018 1.09549,-6.348c3.68044,2.3609 11.55818,6.1673 24.01482,6.1673c12.48132,-0.0121 20.35905,-3.8064 24.03939,-6.1673z" fill="#5e154d" fill-rule="nonzero" stroke="#5e154d" stroke-width="0.96" stroke-linecap="round" stroke-linejoin="round"/><path d="M167.6195,50.53c1.693,0.3894 3.2239,1.2986 4.381,2.6018c1.7116,1.8671 3.9739,2.2887 6.4995,2.2887c2.5256,0 4.7879,-0.4216 6.4995,-2.2887c2.4179,-2.5657 6.1046,-4.0232 8.8097,-0.9154c0,0 -7.2895,24.2836 -20.8871,21.3566c-9.5039,-2.0478 -7.3494,-15.1412 -5.3026,-23.043z" fill="#ffffff" fill-rule="nonzero" stroke="none" stroke-width="1" stroke-linecap="butt" stroke-linejoin="miter"/><path d="M201.4938,75.5123c0.1197,0.6263 0.2274,1.2407 0.3351,1.8309c-3.5789,2.3609 -11.2395,6.1673 -23.3528,6.1673c-12.1134,-0.0121 -19.762,-3.7582 -23.3529,-6.1673c0.1077,-0.6264 0.2154,-1.1925 0.3471,-1.8309c1.4962,-7.9018 4.1295,-19.2366 7.7205,-23.3321c1.0544,-1.3407 2.7564,-1.9888 4.4287,-1.6863c-1.7715,9.2509 -4.1295,19.9834 5.3026,22.3925c11.1558,2.8186 16.8773,-13.25 18.7446,-22.1757c5.3624,1.2648 9.5757,23.1995 9.8271,24.8016z" fill="#fff2bb" fill-rule="nonzero" stroke="none" stroke-width="1" stroke-linecap="butt" stroke-linejoin="miter"/></g></g></g></g></svg>