<svg version="1.1" xmlns="http://www.w3.org/2000/svg" xmlns:xlink="http://www.w3.org/1999/xlink" width="86.74864" height="110.25989" viewBox="0,0,86.74864,110.25989"><g transform="translate(-136.62568,-269.87007)"><g data-paper-data="{&quot;isPaintingLayer&quot;:true}" stroke-miterlimit="10" stroke-dasharray="" stroke-dashoffset="0" style="mix-blend-mode: normal"><path d="M141.87568,378.87997c-2.20914,0 -4,-1.79086 -4,-4v-99.75989c0,-2.20914 1.79086,-4 4,-4h76.24864c2.20914,0 4,1.79086 4,4v99.75989c0,2.20914 -1.79086,4 -4,4z" fill="#00e6e6" fill-rule="nonzero" stroke="#000000" stroke-width="2.5" stroke-linecap="butt" stroke-linejoin="miter"/><g><g data-paper-data="{&quot;index&quot;:null}" fill-rule="nonzero" stroke="#000000" stroke-width="2" stroke-linecap="butt" stroke-linejoin="miter"><path d="M177.85968,348.55772c16.94767,0 30.68648,3.25564 30.68648,7.27167c0,4.01603 -13.7388,7.27167 -30.68648,7.27167c-16.94767,0 -30.68648,-3.25564 -30.68648,-7.27167c0,-4.01603 13.7388,-7.27167 30.68648,-7.27167z" fill="#ff0099"/><path d="M193.42107,372.8451c-3.05219,0 -5.52647,-2.47429 -5.52647,-5.52647c0,-3.05219 2.47429,-5.52647 5.52647,-5.52647c3.05219,0 5.52647,2.47429 5.52647,5.52647c0,3.05219 -2.47429,5.52647 -5.52647,5.52647z" fill="#000000"/><path d="M162.29829,372.8451c-3.05219,0 -5.52647,-2.47429 -5.52647,-5.52647c0,-3.05219 2.47429,-5.52647 5.52647,-5.52647c3.05219,0 5.52647,2.47429 5.52647,5.52647c0,3.05219 -2.47429,5.52647 -5.52647,5.52647z" fill="#000000"/></g><g fill="#ffc266" fill-rule="nonzero" stroke="none" stroke-linecap="butt" stroke-linejoin="miter"><path d="M171.52465,354.32209v-11.79625h2.83984v11.79625z" stroke-width="NaN"/><path d="M178.07812,357.38038c0,0.96322 -2.72941,-1.66268 -3.60413,-1.04612c-0.82347,0.58044 -0.19164,3.12139 -1.42019,3.12139c-1.12052,0 -1.05496,-2.26256 -1.85164,-2.7551c-1.00466,-0.62112 -3.39114,1.50435 -3.39114,0.46138c0,-1.87001 2.70921,-4.47821 5.24278,-4.47821c2.53357,0 5.02433,2.82664 5.02433,4.69666z" stroke-width="0"/></g><g fill="#ffc266" fill-rule="nonzero" stroke="none" stroke-linecap="butt" stroke-linejoin="miter"><path d="M181.35486,354.32209v-11.79625h2.83984v11.79625z" stroke-width="NaN"/><path d="M187.90833,357.38038c0,0.96322 -2.72941,-1.66268 -3.60413,-1.04612c-0.82347,0.58044 -0.19164,3.12139 -1.42019,3.12139c-1.12052,0 -1.05496,-2.26256 -1.85164,-2.7551c-1.00466,-0.62112 -3.39114,1.50435 -3.39114,0.46138c0,-1.87001 2.70921,-4.47821 5.24278,-4.47821c2.53357,0 5.02433,2.82664 5.02433,4.69666z" stroke-width="0"/></g><path d="M157.17983,328.81816l-13.17976,-29.70908c0,0 10.15081,5.62068 14.37864,6.21931c3.98618,0.56442 10.59737,-2.72412 10.59737,-2.72412c0,0 0.23983,7.67912 -1.48511,11.51231c-2.12364,4.7192 -10.31115,14.70158 -10.31115,14.70158z" fill="#e5e5e5" fill-rule="nonzero" stroke="none" stroke-width="0" stroke-linecap="round" stroke-linejoin="miter"/><path d="M184.41314,302.38579c0,0 6.14522,3.24485 10.16895,2.72566c4.8502,-0.62583 17.13718,-6.22085 17.13718,-6.22085c0,0 -7.14808,15.01527 -9.75886,20.49948c-1.74992,3.67589 -4.38426,9.20959 -4.38426,9.20959c0,0 -8.36945,-11.61842 -10.62503,-16.18616c-2.03695,-4.12501 -2.53798,-10.02773 -2.53798,-10.02773z" fill="#e5e5e5" fill-rule="nonzero" stroke="none" stroke-width="0" stroke-linecap="round" stroke-linejoin="miter"/><path d="M198.15496,332.75023c0,9.59137 -9.29128,17.3667 -20.75266,17.3667c-11.46138,0 -20.75266,-7.77534 -20.75266,-17.3667c0,-9.59137 9.29128,-17.3667 20.75266,-17.3667c11.46138,0 20.75266,7.77534 20.75266,17.3667z" fill="#f8f8f8" fill-rule="nonzero" stroke="none" stroke-width="0" stroke-linecap="butt" stroke-linejoin="miter"/><path d="M186.16075,291.90026c0,0 -2.83117,6.4623 -1.23735,13.79384c1.67853,7.72126 9.64764,17.44438 9.64764,17.44438h-34.40573c0,0 6.60733,-9.17751 8.29586,-16.86968c1.58115,-7.20303 0.11443,-14.58699 0.11443,-14.58699z" fill="#ffffff" fill-rule="nonzero" stroke="none" stroke-width="0" stroke-linecap="round" stroke-linejoin="miter"/><path d="M188.21553,286.43903c0,5.12746 -4.84125,9.28409 -10.81323,9.28409c-5.97198,0 -10.81323,-4.15663 -10.81323,-9.28409c0,-5.12746 4.84125,-9.28409 10.81323,-9.28409c5.97198,0 10.81323,4.15663 10.81323,9.28409z" fill="#f2f2f2" fill-rule="nonzero" stroke="none" stroke-width="0" stroke-linecap="butt" stroke-linejoin="miter"/><path d="M175.01984,285.67445c0,1.50808 -1.02693,2.73061 -2.29372,2.73061c-1.26678,0 -2.29372,-1.22254 -2.29372,-2.73061c0,-1.50808 1.02693,-2.73061 2.29372,-2.73061c1.26678,0 2.29372,1.22254 2.29372,2.73061z" fill="#000000" fill-rule="nonzero" stroke="none" stroke-width="0" stroke-linecap="butt" stroke-linejoin="miter"/><path d="M184.6316,285.89291c0,1.50808 -1.02693,2.73061 -2.29372,2.73061c-1.26678,0 -2.29372,-1.22254 -2.29372,-2.73061c0,-1.50808 1.02693,-2.73061 2.29372,-2.73061c1.26678,0 2.29372,1.22254 2.29372,2.73061z" fill="#000000" fill-rule="nonzero" stroke="none" stroke-width="0" stroke-linecap="butt" stroke-linejoin="miter"/><path d="M177.20433,298.23526l-3.50543,-7.31805h7.31805z" fill="#ff9e00" fill-rule="nonzero" stroke="none" stroke-width="0" stroke-linecap="round" stroke-linejoin="miter"/><g><path d="M200.36771,306.03002c-0.58669,0.04295 -1.17868,0.04295 -1.78137,0.04295c-9.60016,0 -17.4136,-3.79461 -17.4136,-8.46403c0,-4.66946 7.81344,-8.45864 17.4136,-8.45864c4.97076,0 9.42946,1.02509 12.62949,2.63527c2.01605,1.91607 2.88537,4.51377 1.45071,7.28325c-2.09069,4.01999 -7.9521,6.01122 -12.29883,6.96119z" fill="#fff2bb" fill-rule="nonzero" stroke="none" stroke-width="1" stroke-linecap="butt" stroke-linejoin="miter"/><g><path d="M215.99994,297.60895c0,4.38496 -6.85345,7.98632 -15.63223,8.42107c-0.58669,0.04295 -1.17868,0.04295 -1.78137,0.04295c-9.60016,0 -17.4136,-3.79461 -17.4136,-8.46403c0,-4.66946 7.81344,-8.45864 17.4136,-8.45864c4.97076,0 9.42946,1.02509 12.62949,2.63527c2.9654,1.51888 4.7841,3.56915 4.7841,5.82337z" fill="none" fill-rule="evenodd" stroke="#5e154d" stroke-width="0.96" stroke-linecap="round" stroke-linejoin="round"/><path d="M199.90818,306.04612c4.46993,-0.96605 10.49748,-2.95729 12.64743,-6.97727c1.47533,-2.76948 0.58137,-5.35645 -1.49182,-7.28325c3.0659,1.52962 4.93616,3.56915 4.93616,5.82337c0,4.37422 -7.0477,7.98632 -16.09176,8.43716z" fill="#ffffff" fill-rule="nonzero" stroke="none" stroke-width="1" stroke-linecap="butt" stroke-linejoin="miter"/><path d="M192.30655,304.08176c-0.46622,-0.06978 -0.91045,-0.16103 -1.34373,-0.25763" fill="none" fill-rule="evenodd" stroke="#efdc8f" stroke-width="1.92" stroke-linecap="round" stroke-linejoin="round"/><path d="M189.1529,303.32498c-1.98385,-0.59975 -3.84155,-1.54321 -5.48458,-2.78556" fill="none" fill-rule="evenodd" stroke="#efdc8f" stroke-width="1.92" stroke-linecap="round" stroke-linejoin="round"/><path d="M208.80414,294.86096c0.30714,1.66922 0.47718,2.82852 0.47718,2.82852c-1.07637,1.01146 -2.37172,1.77277 -3.78986,2.22734c-2.38028,0.7675 -4.17924,0.99292 -7.39869,0.99292c-3.21944,0 -5.0184,-0.23616 -7.39869,-1.00366c-1.41714,-0.45141 -2.71239,-1.20898 -3.78986,-2.21661c0,0 0.17004,-1.1593 0.48812,-2.82852c1.63992,1.05196 5.15005,2.748 10.70043,2.748c5.56138,-0.00539 9.0715,-1.69604 10.71137,-2.748z" fill="#5e154d" fill-rule="nonzero" stroke="#5e154d" stroke-width="0.96" stroke-linecap="round" stroke-linejoin="round"/><path d="M193.73825,282.89757c0.75436,0.17351 1.43649,0.57862 1.95207,1.1593c0.76265,0.83193 1.77067,1.01979 2.89602,1.01979c1.12535,0 2.13337,-0.18785 2.89602,-1.01979c1.07736,-1.14321 2.72006,-1.79264 3.92539,-0.40788c0,0 -3.24803,10.82019 -9.30679,9.51599c-4.23471,-0.91245 -3.27472,-6.74655 -2.36271,-10.26741z" fill="#ffffff" fill-rule="nonzero" stroke="none" stroke-width="1" stroke-linecap="butt" stroke-linejoin="miter"/><path d="M208.83182,294.02907c0.05334,0.27906 0.10132,0.55283 0.14931,0.8158c-1.59467,1.05196 -5.00805,2.748 -10.40545,2.748c-5.39744,-0.00539 -8.80547,-1.67456 -10.40549,-2.748c0.04799,-0.27911 0.09598,-0.53135 0.15466,-0.8158c0.66667,-3.52085 1.84001,-8.57137 3.44007,-10.39622c0.46982,-0.59738 1.22819,-0.88616 1.97332,-0.75137c-0.78934,4.12198 -1.84001,8.90412 2.36271,9.97756c4.97076,1.2559 7.52012,-5.90388 8.35214,-9.88096c2.38936,0.56356 4.2667,10.33714 4.37872,11.051z" fill="#fff2bb" fill-rule="nonzero" stroke="none" stroke-width="1" stroke-linecap="butt" stroke-linejoin="miter"/></g></g></g><path d="M139.58844,376.03887v-48.49923h80.82313v48.49923z" fill-opacity="0.50196" fill="#ffffff" fill-rule="nonzero" stroke="none" stroke-width="NaN" stroke-linecap="butt" stroke-linejoin="miter"/><path d="M207.50001,347.11627l-33,28l-22,-19" data-paper-data="{&quot;index&quot;:null}" fill="none" fill-rule="nonzero" stroke="#000000" stroke-width="3.5" stroke-linecap="round" stroke-linejoin="miter"/><text transform="translate(180,342.70755) scale(0.33272,0.33272)" font-size="40" xml:space="preserve" fill="#000000" fill-rule="nonzero" stroke="none" stroke-width="1" stroke-linecap="butt" stroke-linejoin="miter" stroke-miterlimit="10" stroke-dasharray="" stroke-dashoffset="0" font-family="Playful" font-weight="normal" text-anchor="middle" style="mix-blend-mode: normal"><tspan x="0" dy="0">У шляпі</tspan></text></g></g></svg>