<svg version="1.1" xmlns="http://www.w3.org/2000/svg" xmlns:xlink="http://www.w3.org/1999/xlink" width="86.74864" height="110.25989" viewBox="0,0,86.74864,110.25989"><g transform="translate(-136.62568,-269.87008)"><g data-paper-data="{&quot;isPaintingLayer&quot;:true}" stroke-miterlimit="10" stroke-dasharray="" stroke-dashoffset="0" style="mix-blend-mode: normal"><path d="M141.87568,378.87998c-2.20914,0 -4,-1.79086 -4,-4v-99.75989c0,-2.20914 1.79086,-4 4,-4h76.24864c2.20914,0 4,1.79086 4,4v99.75989c0,2.20914 -1.79086,4 -4,4z" fill="#00e6e6" fill-rule="nonzero" stroke="#000000" stroke-width="2.5" stroke-linecap="butt" stroke-linejoin="miter"/><g><g data-paper-data="{&quot;index&quot;:null}" fill-rule="nonzero" stroke="#000000" stroke-width="2" stroke-linecap="butt" stroke-linejoin="miter"><path d="M180.00003,351.62527c16.94767,0 30.68648,3.25564 30.68648,7.27167c0,4.01603 -13.7388,7.27167 -30.68648,7.27167c-16.94767,0 -30.68648,-3.25564 -30.68648,-7.27167c0,-4.01603 13.7388,-7.27167 30.68648,-7.27167z" fill="#ff0000"/><path d="M195.5614,375.91265c-3.05219,0 -5.52647,-2.47429 -5.52647,-5.52647c0,-3.05219 2.47429,-5.52647 5.52647,-5.52647c3.05219,0 5.52647,2.47429 5.52647,5.52647c0,3.05219 -2.47429,5.52647 -5.52647,5.52647z" fill="#000000"/><path d="M164.43863,375.91265c-3.05219,0 -5.52647,-2.47429 -5.52647,-5.52647c0,-3.05219 2.47429,-5.52647 5.52647,-5.52647c3.05219,0 5.52647,2.47429 5.52647,5.52647c0,3.05219 -2.47429,5.52647 -5.52647,5.52647z" fill="#000000"/></g><g fill="#ffc266" fill-rule="nonzero" stroke="none" stroke-linecap="butt" stroke-linejoin="miter"><path d="M173.66499,357.38964v-11.79625h2.83984v11.79625z" stroke-width="NaN"/><path d="M180.21845,360.44793c0,0.96322 -2.72941,-1.66268 -3.60413,-1.04612c-0.82347,0.58044 -0.19164,3.12139 -1.42019,3.12139c-1.12052,0 -1.05496,-2.26256 -1.85164,-2.7551c-1.00466,-0.62112 -3.39114,1.50435 -3.39114,0.46138c0,-1.87001 2.70921,-4.47821 5.24278,-4.47821c2.53357,0 5.02433,2.82664 5.02433,4.69666z" stroke-width="0"/></g><g fill="#ffc266" fill-rule="nonzero" stroke="none" stroke-linecap="butt" stroke-linejoin="miter"><path d="M183.4952,357.38964v-11.79625h2.83984v11.79625z" stroke-width="NaN"/><path d="M190.04867,360.44793c0,0.96322 -2.72941,-1.66268 -3.60413,-1.04612c-0.82347,0.58044 -0.19164,3.12139 -1.42019,3.12139c-1.12052,0 -1.05496,-2.26256 -1.85164,-2.7551c-1.00466,-0.62112 -3.39114,1.50435 -3.39114,0.46138c0,-1.87001 2.70921,-4.47821 5.24278,-4.47821c2.53357,0 5.02433,2.82664 5.02433,4.69666z" stroke-width="0"/></g><path d="M159.32017,331.8857l-13.17976,-29.70908c0,0 10.15081,5.62068 14.37864,6.21931c3.98618,0.56442 10.59737,-2.72412 10.59737,-2.72412c0,0 0.23983,7.67912 -1.48511,11.51231c-2.12364,4.7192 -10.31115,14.70158 -10.31115,14.70158z" fill="#e5e5e5" fill-rule="nonzero" stroke="none" stroke-width="0" stroke-linecap="round" stroke-linejoin="miter"/><path d="M186.55349,305.45336c0,0 6.14522,3.24485 10.16895,2.72566c4.8502,-0.62583 17.13718,-6.22085 17.13718,-6.22085c0,0 -7.14808,15.01527 -9.75886,20.49948c-1.74992,3.67589 -4.38426,9.20959 -4.38426,9.20959c0,0 -8.36945,-11.61842 -10.62503,-16.18616c-2.03695,-4.12501 -2.53798,-10.02773 -2.53798,-10.02773z" fill="#e5e5e5" fill-rule="nonzero" stroke="none" stroke-width="0" stroke-linecap="round" stroke-linejoin="miter"/><path d="M200.29528,335.81779c0,9.59137 -9.29128,17.3667 -20.75266,17.3667c-11.46138,0 -20.75266,-7.77534 -20.75266,-17.3667c0,-9.59137 9.29128,-17.3667 20.75266,-17.3667c11.46138,0 20.75266,7.77534 20.75266,17.3667z" fill="#f8f8f8" fill-rule="nonzero" stroke="none" stroke-width="0" stroke-linecap="butt" stroke-linejoin="miter"/><path d="M188.30109,294.96779c0,0 -2.83117,6.4623 -1.23735,13.79384c1.67853,7.72126 9.64764,17.44438 9.64764,17.44438h-34.40573c0,0 6.60733,-9.17751 8.29586,-16.86968c1.58115,-7.20303 0.11443,-14.58699 0.11443,-14.58699z" fill="#ffffff" fill-rule="nonzero" stroke="none" stroke-width="0" stroke-linecap="round" stroke-linejoin="miter"/><path d="M190.35587,289.50656c0,5.12746 -4.84125,9.28409 -10.81323,9.28409c-5.97198,0 -10.81323,-4.15663 -10.81323,-9.28409c0,-5.12746 4.84125,-9.28409 10.81323,-9.28409c5.97198,0 10.81323,4.15663 10.81323,9.28409z" fill="#f2f2f2" fill-rule="nonzero" stroke="none" stroke-width="0" stroke-linecap="butt" stroke-linejoin="miter"/><g fill-rule="nonzero" stroke-linecap="butt" stroke-linejoin="miter"><g><path d="M180.68649,364.61274c0,-0.05512 0,-0.16572 0,-0.22084c0,-0.66252 0.20721,-1.26992 0.62227,-1.87731c0.82948,0 1.65831,-0.11025 2.48779,-0.27596c0.7262,-0.16572 1.34783,-0.38656 1.86617,-0.71799c1.9701,0.6074 3.83627,1.38051 4.35461,2.42959c-1.2439,0.55193 -2.79893,0.88336 -4.35461,0.99361c-1.65831,0.05547 -3.4212,-0.05512 -4.97624,-0.33109z" fill="#ffffff" stroke="#db20a5" stroke-width="0.848"/><path d="M183.69328,362.29375c-0.7262,0.16572 -1.65896,0.27596 -2.48844,0.27596c-2.17731,-0.77277 -4.45789,-1.38016 -6.84306,-1.93244c-2.59172,-0.6074 -5.08016,-0.99361 -6.01292,-1.15932l-0.10393,-0.05512c0,-1.04908 0.20721,-2.04303 0.41506,-3.03698c0,0 2.07338,-0.71764 6.6352,-0.93848c1.86617,-0.11059 3.62841,-0.11059 5.3913,0c0,0 0.41441,2.87092 0.62227,3.75463c0.20721,0.88336 2.07338,1.65613 4.25068,2.31865c-0.41506,0.33143 -1.03669,0.55227 -1.86617,0.77311z" fill="#ffc0ec" stroke="#db20a5" stroke-width="1.28"/><path d="M189.91406,363.95022c0.10328,0.33109 0.20721,0.6074 0.20721,0.88336c-1.03669,0.55227 -2.48844,0.88336 -3.93955,0.93848c-1.86682,0.11059 -3.73299,0 -5.49523,-0.27596c-0.10393,-0.27596 -0.10393,-0.6074 -0.10393,-0.88336c1.65896,0.27596 3.42185,0.38656 5.08017,0.33109c1.65896,-0.11025 3.11071,-0.44168 4.35461,-0.99361z" fill="#ffffff" stroke="#db20a5" stroke-width="0.848"/><path d="M180.79042,365.55122c0,0 -4.45854,-0.71764 -7.05026,-1.04908c-2.59237,-0.33109 -5.70244,-0.71764 -5.70244,-0.71764v-4.36167l0.41442,0.05512c0.93341,0.16572 3.42185,0.6074 6.01357,1.15932c2.38451,0.49715 4.66575,1.15967 6.84305,1.87731c-0.41506,0.6074 -0.7262,1.26992 -0.7262,1.87731c0,0.38656 0.10393,0.77311 0.20786,1.15932z" fill="#ff7bd0" stroke="#db20a5" stroke-width="1.28"/><g fill="#ffff4f" stroke="#db20a5" stroke-width="0.848"><path d="M174.98404,362.01778c0,0 -1.34782,1.1042 -5.3913,1.1042c-4.04348,0 -5.3913,-1.1042 -5.3913,-1.7116c0,-0.6074 0.93341,-0.93883 2.07338,-0.6074c1.76289,0.55227 3.62906,1.04908 5.59916,1.43563"/><path d="M172.28839,362.12803c-1.65896,0 -3.214,-0.22084 -4.76903,-0.55193c-2.17731,-0.55227 -3.42185,-1.49076 -3.214,-2.15328c0.10328,-0.55227 1.2439,-0.82824 2.28059,-0.38656c1.55503,0.71764 3.21399,1.32504 5.08016,1.93244"/><path d="M170.52616,360.91358c-1.65896,-0.38656 -3.214,-0.88371 -4.56182,-1.54623c-1.65896,-0.93848 -1.76289,-1.87731 -1.34783,-2.26352c0.51834,-0.49715 1.65831,-0.44168 2.38451,0.11025c1.13997,0.88336 2.38451,1.7116 3.62841,2.48471"/><path d="M169.90389,359.42283c-1.34783,-0.49715 -2.48844,-1.04908 -3.31792,-1.76707c-1.34783,-1.04908 -1.2439,-1.93244 -0.62162,-2.26352c0.62162,-0.33143 1.76224,-0.27631 2.28059,0.33109c0.82948,0.93883 1.65896,1.87731 2.69565,2.8158"/><path d="M170.62944,358.64971c-1.2439,-0.99395 -2.38451,-2.09815 -3.214,-3.25748c-0.72555,-1.26992 -0.20721,-1.98791 0.93341,-1.98791c0.93276,0 1.45111,0.66252 2.17731,1.60135c0.93276,0.93848 1.96945,1.87731 3.11007,2.76067"/><path d="M172.39233,361.02383c0,0 -2.69565,-0.71764 -3.31792,-1.87731c-0.62227,-1.32504 1.34783,-1.54588 2.28123,-0.93848l1.4511,0.82824c-1.86617,-1.15967 -2.28058,-1.76707 -2.1773,-2.26387c0.10393,-0.6074 1.45175,-0.99395 2.69565,-0.11025c0.82948,0.66252 1.76289,1.54588 3.00679,2.48436c1.14062,0.66252 1.45175,1.7116 0.72555,2.53983c-0.82948,0.88336 -2.79893,1.26992 -4.56182,0.93883c-2.69565,-0.44168 -3.52513,-1.76707 -2.90286,-2.09815c0.62227,-0.33143 1.55503,0 1.55503,0"/></g><path d="M178.71639,362.40434c0.28645,0 0.54563,0.06171 0.73335,0.16156c0.18772,0.10019 0.30334,0.23817 0.30334,0.39037c0,0.15254 -0.11562,0.29052 -0.30334,0.39037c-0.18772,0.09985 -0.44689,0.1619 -0.73335,0.1619c-0.2858,0 -0.54498,-0.06206 -0.7327,-0.1619c-0.18772,-0.09985 -0.30399,-0.23783 -0.30399,-0.39037c0,-0.1522 0.11627,-0.29018 0.30399,-0.39037c0.18772,-0.09985 0.44689,-0.16156 0.7327,-0.16156z" fill="#ffffff" stroke="#db20a5" stroke-width="0.848"/><path d="M183.27821,360.74787c-1.76224,0.55193 -3.31728,1.32504 -4.56182,2.2084c0.10393,-0.66252 0.41506,-1.26992 0.82948,-1.87731c0.51834,-0.6074 1.03669,-1.15932 1.76289,-1.7116" fill="none" stroke="#db20a5" stroke-width="1.024"/><path d="M177.47248,360.91358c1.65896,-0.27631 3.214,-0.44203 4.87296,-0.6074" fill="none" stroke="#db20a5" stroke-width="1.024"/><path d="M190.2252,364.83358c-1.03734,0.55227 -2.48844,0.88336 -3.9402,0.93848c-1.86617,0.11059 -3.73234,0 -5.49458,-0.27596c-0.10393,-0.27596 -0.10393,-0.6074 -0.10393,-0.88336c0,-0.05512 0,-0.16572 0,-0.22084c0,-0.66252 0.20721,-1.26992 0.62227,-1.87731c0.82948,0 1.65831,-0.11025 2.48779,-0.27596c0.7262,-0.16572 1.34783,-0.38656 1.86617,-0.71799c1.9701,0.6074 3.83627,1.38051 4.35461,2.42959v0.05512c0.10393,0.27596 0.20786,0.6074 0.20786,0.82824z" fill="none" stroke="#db20a5" stroke-width="1.28"/><path d="M174.67291,356.71728c1.45175,-0.22084 3.00679,-0.33143 4.45854,-0.38656l0.31114,1.43563l-3.31792,0.4968z" fill="#ffffff" stroke="#ffffff" stroke-width="0.5"/><path d="M181.72318,356.82752l0.10393,1.93244c-1.24455,0.11059 -2.48844,0.33143 -3.52513,0.66287c-1.45175,0.55193 -2.17731,1.04873 -3.31792,1.04873c-1.14062,0 -2.28058,-0.88336 -0.72555,-1.87697c2.07338,-0.99395 4.6651,-1.65647 7.46468,-1.76707z" fill="#8b49d4" stroke="#8b49d4" stroke-width="0.848"/><path d="M178.71638,364.28131l-0.82948,-0.11025" fill="none" stroke="#ffc0ec" stroke-width="1.28"/><path d="M176.53908,364.00535l-2.59172,-0.38656" fill="none" stroke="#ffc0ec" stroke-width="1.28"/></g><path d="M189.31582,364.18978v1.49076c0,0.05512 -0.10393,0.11025 -0.10393,0.16537c-0.93341,0.38656 -1.9701,0.66252 -3.11072,0.77311c-1.13997,0.11025 -2.28059,0.16572 -3.4212,0.16572c-1.14062,0 -2.28058,-0.05547 -3.4212,-0.16572c-2.17731,-0.16572 -4.04348,-0.33143 -6.11685,-0.55227l-1.65896,-0.16537c-2.48844,-0.22084 -4.87296,-0.55227 -4.87296,-0.55227c-0.20721,-0.05512 -0.31114,-0.11059 -0.31114,-0.22084v-2.04303c0,-0.05512 0,-0.11025 0.10393,-0.16537c0.10328,-0.05547 0.20721,-0.05547 0.31049,-0.05547c0,0 3.11072,0.38656 5.70244,0.71799c2.59237,0.38656 7.05026,1.04908 7.05026,1.04908c1.76289,0.27596 3.62906,0.38621 5.3913,0.27596c1.45175,-0.05512 2.69565,-0.38656 3.73234,-0.88336c0.10393,-0.05512 0.20721,-0.05512 0.31114,-0.05512c0.20721,0 0.41506,0.11025 0.41506,0.22084z" fill="#db20a5" stroke="none" stroke-width="1"/></g><g fill-rule="nonzero"><path d="M194.77672,363.96007c0,-0.05512 0,-0.16537 0,-0.22084c-0.09909,-0.6074 0,-1.26992 0.29664,-1.87731c0.79083,-0.05512 1.68012,-0.16537 2.37249,-0.38621c0.69174,-0.16572 1.28502,-0.44168 1.68013,-0.77311c1.97676,0.55227 3.85506,1.26992 4.44833,2.26387c-1.08747,0.6074 -2.47157,0.99361 -3.95414,1.15932c-1.68012,0.11059 -3.26178,0.05512 -4.84344,-0.16572z" fill="#ffffff" stroke="#db20a5" stroke-width="0.848" stroke-linecap="round" stroke-linejoin="round"/><path d="M197.44585,361.58597c-0.79083,0.22084 -1.58166,0.33143 -2.37249,0.38656c-2.17493,-0.66252 -4.44833,-1.21479 -6.82082,-1.65647c-2.47095,-0.4968 -4.9419,-0.82824 -5.83182,-0.93848l-0.09909,-0.05512c-0.09847,-0.99395 -0.09847,-2.04303 0,-3.03698c0,0 1.8783,-0.77277 6.12908,-1.15932c1.68012,-0.16572 3.45933,-0.27596 5.14008,-0.22084c0,0 0.69174,2.87092 1.08685,3.69916c0.39572,0.82824 2.27402,1.60135 4.44833,2.15328c-0.3951,0.33143 -0.98838,0.6074 -1.68013,0.82824z" fill="#ffc0ec" stroke="#db20a5" stroke-width="1.28" stroke-linecap="round" stroke-linejoin="round"/><path d="M203.67277,363.02158c0.19817,0.33109 0.29664,0.6074 0.29664,0.88336c-0.98838,0.55227 -2.2734,0.93848 -3.65751,1.04908c-1.77921,0.22084 -3.55842,0.16572 -5.33763,-0.05512c-0.09847,-0.27631 -0.19755,-0.6074 -0.19755,-0.88336c1.58166,0.16537 3.26178,0.22084 4.84344,0.11025c1.48257,-0.16572 2.86668,-0.55193 3.95414,-1.15932c0,0 0,0.05512 0.09847,0.05512z" fill="#ffffff" stroke="#db20a5" stroke-width="0.848" stroke-linecap="round" stroke-linejoin="round"/><path d="M204.4636,365.40473c0,0.05512 0,0.11059 -0.09847,0.16572c-0.79083,0.38656 -1.77921,0.71764 -2.86668,0.88336c-1.48257,0.22084 -3.06423,0.33109 -4.64589,0.33109c-0.59328,0 -1.18593,0 -1.77921,-0.05512c-2.07585,-0.11025 -3.85506,-0.22084 -5.73335,-0.33109l-1.77921,-0.11059c-2.2734,-0.16572 -4.64589,-0.38656 -4.64589,-0.38656c-0.09847,-0.05512 -0.29664,-0.11025 -0.29664,-0.22084l-0.29664,-2.04268c0,-0.05547 0,-0.11059 0.09909,-0.16572c0.09909,-0.05512 0.19755,-0.05512 0.29664,-0.05512c0,0 3.06423,0.27596 5.53518,0.4968c2.47157,0.27596 6.82082,0.77311 6.82082,0.77311c1.68012,0.22084 3.45933,0.22084 5.14008,0.05512c1.38349,-0.11059 2.57004,-0.44168 3.45933,-0.99395c0.09909,-0.05512 0.19817,-0.05512 0.29664,-0.05512c0.19755,0 0.39572,0.11025 0.39572,0.22084z" fill="#db20a5" stroke="none" stroke-width="1" stroke-linecap="butt" stroke-linejoin="miter"/><path d="M195.07336,364.84344c0,0 -4.34925,-0.55193 -6.82082,-0.77277c-2.57004,-0.27596 -5.53518,-0.4968 -5.53518,-0.4968l-0.59328,-4.3069l0.39572,0.05547c0.88929,0.11025 3.36087,0.44168 5.83182,0.93848c2.37249,0.44168 4.64589,0.99395 6.8202,1.65647c-0.29602,0.6074 -0.49419,1.26992 -0.3951,1.87731c0,0.33109 0.09909,0.71764 0.29664,1.04873z" fill="#ff7bd0" stroke="#db20a5" stroke-width="1.28" stroke-linecap="round" stroke-linejoin="round"/><g fill="#ffff4f" stroke="#db20a5" stroke-width="0.848" stroke-linecap="butt" stroke-linejoin="miter"><path d="M189.16412,361.58597c0,0 -1.08747,1.15967 -4.94253,1.32504c-3.85506,0.16572 -5.23917,-0.93848 -5.33763,-1.54588c-0.09909,-0.6074 0.79021,-0.93848 1.97676,-0.66252c1.77921,0.4968 3.55842,0.88336 5.53518,1.21479"/><path d="M186.495,361.80681c-1.48257,0.05512 -3.06423,-0.05512 -4.5468,-0.38656c-2.07585,-0.44168 -3.45995,-1.32504 -3.36087,-2.04268c0.09847,-0.55227 1.08685,-0.88336 2.07585,-0.44168c1.58104,0.66252 3.26178,1.26992 5.04099,1.76672"/><path d="M184.71578,360.64748c-1.68074,-0.27631 -3.16332,-0.77311 -4.5468,-1.38051c-1.68074,-0.82824 -1.8783,-1.76672 -1.58166,-2.2084c0.49419,-0.4968 1.48257,-0.4968 2.2734,0c1.18593,0.82824 2.47095,1.601 3.75597,2.37412"/><path d="M183.92497,359.21185c-1.28502,-0.44168 -2.47095,-0.99395 -3.45995,-1.65647c-1.38349,-0.99361 -1.28502,-1.87731 -0.79083,-2.26352c0.49481,-0.38656 1.58166,-0.33143 2.17494,0.22084c0.88992,0.93848 1.8783,1.82184 2.96514,2.7052"/><path d="M184.51824,358.38362c-1.3841,-0.99395 -2.47157,-1.98756 -3.45995,-3.09176c-0.88929,-1.26992 -0.39511,-2.04303 0.69174,-2.09815c0.79083,-0.05512 1.48319,0.6074 2.27402,1.49076c0.98838,0.93848 2.07523,1.82184 3.26178,2.65008"/><path d="M186.59408,360.70261c0,0 -2.66912,-0.6074 -3.36087,-1.76672c-0.79083,-1.26992 0.98838,-1.54623 1.97676,-0.99395l1.38411,0.82824c-1.97738,-1.15932 -2.37249,-1.7116 -2.37249,-2.2084c0.09847,-0.6074 1.38349,-1.04908 2.57004,-0.27631c0.88929,0.66252 1.77921,1.49076 3.16269,2.37412c1.18655,0.66287 1.58166,1.65647 0.989,2.53983c-0.69236,0.93883 -2.57004,1.38051 -4.25078,1.10455c-2.57004,-0.33143 -3.45933,-1.60135 -2.96514,-1.98791c0.49419,-0.38656 1.48257,-0.05512 1.48257,-0.05512"/></g><path d="M192.70087,361.80681c0.27249,0 0.51958,0.06206 0.69856,0.1619c0.17897,0.09985 0.28983,0.23783 0.28983,0.39037c0,0.1522 -0.11085,0.29018 -0.28983,0.39037c-0.17897,0.09985 -0.42607,0.16156 -0.69856,0.16156c-0.27249,0 -0.51958,-0.06171 -0.69855,-0.16156c-0.17897,-0.10019 -0.28983,-0.23817 -0.28983,-0.39037c0,-0.15254 0.11085,-0.29052 0.28983,-0.39037c0.17897,-0.09985 0.42607,-0.1619 0.69855,-0.1619z" fill="#ffffff" stroke="#db20a5" stroke-width="0.848" stroke-linecap="round" stroke-linejoin="round"/><path d="M196.75347,359.98497c-1.58166,0.6074 -2.96515,1.43529 -4.05261,2.37412c0.09909,-0.6074 0.29664,-1.26992 0.59328,-1.87731c0.3951,-0.6074 0.8893,-1.21479 1.48257,-1.76672" fill="none" stroke="#db20a5" stroke-width="1.024" stroke-linecap="round" stroke-linejoin="round"/><path d="M191.31677,360.37116c1.48319,-0.33109 3.06485,-0.60705 4.64589,-0.77277" fill="none" stroke="#db20a5" stroke-width="1.024" stroke-linecap="round" stroke-linejoin="round"/><path d="M200.21344,364.89891c-1.77921,0.22084 -3.55842,0.16572 -5.33763,-0.05547c-0.09909,-0.27596 -0.19817,-0.60705 -0.19817,-0.88336c0,-0.05512 0,-0.16537 0,-0.22084c0,-0.66252 0.09909,-1.26992 0.39572,-1.87731c0.79083,-0.05512 1.68012,-0.16537 2.37249,-0.38621c0.69174,-0.16572 1.28502,-0.44168 1.68013,-0.77311c1.97676,0.55227 3.85506,1.26992 4.44833,2.26387v0.05512c0.19755,0.33109 0.29664,0.6074 0.29664,0.88336c-0.88992,0.55227 -2.17493,0.93848 -3.65751,0.99395z" fill="none" stroke="#db20a5" stroke-width="1.28" stroke-linecap="round" stroke-linejoin="round"/><path d="M188.05499,356.23034c1.3841,-0.27596 2.76759,-0.38656 4.25078,-0.44168l0.29602,1.43563l-3.06423,0.4968z" fill="#ffffff" stroke="#ffffff" stroke-width="0.5" stroke-linecap="round" stroke-linejoin="round"/><path d="M194.77672,356.17522l0.3951,1.87731c-1.18593,0.11025 -2.2734,0.38621 -3.26178,0.82789c-1.28502,0.55227 -1.97676,1.10455 -3.06423,1.15967c-1.28502,0.05512 -2.2734,-0.77311 -0.88929,-1.82219c1.77921,-1.1042 4.25016,-1.82184 6.8202,-2.04268z" fill="#8b49d4" stroke="#8b49d4" stroke-width="0.848" stroke-linecap="round" stroke-linejoin="round"/><path d="M192.89843,363.84984l-0.79083,-0.11059" fill="none" stroke="#ffc0ec" stroke-width="1.28" stroke-linecap="round" stroke-linejoin="round"/><path d="M190.82258,363.5184l-2.47095,-0.27596" fill="none" stroke="#ffc0ec" stroke-width="1.28" stroke-linecap="round" stroke-linejoin="round"/></g><path d="M179.34467,301.3028l-3.50543,-7.31805h7.31805z" fill="#ff9e00" fill-rule="nonzero" stroke="none" stroke-width="0" stroke-linecap="round" stroke-linejoin="miter"/><g><path d="M181.43688,274.89867c0,-0.44805 0.36321,-0.81127 0.81126,-0.81127c0.44805,0 0.81127,0.36322 0.81127,0.81127c0,0.44805 -0.36322,0.81126 -0.81127,0.81126c-0.44805,0 -0.81126,-0.36321 -0.81126,-0.81126z" fill="#c9e2b3" fill-rule="nonzero" stroke="#149948" stroke-width="0.96" stroke-linecap="butt" stroke-linejoin="miter"/><g><path d="M190.49195,283.84394c1.42429,0.93326 2.27215,2.87603 1.0644,3.96483c-1.20775,1.0888 -4.10208,1.34194 -6.98421,0.53067c-1.61122,-0.45196 -3.08822,-1.28936 -4.30337,-2.43989z" fill="#c9e2b3" fill-rule="nonzero" stroke="#149948" stroke-width="0.96" stroke-linecap="butt" stroke-linejoin="miter"/><path d="M187.21334,277.91803c1.1986,1.69573 1.85738,3.57445 2.20811,6.62432c-0.69037,0.37486 -1.42224,0.66762 -2.18066,0.87226c-0.15758,-1.65499 -0.4462,-3.29485 -0.86312,-4.90419c-0.74722,-2.71744 -3.01937,-5.48977 -4.12953,-5.48977c0.75189,-0.00526 1.5013,0.08703 2.22946,0.27449c1.0596,0.70594 1.98579,1.59396 2.73574,2.62289z" fill="#ff7bd0" fill-rule="nonzero" stroke="none" stroke-width="1" stroke-linecap="butt" stroke-linejoin="miter"/><path d="M190.5011,283.82871c-0.33999,0.25769 -0.69769,0.49108 -1.0705,0.69842c-0.35073,-3.06207 -1.00951,-4.92859 -2.20811,-6.62432c-0.75403,-1.02427 -1.6833,-1.90708 -2.74489,-2.60764c5.63007,1.47614 6.13025,8.4451 6.0235,8.53354z" fill="#ffa1e2" fill-rule="nonzero" stroke="none" stroke-width="1" stroke-linecap="butt" stroke-linejoin="miter"/><path d="M186.37766,280.47992c0.41691,1.60934 0.70554,3.24921 0.86312,4.9042c-1.63112,0.4131 -3.31038,0.60494 -4.99264,0.57032c-0.99583,0.00549 -1.99103,-0.05154 -2.97972,-0.17079c0.03017,-1.66643 0.19333,-3.3278 0.48798,-4.96825c0.46663,-2.62289 1.91532,-5.79476 2.49174,-5.79476c1.11625,0 3.38231,2.77233 4.12953,5.45927z" fill="#ffff4f" fill-rule="nonzero" stroke="none" stroke-width="1" stroke-linecap="butt" stroke-linejoin="miter"/><path d="M179.7564,280.84286c-0.28989,1.63677 -0.44899,3.29402 -0.47578,4.95605c-2.03122,-0.25924 -3.80319,-0.84786 -5.26713,-1.97022c-0.1403,-0.10064 0.49713,-8.80803 8.23465,-8.80803c-0.57643,0 -2.02511,3.17186 -2.49174,5.8222z" fill="#149948" fill-rule="nonzero" stroke="none" stroke-width="1" stroke-linecap="butt" stroke-linejoin="miter"/><path d="M190.50415,283.82871c-0.97187,0.72899 -2.07603,1.26244 -3.25117,1.57068c-1.63112,0.4131 -3.31038,0.60494 -4.99264,0.57033c-0.99583,0.00549 -1.99104,-0.05154 -2.97973,-0.17079c-2.03122,-0.25924 -3.80319,-0.84786 -5.26713,-1.97022c-0.1403,-0.10064 0.49713,-8.80803 8.23465,-8.80803c7.73448,0 8.3719,8.70739 8.25601,8.80803z" fill="none" fill-rule="evenodd" stroke="#149948" stroke-width="0.96" stroke-linecap="butt" stroke-linejoin="miter"/><path d="M191.50756,286.36922c0.0427,0.42698 -0.15249,0.91496 -0.76856,1.2413" fill="none" fill-rule="evenodd" stroke="#ffffff" stroke-width="1.272" stroke-linecap="round" stroke-linejoin="round"/><path d="M191.12022,285.39937c0.09282,0.11417 0.16975,0.24036 0.22874,0.37514" fill="none" fill-rule="evenodd" stroke="#ffffff" stroke-width="1.272" stroke-linecap="round" stroke-linejoin="round"/><path d="M175.02604,283.38951c0.05185,-0.41174 0.1037,-0.64657 0.1037,-0.64657" fill="none" fill-rule="evenodd" stroke="#047f30" stroke-width="1.92" stroke-linecap="round" stroke-linejoin="round"/><path d="M175.31274,281.91337c0.20086,-0.84817 0.52344,-1.66278 0.95766,-2.41854" fill="none" fill-rule="evenodd" stroke="#047f30" stroke-width="1.92" stroke-linecap="round" stroke-linejoin="round"/></g><path d="M183.69379,284.14588c-0.46975,-0.01154 -0.91636,-0.20637 -1.24435,-0.54288c-0.14141,-0.10194 -0.21094,-0.2766 -0.17821,-0.44782c0.03271,-0.17125 0.16169,-0.30799 0.33073,-0.35061c0.16904,-0.04262 0.34745,0.01659 0.45746,0.15186c0.19769,0.2278 0.50577,0.32659 0.79906,0.25619c0.1423,-0.0399 0.24831,-0.15902 0.27144,-0.30498c0,-0.10674 0.05795,-0.43004 -0.73502,-0.64658c-0.57277,-0.12301 -1.01052,-0.58623 -1.101,-1.16505c-0.04285,-0.50521 0.23682,-0.98272 0.69842,-1.1925c0.51334,-0.21972 1.10331,-0.16223 1.56458,0.15249c0.13402,0.08827 0.21077,0.24132 0.20136,0.40151c-0.00943,0.16019 -0.10359,0.30318 -0.24704,0.37514c-0.14345,0.07193 -0.31439,0.06189 -0.4484,-0.02638c0,0 -0.38734,-0.23789 -0.66183,-0.0976c-0.0854,0.0427 -0.22874,0.14029 -0.21349,0.30499c0.01525,0.16469 0.13725,0.30498 0.44223,0.39038c1.42734,0.35379 1.46394,1.26875 1.41514,1.61948c-0.06961,0.4832 -0.40604,0.88573 -0.86921,1.04001c-0.15483,0.05444 -0.31775,0.08227 -0.48188,0.08235z" fill="#ffa1e2" fill-rule="nonzero" stroke="#149948" stroke-width="0.636" stroke-linecap="butt" stroke-linejoin="miter"/></g><g fill-rule="evenodd" stroke="#dd3627" stroke-linecap="butt" stroke-linejoin="miter"><path d="M179.70468,288.92296h1.45261" fill="none" stroke-width="2.128"/><path d="M171.24572,289.50955c0,-2.31675 1.84921,-4.19484 4.13031,-4.19484c2.2811,0 4.13031,1.87809 4.13031,4.19484c0,2.31675 -1.8492,4.19484 -4.13031,4.19484c-2.2811,0 -4.13031,-1.87809 -4.13031,-4.19484z" fill="#000000" stroke-width="2.128"/><path d="M181.14563,289.50955c0,-2.31675 1.84921,-4.19484 4.13031,-4.19484c2.2811,0 4.13031,1.87809 4.13031,4.19484c0,2.31675 -1.84921,4.19484 -4.13031,4.19484c-2.2811,0 -4.13031,-1.87809 -4.13031,-4.19484z" fill="#000000" stroke-width="2.128"/><path d="M171.15237,288.92296l-2.6602,-1.75378" fill="none" stroke-width="2.56"/><path d="M189.48792,288.92296l2.05932,-1.64118" fill="none" stroke-width="2.56"/></g></g><path d="M139.58845,376.0389v-48.49923h80.82313v48.49923z" fill-opacity="0.50196" fill="#ffffff" fill-rule="nonzero" stroke="none" stroke-width="NaN" stroke-linecap="butt" stroke-linejoin="miter"/><path d="M177.11169,360.45806c0,-8.00458 6.48899,-14.49357 14.49357,-14.49357c8.00458,0 14.49357,6.48899 14.49357,14.49357c0,8.00458 -6.48899,14.49357 -14.49357,14.49357c-8.00458,0 -14.49357,-6.48899 -14.49357,-14.49357z" fill="#000000" fill-rule="nonzero" stroke="none" stroke-width="0" stroke-linecap="butt" stroke-linejoin="miter"/><path d="M178.01754,360.2316c0,-7.37922 5.98204,-13.36126 13.36126,-13.36126c7.37922,0 13.36126,5.98204 13.36126,13.36126c0,7.37922 -5.98204,13.36126 -13.36126,13.36126c-7.37922,0 -13.36126,-5.98204 -13.36126,-13.36126z" fill="#ffe600" fill-rule="nonzero" stroke="none" stroke-width="0" stroke-linecap="butt" stroke-linejoin="miter"/><text transform="translate(188.72907,365.05993) scale(0.38349,0.38349)" font-size="40" xml:space="preserve" fill="#000000" fill-rule="nonzero" stroke="none" stroke-width="1" stroke-linecap="butt" stroke-linejoin="miter" stroke-miterlimit="10" stroke-dasharray="" stroke-dashoffset="0" font-family="Pixel" font-weight="normal" text-anchor="start" style="mix-blend-mode: normal"><tspan x="0" dy="0">1</tspan></text><text transform="translate(180,342.70756) scale(0.33272,0.33272)" font-size="40" xml:space="preserve" fill="#000000" fill-rule="nonzero" stroke="none" stroke-width="1" stroke-linecap="butt" stroke-linejoin="miter" stroke-miterlimit="10" stroke-dasharray="" stroke-dashoffset="0" font-family="Playful" font-weight="normal" text-anchor="middle" style="mix-blend-mode: normal"><tspan x="0" dy="0">Модник</tspan></text><text transform="translate(162.42166,367.51265) scale(0.38141,0.38141)" font-size="40" xml:space="preserve" fill="#000000" fill-rule="nonzero" stroke="none" stroke-width="1" stroke-linecap="butt" stroke-linejoin="miter" stroke-miterlimit="10" stroke-dasharray="" stroke-dashoffset="0" font-family="Playful" font-weight="normal" text-anchor="middle" style="mix-blend-mode: normal"><tspan x="0" dy="0">50</tspan></text></g></g></svg>