<svg version="1.1" xmlns="http://www.w3.org/2000/svg" xmlns:xlink="http://www.w3.org/1999/xlink" width="312.4085" height="469.41824" viewBox="0,0,312.4085,469.41824"><g transform="translate(-12.33875,-52.25)"><g data-paper-data="{&quot;isPaintingLayer&quot;:true}" stroke-miterlimit="10" stroke-dasharray="" stroke-dashoffset="0" style="mix-blend-mode: normal"><g data-paper-data="{&quot;index&quot;:null}" fill-rule="nonzero" stroke="#000000" stroke-width="2" stroke-linecap="butt" stroke-linejoin="miter"><path d="M180.00006,409.48729c77.5818,0 140.47426,14.90342 140.47426,33.28773c0,18.38429 -62.89247,33.28773 -140.47426,33.28773c-77.5818,0 -140.47426,-14.90342 -140.47426,-33.28773c0,-18.38429 62.89247,-33.28773 140.47426,-33.28773z" fill="#85ff66"/><path d="M251.23582,520.66824c-13.97207,0 -25.29868,-11.32661 -25.29868,-25.29868c0,-13.97207 11.32661,-25.29868 25.29868,-25.29868c13.97207,0 25.29868,11.32661 25.29868,25.29868c0,13.97207 -11.32661,25.29868 -25.29868,25.29868z" fill="#000000"/><path d="M108.76429,520.66824c-13.97207,0 -25.29868,-11.32661 -25.29868,-25.29868c0,-13.97207 11.32661,-25.29868 25.29868,-25.29868c13.97207,0 25.29868,11.32661 25.29868,25.29868c0,13.97207 -11.32661,25.29868 -25.29868,25.29868z" fill="#000000"/></g><g fill="#ffc266" fill-rule="nonzero" stroke="none" stroke-linecap="butt" stroke-linejoin="miter"><path d="M200.50002,413.75006v-54h13v54z" stroke-width="NaN"/><path d="M230.50002,427.75006c0,4.40937 -12.49451,-7.61129 -16.49874,-4.78885c-3.76963,2.65708 -0.87727,14.28885 -6.50126,14.28885c-5.12943,0 -4.82932,-10.3574 -8.47629,-12.61207c-4.59908,-2.8433 -15.52371,6.88648 -15.52371,2.11207c0,-8.56041 12.40202,-20.5 24,-20.5c11.59798,0 23,12.93959 23,21.5z" stroke-width="0"/></g><g fill="#ffc266" fill-rule="nonzero" stroke="none" stroke-linecap="butt" stroke-linejoin="miter"><path d="M173.50002,432.75006v-54h13v54z" stroke-width="NaN"/><path d="M203.50002,446.75006c0,4.40937 -12.49451,-7.61129 -16.49874,-4.78885c-3.76963,2.65708 -0.87727,14.28885 -6.50126,14.28885c-5.12942,0 -4.82932,-10.35739 -8.47629,-12.61207c-4.59908,-2.8433 -15.52371,6.88648 -15.52371,2.11207c0,-8.56041 12.40202,-20.5 24,-20.5c11.59798,0 23,12.93959 23,21.5z" stroke-width="0"/></g><path d="M282.85294,222.64043c17.79814,0 41.89431,0 41.89431,0c0,0 -24.09617,64.45278 -41.89431,64.45278c-17.79814,0 -32.22639,-14.42825 -32.22639,-32.22639c0,-17.79814 14.42825,-32.22639 32.22639,-32.22639z" fill="#e5e5e5" fill-rule="nonzero" stroke="none" stroke-width="NaN" stroke-linecap="butt" stroke-linejoin="miter"/><path d="M138.09273,302.90486c15.92438,-5.61046 73.80344,-52.84435 111.68638,-50.60764c42.94975,2.53587 65.33373,56.10359 65.33373,77.21215c0,18.25871 -24.16199,56.47541 -68.09069,69.27342c-51.65044,15.04762 -126.03802,2.60414 -153.00728,-6.07003c-13.14216,-4.22693 -43.42474,-21.98488 -58.70654,-52.99257c-7.73537,-15.69552 -4.94078,-32.67443 -8.40911,-48.70215c-5.33617,-24.65933 -14.56047,-45.69997 -14.56047,-45.69997c0,0 84.40814,72.15369 125.75398,57.58679z" fill="#f8f8f8" fill-rule="nonzero" stroke="none" stroke-width="0" stroke-linecap="butt" stroke-linejoin="miter"/><path d="M244.71616,172.50136c0,0 12.92491,16.58399 19.47396,46.41855c6.99378,31.86055 36.36101,69.8733 36.36101,69.8733h-100.50672c0,0 12.44401,-49.15651 11.21855,-71.28603c-1.1592,-20.93295 -18.38357,-58.10103 -18.38357,-58.10103z" fill="#ffffff" fill-rule="nonzero" stroke="none" stroke-width="0" stroke-linecap="round" stroke-linejoin="miter"/><path d="M229.15641,98.33185c24.73565,0 44.78783,17.21653 44.78783,38.45419c0,21.23766 -20.0522,38.45419 -44.78783,38.45419c-24.73565,0 -44.78783,-17.21653 -44.78783,-38.45419c0,-21.23766 20.0522,-38.45419 44.78783,-38.45419z" fill="#f2f2f2" fill-rule="nonzero" stroke="none" stroke-width="0" stroke-linecap="butt" stroke-linejoin="miter"/><path d="M233.13831,166.34062l27.68581,-12.33897l-0.92285,33.5963z" fill="#ff9e00" fill-rule="nonzero" stroke="none" stroke-width="0" stroke-linecap="round" stroke-linejoin="miter"/><path d="M115.76451,337.38466c-34.58949,-16.63474 -80.51173,-107.74068 -80.51173,-107.74068c0,0 33.534,8.1318 63.6645,0.90973c12.55998,-3.01055 61.82902,-23.4036 84.00653,-12.75079c30.82918,14.80856 58.47286,77.62004 49.31505,98.22419c-15.74564,35.42612 -81.88485,37.99229 -116.47434,21.35755z" fill="#ffffff" fill-rule="nonzero" stroke="none" stroke-width="0" stroke-linecap="butt" stroke-linejoin="miter"/><path d="M105.99256,345.07748c-28.67277,-13.78928 -85.73978,-113.31108 -85.73978,-113.31108c0,0 46.79783,30.74081 71.77436,24.75412c10.41153,-2.49558 51.25284,-19.40029 69.63677,-10.5697c25.55569,12.27548 48.47077,64.34273 40.87945,81.42243c-13.05227,29.36629 -67.87802,31.49351 -96.55079,17.70423z" fill="#e5e5e5" fill-rule="nonzero" stroke="none" stroke-width="0" stroke-linecap="butt" stroke-linejoin="miter"/><g fill-rule="nonzero" stroke-linecap="butt" stroke-linejoin="miter"><path d="M217.00003,125.69c5.24695,0 9.50045,5.06368 9.50045,11.31006c0,6.24637 -4.2535,11.31006 -9.50045,11.31006c-5.24695,0 -9.50045,-5.06368 -9.50045,-11.31006c0,-6.24637 4.2535,-11.31006 9.50045,-11.31006z" fill="#00c0c0" stroke="none" stroke-width="0"/><path d="M216.65619,131.11881c2.93829,0 5.32025,2.83567 5.32025,6.33364c0,3.49798 -2.38197,6.33364 -5.32025,6.33364c-2.93829,0 -5.32025,-2.83567 -5.32025,-6.33364c0,-3.49798 2.38197,-6.33364 5.32025,-6.33364z" fill="#000000" stroke="#000000" stroke-width="2.5"/></g><g fill-rule="nonzero" stroke-linecap="butt" stroke-linejoin="miter"><path d="M254.00003,125.69c5.24695,0 9.50045,5.06368 9.50045,11.31006c0,6.24637 -4.2535,11.31006 -9.50045,11.31006c-5.24695,0 -9.50045,-5.06368 -9.50045,-11.31006c0,-6.24637 4.2535,-11.31006 9.50045,-11.31006z" fill="#00c0c0" stroke="none" stroke-width="0"/><path d="M253.65619,131.11881c2.9383,0 5.32025,2.83567 5.32025,6.33364c0,3.49798 -2.38197,6.33364 -5.32025,6.33364c-2.9383,0 -5.32025,-2.83567 -5.32025,-6.33364c0,-3.49798 2.38197,-6.33364 5.32025,-6.33364z" fill="#000000" stroke="#000000" stroke-width="2.5"/></g><g fill-rule="nonzero" stroke="#000000" stroke-width="1" stroke-linejoin="miter"><path d="M199,113.5c-0.178,-1.16 0.204,-4.247 1.25,-6c2.119,-3.551 4.602,-7.144 8,-9.5c4.166,-2.886 8.892,-4.737 13.75,-5.75c3.966,-0.827 8.235,-0.577 12.25,0.25c3.464,0.788 6.998,2.195 9.75,4.5c3.459,2.898 7.746,9.393 8.25,10.75c0.408,1.109 -3.965,-3.629 -6.25,-5c-2.841,-1.703 -5.663,-3.293 -8.75,-4c-3.349,-0.902 -6.938,-1.052 -10.25,-0.75c-3.741,0.341 -7.59,1.137 -11,2.5c-3.806,1.523 -7.402,3.635 -10.75,6c-1.756,1.24 -2.897,3.023 -4.25,4.5c-0.73,0.856 -1.903,3.095 -1.75,2.25z" fill="#009933" stroke-linecap="round"/><g stroke-linecap="round"><path d="M188.7469,61.793c0,0 -0.5689,0.3725 -0.3885,0.402c0.6918,0.1136 1.4465,-0.3033 2.1329,-0.1158c1.4551,0.3965 2.9989,0.8439 4.1431,1.8262c1.3521,1.1608 2.5818,2.6647 3.08,4.3747c0.4017,1.38 -0.2388,2.8778 -0.5588,4.2794c-0.149,0.6544 -0.5095,1.2476 -0.8381,1.833c-0.4655,0.8275 -0.9118,1.6872 -1.54,2.3986c-0.4737,0.5367 -1.0566,1.017 -1.7172,1.2947c-0.6861,0.2886 -1.4684,0.4431 -2.2078,0.3543c-0.6669,-0.0795 -1.4654,-0.277 -1.8331,-0.8381c-0.3907,-0.5945 -0.4574,-1.5096 -0.1158,-2.1329c0.7528,-1.3713 2.0122,-2.4168 3.1822,-3.4548c0.6617,-0.5876 1.4571,-1.0305 2.2692,-1.3833c0.7208,-0.3122 1.499,-0.5404 2.2828,-0.5928c0.8469,-0.0567 1.7139,0.0565 2.5348,0.2726c0.889,0.2332 1.7586,0.5914 2.5486,1.063c0.7695,0.4599 1.4648,1.0557 2.0851,1.7035c0.7022,0.7343 1.4195,1.5038 1.8603,2.4191c0.3717,0.7719 0.4905,1.6646 0.5179,2.5213c0.0293,0.9306 -0.1535,1.8626 -0.3475,2.7734c-0.1732,0.8145 -0.3855,1.6367 -0.7496,2.3849c-0.3809,0.7818 -0.8104,1.5881 -1.4651,2.1602c-0.7094,0.6198 -1.5781,1.1591 -2.5076,1.3083c-0.8257,0.1325 -1.7646,-0.0452 -2.4599,-0.5111c-0.6371,-0.4277 -1.3155,-1.1943 -1.2198,-1.9557c0.1688,-1.3442 0.9733,-2.6165 1.9148,-3.5911c0.5783,-0.5992 1.5304,-0.737 2.3577,-0.8313c0.8438,-0.0965 1.7036,0.0993 2.5349,0.2726c0.8148,0.169 1.6049,0.4603 2.385,0.7495c0.785,0.2908 1.6243,0.5084 2.3101,0.9881c0.702,0.4911 1.3752,1.1073 1.7717,1.8671c0.6626,1.2701 1.3789,2.6567 1.3355,4.0885c-0.0459,1.5003 -0.7812,2.9527 -1.5877,4.2181c-0.4471,0.7022 -1.2921,1.0729 -2.0306,1.4582c-0.6344,0.331 -1.3326,0.7447 -2.0443,0.6678c-0.6825,-0.073 -1.3869,-0.4998 -1.7581,-1.0767c-0.4026,-0.6265 -0.451,-1.4698 -0.3543,-2.2078c0.0975,-0.7471 0.404,-1.5156 0.9131,-2.0715c0.4771,-0.5209 1.1831,-0.8693 1.8807,-0.9812c0.6624,-0.1063 1.3549,0.1249 1.983,0.3611c0.7949,0.2991 1.5391,0.7395 2.2351,1.2266c0.6719,0.4701 1.3324,0.99 1.8466,1.6286c0.4434,0.5502 0.738,1.2172 0.9813,1.8807c0.2306,0.6302 0.4781,1.3002 0.4293,1.9693c-0.0607,0.83 -0.7496,2.385 -0.7496,2.385" fill="none"/><path d="M185.0433,55.6499c1.8097,0.5688 3.2062,1.8588 3.9993,3.4844c0.7943,1.6249 0.9853,3.5854 0.3857,5.4934c-0.5997,1.908 -1.8778,3.4067 -3.4589,4.285c-1.5805,0.8797 -3.4638,1.1389 -5.2736,0.5701c-1.8097,-0.5687 -3.2061,-1.8588 -3.9992,-3.4844c-0.7944,-1.6249 -0.9854,-3.5853 -0.3857,-5.4933c0.5996,-1.908 1.8778,-3.4067 3.4589,-4.2851c1.5804,-0.8796 3.4638,-1.1389 5.2735,-0.5701z" fill="#ffff00"/></g><g><path d="M238.75,97c0,0 0.287,-3.381 0.75,-5c0.216,-0.755 0.717,-1.423 1.25,-2c0.486,-0.526 1.118,-0.913 1.75,-1.25c0.628,-0.335 1.305,-0.899 2,-0.75c0.691,0.148 1.262,0.835 1.5,1.5c0.226,0.632 0.363,1.727 -0.25,2c-1.293,0.575 -2.887,0.382 -4.25,0c-0.852,-0.239 -1.477,-1.036 -2,-1.75c-0.421,-0.574 -0.577,-1.31 -0.75,-2c-0.163,-0.651 -0.292,-1.33 -0.25,-2c0.043,-0.685 0.193,-1.386 0.5,-2c0.372,-0.745 0.934,-1.39 1.5,-2c0.522,-0.562 1.131,-1.046 1.75,-1.5c0.633,-0.464 1.28,-0.935 2,-1.25c0.629,-0.275 1.315,-0.457 2,-0.5c0.67,-0.042 1.363,0.038 2,0.25c0.637,0.212 1.275,0.525 1.75,1c0.475,0.475 0.911,1.085 1,1.75c0.091,0.68 0.01,1.541 -0.5,2c-0.499,0.449 -1.333,0.328 -2,0.25c-0.784,-0.092 -1.58,-0.331 -2.25,-0.75c-0.699,-0.437 -1.369,-1.019 -1.75,-1.75c-0.646,-1.237 -1.25,-2.604 -1.25,-4c0,-1.636 0.57,-3.262 1.25,-4.75c0.672,-1.47 1.607,-2.857 2.75,-4c0.503,-0.503 1.3,-0.626 2,-0.75c0.738,-0.13 1.512,-0.13 2.25,0c0.7,0.124 1.476,0.269 2,0.75c0.549,0.503 0.954,1.257 1,2c0.044,0.71 -0.199,1.55 -0.75,2c-0.519,0.425 -1.329,0.25 -2,0.25c-0.754,0 -1.576,0.087 -2.25,-0.25c-0.737,-0.369 -1.293,-1.064 -1.75,-1.75c-0.395,-0.592 -0.626,-1.3 -0.75,-2c-0.13,-0.738 -0.13,-1.512 0,-2.25c0.124,-0.7 0.401,-1.38 0.75,-2c0.408,-0.726 0.934,-1.39 1.5,-2c0.522,-0.562 1.073,-1.139 1.75,-1.5c0.606,-0.323 1.355,-0.265 2,-0.5c0.282,-0.103 0.75,-0.5 0.75,-0.5" fill="none" stroke-linecap="round"/><path d="M255.25,52.75c1.793,0 3.418,0.742 4.595,1.942c1.177,1.199 1.905,2.855 1.905,4.683c0,1.828 -0.728,3.484 -1.905,4.683c-1.177,1.2 -2.802,1.942 -4.595,1.942c-1.793,0 -3.418,-0.742 -4.595,-1.942c-1.177,-1.199 -1.905,-2.855 -1.905,-4.683c0,-1.828 0.728,-3.484 1.905,-4.683c1.177,-1.2 2.802,-1.942 4.595,-1.942z" fill="#ffff00" stroke-linecap="butt"/></g></g><g fill-rule="evenodd"><g><path d="M261.1661,192.65605c1.25661,3.16595 2.16889,6.46057 2.72002,9.82467c1.06099,5.0979 1.06161,10.35884 0.00151,15.44399c-8.09011,1.37789 -17.77689,-5.47529 -19.1688,-6.50254c-0.00349,-0.23745 -0.04367,-0.47335 -0.11898,-0.69856l-1.25557,-7.3719c5.59532,-4.12656 11.56206,-7.70739 17.82183,-10.69565z" fill="#14e148" stroke="none" stroke-width="1" stroke-linecap="butt" stroke-linejoin="miter"/><path d="M242.76105,201.07101c-0.00349,-0.23745 -0.04363,-0.47315 -0.11898,-0.69856c0.97339,-1.43011 7.86898,-11.10757 15.93548,-12.48144c0.97682,1.50402 1.78935,3.11135 2.42287,4.79326c-6.20134,2.98852 -12.11236,6.55965 -17.65617,10.66744z" fill="#acff74" stroke="none" stroke-width="1" stroke-linecap="butt" stroke-linejoin="miter"/><path d="M263.88612,202.48071c1.03443,5.12774 0.99738,10.41327 -0.10853,15.51235c-8.70514,1.48265 -19.3591,-6.61896 -19.3591,-6.61896l-1.84641,-10.84091c0,0 7.37137,-11.17165 16.07651,-12.6543c2.73153,4.44549 4.51617,9.42075 5.23753,14.60181z" fill="none" stroke="#149948" stroke-width="0.96" stroke-linecap="butt" stroke-linejoin="miter"/><g fill="none" stroke="#00b82b" stroke-width="0.768" stroke-linecap="round" stroke-linejoin="round"><path d="M255.25621,213.12298c-2.5614,-0.85992 -5.03417,-1.97502 -7.38266,-3.32891"/><path d="M260.12719,214.42514c0,0 -0.802,-0.13595 -2.06694,-0.4164"/></g></g><g><path d="M226.61592,206.17594c-6.52723,-2.35789 -13.32582,-3.83375 -20.22086,-4.38961c0.07345,-1.71434 0.31361,-3.41603 0.71694,-5.08019c8.09011,-1.37789 17.77689,5.47529 19.1688,6.50254c0.00349,0.23745 0.04367,0.47335 0.11898,0.69856z" fill="#acff74" stroke="none" stroke-width="1" stroke-linecap="butt" stroke-linejoin="miter"/><path d="M228.0729,213.58806c0.00368,0.23741 0.04383,0.47312 0.11898,0.69856c-0.97339,1.43011 -7.86898,11.10757 -15.93548,12.48144c-2.7004,-4.45814 -4.45264,-9.43852 -5.14289,-14.61793c-0.55532,-3.43544 -0.74073,-6.92022 -0.55278,-10.39201c6.89484,0.55588 13.69343,2.03175 20.22067,4.38964z" fill="#14e148" stroke="none" stroke-width="1" stroke-linecap="butt" stroke-linejoin="miter"/><path d="M207.22203,196.63779c8.70514,-1.48265 19.3591,6.61896 19.3591,6.61896l1.84641,10.84091c0,0 -7.37137,11.17165 -16.07651,12.6543c-2.73153,-4.44549 -4.51617,-9.42075 -5.23753,-14.60181c-1.03443,-5.12774 -0.99738,-10.41327 0.10853,-15.51235z" fill="none" stroke="#149948" stroke-width="0.96" stroke-linecap="butt" stroke-linejoin="miter"/><g fill="none" stroke="#00b82b" stroke-width="0.768" stroke-linecap="round" stroke-linejoin="round"><path d="M224.17718,214.15235c-0.48811,0.63782 -1.00993,1.2479 -1.563,1.82799"/><path d="M220.70776,217.7925c-1.94769,1.68854 -4.06053,3.1698 -6.30613,4.42055"/></g></g><g stroke-linecap="butt" stroke-linejoin="miter"><path d="M244.60878,211.49052c-0.14531,0.91364 -0.84407,1.62959 -1.74096,1.78398l-12.34794,2.10308c-0.89743,0.15122 -1.7938,-0.29306 -2.23336,-1.10708l0.14103,-0.17285l-1.33353,-7.82961l15.99094,-2.72355l1.33353,7.82961z" fill="#14e148" stroke="none" stroke-width="1"/><path d="M226.39084,203.14033c0.14531,-0.91364 0.84407,-1.62959 1.74096,-1.78398l12.34794,-2.10308c0.89743,-0.15122 1.7938,0.29306 2.23336,1.10708l-0.14103,0.17285l0.51288,3.0113l-15.99094,2.72355l-0.51288,-3.0113z" fill="#acff74" stroke="none" stroke-width="1"/><path d="M230.24771,215.42388c-1.01245,0.17244 -1.8332,0.31223 -1.8332,0.31223l-2.38806,-14.02112c0,0 0.82076,-0.13979 1.8332,-0.31223l12.91591,-2.19982c1.01245,-0.17244 1.8332,-0.31223 1.8332,-0.31223l2.38806,14.02112c0,0 -0.82076,0.13979 -1.8332,0.31223z" fill="none" stroke="#149948" stroke-width="0.96"/></g></g></g></g></svg>