<svg version="1.1" xmlns="http://www.w3.org/2000/svg" xmlns:xlink="http://www.w3.org/1999/xlink" width="312.4085" height="476.94612" viewBox="0,0,312.4085,476.94612"><g transform="translate(-12.33875,-44.72213)"><g data-paper-data="{&quot;isPaintingLayer&quot;:true}" fill-rule="nonzero" stroke-miterlimit="10" stroke-dasharray="" stroke-dashoffset="0" style="mix-blend-mode: normal"><g data-paper-data="{&quot;index&quot;:null}" stroke="#000000" stroke-width="2" stroke-linecap="butt" stroke-linejoin="miter"><path d="M180.00006,409.48729c77.5818,0 140.47426,14.90342 140.47426,33.28773c0,18.38429 -62.89247,33.28773 -140.47426,33.28773c-77.5818,0 -140.47426,-14.90342 -140.47426,-33.28773c0,-18.38429 62.89247,-33.28773 140.47426,-33.28773z" fill="#ffe600"/><path d="M251.23582,520.66825c-13.97207,0 -25.29868,-11.32661 -25.29868,-25.29868c0,-13.97207 11.32661,-25.29868 25.29868,-25.29868c13.97207,0 25.29868,11.32661 25.29868,25.29868c0,13.97207 -11.32661,25.29868 -25.29868,25.29868z" fill="#000000"/><path d="M108.76429,520.66825c-13.97207,0 -25.29868,-11.32661 -25.29868,-25.29868c0,-13.97207 11.32661,-25.29868 25.29868,-25.29868c13.97207,0 25.29868,11.32661 25.29868,25.29868c0,13.97207 -11.32661,25.29868 -25.29868,25.29868z" fill="#000000"/></g><g fill="#ffc266" stroke="none" stroke-linecap="butt" stroke-linejoin="miter"><path d="M200.50002,413.75006v-54h13v54z" stroke-width="NaN"/><path d="M230.50002,427.75006c0,4.40937 -12.49451,-7.61129 -16.49874,-4.78885c-3.76963,2.65708 -0.87727,14.28885 -6.50126,14.28885c-5.12943,0 -4.82932,-10.3574 -8.47629,-12.61207c-4.59908,-2.8433 -15.52371,6.88648 -15.52371,2.11207c0,-8.56041 12.40202,-20.5 24,-20.5c11.59798,0 23,12.93959 23,21.5z" stroke-width="0"/></g><g fill="#ffc266" stroke="none" stroke-linecap="butt" stroke-linejoin="miter"><path d="M173.50002,432.75006v-54h13v54z" stroke-width="NaN"/><path d="M203.50002,446.75006c0,4.40937 -12.49451,-7.61129 -16.49874,-4.78885c-3.76963,2.65708 -0.87727,14.28885 -6.50126,14.28885c-5.12942,0 -4.82932,-10.35739 -8.47629,-12.61207c-4.59908,-2.8433 -15.52371,6.88648 -15.52371,2.11207c0,-8.56041 12.40202,-20.5 24,-20.5c11.59798,0 23,12.93959 23,21.5z" stroke-width="0"/></g><path d="M282.85294,222.64043c17.79814,0 41.89431,0 41.89431,0c0,0 -24.09617,64.45278 -41.89431,64.45278c-17.79814,0 -32.22639,-14.42825 -32.22639,-32.22639c0,-17.79814 14.42825,-32.22639 32.22639,-32.22639z" fill="#e5e5e5" stroke="none" stroke-width="NaN" stroke-linecap="butt" stroke-linejoin="miter"/><path d="M138.09273,302.90486c15.92438,-5.61046 73.80344,-52.84435 111.68638,-50.60764c42.94975,2.53587 65.33373,56.10359 65.33373,77.21215c0,18.25871 -24.16199,56.47541 -68.09069,69.27342c-51.65044,15.04762 -126.03802,2.60414 -153.00728,-6.07003c-13.14216,-4.22693 -43.42474,-21.98488 -58.70654,-52.99257c-7.73537,-15.69552 -4.94078,-32.67443 -8.40911,-48.70215c-5.33617,-24.65933 -14.56047,-45.69997 -14.56047,-45.69997c0,0 84.40814,72.15369 125.75398,57.58679z" fill="#f8f8f8" stroke="none" stroke-width="0" stroke-linecap="butt" stroke-linejoin="miter"/><path d="M244.71616,172.50136c0,0 12.92491,16.58399 19.47396,46.41855c6.99378,31.86055 36.36101,69.8733 36.36101,69.8733h-100.50672c0,0 12.44401,-49.15651 11.21855,-71.28603c-1.1592,-20.93295 -18.38357,-58.10103 -18.38357,-58.10103z" fill="#ffffff" stroke="none" stroke-width="0" stroke-linecap="round" stroke-linejoin="miter"/><path d="M229.15641,98.33185c24.73565,0 44.78783,17.21653 44.78783,38.45419c0,21.23766 -20.0522,38.45419 -44.78783,38.45419c-24.73565,0 -44.78783,-17.21653 -44.78783,-38.45419c0,-21.23766 20.0522,-38.45419 44.78783,-38.45419z" fill="#f2f2f2" stroke="none" stroke-width="0" stroke-linecap="butt" stroke-linejoin="miter"/><path d="M233.13831,166.34062l27.68581,-12.33897l-0.92285,33.5963z" fill="#ff9e00" stroke="none" stroke-width="0" stroke-linecap="round" stroke-linejoin="miter"/><path d="M115.76451,337.38466c-34.58949,-16.63474 -80.51173,-107.74068 -80.51173,-107.74068c0,0 33.534,8.1318 63.6645,0.90973c12.55998,-3.01055 61.82902,-23.4036 84.00653,-12.75079c30.82918,14.80856 58.47286,77.62004 49.31505,98.22419c-15.74564,35.42612 -81.88485,37.99229 -116.47434,21.35755z" fill="#ffffff" stroke="none" stroke-width="0" stroke-linecap="butt" stroke-linejoin="miter"/><path d="M105.99256,345.07748c-28.67277,-13.78928 -85.73978,-113.31108 -85.73978,-113.31108c0,0 46.79783,30.74081 71.77436,24.75412c10.41153,-2.49558 51.25284,-19.40029 69.63677,-10.5697c25.55569,12.27548 48.47077,64.34273 40.87945,81.42243c-13.05227,29.36629 -67.87802,31.49351 -96.55079,17.70423z" fill="#e5e5e5" stroke="none" stroke-width="0" stroke-linecap="butt" stroke-linejoin="miter"/><g stroke-linecap="butt" stroke-linejoin="miter"><path d="M217.00003,125.69c5.24695,0 9.50045,5.06368 9.50045,11.31006c0,6.24637 -4.2535,11.31006 -9.50045,11.31006c-5.24695,0 -9.50045,-5.06368 -9.50045,-11.31006c0,-6.24637 4.2535,-11.31006 9.50045,-11.31006z" fill="#00c0c0" stroke="none" stroke-width="0"/><path d="M216.65619,131.11881c2.93829,0 5.32025,2.83567 5.32025,6.33364c0,3.49798 -2.38197,6.33364 -5.32025,6.33364c-2.93829,0 -5.32025,-2.83567 -5.32025,-6.33364c0,-3.49798 2.38197,-6.33364 5.32025,-6.33364z" fill="#000000" stroke="#000000" stroke-width="2.5"/></g><g stroke-linecap="butt" stroke-linejoin="miter"><path d="M254.00003,125.69c5.24695,0 9.50045,5.06368 9.50045,11.31006c0,6.24637 -4.2535,11.31006 -9.50045,11.31006c-5.24695,0 -9.50045,-5.06368 -9.50045,-11.31006c0,-6.24637 4.2535,-11.31006 9.50045,-11.31006z" fill="#00c0c0" stroke="none" stroke-width="0"/><path d="M253.65619,131.11881c2.9383,0 5.32025,2.83567 5.32025,6.33364c0,3.49798 -2.38197,6.33364 -5.32025,6.33364c-2.9383,0 -5.32025,-2.83567 -5.32025,-6.33364c0,-3.49798 2.38197,-6.33364 5.32025,-6.33364z" fill="#000000" stroke="#000000" stroke-width="2.5"/></g><g><g><path d="M231.24364,62.34228l-2.89035,-0.91819c-4.16211,-7.63729 0.67968,-15.18809 9.55174,-16.22196c6.39455,-0.93296 12.48645,3.05031 14.20951,9.28947c-4.99189,-5.20242 -12.45669,-5.82028 -17.37094,-1.41585c-2.48235,2.41497 -3.76406,5.80883 -3.49996,9.26653z" fill="#c47814" stroke="none" stroke-width="1" stroke-linecap="butt" stroke-linejoin="miter"/><path d="M252.11454,54.49161c0.45645,1.54921 0.5558,3.18243 0.2871,4.77413c-0.72053,3.61331 -3.38304,6.52656 -6.91258,7.56414l-14.24542,-4.4876c-0.26409,-3.4577 1.01761,-6.85156 3.49996,-9.26653c4.94517,-4.32357 12.37905,-3.78657 17.37094,1.41585z" fill="#e69724" stroke="none" stroke-width="1" stroke-linecap="butt" stroke-linejoin="miter"/><path d="M252.11454,54.49161c0.45645,1.54921 0.5558,3.18243 0.2871,4.77413c-0.72053,3.61331 -3.38304,6.52656 -6.91258,7.56414l-14.24542,-4.4876l-2.89035,-0.91819c-4.16211,-7.63729 0.67968,-15.18809 9.55174,-16.22196c6.39455,-0.93296 12.48645,3.05031 14.20951,9.28947z" fill="none" stroke="#723e0a" stroke-width="0.96" stroke-linecap="round" stroke-linejoin="round"/><path d="M236.53494,64.01365c0.97672,-3.68656 3.75561,-6.62267 7.37966,-7.79681" fill="none" stroke="#723e0a" stroke-width="1.272" stroke-linecap="round" stroke-linejoin="round"/></g><g><path d="M169.3824,78.06796c-6.59915,-0.00203 -11.74735,5.43865 -11.99471,12.64441c-2.87925,-5.79708 -0.99909,-12.82863 4.38659,-16.40007c7.29845,-5.14926 15.94287,-2.75519 17.93812,5.71065l-1.54037,2.61237c-2.11023,-2.75179 -5.32931,-4.42468 -8.78963,-4.56735z" fill="#c47814" stroke="none" stroke-width="1" stroke-linecap="butt" stroke-linejoin="miter"/><path d="M169.3824,78.06796c3.46032,0.14267 6.6794,1.81556 8.78963,4.56735l-7.61711,12.84718c-3.32138,1.58199 -7.24833,1.18837 -10.19582,-1.0224c-1.26212,-1.00637 -2.2778,-2.28921 -2.9714,-3.74773c0.24737,-7.20575 5.42647,-12.56559 11.99471,-12.64441z" fill="#e69724" stroke="none" stroke-width="1" stroke-linecap="butt" stroke-linejoin="miter"/><path d="M161.77426,74.31229c7.29845,-5.14926 15.94287,-2.75519 17.93812,5.71065l-1.54037,2.61237l-7.61711,12.84718c-3.32138,1.58199 -7.24833,1.18837 -10.19582,-1.0224c-1.26212,-1.00637 -2.2778,-2.28921 -2.9714,-3.74773c-2.87925,-5.79708 -0.99909,-12.82863 4.38659,-16.40007z" fill="none" stroke="#723e0a" stroke-width="0.96" stroke-linecap="round" stroke-linejoin="round"/><path d="M164.64676,86.52652c3.48288,-1.54336 7.51179,-1.21033 10.69897,0.88407" fill="none" stroke="#723e0a" stroke-width="1.272" stroke-linecap="round" stroke-linejoin="round"/></g><g stroke="none" stroke-width="1" stroke-linecap="butt" stroke-linejoin="miter"><path d="M183.82407,170.36924c-10.75075,-7.03017 -20.38342,-31.49504 -20.38701,-51.62086c0.01902,-15.75255 5.2875,-29.40997 14.80394,-39.71357c-3.54568,8.22598 -7.3533,18.72377 -8.43857,27.80993c-1.99372,16.84124 -0.81073,34.62247 14.02164,63.52451z" fill="#c47814"/><path d="M285.00498,133.09238c-0.49738,1.37332 -1.28279,2.62354 -2.30508,3.66625c-6.43612,6.19265 -13.89977,1.11828 -16.74636,-7.39273c-1.96894,-5.8764 -3.62674,-10.79366 -9.693,-15.1219c-4.07142,-2.84366 -9.51154,-3.78932 -16.03313,-3.15223c1.01315,-5.42113 -0.0819,-11.02776 -3.06346,-15.67054c-6.17313,-10.37604 -17.56219,-10.4958 -26.40746,-7.11363c-8.84527,3.38217 -17.24891,11.07007 -14.92437,22.9177c0.87183,5.45103 3.80513,10.35939 8.18951,13.71049c-5.2829,3.87659 -8.73276,8.18444 -9.8397,13.04523c-1.6309,7.2714 0.415,12.04027 2.86905,17.73118c3.57426,8.23277 1.37793,16.98228 -7.54174,16.67978c-2.04376,-0.14217 -4.00905,-0.84259 -5.68515,-2.02274c-14.83237,-28.90204 -16.01536,-46.68327 -14.02164,-63.52451c1.08527,-9.08615 4.89289,-19.58395 8.43857,-27.80993c6.41241,-6.8323 14.32166,-12.08073 23.1063,-15.33468c6.79752,-2.65014 14.00812,-4.08666 21.30395,-4.24598c11.4865,3.57785 22.17456,9.34536 31.47908,16.98413c15.64946,13.10382 24.88231,32.59671 30.87463,56.65412z" fill="#e69724"/><path d="M285.07821,133.13852c-6.06558,-24.10354 -15.29842,-43.59644 -30.94788,-56.70025c-9.30452,-7.63877 -19.99259,-13.40627 -31.47908,-16.98413c16.27314,-0.24336 31.61019,6.51746 43.6626,19.95719c14.0544,15.71856 23.38516,41.91449 18.76436,53.72719z" fill="#f8b547"/></g><g><path d="M217.49298,209.02805c-17.40011,-19.37878 -24.12065,-36.95478 -24.12065,-36.95478" fill="#ffffff" stroke="#db20a5" stroke-width="1.272" stroke-linecap="butt" stroke-linejoin="miter"/><path d="M219.10232,206.74147c2.16416,-0.82751 4.46129,-0.69726 6.42437,0.18317c1.96391,0.87857 3.59376,2.50734 4.4223,4.67419c0.82905,2.16819 0.70119,4.46752 -0.17501,6.4336c-0.87537,1.96423 -2.49906,3.59522 -4.66321,4.42273c-2.16416,0.82751 -4.4618,0.69592 -6.42437,-0.18317c-1.96442,-0.87992 -3.59376,-2.50734 -4.42282,-4.67553c-0.82854,-2.16685 -0.70119,-4.46752 0.17552,-6.43226c0.87485,-1.96557 2.49906,-3.59522 4.66321,-4.42273z" fill="#723e0a" stroke="#723e0a" stroke-width="0.96" stroke-linecap="round" stroke-linejoin="round"/></g><g><path d="M279.5935,139.10485c0,0 6.72054,17.576 6.68884,43.62019" fill="#ffffff" stroke="#db20a5" stroke-width="1.272" stroke-linecap="butt" stroke-linejoin="miter"/><path d="M283.55798,182.09553c2.16416,-0.82751 4.46129,-0.69726 6.42437,0.18317c1.96391,0.87857 3.59376,2.50734 4.4223,4.67419c0.82905,2.16819 0.70119,4.46752 -0.17501,6.4336c-0.87537,1.96423 -2.49906,3.59522 -4.66321,4.42273c-2.16416,0.82751 -4.4618,0.69592 -6.42437,-0.18317c-1.96442,-0.87992 -3.59376,-2.50734 -4.42282,-4.67553c-0.82854,-2.16685 -0.70119,-4.46752 0.17552,-6.43226c0.87485,-1.96557 2.49906,-3.59522 4.66321,-4.42273z" fill="#723e0a" stroke="#723e0a" stroke-width="0.96" stroke-linecap="round" stroke-linejoin="round"/></g><g><path d="M240.25161,111.1551c-0.93821,0.09926 -1.90849,0.22776 -2.90979,0.38822l-0.40426,0.15458c-0.1301,-4.07269 -0.94334,-11.09532 -4.60015,-16.10237c-3.1615,-4.26507 -7.5684,-7.44074 -12.61146,-9.08499c7.09425,-0.67844 13.93498,2.85167 17.50363,9.03387c2.96223,4.62856 4.04313,10.21433 3.02204,15.61069z" fill="#ffffff" stroke="none" stroke-width="1" stroke-linecap="butt" stroke-linejoin="miter"/><path d="M236.92139,111.70408c-5.30878,0.96109 -10.509,2.44442 -15.52427,4.43162c-6.14587,2.20944 -11.97592,5.2125 -17.34272,8.93429c-4.37162,-3.36215 -7.29965,-8.26481 -8.189,-13.70914c-2.30889,-11.85516 6.09475,-19.54307 14.94002,-22.92524c2.61166,-1.00634 5.34999,-1.641 8.13811,-1.88693l0.78241,-0.03814c5.04308,1.64425 9.44998,4.81993 12.61146,9.08499c3.65682,5.00704 4.47005,12.02968 4.58398,16.10855z" fill="#ffecbb" stroke="none" stroke-width="1" stroke-linecap="butt" stroke-linejoin="miter"/><path d="M194.69055,78.57418c1.06591,-0.40757 2.26654,-0.16388 3.34515,0.56049c1.07944,0.72251 2.03551,1.92621 2.61312,3.43681c0.57761,1.5106 0.66856,3.0451 0.34654,4.30348c-0.32015,1.25921 -1.05189,2.24179 -2.11779,2.64936c-1.06591,0.40757 -2.26654,0.16388 -3.34515,-0.56049c-1.07944,-0.72251 -2.03551,-1.92621 -2.61312,-3.43681c-0.57761,-1.5106 -0.66856,-3.0451 -0.34654,-4.30348c0.32015,-1.25921 1.05189,-2.24179 2.11779,-2.64936z" fill="#723e0a" stroke="#723e0a" stroke-width="0.96" stroke-linecap="round" stroke-linejoin="round"/><path d="M194.5661,81.351c0.44604,-0.17055 0.91986,-0.14321 1.32408,0.0374c0.40609,0.18144 0.74124,0.51666 0.91231,0.96404c0.17106,0.44738 0.14507,0.92069 -0.03637,1.32678c-0.1806,0.40422 -0.5153,0.74073 -0.96134,0.91128c-0.44604,0.17055 -0.91986,0.14321 -1.32408,-0.0374c-0.40609,-0.18144 -0.74124,-0.51666 -0.91231,-0.96404c-0.17106,-0.44738 -0.14507,-0.92069 0.03637,-1.32678c0.1806,-0.40422 0.5153,-0.74073 0.96134,-0.91128z" fill="#ffffff" stroke="#ffffff" stroke-width="0.5" stroke-linecap="butt" stroke-linejoin="miter"/><path d="M216.22968,70.33825c1.06591,-0.40757 2.26654,-0.16388 3.34515,0.56049c1.07944,0.72251 2.03551,1.92621 2.61312,3.43681c0.57761,1.5106 0.66856,3.0451 0.34654,4.30348c-0.32015,1.25921 -1.05189,2.24179 -2.11779,2.64936c-1.06591,0.40757 -2.26654,0.16388 -3.34515,-0.56049c-1.07944,-0.72251 -2.03551,-1.92621 -2.61312,-3.43681c-0.57761,-1.5106 -0.66856,-3.0451 -0.34654,-4.30348c0.32015,-1.25921 1.05189,-2.24179 2.11779,-2.64936z" fill="#723e0a" stroke="#723e0a" stroke-width="0.96" stroke-linecap="round" stroke-linejoin="round"/><path d="M216.10523,73.11508c0.44604,-0.17055 0.91986,-0.14321 1.32408,0.0374c0.40609,0.18144 0.74124,0.51666 0.91231,0.96404c0.17106,0.44738 0.14507,0.92069 -0.03637,1.32678c-0.1806,0.40422 -0.5153,0.74073 -0.96134,0.91128c-0.44604,0.17055 -0.91986,0.14321 -1.32408,-0.0374c-0.40609,-0.18144 -0.74124,-0.51666 -0.91231,-0.96404c-0.17106,-0.44738 -0.14507,-0.92069 0.03637,-1.32678c0.1806,-0.40422 0.5153,-0.74073 0.96134,-0.91128z" fill="#ffffff" stroke="#ffffff" stroke-width="0.5" stroke-linecap="butt" stroke-linejoin="miter"/><path d="M227.40862,103.40356c0,0 -0.19467,5.79241 -7.58459,8.6181c-7.38992,2.82569 -11.38722,-1.32677 -11.38722,-1.32677" fill="none" stroke="#723e0a" stroke-width="0.96" stroke-linecap="round" stroke-linejoin="round"/><path d="M219.8364,112.054l-3.43782,-8.9908" fill="none" stroke="#723e0a" stroke-width="0.96" stroke-linecap="round" stroke-linejoin="round"/><path d="M212.38521,92.56718c1.87847,-0.71827 3.80508,-0.78152 5.39999,-0.30245c1.59626,0.47856 2.86083,1.49942 3.41423,2.94669c0.55391,1.44861 0.29306,3.05275 -0.57668,4.47424c-0.86839,1.42097 -2.34569,2.65926 -4.22417,3.37754c-1.87847,0.71827 -3.80508,0.78152 -5.39999,0.30245c-1.59626,-0.47856 -2.86083,-1.49942 -3.41474,-2.94803c-0.55339,-1.44726 -0.29255,-3.05141 0.5772,-4.47289c0.86839,-1.42097 2.34569,-2.65926 4.22417,-3.37754z" fill="#5e154d" stroke="#5e154d" stroke-width="0.96" stroke-linecap="round" stroke-linejoin="round"/><path d="M219.11484,95.28564c0.25065,0.21925 0.3648,0.32388 0.54838,0.51317" fill="none" stroke="#ffffff" stroke-width="0.96" stroke-linecap="round" stroke-linejoin="round"/><path d="M213.06021,94.33247c1.30276,-0.44253 2.70512,-0.49531 4.03793,-0.15233" fill="none" stroke="#ffffff" stroke-width="0.96" stroke-linecap="round" stroke-linejoin="round"/></g><path d="M282.79192,137.04779c-6.42942,6.21016 -13.89926,1.11963 -16.74584,-7.39138c-1.99368,-5.94108 -3.65148,-10.85835 -9.71393,-15.22511c-4.07142,-2.84366 -9.52823,-3.78449 -16.03364,-3.15358c-6.48028,0.80974 -12.82662,2.46257 -18.87871,4.91727c-6.13718,2.22002 -11.95773,5.23181 -17.3147,8.9591c-5.2829,3.87659 -8.73224,8.18579 -9.83918,13.04658c-1.6309,7.2714 0.415,12.04027 2.86905,17.73118c3.55809,8.23895 1.37793,16.98228 -7.54226,16.67843c-12.80213,-0.47066 -26.06783,-30.0258 -26.07834,-53.65977c-0.00915,-25.86021 14.10538,-46.00004 37.8922,-55.09542c23.78683,-9.09538 47.73768,-3.51062 64.9846,15.75837c15.76058,17.61161 25.59813,48.47758 16.40076,57.43433z" fill="none" stroke="#723e0a" stroke-width="0.96" stroke-linecap="round" stroke-linejoin="round"/></g></g></g></svg>