<svg version="1.1" xmlns="http://www.w3.org/2000/svg" xmlns:xlink="http://www.w3.org/1999/xlink" width="54" height="54.5044" viewBox="0,0,54,54.5044"><g transform="translate(-153,-174.9156)"><g data-paper-data="{&quot;isPaintingLayer&quot;:true}" fill-rule="nonzero" stroke="none" stroke-linecap="butt" stroke-linejoin="miter" stroke-miterlimit="10" stroke-dasharray="" stroke-dashoffset="0" style="mix-blend-mode: normal"><g stroke-width="0"><path d="M153,202.42c0,-14.91169 12.08831,-27 27,-27c14.91169,0 27,12.08831 27,27c0,14.91169 -12.08831,27 -27,27c-14.91169,0 -27,-12.08831 -27,-27z" fill="#000000"/><path d="M154.6875,201.99813c0,-13.74671 11.14391,-24.89062 24.89063,-24.89062c13.74671,0 24.89062,11.14391 24.89062,24.89063c0,13.74671 -11.14391,24.89062 -24.89062,24.89062c-13.74671,0 -24.89062,-11.14391 -24.89062,-24.89062z" fill="#ffe600"/></g><text transform="translate(174.642,210.9928) scale(0.7144,0.7144)" font-size="40" xml:space="preserve" fill="#000000" fill-rule="nonzero" stroke="none" stroke-width="1" stroke-linecap="butt" stroke-linejoin="miter" stroke-miterlimit="10" stroke-dasharray="" stroke-dashoffset="0" font-family="Pixel" font-weight="normal" text-anchor="start" style="mix-blend-mode: normal"><tspan x="0" dy="0">1</tspan></text></g></g></svg>