<svg version="1.1" xmlns="http://www.w3.org/2000/svg" xmlns:xlink="http://www.w3.org/1999/xlink" width="79.4" height="240.6" viewBox="0,0,79.4,240.6"><g transform="translate(-140.3,-410.4)"><g data-paper-data="{&quot;isPaintingLayer&quot;:true}" fill-rule="nonzero" stroke-linecap="butt" stroke-linejoin="miter" stroke-miterlimit="10" stroke-dasharray="" stroke-dashoffset="0" style="mix-blend-mode: normal"><g><path d="M142.7,427.27414l42.8,-16.64456l34.2,18.48121v221.08569h-79.4l2.4,-222.92233" fill="#7aded4" stroke="none" stroke-width="1"/><path d="M185,410.4l0.4,240.6h-45.1v-224.52938c0,0 39.3,-13.54523 44.7,-16.07062z" fill="#e7f5f5" stroke="none" stroke-width="1"/><path d="M144.5,433.93197l34.7,-11.01984" fill="none" stroke="#7aded4" stroke-width="4.4846"/><path d="M144.5,444.72223l34.7,-11.13464" fill="none" stroke="#7aded4" stroke-width="4.4846"/><path d="M144.5,455.5125l34.7,-11.13464" fill="none" stroke="#7aded4" stroke-width="4.4846"/><path d="M144.5,466.18798l34.7,-11.13464" fill="none" stroke="#7aded4" stroke-width="4.4846"/><path d="M144.5,476.97825l34.7,-11.13464" fill="none" stroke="#7aded4" stroke-width="4.4846"/><path d="M179.2,476.51908l-34.7,11.13464" fill="none" stroke="#7aded4" stroke-width="4.4846"/><path d="M144.5,498.44399l34.7,-11.13464" fill="none" stroke="#7aded4" stroke-width="4.4846"/><path d="M179.2,497.98483l-34.7,11.13464" fill="none" stroke="#7aded4" stroke-width="4.4846"/><path d="M144.5,519.90973l34.7,-11.13464" fill="none" stroke="#7aded4" stroke-width="4.4846"/><path d="M179.2,519.56536l-34.7,11.01984" fill="none" stroke="#7aded4" stroke-width="4.4846"/><path d="M179.2,530.24084l-34.7,11.13464" fill="none" stroke="#7aded4" stroke-width="4.4846"/><path d="M179.2,541.03111l-34.7,11.01984" fill="none" stroke="#7aded4" stroke-width="4.4846"/><path d="M144.5,562.84122l34.7,-11.13464" fill="none" stroke="#7aded4" stroke-width="4.4846"/><path d="M144.5,573.63149l34.7,-11.13464" fill="none" stroke="#7aded4" stroke-width="4.4846"/><path d="M144.5,584.30697l34.7,-11.13464" fill="none" stroke="#7aded4" stroke-width="4.4846"/><path d="M144.5,595.09723l34.7,-11.13464" fill="none" stroke="#7aded4" stroke-width="4.4846"/><path d="M144.5,605.77271l34.7,-11.13464" fill="none" stroke="#7aded4" stroke-width="4.4846"/><path d="M144.5,616.56298l34.7,-11.13464" fill="none" stroke="#7aded4" stroke-width="4.4846"/><path d="M144.5,627.23845l34.7,-11.13464" fill="none" stroke="#7aded4" stroke-width="4.4846"/><path d="M144.5,638.02872l34.7,-11.13464" fill="none" stroke="#7aded4" stroke-width="4.4846"/><path d="M179.2,637.68436l-34.7,11.01984" fill="none" stroke="#7aded4" stroke-width="4.4846"/></g></g></g></svg>