<svg version="1.1" xmlns="http://www.w3.org/2000/svg" xmlns:xlink="http://www.w3.org/1999/xlink" width="310" height="480.18105" viewBox="0,0,310,480.18105"><g transform="translate(-25,-41.48719)"><g data-paper-data="{&quot;isPaintingLayer&quot;:true}" fill-rule="nonzero" stroke-miterlimit="10" stroke-dasharray="" stroke-dashoffset="0" style="mix-blend-mode: normal"><g data-paper-data="{&quot;index&quot;:null}" stroke="#000000" stroke-width="2" stroke-linecap="butt" stroke-linejoin="miter"><path d="M180.00006,409.48728c77.5818,0 140.47426,14.90342 140.47426,33.28773c0,18.38429 -62.89247,33.28773 -140.47426,33.28773c-77.5818,0 -140.47426,-14.90342 -140.47426,-33.28773c0,-18.38429 62.89247,-33.28773 140.47426,-33.28773z" fill="#ffe600"/><path d="M251.23582,520.66824c-13.97207,0 -25.29868,-11.32661 -25.29868,-25.29868c0,-13.97207 11.32661,-25.29868 25.29868,-25.29868c13.97207,0 25.29868,11.32661 25.29868,25.29868c0,13.97207 -11.32661,25.29868 -25.29868,25.29868z" fill="#000000"/><path d="M108.76429,520.66824c-13.97207,0 -25.29868,-11.32661 -25.29868,-25.29868c0,-13.97207 11.32661,-25.29868 25.29868,-25.29868c13.97207,0 25.29868,11.32661 25.29868,25.29868c0,13.97207 -11.32661,25.29868 -25.29868,25.29868z" fill="#000000"/></g><g stroke-linejoin="miter"><g fill="#ffc266" stroke="none" stroke-linecap="butt"><g><path d="M150.99998,435.875v-54h13v54z" stroke-width="NaN"/><path d="M180.99998,449.875c0,4.40937 -12.49451,-7.61129 -16.49874,-4.78885c-3.76963,2.65708 -0.87727,14.28885 -6.50126,14.28885c-5.12943,0 -4.82932,-10.3574 -8.47629,-12.61207c-4.59908,-2.8433 -15.52371,6.88648 -15.52371,2.11207c0,-8.56041 12.40202,-20.5 24,-20.5c11.59798,0 23,12.93959 23,21.5z" stroke-width="0"/></g><g><path d="M195.99998,435.875v-54h13v54z" stroke-width="NaN"/><path d="M225.99998,449.875c0,4.40937 -12.49451,-7.61129 -16.49874,-4.78885c-3.76963,2.65708 -0.87727,14.28885 -6.50126,14.28885c-5.12942,0 -4.82932,-10.35739 -8.47629,-12.61207c-4.59908,-2.8433 -15.52371,6.88648 -15.52371,2.11207c0,-8.56041 12.40202,-20.5 24,-20.5c11.59798,0 23,12.93959 23,21.5z" stroke-width="0"/></g></g><g><path d="M85.33333,319.125l-60.33333,-136c0,0 46.46761,25.72992 65.82147,28.47029c18.24766,2.58374 48.51186,-12.47029 48.51186,-12.47029c0,0 1.09787,35.15291 -6.79841,52.70019c-9.72145,21.60322 -47.20159,67.29981 -47.20159,67.29981z" fill="#e5e5e5" stroke="none" stroke-width="0" stroke-linecap="round"/><path d="M210,198.125c0,0 28.13112,14.85404 46.55068,12.47733c22.2029,-2.86489 78.44932,-28.47733 78.44932,-28.47733c0,0 -32.72196,68.7358 -44.6734,93.84101c-8.01067,16.82723 -20.06996,42.15899 -20.06996,42.15899c0,0 -38.31306,-53.18594 -48.63845,-74.09579c-9.32461,-18.88318 -11.61819,-45.90421 -11.61819,-45.90421z" fill="#e5e5e5" stroke="none" stroke-width="0" stroke-linecap="round"/><path d="M272.90624,337.125c0,43.90664 -42.53295,79.5 -95,79.5c-52.46705,0 -95,-35.59336 -95,-79.5c0,-43.90664 42.53295,-79.5 95,-79.5c52.46705,0 95,35.59336 95,79.5z" fill="#f8f8f8" stroke="none" stroke-width="0" stroke-linecap="butt"/><path d="M218,150.125c0,0 -12.9603,29.58263 -5.66426,63.14441c7.68387,35.34579 44.16426,79.85559 44.16426,79.85559h-157.5c0,0 30.24656,-42.01211 37.97617,-77.22475c7.23808,-32.97348 0.52383,-66.77525 0.52383,-66.77525z" fill="#ffffff" stroke="none" stroke-width="0" stroke-linecap="round"/><path d="M227.40625,125.125c0,23.4721 -22.1619,42.5 -49.5,42.5c-27.3381,0 -49.5,-19.0279 -49.5,-42.5c0,-23.4721 22.1619,-42.5 49.5,-42.5c27.3381,0 49.5,19.0279 49.5,42.5z" fill="#f2f2f2" stroke="none" stroke-width="0" stroke-linecap="butt"/><path d="M166.99998,121.625c0,6.90356 -4.70101,12.5 -10.5,12.5c-5.79899,0 -10.5,-5.59644 -10.5,-12.5c0,-6.90356 4.70101,-12.5 10.5,-12.5c5.79899,0 10.5,5.59644 10.5,12.5z" fill="#00c0c0" stroke="none" stroke-width="0" stroke-linecap="butt"/><path d="M211,122.625c0,6.90356 -4.70101,12.5 -10.5,12.5c-5.79899,0 -10.5,-5.59644 -10.5,-12.5c0,-6.90356 4.70101,-12.5 10.5,-12.5c5.79899,0 10.5,5.59644 10.5,12.5z" fill="#00c0c0" stroke="none" stroke-width="0" stroke-linecap="butt"/><path d="M162.75999,122.125c0,3.86599 -2.63257,7 -5.88,7c-3.24743,0 -5.88,-3.13401 -5.88,-7c0,-3.86599 2.63257,-7 5.88,-7c3.24743,0 5.88,3.13401 5.88,7z" fill="#000000" stroke="#000000" stroke-width="2.5" stroke-linecap="butt"/><path d="M206.75998,123.125c0,3.86599 -2.63256,7 -5.88,7c-3.24743,0 -5.88,-3.13401 -5.88,-7c0,-3.86599 2.63256,-7 5.88,-7c3.24743,0 5.88,3.13401 5.88,7z" fill="#000000" stroke="#000000" stroke-width="2.5" stroke-linecap="butt"/><path d="M177.00001,179.125l-16.04688,-33.5h33.5z" fill="#ff9e00" stroke="none" stroke-width="0" stroke-linecap="round"/></g></g><g><g><path d="M206.90982,56.09551l-2.37179,-1.88993c-1.15993,-8.62009 6.05931,-13.94363 14.71547,-11.74064c6.30601,1.4124 10.5735,7.30869 9.95459,13.75175c-2.8046,-6.64216 -9.5564,-9.88534 -15.71959,-7.52653c-3.18114,1.36912 -5.59044,4.08138 -6.57868,7.40535z" fill="#c47814" stroke="none" stroke-width="1" stroke-linecap="butt" stroke-linejoin="miter"/><path d="M229.20809,56.2167c-0.12696,1.61005 -0.61747,3.17104 -1.43692,4.5618c-1.96351,3.11766 -5.49089,4.88785 -9.15822,4.59642l-11.70313,-9.2794c0.98825,-3.32397 3.39754,-6.03623 6.57868,-7.40535c6.16319,-2.27224 12.91499,0.88437 15.71959,7.52653z" fill="#e69724" stroke="none" stroke-width="1" stroke-linecap="butt" stroke-linejoin="miter"/><path d="M229.20809,56.2167c-0.12696,1.61005 -0.61747,3.17104 -1.43692,4.5618c-1.96351,3.11766 -5.49089,4.88785 -9.15822,4.59642l-11.70313,-9.2794l-2.37179,-1.88993c-1.15993,-8.62009 6.05931,-13.94363 14.71547,-11.74064c6.30601,1.4124 10.5735,7.30869 9.95459,13.75175z" fill="none" stroke="#723e0a" stroke-width="0.96" stroke-linecap="round" stroke-linejoin="round"/><path d="M211.25521,59.54644c2.22896,-3.09458 5.87321,-4.84456 9.67759,-4.64692" fill="none" stroke="#723e0a" stroke-width="1.272" stroke-linecap="round" stroke-linejoin="round"/></g><g><path d="M143.5121,48.69017c-6.16319,-2.3588 -12.91499,0.88437 -15.71959,7.52653c-0.61892,-6.44307 3.64857,-12.33936 9.95459,-13.75175c8.65616,-2.20299 15.8754,3.12055 14.71547,11.74064l-2.37179,1.88993c-0.98825,-3.32397 -3.39754,-6.03623 -6.57868,-7.40535z" fill="#c47814" stroke="none" stroke-width="1" stroke-linecap="butt" stroke-linejoin="miter"/><path d="M143.5121,48.69017c3.18114,1.36912 5.59044,4.08138 6.57868,7.40535l-11.70313,9.2794c-3.66733,0.29142 -7.19471,-1.47876 -9.15822,-4.59642c-0.81945,-1.39076 -1.30997,-2.95175 -1.43692,-4.5618c2.8046,-6.64216 9.5564,-9.79877 15.71959,-7.52653z" fill="#e69724" stroke="none" stroke-width="1" stroke-linecap="butt" stroke-linejoin="miter"/><path d="M137.74709,42.46494c8.65616,-2.20299 15.8754,3.12055 14.71547,11.74064l-2.37179,1.88993l-11.70313,9.2794c-3.66733,0.29142 -7.19471,-1.47876 -9.15822,-4.59642c-0.81945,-1.39076 -1.30997,-2.95175 -1.43692,-4.5618c-0.61892,-6.44307 3.64857,-12.33936 9.95459,-13.75175z" fill="none" stroke="#723e0a" stroke-width="0.96" stroke-linecap="round" stroke-linejoin="round"/><path d="M136.0678,54.89952c3.80438,-0.19765 7.44863,1.55234 9.67759,4.64692" fill="none" stroke="#723e0a" stroke-width="1.272" stroke-linecap="round" stroke-linejoin="round"/></g><g stroke="none" stroke-width="1" stroke-linecap="butt" stroke-linejoin="miter"><path d="M124.03573,140.06172c-7.53086,-10.40615 -7.79055,-36.6978 -0.60593,-55.49753c5.64382,-14.70682 15.44259,-25.58184 28.01134,-31.80706c-6.24975,6.4171 -13.55555,14.86263 -17.81438,22.96191c-7.87711,15.01844 -13.12274,32.04944 -9.59103,64.34269z" fill="#c47814"/><path d="M231.85688,141.38034c-0.95506,1.1051 -2.13519,1.99236 -3.46246,2.60118c-8.22335,3.48555 -13.38243,-3.9198 -13.00155,-12.88614c0.25968,-6.19204 0.46743,-11.37708 -3.6529,-17.58643c-2.78728,-4.11023 -7.53086,-6.93647 -13.84986,-8.67059c2.8825,-4.70174 3.86209,-10.32969 2.73535,-15.73113c-2.06017,-11.89645 -12.65531,-16.07593 -22.12515,-16.07593c-9.46984,0 -20.06498,4.17948 -22.12515,16.07593c-1.13251,5.40289 -0.14571,11.03516 2.75266,15.73113c-6.319,1.73412 -11.07989,4.52573 -13.84986,8.67059c-4.12033,6.20935 -3.91258,11.39439 -3.6529,17.58643c0.39818,8.96634 -4.7782,16.35437 -13.00155,12.88614c-1.85819,-0.86273 -3.44371,-2.21886 -4.58777,-3.9198c-3.53171,-32.29325 1.71392,-49.32425 9.59103,-64.34269c4.25883,-8.09928 11.56463,-16.54481 17.81438,-22.96191c8.42966,-4.09148 17.69175,-6.16896 27.05916,-6.07085c7.2957,-0.04761 14.54379,1.18589 21.41534,3.6428c9.45109,7.4443 17.37436,16.64868 23.33701,27.10677c9.93727,17.82881 11.59926,39.3336 8.60422,63.9445z" fill="#e69724"/><path d="M231.90881,141.44959c2.94309,-24.68016 1.28111,-46.18495 -8.65616,-64.01375c-5.96265,-10.45809 -13.88593,-19.66247 -23.33701,-27.10677c15.28678,5.58467 27.19766,17.37724 33.65515,34.23512c7.51355,19.70142 6.87299,47.50213 -1.66198,56.88541z" fill="#f8b547"/></g><g><path d="M141.67699,188.19575c-9.33134,-24.31516 -9.33134,-43.13221 -9.33134,-43.13221" fill="#ffffff" stroke="#db20a5" stroke-width="1.272" stroke-linecap="butt" stroke-linejoin="miter"/><path d="M143.99684,186.63475c2.31697,0 4.41608,0.94208 5.93524,2.46556c1.5206,1.52204 2.46124,3.62549 2.46124,5.94534c0,2.32129 -0.94064,4.4233 -2.46124,5.94678c-1.51916,1.52204 -3.61828,2.46556 -5.93524,2.46556c-2.31697,0 -4.41608,-0.94352 -5.93524,-2.46556c-1.5206,-1.52348 -2.46124,-3.62549 -2.46124,-5.94678c0,-2.31985 0.94064,-4.4233 2.46124,-5.94534c1.51916,-1.52348 3.61828,-2.46556 5.93524,-2.46556z" fill="#723e0a" stroke="#723e0a" stroke-width="0.96" stroke-linecap="round" stroke-linejoin="round"/></g><g><path d="M224.65495,145.06354c0,0 0,18.81705 -9.33134,43.13221" fill="#ffffff" stroke="#db20a5" stroke-width="1.272" stroke-linecap="butt" stroke-linejoin="miter"/><path d="M213.00376,186.63475c2.31697,0 4.41608,0.94208 5.93524,2.46556c1.5206,1.52204 2.46124,3.62549 2.46124,5.94534c0,2.32129 -0.94064,4.4233 -2.46124,5.94678c-1.51916,1.52204 -3.61828,2.46556 -5.93524,2.46556c-2.31697,0 -4.41608,-0.94352 -5.93524,-2.46556c-1.5206,-1.52348 -2.46124,-3.62549 -2.46124,-5.94678c0,-2.31985 0.94064,-4.4233 2.46124,-5.94534c1.51916,-1.52348 3.61828,-2.46556 5.93524,-2.46556z" fill="#723e0a" stroke="#723e0a" stroke-width="0.96" stroke-linecap="round" stroke-linejoin="round"/></g><g><path d="M197.8901,104.90616c-0.91178,-0.24237 -1.86396,-0.46888 -2.85653,-0.67662h-0.43281c1.33305,-3.85055 3.08159,-10.70046 1.45424,-16.68331c-1.42971,-5.11291 -4.41176,-9.65306 -8.53497,-12.99001c6.86866,1.90003 11.99744,7.6405 13.12274,14.68951c1.11376,5.38125 0.1284,10.98467 -2.75266,15.66044z" fill="#ffffff" stroke="none" stroke-width="1" stroke-linecap="butt" stroke-linejoin="miter"/><path d="M194.58345,104.22954c-5.3019,-0.99834 -10.68892,-1.4701 -16.08315,-1.40518c-6.52963,-0.13129 -13.04772,0.5915 -19.3898,2.15106c-2.8825,-4.70174 -3.86642,-10.3268 -2.75266,-15.72969c2.07748,-11.89789 12.67262,-16.07738 22.14246,-16.07738c2.79883,-0.00721 5.58322,0.37799 8.27529,1.14406l0.74443,0.24382c4.12322,3.33695 7.10527,7.87711 8.53497,12.99001c1.62736,5.98285 -0.12119,12.83276 -1.47155,16.68331z" fill="#ffecbb" stroke="none" stroke-width="1" stroke-linecap="butt" stroke-linejoin="miter"/><path d="M166.97029,58.20185c1.14117,0 2.17558,0.65643 2.92434,1.71825c0.7502,1.06038 1.21331,2.52616 1.21331,4.14342c0,1.61726 -0.4631,3.08304 -1.21331,4.14342c-0.74876,1.06182 -1.78317,1.71825 -2.92434,1.71825c-1.14117,0 -2.17558,-0.65643 -2.92434,-1.71825c-0.7502,-1.06038 -1.21331,-2.52616 -1.21331,-4.14342c0,-1.61726 0.4631,-3.08304 1.21331,-4.14342c0.74876,-1.06182 1.78317,-1.71825 2.92434,-1.71825z" fill="#723e0a" stroke="#723e0a" stroke-width="0.96" stroke-linecap="round" stroke-linejoin="round"/><path d="M165.8623,60.75109c0.47753,0 0.91034,0.19476 1.2234,0.50783c0.31451,0.31451 0.50783,0.74732 0.50783,1.22629c0,0.47897 -0.19332,0.91178 -0.50783,1.22629c-0.31306,0.31306 -0.74587,0.50783 -1.2234,0.50783c-0.47753,0 -0.91034,-0.19476 -1.2234,-0.50783c-0.31451,-0.31451 -0.50783,-0.74732 -0.50783,-1.22629c0,-0.47897 0.19332,-0.91178 0.50783,-1.22629c0.31306,-0.31306 0.74587,-0.50783 1.2234,-0.50783z" fill="#ffffff" stroke="#ffffff" stroke-width="0.5" stroke-linecap="butt" stroke-linejoin="miter"/><path d="M190.03031,58.20185c1.14117,0 2.17558,0.65643 2.92434,1.71825c0.7502,1.06038 1.21331,2.52616 1.21331,4.14342c0,1.61726 -0.4631,3.08304 -1.21331,4.14342c-0.74876,1.06182 -1.78317,1.71825 -2.92434,1.71825c-1.14117,0 -2.17558,-0.65643 -2.92434,-1.71825c-0.7502,-1.06038 -1.21331,-2.52616 -1.21331,-4.14342c0,-1.61726 0.4631,-3.08304 1.21331,-4.14342c0.74876,-1.06182 1.78317,-1.71825 2.92434,-1.71825z" fill="#723e0a" stroke="#723e0a" stroke-width="0.96" stroke-linecap="round" stroke-linejoin="round"/><path d="M188.92232,60.75109c0.47753,0 0.91034,0.19476 1.2234,0.50783c0.31451,0.31451 0.50783,0.74732 0.50783,1.22629c0,0.47897 -0.19332,0.91178 -0.50783,1.22629c-0.31306,0.31306 -0.74587,0.50783 -1.2234,0.50783c-0.47753,0 -0.91034,-0.19476 -1.2234,-0.50783c-0.31451,-0.31451 -0.50783,-0.74732 -0.50783,-1.22629c0,-0.47897 0.19332,-0.91178 0.50783,-1.22629c0.31306,-0.31306 0.74587,-0.50783 1.2234,-0.50783z" fill="#ffffff" stroke="#ffffff" stroke-width="0.5" stroke-linecap="butt" stroke-linejoin="miter"/><path d="M188.66263,93.07896c0,0 -2.2506,5.34085 -10.16233,5.34085c-7.91173,0 -10.16233,-5.30623 -10.16233,-5.30623" fill="none" stroke="#723e0a" stroke-width="0.96" stroke-linecap="round" stroke-linejoin="round"/><path d="M178.5003,88.82879v9.62565" fill="none" stroke="#723e0a" stroke-width="0.96" stroke-linecap="round" stroke-linejoin="round"/><path d="M178.5003,77.59165c2.01111,0 3.83324,0.62901 5.15186,1.64611c1.32006,1.0171 2.13663,2.42228 2.13663,3.97174c0,1.5509 -0.81656,2.95608 -2.13663,3.97318c-1.31862,1.0171 -3.14074,1.64611 -5.15186,1.64611c-2.01111,0 -3.83324,-0.62901 -5.15186,-1.64611c-1.32006,-1.0171 -2.13663,-2.42228 -2.13663,-3.97318c0,-1.54945 0.81656,-2.95464 2.13663,-3.97174c1.31862,-1.0171 3.14074,-1.64611 5.15186,-1.64611z" fill="#5e154d" stroke="#5e154d" stroke-width="0.96" stroke-linecap="round" stroke-linejoin="round"/><path d="M183.81518,82.53431c0.15581,0.29431 0.22506,0.43281 0.32893,0.67518" fill="none" stroke="#ffffff" stroke-width="0.96" stroke-linecap="round" stroke-linejoin="round"/><path d="M178.5003,79.48158c1.37489,0.05194 2.70361,0.5035 3.82602,1.29987" fill="none" stroke="#ffffff" stroke-width="0.96" stroke-linecap="round" stroke-linejoin="round"/></g><path d="M228.3771,144.28448c-8.22335,3.5043 -13.38243,-3.91836 -13.00155,-12.8847c0.25968,-6.26129 0.46743,-11.44633 -3.63559,-17.69031c-2.78728,-4.11023 -7.54817,-6.93791 -13.84986,-8.67203c-6.34208,-1.55811 -12.86017,-2.2809 -19.3898,-2.14961c-6.5253,-0.1183 -13.03762,0.61603 -19.37249,2.18424c-6.319,1.73412 -11.07989,4.52717 -13.84986,8.67203c-4.12033,6.20935 -3.91258,11.39439 -3.6529,17.58643c0.38087,8.96634 -4.7782,16.35437 -13.00155,12.8847c-11.78969,-5.01192 -13.6248,-37.35566 -5.1937,-59.43464c9.22747,-24.1579 29.60407,-37.92841 55.0705,-37.92841c25.46643,0 45.84303,13.77051 55.0705,37.92841c8.4311,22.07898 6.59599,54.42273 -5.1937,59.50389z" fill="none" stroke="#723e0a" stroke-width="0.96" stroke-linecap="round" stroke-linejoin="round"/></g></g></g></svg>