<svg version="1.1" xmlns="http://www.w3.org/2000/svg" xmlns:xlink="http://www.w3.org/1999/xlink" width="310" height="439.04324" viewBox="0,0,310,439.04324"><g transform="translate(-25,-82.625)"><g data-paper-data="{&quot;isPaintingLayer&quot;:true}" fill-rule="nonzero" stroke-linejoin="miter" stroke-miterlimit="10" stroke-dasharray="" stroke-dashoffset="0" style="mix-blend-mode: normal"><g data-paper-data="{&quot;index&quot;:null}" fill="#000000" stroke="#000000" stroke-width="2" stroke-linecap="butt"><path d="M180.00006,409.48728c77.5818,0 140.47426,14.90342 140.47426,33.28773c0,18.38429 -62.89247,33.28773 -140.47426,33.28773c-77.5818,0 -140.47426,-14.90342 -140.47426,-33.28773c0,-18.38429 62.89247,-33.28773 140.47426,-33.28773z"/><path d="M251.23582,520.66824c-13.97207,0 -25.29868,-11.32661 -25.29868,-25.29868c0,-13.97207 11.32661,-25.29868 25.29868,-25.29868c13.97207,0 25.29868,11.32661 25.29868,25.29868c0,13.97207 -11.32661,25.29868 -25.29868,25.29868z"/><path d="M108.76429,520.66824c-13.97207,0 -25.29868,-11.32661 -25.29868,-25.29868c0,-13.97207 11.32661,-25.29868 25.29868,-25.29868c13.97207,0 25.29868,11.32661 25.29868,25.29868c0,13.97207 -11.32661,25.29868 -25.29868,25.29868z"/></g><g fill="#ffc266" stroke="none" stroke-linecap="butt"><g><path d="M150.99998,435.875v-54h13v54z" stroke-width="NaN"/><path d="M180.99998,449.875c0,4.40937 -12.49451,-7.61129 -16.49874,-4.78885c-3.76963,2.65708 -0.87727,14.28885 -6.50126,14.28885c-5.12943,0 -4.82932,-10.3574 -8.47629,-12.61207c-4.59908,-2.8433 -15.52371,6.88648 -15.52371,2.11207c0,-8.56041 12.40202,-20.5 24,-20.5c11.59798,0 23,12.93959 23,21.5z" stroke-width="0"/></g><g><path d="M195.99998,435.875v-54h13v54z" stroke-width="NaN"/><path d="M225.99998,449.875c0,4.40937 -12.49451,-7.61129 -16.49874,-4.78885c-3.76963,2.65708 -0.87727,14.28885 -6.50126,14.28885c-5.12942,0 -4.82932,-10.35739 -8.47629,-12.61207c-4.59908,-2.8433 -15.52371,6.88648 -15.52371,2.11207c0,-8.56041 12.40202,-20.5 24,-20.5c11.59798,0 23,12.93959 23,21.5z" stroke-width="0"/></g></g><path d="M85.33333,319.125l-60.33333,-136c0,0 46.46761,25.72992 65.82147,28.47029c18.24766,2.58374 48.51186,-12.47029 48.51186,-12.47029c0,0 1.09787,35.15291 -6.79841,52.70019c-9.72145,21.60322 -47.20159,67.29981 -47.20159,67.29981z" fill="#e5e5e5" stroke="none" stroke-width="0" stroke-linecap="round"/><path d="M210,198.125c0,0 28.13112,14.85404 46.55068,12.47733c22.2029,-2.86489 78.44932,-28.47733 78.44932,-28.47733c0,0 -32.72196,68.7358 -44.6734,93.84101c-8.01067,16.82723 -20.06996,42.15899 -20.06996,42.15899c0,0 -38.31306,-53.18594 -48.63845,-74.09579c-9.32461,-18.88318 -11.61819,-45.90421 -11.61819,-45.90421z" fill="#e5e5e5" stroke="none" stroke-width="0" stroke-linecap="round"/><path d="M272.90624,337.125c0,43.90664 -42.53295,79.5 -95,79.5c-52.46705,0 -95,-35.59336 -95,-79.5c0,-43.90664 42.53295,-79.5 95,-79.5c52.46705,0 95,35.59336 95,79.5z" fill="#f8f8f8" stroke="none" stroke-width="0" stroke-linecap="butt"/><path d="M218,150.125c0,0 -12.9603,29.58263 -5.66426,63.14441c7.68387,35.34579 44.16426,79.85559 44.16426,79.85559h-157.5c0,0 30.24656,-42.01211 37.97617,-77.22475c7.23808,-32.97348 0.52383,-66.77525 0.52383,-66.77525z" fill="#ffffff" stroke="none" stroke-width="0" stroke-linecap="round"/><path d="M227.40625,125.125c0,23.4721 -22.1619,42.5 -49.5,42.5c-27.3381,0 -49.5,-19.0279 -49.5,-42.5c0,-23.4721 22.1619,-42.5 49.5,-42.5c27.3381,0 49.5,19.0279 49.5,42.5z" fill="#f2f2f2" stroke="none" stroke-width="0" stroke-linecap="butt"/><g fill="#9966ff"><path d="M182.91938,118.47916c0,9.38884 -11.86445,17 -26.5,17c-14.63555,0 -26.5,-7.61116 -26.5,-17c0,-9.38884 11.86445,-17 26.5,-17c14.63555,0 26.5,7.61116 26.5,17z" stroke="none" stroke-width="NaN" stroke-linecap="butt"/><path d="M227.91938,119.47916c0,9.38884 -11.86445,17 -26.5,17c-14.63555,0 -26.5,-7.61116 -26.5,-17c0,-9.38884 11.86445,-17 26.5,-17c14.63555,0 26.5,7.61116 26.5,17z" stroke="none" stroke-width="NaN" stroke-linecap="butt"/><path d="M144.91938,122.47916l-22,17l9,-20z" stroke="#000000" stroke-width="0" stroke-linecap="round"/><path d="M223.91938,122.47916l9,20l-22,-17z" data-paper-data="{&quot;index&quot;:null}" stroke="#000000" stroke-width="0" stroke-linecap="round"/></g><path d="M166.99998,121.625c0,6.90356 -4.70101,12.5 -10.5,12.5c-5.79899,0 -10.5,-5.59644 -10.5,-12.5c0,-6.90356 4.70101,-12.5 10.5,-12.5c5.79899,0 10.5,5.59644 10.5,12.5z" fill="#00c0c0" stroke="none" stroke-width="0" stroke-linecap="butt"/><path d="M211,122.625c0,6.90356 -4.70101,12.5 -10.5,12.5c-5.79899,0 -10.5,-5.59644 -10.5,-12.5c0,-6.90356 4.70101,-12.5 10.5,-12.5c5.79899,0 10.5,5.59644 10.5,12.5z" fill="#00c0c0" stroke="none" stroke-width="0" stroke-linecap="butt"/><path d="M162.75999,122.125c0,3.86599 -2.63257,7 -5.88,7c-3.24743,0 -5.88,-3.13401 -5.88,-7c0,-3.86599 2.63257,-7 5.88,-7c3.24743,0 5.88,3.13401 5.88,7z" fill="#000000" stroke="#000000" stroke-width="2.5" stroke-linecap="butt"/><path d="M206.75998,123.125c0,3.86599 -2.63256,7 -5.88,7c-3.24743,0 -5.88,-3.13401 -5.88,-7c0,-3.86599 2.63256,-7 5.88,-7c3.24743,0 5.88,3.13401 5.88,7z" fill="#000000" stroke="#000000" stroke-width="2.5" stroke-linecap="butt"/><path d="M177.00001,179.125l-16.04688,-33.5h33.5z" fill="#ff9e00" stroke="none" stroke-width="0" stroke-linecap="round"/><path d="M216.91937,226.47916h-86l8,-32l27,16l44,-22z" fill="#9966ff" stroke="#000000" stroke-width="0" stroke-linecap="round"/></g></g></svg>