<svg version="1.1" xmlns="http://www.w3.org/2000/svg" xmlns:xlink="http://www.w3.org/1999/xlink" width="86.74864" height="110.25989" viewBox="0,0,86.74864,110.25989"><g transform="translate(-136.62568,-269.87007)"><g data-paper-data="{&quot;isPaintingLayer&quot;:true}" fill-rule="nonzero" stroke-miterlimit="10" stroke-dasharray="" stroke-dashoffset="0" style="mix-blend-mode: normal"><path d="M141.87568,378.87997c-2.20914,0 -4,-1.79086 -4,-4v-99.75989c0,-2.20914 1.79086,-4 4,-4h76.24864c2.20914,0 4,1.79086 4,4v99.75989c0,2.20914 -1.79086,4 -4,4z" fill="#00e6e6" stroke="#000000" stroke-width="2.5" stroke-linecap="butt" stroke-linejoin="miter"/><g><g data-paper-data="{&quot;index&quot;:null}" stroke="#000000" stroke-width="2" stroke-linecap="butt" stroke-linejoin="miter"><path d="M177.19479,348.55771c16.94767,0 30.68648,3.25564 30.68648,7.27167c0,4.01603 -13.7388,7.27167 -30.68648,7.27167c-16.94767,0 -30.68648,-3.25564 -30.68648,-7.27167c0,-4.01603 13.7388,-7.27167 30.68648,-7.27167z" fill="#ffe600"/><path d="M192.75617,372.84509c-3.05219,0 -5.52647,-2.47429 -5.52647,-5.52647c0,-3.05219 2.47429,-5.52647 5.52647,-5.52647c3.05219,0 5.52647,2.47429 5.52647,5.52647c0,3.05219 -2.47429,5.52647 -5.52647,5.52647z" fill="#000000"/><path d="M161.63339,372.84509c-3.05219,0 -5.52647,-2.47429 -5.52647,-5.52647c0,-3.05219 2.47429,-5.52647 5.52647,-5.52647c3.05219,0 5.52647,2.47429 5.52647,5.52647c0,3.05219 -2.47429,5.52647 -5.52647,5.52647z" fill="#000000"/></g><g fill="#ffc266" stroke="none" stroke-linecap="butt" stroke-linejoin="miter"><path d="M170.85975,354.32208v-11.79625h2.83984v11.79625z" stroke-width="NaN"/><path d="M177.41321,357.38037c0,0.96322 -2.72941,-1.66268 -3.60413,-1.04612c-0.82347,0.58044 -0.19164,3.12139 -1.42019,3.12139c-1.12052,0 -1.05496,-2.26256 -1.85164,-2.7551c-1.00466,-0.62112 -3.39114,1.50435 -3.39114,0.46138c0,-1.87001 2.70921,-4.47821 5.24278,-4.47821c2.53357,0 5.02433,2.82664 5.02433,4.69666z" stroke-width="0"/></g><g fill="#ffc266" stroke="none" stroke-linecap="butt" stroke-linejoin="miter"><path d="M180.68996,354.32208v-11.79625h2.83984v11.79625z" stroke-width="NaN"/><path d="M187.24343,357.38037c0,0.96322 -2.72941,-1.66268 -3.60413,-1.04612c-0.82347,0.58044 -0.19164,3.12139 -1.42019,3.12139c-1.12052,0 -1.05496,-2.26256 -1.85164,-2.7551c-1.00466,-0.62112 -3.39114,1.50435 -3.39114,0.46138c0,-1.87001 2.70921,-4.47821 5.24278,-4.47821c2.53357,0 5.02433,2.82664 5.02433,4.69666z" stroke-width="0"/></g><path d="M156.51493,328.81815l-13.17976,-29.70908c0,0 10.15081,5.62068 14.37864,6.21931c3.98618,0.56442 10.59737,-2.72412 10.59737,-2.72412c0,0 0.23983,7.67912 -1.48511,11.51231c-2.12364,4.7192 -10.31115,14.70158 -10.31115,14.70158z" fill="#e5e5e5" stroke="none" stroke-width="0" stroke-linecap="round" stroke-linejoin="miter"/><path d="M183.74825,302.38579c0,0 6.14522,3.24485 10.16895,2.72566c4.8502,-0.62583 17.13718,-6.22085 17.13718,-6.22085c0,0 -7.14808,15.01527 -9.75886,20.49948c-1.74992,3.67589 -4.38426,9.20959 -4.38426,9.20959c0,0 -8.36945,-11.61842 -10.62503,-16.18616c-2.03695,-4.12501 -2.53798,-10.02773 -2.53798,-10.02773z" fill="#e5e5e5" stroke="none" stroke-width="0" stroke-linecap="round" stroke-linejoin="miter"/><path d="M197.49005,332.75023c0,9.59137 -9.29128,17.3667 -20.75266,17.3667c-11.46138,0 -20.75266,-7.77534 -20.75266,-17.3667c0,-9.59137 9.29128,-17.3667 20.75266,-17.3667c11.46138,0 20.75266,7.77534 20.75266,17.3667z" fill="#f8f8f8" stroke="none" stroke-width="0" stroke-linecap="butt" stroke-linejoin="miter"/><path d="M185.49585,291.90025c0,0 -2.83117,6.4623 -1.23735,13.79384c1.67853,7.72126 9.64764,17.44438 9.64764,17.44438h-34.40573c0,0 6.60733,-9.17751 8.29586,-16.86968c1.58115,-7.20303 0.11443,-14.58699 0.11443,-14.58699z" fill="#ffffff" stroke="none" stroke-width="0" stroke-linecap="round" stroke-linejoin="miter"/><path d="M187.55063,286.43902c0,5.12746 -4.84125,9.28409 -10.81323,9.28409c-5.97198,0 -10.81323,-4.15663 -10.81323,-9.28409c0,-5.12746 4.84125,-9.28409 10.81323,-9.28409c5.97198,0 10.81323,4.15663 10.81323,9.28409z" fill="#f2f2f2" stroke="none" stroke-width="0" stroke-linecap="butt" stroke-linejoin="miter"/><path d="M174.35493,285.67445c0,1.50808 -1.02693,2.73061 -2.29372,2.73061c-1.26678,0 -2.29372,-1.22254 -2.29372,-2.73061c0,-1.50808 1.02693,-2.73061 2.29372,-2.73061c1.26678,0 2.29372,1.22254 2.29372,2.73061z" fill="#000000" stroke="none" stroke-width="0" stroke-linecap="butt" stroke-linejoin="miter"/><path d="M183.96668,285.8929c0,1.50808 -1.02693,2.73061 -2.29372,2.73061c-1.26678,0 -2.29372,-1.22254 -2.29372,-2.73061c0,-1.50808 1.02693,-2.73061 2.29372,-2.73061c1.26678,0 2.29372,1.22254 2.29372,2.73061z" fill="#000000" stroke="none" stroke-width="0" stroke-linecap="butt" stroke-linejoin="miter"/><path d="M176.53943,298.23526l-3.50543,-7.31805h7.31805z" fill="#ff9e00" stroke="none" stroke-width="0" stroke-linecap="round" stroke-linejoin="miter"/><g><g><path d="M208.36349,282.41398l-0.61762,-0.49214c-0.30205,-2.24468 1.57785,-3.63093 3.83192,-3.05727c1.64209,0.36779 2.75335,1.90319 2.59218,3.58097c-0.73032,-1.72962 -2.4885,-2.57415 -4.0934,-1.95992c-0.82837,0.35652 -1.45576,1.0628 -1.71309,1.92836z" fill="#c47814" stroke="none" stroke-width="1" stroke-linecap="butt" stroke-linejoin="miter"/><path d="M214.16998,282.44552c-0.03306,0.41926 -0.16079,0.82574 -0.37418,1.1879c-0.5113,0.81184 -1.42983,1.2728 -2.38481,1.19691l-3.04751,-2.41636c0.25734,-0.86557 0.88472,-1.57184 1.71309,-1.92836c1.6049,-0.59169 3.36308,0.23029 4.0934,1.95992z" fill="#e69724" stroke="none" stroke-width="1" stroke-linecap="butt" stroke-linejoin="miter"/><path d="M214.16998,282.44552c-0.03306,0.41926 -0.16079,0.82574 -0.37418,1.1879c-0.5113,0.81184 -1.42983,1.2728 -2.38481,1.19691l-3.04751,-2.41636l-0.61762,-0.49214c-0.30205,-2.24468 1.57785,-3.63093 3.83192,-3.05727c1.64209,0.36779 2.75335,1.90319 2.59218,3.58097z" fill="none" stroke="#723e0a" stroke-width="0.96" stroke-linecap="round" stroke-linejoin="round"/><path d="M209.49504,283.3126c0.58042,-0.80583 1.52939,-1.26153 2.52005,-1.21006" fill="none" stroke="#723e0a" stroke-width="1.272" stroke-linecap="round" stroke-linejoin="round"/></g><g><path d="M191.85466,280.48562c-1.6049,-0.61423 -3.36308,0.23029 -4.0934,1.95992c-0.16117,-1.67778 0.95009,-3.21318 2.59218,-3.58097c2.25407,-0.57366 4.13397,0.81259 3.83192,3.05727l-0.61762,0.49214c-0.25734,-0.86557 -0.88472,-1.57184 -1.71309,-1.92836z" fill="#c47814" stroke="none" stroke-width="1" stroke-linecap="butt" stroke-linejoin="miter"/><path d="M191.85466,280.48562c0.82837,0.35652 1.45576,1.0628 1.71309,1.92836l-3.04751,2.41636c-0.95498,0.07589 -1.87351,-0.38507 -2.38481,-1.19691c-0.21339,-0.36216 -0.34112,-0.76864 -0.37418,-1.1879c0.73032,-1.72962 2.4885,-2.55161 4.0934,-1.95992z" fill="#e69724" stroke="none" stroke-width="1" stroke-linecap="butt" stroke-linejoin="miter"/><path d="M190.35345,278.86456c2.25407,-0.57366 4.13397,0.81259 3.83192,3.05727l-0.61762,0.49214l-3.04751,2.41636c-0.95498,0.07589 -1.87351,-0.38507 -2.38481,-1.19691c-0.21339,-0.36216 -0.34112,-0.76864 -0.37418,-1.1879c-0.16117,-1.67778 0.95009,-3.21318 2.59218,-3.58097z" fill="none" stroke="#723e0a" stroke-width="0.96" stroke-linecap="round" stroke-linejoin="round"/><path d="M189.91616,282.10254c0.99066,-0.05147 1.93963,0.40423 2.52005,1.21006" fill="none" stroke="#723e0a" stroke-width="1.272" stroke-linecap="round" stroke-linejoin="round"/></g><g stroke="none" stroke-width="1" stroke-linecap="butt" stroke-linejoin="miter"><path d="M186.783,304.27885c-1.96104,-2.70977 -2.02867,-9.55614 -0.15778,-14.45161c1.46966,-3.82967 4.02127,-6.66154 7.29418,-8.28259c-1.62744,1.67102 -3.52988,3.87024 -4.63888,5.9793c-2.05121,3.91082 -3.41717,8.34571 -2.49751,16.7549z" fill="#c47814"/><path d="M214.85973,304.62223c-0.2487,0.28777 -0.55601,0.51881 -0.90163,0.67735c-2.14137,0.90764 -3.4848,-1.02072 -3.38562,-3.35556c0.06762,-1.61241 0.12172,-2.9626 -0.95122,-4.57952c-0.72581,-1.07031 -1.96104,-1.80626 -3.60652,-2.25783c0.75061,-1.22434 1.00569,-2.68986 0.71229,-4.0964c-0.53647,-3.09785 -3.29546,-4.18619 -5.76141,-4.18619c-2.46596,0 -5.22494,1.08834 -5.76141,4.18619c-0.29491,1.40692 -0.03794,2.87357 0.7168,4.0964c-1.64547,0.45157 -2.88521,1.1785 -3.60652,2.25783c-1.07294,1.61692 -1.01884,2.96711 -0.95122,4.57952c0.10369,2.33484 -1.24425,4.25869 -3.38562,3.35556c-0.48387,-0.22466 -0.89675,-0.57779 -1.19466,-1.02072c-0.91966,-8.40919 0.44631,-12.84408 2.49751,-16.7549c1.109,-2.10906 3.01144,-4.30828 4.63888,-5.9793c2.19509,-1.06543 4.60695,-1.6064 7.04623,-1.58086c1.89981,-0.0124 3.78722,0.30881 5.57658,0.94859c2.46107,1.9385 4.5243,4.33533 6.07698,7.05863c2.58767,4.64264 3.02046,10.24251 2.24055,16.65121z" fill="#e69724"/><path d="M214.87325,304.64025c0.76638,-6.42674 0.3336,-12.02661 -2.25407,-16.66924c-1.55268,-2.7233 -3.61591,-5.12013 -6.07698,-7.05863c3.98069,1.45425 7.0823,4.52505 8.76383,8.91486c1.95654,5.13027 1.78973,12.3696 -0.43278,14.81302z" fill="#f8b547"/></g><g><path d="M191.3768,316.813c-2.42989,-6.33169 -2.42989,-11.23167 -2.42989,-11.23167" fill="#ffffff" stroke="#db20a5" stroke-width="1.272" stroke-linecap="butt" stroke-linejoin="miter"/><path d="M191.98089,316.40652c0.60334,0 1.14995,0.24532 1.54554,0.64203c0.39597,0.39634 0.64091,0.94408 0.64091,1.54817c0,0.60447 -0.24494,1.15183 -0.64091,1.54855c-0.39559,0.39634 -0.9422,0.64203 -1.54554,0.64203c-0.60334,0 -1.14995,-0.24569 -1.54554,-0.64203c-0.39597,-0.39672 -0.64091,-0.94408 -0.64091,-1.54855c0,-0.60409 0.24494,-1.15183 0.64091,-1.54817c0.39559,-0.39672 0.9422,-0.64203 1.54554,-0.64203z" fill="#723e0a" stroke="#723e0a" stroke-width="0.96" stroke-linecap="round" stroke-linejoin="round"/></g><g><path d="M212.98434,305.58133c0,0 0,4.89998 -2.42989,11.23167" fill="#ffffff" stroke="#db20a5" stroke-width="1.272" stroke-linecap="butt" stroke-linejoin="miter"/><path d="M209.95036,316.40652c0.60334,0 1.14995,0.24532 1.54554,0.64203c0.39597,0.39634 0.64091,0.94408 0.64091,1.54817c0,0.60447 -0.24494,1.15183 -0.64091,1.54855c-0.39559,0.39634 -0.9422,0.64203 -1.54554,0.64203c-0.60334,0 -1.14995,-0.24569 -1.54554,-0.64203c-0.39597,-0.39672 -0.64091,-0.94408 -0.64091,-1.54855c0,-0.60409 0.24494,-1.15183 0.64091,-1.54817c0.39559,-0.39672 0.9422,-0.64203 1.54554,-0.64203z" fill="#723e0a" stroke="#723e0a" stroke-width="0.96" stroke-linecap="round" stroke-linejoin="round"/></g><g><path d="M206.01475,295.12431c-0.23743,-0.06311 -0.48538,-0.1221 -0.74384,-0.17619h-0.1127c0.34713,-1.00269 0.80245,-2.78641 0.37869,-4.34435c-0.3723,-1.33141 -1.14883,-2.51367 -2.22251,-3.38261c1.78861,0.49477 3.12415,1.98959 3.41717,3.82516c0.29002,1.40128 0.03344,2.86042 -0.7168,4.07799z" fill="#ffffff" stroke="none" stroke-width="1" stroke-linecap="butt" stroke-linejoin="miter"/><path d="M205.15369,294.94811c-1.38062,-0.25997 -2.78341,-0.38282 -4.18807,-0.36591c-1.70032,-0.03419 -3.39764,0.15403 -5.04912,0.56014c-0.75061,-1.22434 -1.00682,-2.68911 -0.7168,-4.09603c0.54098,-3.09822 3.29996,-4.18657 5.76592,-4.18657c0.72882,-0.00188 1.45388,0.09843 2.15489,0.29791l0.19385,0.06349c1.07369,0.86895 1.85022,2.05121 2.22251,3.38261c0.42377,1.55794 -0.03156,3.34166 -0.38319,4.34435z" fill="#ffecbb" stroke="none" stroke-width="1" stroke-linecap="butt" stroke-linejoin="miter"/><path d="M197.9632,282.96247c0.29716,0 0.56652,0.17094 0.7615,0.44743c0.19535,0.27612 0.31595,0.65781 0.31595,1.07895c0,0.42114 -0.12059,0.80283 -0.31595,1.07895c-0.19498,0.2765 -0.46434,0.44743 -0.7615,0.44743c-0.29716,0 -0.56652,-0.17094 -0.7615,-0.44743c-0.19535,-0.27612 -0.31595,-0.65781 -0.31595,-1.07895c0,-0.42114 0.12059,-0.80283 0.31595,-1.07895c0.19498,-0.2765 0.46434,-0.44743 0.7615,-0.44743z" fill="#723e0a" stroke="#723e0a" stroke-width="0.96" stroke-linecap="round" stroke-linejoin="round"/><path d="M197.67468,283.62629c0.12435,0 0.23705,0.05072 0.31857,0.13224c0.0819,0.0819 0.13224,0.1946 0.13224,0.31933c0,0.12472 -0.05034,0.23743 -0.13224,0.31933c-0.08152,0.08152 -0.19423,0.13224 -0.31857,0.13224c-0.12435,0 -0.23705,-0.05072 -0.31857,-0.13224c-0.0819,-0.0819 -0.13224,-0.1946 -0.13224,-0.31933c0,-0.12472 0.05034,-0.23743 0.13224,-0.31933c0.08152,-0.08152 0.19423,-0.13224 0.31857,-0.13224z" fill="#ffffff" stroke="#ffffff" stroke-width="0.5" stroke-linecap="butt" stroke-linejoin="miter"/><path d="M203.96805,282.96247c0.29716,0 0.56652,0.17094 0.7615,0.44743c0.19535,0.27612 0.31595,0.65781 0.31595,1.07895c0,0.42114 -0.12059,0.80283 -0.31595,1.07895c-0.19498,0.2765 -0.46434,0.44743 -0.7615,0.44743c-0.29716,0 -0.56652,-0.17094 -0.7615,-0.44743c-0.19535,-0.27612 -0.31595,-0.65781 -0.31595,-1.07895c0,-0.42114 0.12059,-0.80283 0.31595,-1.07895c0.19498,-0.2765 0.46434,-0.44743 0.7615,-0.44743z" fill="#723e0a" stroke="#723e0a" stroke-width="0.96" stroke-linecap="round" stroke-linejoin="round"/><path d="M203.67953,283.62629c0.12435,0 0.23705,0.05072 0.31857,0.13224c0.0819,0.0819 0.13224,0.1946 0.13224,0.31933c0,0.12472 -0.05034,0.23743 -0.13224,0.31933c-0.08152,0.08152 -0.19423,0.13224 -0.31857,0.13224c-0.12435,0 -0.23705,-0.05072 -0.31857,-0.13224c-0.0819,-0.0819 -0.13224,-0.1946 -0.13224,-0.31933c0,-0.12472 0.05034,-0.23743 0.13224,-0.31933c0.08152,-0.08152 0.19423,-0.13224 0.31857,-0.13224z" fill="#ffffff" stroke="#ffffff" stroke-width="0.5" stroke-linecap="butt" stroke-linejoin="miter"/><path d="M203.61191,292.0445c0,0 -0.58606,1.39076 -2.64628,1.39076c-2.06022,0 -2.64628,-1.38175 -2.64628,-1.38175" fill="none" stroke="#723e0a" stroke-width="0.96" stroke-linecap="round" stroke-linejoin="round"/><path d="M200.96562,290.93775v2.50653" fill="none" stroke="#723e0a" stroke-width="0.96" stroke-linecap="round" stroke-linejoin="round"/><path d="M200.96562,288.01158c0.5237,0 0.99818,0.16379 1.34155,0.42865c0.34374,0.26485 0.55638,0.63076 0.55638,1.03424c0,0.40386 -0.21263,0.76977 -0.55638,1.03462c-0.34337,0.26485 -0.81785,0.42865 -1.34155,0.42865c-0.5237,0 -0.99818,-0.16379 -1.34155,-0.42865c-0.34374,-0.26485 -0.55638,-0.63076 -0.55638,-1.03462c0,-0.40348 0.21263,-0.76939 0.55638,-1.03424c0.34337,-0.26485 0.81785,-0.42865 1.34155,-0.42865z" fill="#5e154d" stroke="#5e154d" stroke-width="0.96" stroke-linecap="round" stroke-linejoin="round"/><path d="M202.34962,289.29866c0.04057,0.07664 0.05861,0.1127 0.08565,0.17582" fill="none" stroke="#ffffff" stroke-width="0.96" stroke-linecap="round" stroke-linejoin="round"/><path d="M200.96562,288.50372c0.35802,0.01353 0.70402,0.13111 0.9963,0.33849" fill="none" stroke="#ffffff" stroke-width="0.96" stroke-linecap="round" stroke-linejoin="round"/></g><path d="M213.95359,305.37847c-2.14137,0.91252 -3.4848,-1.02034 -3.38562,-3.35519c0.06762,-1.63045 0.12172,-2.98064 -0.94671,-4.60657c-0.72581,-1.07031 -1.96555,-1.80664 -3.60652,-2.25821c-1.65148,-0.40573 -3.3488,-0.59395 -5.04912,-0.55976c-1.69919,-0.03081 -3.39501,0.16041 -5.04462,0.56878c-1.64547,0.45157 -2.88521,1.17888 -3.60652,2.25821c-1.07294,1.61692 -1.01884,2.96711 -0.95122,4.57952c0.09918,2.33484 -1.24425,4.25869 -3.38562,3.35519c-3.07005,-1.30511 -3.54791,-9.72745 -1.35244,-15.47684c2.40284,-6.29074 7.70893,-9.87659 14.34041,-9.87659c6.63148,0 11.93757,3.58585 14.34041,9.87659c2.19547,5.74939 1.7176,14.17173 -1.35244,15.49487z" fill="none" stroke="#723e0a" stroke-width="0.96" stroke-linecap="round" stroke-linejoin="round"/></g></g><path d="M139.58845,376.03887v-48.49923h80.82313v48.49923z" fill-opacity="0.50196" fill="#ffffff" stroke="none" stroke-width="NaN" stroke-linecap="butt" stroke-linejoin="miter"/><text transform="translate(180,354.95299) scale(0.33272,0.33272)" font-size="40" xml:space="preserve" fill="#000000" fill-rule="nonzero" stroke="none" stroke-width="1" stroke-linecap="butt" stroke-linejoin="miter" stroke-miterlimit="10" stroke-dasharray="" stroke-dashoffset="0" font-family="Playful" font-weight="normal" text-anchor="middle" style="mix-blend-mode: normal"><tspan x="0" dy="0">Ведмедик</tspan></text></g></g></svg>