<svg version="1.1" xmlns="http://www.w3.org/2000/svg" xmlns:xlink="http://www.w3.org/1999/xlink" width="86.74864" height="110.25989" viewBox="0,0,86.74864,110.25989"><g transform="translate(-136.62568,-269.87006)"><g data-paper-data="{&quot;isPaintingLayer&quot;:true}" fill-rule="nonzero" stroke-linejoin="miter" stroke-miterlimit="10" stroke-dasharray="" stroke-dashoffset="0" style="mix-blend-mode: normal"><path d="M141.87568,378.87995c-2.20914,0 -4,-1.79086 -4,-4v-99.75989c0,-2.20914 1.79086,-4 4,-4h76.24864c2.20914,0 4,1.79086 4,4v99.75989c0,2.20914 -1.79086,4 -4,4z" fill="#00e6e6" stroke="#000000" stroke-width="2.5" stroke-linecap="butt"/><g><g data-paper-data="{&quot;index&quot;:null}" fill="#000000" stroke="#000000" stroke-width="2" stroke-linecap="butt"><path d="M180.00002,348.5577c16.94767,0 30.68648,3.25564 30.68648,7.27167c0,4.01603 -13.7388,7.27167 -30.68648,7.27167c-16.94767,0 -30.68648,-3.25564 -30.68648,-7.27167c0,-4.01603 13.7388,-7.27167 30.68648,-7.27167z"/><path d="M195.5614,372.84508c-3.05219,0 -5.52647,-2.47429 -5.52647,-5.52647c0,-3.05219 2.47429,-5.52647 5.52647,-5.52647c3.05219,0 5.52647,2.47429 5.52647,5.52647c0,3.05219 -2.47429,5.52647 -5.52647,5.52647z"/><path d="M164.43861,372.84508c-3.05219,0 -5.52647,-2.47429 -5.52647,-5.52647c0,-3.05219 2.47429,-5.52647 5.52647,-5.52647c3.05219,0 5.52647,2.47429 5.52647,5.52647c0,3.05219 -2.47429,5.52647 -5.52647,5.52647z"/></g><g fill="#ffc266" stroke="none" stroke-linecap="butt"><path d="M173.66497,354.32207v-11.79625h2.83984v11.79625z" stroke-width="NaN"/><path d="M180.21843,357.38036c0,0.96322 -2.72941,-1.66268 -3.60413,-1.04612c-0.82347,0.58044 -0.19164,3.12139 -1.42019,3.12139c-1.12052,0 -1.05496,-2.26256 -1.85164,-2.7551c-1.00466,-0.62112 -3.39114,1.50435 -3.39114,0.46138c0,-1.87001 2.70921,-4.47821 5.24278,-4.47821c2.53357,0 5.02433,2.82664 5.02433,4.69666z" stroke-width="0"/></g><g fill="#ffc266" stroke="none" stroke-linecap="butt"><path d="M183.49519,354.32207v-11.79625h2.83984v11.79625z" stroke-width="NaN"/><path d="M190.04865,357.38036c0,0.96322 -2.72941,-1.66268 -3.60413,-1.04612c-0.82347,0.58044 -0.19164,3.12139 -1.42019,3.12139c-1.12052,0 -1.05496,-2.26256 -1.85164,-2.7551c-1.00466,-0.62112 -3.39114,1.50435 -3.39114,0.46138c0,-1.87001 2.70921,-4.47821 5.24278,-4.47821c2.53357,0 5.02433,2.82664 5.02433,4.69666z" stroke-width="0"/></g><path d="M159.32015,328.81814l-13.17976,-29.70908c0,0 10.15081,5.62068 14.37864,6.21931c3.98618,0.56442 10.59737,-2.72412 10.59737,-2.72412c0,0 0.23983,7.67912 -1.48511,11.51231c-2.12364,4.7192 -10.31115,14.70158 -10.31115,14.70158z" fill="#e5e5e5" stroke="none" stroke-width="0" stroke-linecap="round"/><path d="M186.55348,302.38578c0,0 6.14522,3.24485 10.16895,2.72566c4.8502,-0.62583 17.13718,-6.22085 17.13718,-6.22085c0,0 -7.14808,15.01527 -9.75886,20.49948c-1.74992,3.67589 -4.38426,9.20959 -4.38426,9.20959c0,0 -8.36945,-11.61842 -10.62503,-16.18616c-2.03695,-4.12501 -2.53798,-10.02773 -2.53798,-10.02773z" fill="#e5e5e5" stroke="none" stroke-width="0" stroke-linecap="round"/><path d="M200.29528,332.75022c0,9.59137 -9.29128,17.3667 -20.75266,17.3667c-11.46138,0 -20.75266,-7.77534 -20.75266,-17.3667c0,-9.59137 9.29128,-17.3667 20.75266,-17.3667c11.46138,0 20.75266,7.77534 20.75266,17.3667z" fill="#f8f8f8" stroke="none" stroke-width="0" stroke-linecap="butt"/><path d="M188.30107,291.90024c0,0 -2.83117,6.4623 -1.23735,13.79384c1.67853,7.72126 9.64764,17.44438 9.64764,17.44438h-34.40573c0,0 6.60733,-9.17751 8.29586,-16.86968c1.58115,-7.20303 0.11443,-14.58699 0.11443,-14.58699z" fill="#ffffff" stroke="none" stroke-width="0" stroke-linecap="round"/><path d="M190.35586,286.43901c0,5.12746 -4.84125,9.28409 -10.81323,9.28409c-5.97198,0 -10.81323,-4.15663 -10.81323,-9.28409c0,-5.12746 4.84125,-9.28409 10.81323,-9.28409c5.97198,0 10.81323,4.15663 10.81323,9.28409z" fill="#f2f2f2" stroke="none" stroke-width="0" stroke-linecap="butt"/><path d="M179.34466,298.23526l-3.50543,-7.31805h7.31805z" fill="#ff9e00" stroke="none" stroke-width="0" stroke-linecap="round"/><g fill="#9966ff"><path d="M181.58352,285.28847c0,2.55214 -3.22507,4.62106 -7.20341,4.62106c-3.97833,0 -7.2034,-2.06892 -7.2034,-4.62106c0,-2.55214 3.22507,-4.62106 7.2034,-4.62106c3.97833,0 7.20341,2.06892 7.20341,4.62106z" stroke="none" stroke-width="NaN" stroke-linecap="butt"/><path d="M193.81574,285.5603c0,2.55214 -3.22508,4.62106 -7.20341,4.62106c-3.97833,0 -7.20341,-2.06892 -7.20341,-4.62106c0,-2.55214 3.22507,-4.62105 7.20341,-4.62105c3.97833,0 7.20341,2.06891 7.20341,4.62105z" stroke="none" stroke-width="NaN" stroke-linecap="butt"/><path d="M171.25412,286.37578l-5.98019,4.62105l2.44644,-5.43653z" stroke="#000000" stroke-width="0" stroke-linecap="round"/><path d="M192.72843,286.37578l2.44644,5.43653l-5.98019,-4.62106z" data-paper-data="{&quot;index&quot;:null}" stroke="#000000" stroke-width="0" stroke-linecap="round"/></g><path d="M176.23393,285.78366c0,0.84452 -0.57508,1.52914 -1.28448,1.52914c-0.7094,0 -1.28448,-0.68462 -1.28448,-1.52914c0,-0.84452 0.57508,-1.52914 1.28448,-1.52914c0.7094,0 1.28448,0.68462 1.28448,1.52914z" fill="#000000" stroke="#000000" stroke-width="2.5" stroke-linecap="butt"/><path d="M185.84568,286.00211c0,0.84452 -0.57508,1.52914 -1.28448,1.52914c-0.7094,0 -1.28448,-0.68462 -1.28448,-1.52914c0,-0.84452 0.57508,-1.52914 1.28448,-1.52914c0.7094,0 1.28448,0.68462 1.28448,1.52914z" fill="#000000" stroke="#000000" stroke-width="2.5" stroke-linecap="butt"/><path d="M190.82562,314.64576h-23.37709l2.17461,-8.69845l7.33932,4.34923l11.96038,-5.98019z" fill="#9966ff" stroke="#000000" stroke-width="0" stroke-linecap="round"/></g><path d="M139.58845,376.03889v-48.49923h80.82313v48.49923z" fill-opacity="0.50196" fill="#ffffff" stroke="none" stroke-width="NaN" stroke-linecap="butt"/><text transform="translate(180,354.953) scale(0.33272,0.33272)" font-size="40" xml:space="preserve" fill="#000000" fill-rule="nonzero" stroke="none" stroke-width="1" stroke-linecap="butt" stroke-linejoin="miter" stroke-miterlimit="10" stroke-dasharray="" stroke-dashoffset="0" font-family="Playful" font-weight="normal" text-anchor="middle" style="mix-blend-mode: normal"><tspan x="0" dy="0">У масці</tspan></text></g></g></svg>