<svg version="1.1" xmlns="http://www.w3.org/2000/svg" xmlns:xlink="http://www.w3.org/1999/xlink" width="312.4085" height="482.70673" viewBox="0,0,312.4085,482.70673"><g transform="translate(-12.33875,-38.96151)"><g data-paper-data="{&quot;isPaintingLayer&quot;:true}" fill-rule="nonzero" stroke-miterlimit="10" stroke-dasharray="" stroke-dashoffset="0" style="mix-blend-mode: normal"><g data-paper-data="{&quot;index&quot;:null}" stroke="#000000" stroke-width="2" stroke-linecap="butt" stroke-linejoin="miter"><path d="M180.00006,409.48731c77.5818,0 140.47426,14.90342 140.47426,33.28773c0,18.38429 -62.89247,33.28773 -140.47426,33.28773c-77.5818,0 -140.47426,-14.90342 -140.47426,-33.28773c0,-18.38429 62.89247,-33.28773 140.47426,-33.28773z" fill="#ffe600"/><path d="M251.23582,520.66825c-13.97207,0 -25.29868,-11.32661 -25.29868,-25.29868c0,-13.97207 11.32661,-25.29868 25.29868,-25.29868c13.97207,0 25.29868,11.32661 25.29868,25.29868c0,13.97207 -11.32661,25.29868 -25.29868,25.29868z" fill="#000000"/><path d="M108.76429,520.66825c-13.97207,0 -25.29868,-11.32661 -25.29868,-25.29868c0,-13.97207 11.32661,-25.29868 25.29868,-25.29868c13.97207,0 25.29868,11.32661 25.29868,25.29868c0,13.97207 -11.32661,25.29868 -25.29868,25.29868z" fill="#000000"/></g><g fill="#ffc266" stroke="none" stroke-linecap="butt" stroke-linejoin="miter"><path d="M200.50004,413.75008v-54h13v54z" stroke-width="NaN"/><path d="M230.50004,427.75008c0,4.40937 -12.49451,-7.61129 -16.49874,-4.78885c-3.76963,2.65708 -0.87727,14.28885 -6.50126,14.28885c-5.12943,0 -4.82932,-10.3574 -8.47629,-12.61207c-4.59908,-2.8433 -15.52371,6.88648 -15.52371,2.11207c0,-8.56041 12.40202,-20.5 24,-20.5c11.59798,0 23,12.93959 23,21.5z" stroke-width="0"/></g><g fill="#ffc266" stroke="none" stroke-linecap="butt" stroke-linejoin="miter"><path d="M173.50004,432.75008v-54h13v54z" stroke-width="NaN"/><path d="M203.50004,446.75008c0,4.40937 -12.49451,-7.61129 -16.49874,-4.78885c-3.76963,2.65708 -0.87727,14.28885 -6.50126,14.28885c-5.12942,0 -4.82932,-10.35739 -8.47629,-12.61207c-4.59908,-2.8433 -15.52371,6.88648 -15.52371,2.11207c0,-8.56041 12.40202,-20.5 24,-20.5c11.59798,0 23,12.93959 23,21.5z" stroke-width="0"/></g><path d="M282.85294,222.64045c17.79814,0 41.89431,0 41.89431,0c0,0 -24.09617,64.45278 -41.89431,64.45278c-17.79814,0 -32.22639,-14.42825 -32.22639,-32.22639c0,-17.79814 14.42825,-32.22639 32.22639,-32.22639z" fill="#e5e5e5" stroke="none" stroke-width="NaN" stroke-linecap="butt" stroke-linejoin="miter"/><path d="M138.09273,302.90486c15.92438,-5.61046 73.80344,-52.84435 111.68638,-50.60764c42.94975,2.53587 65.33373,56.10359 65.33373,77.21215c0,18.25871 -24.16199,56.47541 -68.09069,69.27342c-51.65044,15.04762 -126.03802,2.60414 -153.00728,-6.07003c-13.14216,-4.22693 -43.42474,-21.98488 -58.70654,-52.99257c-7.73537,-15.69552 -4.94078,-32.67443 -8.40911,-48.70215c-5.33617,-24.65933 -14.56047,-45.69997 -14.56047,-45.69997c0,0 84.40814,72.15369 125.75398,57.58679z" fill="#f8f8f8" stroke="none" stroke-width="0" stroke-linecap="butt" stroke-linejoin="miter"/><path d="M244.71618,172.50138c0,0 12.92491,16.58399 19.47396,46.41855c6.99378,31.86055 36.36101,69.8733 36.36101,69.8733h-100.50672c0,0 12.44401,-49.15651 11.21855,-71.28603c-1.1592,-20.93295 -18.38357,-58.10103 -18.38357,-58.10103z" fill="#ffffff" stroke="none" stroke-width="0" stroke-linecap="round" stroke-linejoin="miter"/><path d="M229.15641,98.33185c24.73565,0 44.78783,17.21653 44.78783,38.45419c0,21.23766 -20.0522,38.45419 -44.78783,38.45419c-24.73565,0 -44.78783,-17.21653 -44.78783,-38.45419c0,-21.23766 20.0522,-38.45419 44.78783,-38.45419z" fill="#f2f2f2" stroke="none" stroke-width="0" stroke-linecap="butt" stroke-linejoin="miter"/><path d="M249.32858,171.10448l22.07824,-20.76789l10.19215,32.02629z" fill="#ff9e00" stroke="none" stroke-width="0" stroke-linecap="round" stroke-linejoin="miter"/><path d="M115.76451,337.38468c-34.58949,-16.63474 -80.51173,-107.74068 -80.51173,-107.74068c0,0 33.534,8.1318 63.6645,0.90973c12.55998,-3.01055 61.82902,-23.4036 84.00653,-12.75079c30.82918,14.80856 58.47286,77.62004 49.31505,98.22419c-15.74564,35.42612 -81.88485,37.99229 -116.47434,21.35755z" fill="#ffffff" stroke="none" stroke-width="0" stroke-linecap="butt" stroke-linejoin="miter"/><path d="M105.99256,345.07751c-28.67277,-13.78928 -85.73978,-113.31108 -85.73978,-113.31108c0,0 46.79783,30.74081 71.77436,24.75412c10.41153,-2.49558 51.25284,-19.40029 69.63677,-10.5697c25.55569,12.27548 48.47077,64.34273 40.87945,81.42243c-13.05227,29.36629 -67.87802,31.49351 -96.55079,17.70423z" fill="#e5e5e5" stroke="none" stroke-width="0" stroke-linecap="butt" stroke-linejoin="miter"/><g stroke-linecap="butt" stroke-linejoin="miter"><path d="M241.00005,125.69001c5.24695,0 9.50045,5.06368 9.50045,11.31006c0,6.24637 -4.2535,11.31006 -9.50045,11.31006c-5.24695,0 -9.50045,-5.06368 -9.50045,-11.31006c0,-6.24637 4.2535,-11.31006 9.50045,-11.31006z" fill="#00c0c0" stroke="none" stroke-width="0"/><path d="M240.65621,131.11882c2.93829,0 5.32025,2.83567 5.32025,6.33364c0,3.49798 -2.38197,6.33364 -5.32025,6.33364c-2.93829,0 -5.32025,-2.83567 -5.32025,-6.33364c0,-3.49798 2.38197,-6.33364 5.32025,-6.33364z" fill="#000000" stroke="#000000" stroke-width="2.5"/></g><g><g><path d="M217.65129,58.43903l-3.02005,-0.27663c-5.7039,-6.56635 -2.59504,-14.98018 5.84854,-17.89364c6.04543,-2.2833 12.85013,0.30006 15.87179,6.02419c-5.9919,-4.01014 -13.41541,-3.0119 -17.27015,2.3444c-1.90635,2.89136 -2.42999,6.48119 -1.43013,9.80168z" fill="#c47814" stroke="none" stroke-width="1" stroke-linecap="butt" stroke-linejoin="miter"/><path d="M236.35158,46.29296c0.77823,1.41518 1.2257,2.98905 1.3048,4.60133c0.07156,3.68376 -1.90385,7.10044 -5.12855,8.87119l-14.87653,-1.32645c-0.99985,-3.3205 -0.47622,-6.91032 1.43013,-9.80168c3.90229,-5.28395 11.27825,-6.35454 17.27015,-2.3444z" fill="#e69724" stroke="none" stroke-width="1" stroke-linecap="butt" stroke-linejoin="miter"/><path d="M236.35158,46.29296c0.77823,1.41518 1.2257,2.98905 1.3048,4.60133c0.07156,3.68376 -1.90385,7.10044 -5.12855,8.87119l-14.87653,-1.32645l-3.02005,-0.27663c-5.7039,-6.56635 -2.59504,-14.98018 5.84854,-17.89364c6.04543,-2.2833 12.85013,0.30006 15.87179,6.02419z" fill="none" stroke="#723e0a" stroke-width="0.96" stroke-linecap="round" stroke-linejoin="round"/><path d="M223.17797,58.93612c0.16295,-3.81027 2.24711,-7.27426 5.53483,-9.19866" fill="none" stroke="#723e0a" stroke-width="1.272" stroke-linecap="round" stroke-linejoin="round"/></g><g><path d="M160.60511,87.07195c-6.44589,1.41399 -10.30677,7.8326 -9.00224,14.9236c-4.05607,-5.04426 -3.72845,-12.31546 0.76547,-16.95932c6.02359,-6.59535 14.98036,-6.11187 18.74565,1.72867l-0.94396,2.88204c-2.65153,-2.2349 -6.15458,-3.17812 -9.56492,-2.57499z" fill="#c47814" stroke="none" stroke-width="1" stroke-linecap="butt" stroke-linejoin="miter"/><path d="M160.60511,87.07195c3.41033,-0.60313 6.91339,0.34008 9.56492,2.57499l-4.68309,14.18235c-2.90457,2.25781 -6.82452,2.71596 -10.17772,1.18913c-1.44866,-0.71212 -2.71594,-1.74715 -3.70635,-3.02287c-1.30453,-7.091 2.6039,-13.43728 9.00224,-14.9236z" fill="#e69724" stroke="none" stroke-width="1" stroke-linecap="butt" stroke-linejoin="miter"/><path d="M152.36833,85.03622c6.02359,-6.59535 14.98036,-6.11187 18.74565,1.72867l-0.94396,2.88204l-4.68309,14.18235c-2.90457,2.25781 -6.82452,2.71596 -10.17772,1.18913c-1.44866,-0.71212 -2.71594,-1.74715 -3.70635,-3.02287c-4.05607,-5.04426 -3.72845,-12.31546 0.76547,-16.95932z" fill="none" stroke="#723e0a" stroke-width="0.96" stroke-linecap="round" stroke-linejoin="round"/><path d="M157.79473,96.34963c3.0706,-2.25473 7.07713,-2.79394 10.63948,-1.43219" fill="none" stroke="#723e0a" stroke-width="1.272" stroke-linecap="round" stroke-linejoin="round"/></g><g stroke="none" stroke-width="1" stroke-linecap="butt" stroke-linejoin="miter"><path d="M194.51545,174.12469c-12.00881,-4.55965 -26.66653,-26.38783 -30.98841,-46.04412c-3.36143,-15.38974 -1.14613,-29.85951 5.93783,-41.96506c-1.69805,8.79518 -3.16449,19.86547 -2.27487,28.97286c1.66632,16.87678 6.63706,33.99003 27.32546,59.03634z" fill="#c47814"/><path d="M285.34126,116.00575c-0.19113,1.44805 -0.68998,2.83769 -1.46473,4.07545c-4.95746,7.42941 -13.33608,4.0747 -17.94257,-3.62729c-3.18398,-5.31705 -5.85826,-9.76408 -12.71193,-12.68987c-4.58676,-1.90383 -10.10308,-1.66018 -16.33607,0.3614c-0.17365,-5.51226 -2.44621,-10.75334 -6.35452,-14.64823c-8.25573,-8.80981 -19.40522,-6.48303 -27.31877,-1.28172c-7.91354,5.20132 -14.47187,14.51332 -9.65933,25.58623c2.02115,5.137 5.93931,9.30165 10.94062,11.63394c-4.32805,4.91985 -6.77323,9.8676 -6.81141,14.85269c-0.03269,7.45198 2.9888,11.6708 6.60679,16.70259c5.25751,7.27409 4.98971,16.29108 -3.78712,17.90951c-2.02667,0.29967 -4.09647,0.03725 -5.98676,-0.75577c-20.68839,-25.0463 -25.65913,-42.15955 -27.32546,-59.03634c-0.88961,-9.10739 0.57682,-20.17768 2.27487,-28.97286c4.79706,-8.04907 11.39594,-14.87235 19.27777,-19.93542c6.07056,-4.04695 12.80498,-6.99719 19.8967,-8.71826c11.98666,1.02987 23.66332,4.36971 34.39016,9.83411c18.09664,9.44073 31.29702,26.49852 42.31175,48.70983z" fill="#e69724"/><path d="M285.42269,116.03509c-11.09618,-22.24066 -24.29655,-39.29845 -42.39319,-48.73917c-10.72685,-5.46439 -22.40351,-8.80423 -34.39016,-9.83411c15.8419,-3.7294 32.27239,-0.41691 46.92785,10.12372c17.09978,12.33682 31.83405,35.92052 29.85551,48.44957z" fill="#f8b547"/></g><g><path d="M235.69515,204.65878c-21.15293,-15.1939 -31.48821,-30.91851 -31.48821,-30.91851" fill="#ffffff" stroke="#db20a5" stroke-width="1.272" stroke-linecap="butt" stroke-linejoin="miter"/><path d="M236.77637,202.08014c1.93619,-1.2726 4.20777,-1.63828 6.31404,-1.19957c2.10668,0.43671 4.04806,1.67783 5.32224,3.61643c1.27497,1.9398 1.64345,4.21301 1.20952,6.32131c-0.43352,2.1063 -1.66943,4.04771 -3.60562,5.3203c-1.93619,1.2726 -4.20856,1.63708 -6.31404,1.19957c-2.10747,-0.43792 -4.04806,-1.67783 -5.32303,-3.61763c-1.27418,-1.9386 -1.64345,-4.21301 -1.20873,-6.32011c0.43272,-2.10751 1.66943,-4.04771 3.60562,-5.3203z" fill="#723e0a" stroke="#723e0a" stroke-width="0.96" stroke-linecap="round" stroke-linejoin="round"/></g><g><path d="M281.3459,123.03931c0,0 10.33528,15.72461 15.8926,41.169" fill="#ffffff" stroke="#db20a5" stroke-width="1.272" stroke-linecap="butt" stroke-linejoin="miter"/><path d="M294.44253,164.17803c1.93619,-1.2726 4.20777,-1.63828 6.31404,-1.19957c2.10668,0.43671 4.04806,1.67783 5.32224,3.61643c1.27497,1.9398 1.64345,4.21301 1.20952,6.32131c-0.43352,2.1063 -1.66943,4.04771 -3.60562,5.3203c-1.93619,1.2726 -4.20856,1.63708 -6.31404,1.19957c-2.10747,-0.43792 -4.04806,-1.67783 -5.32303,-3.61763c-1.27418,-1.9386 -1.64345,-4.21301 -1.20873,-6.32011c0.43272,-2.10751 1.66943,-4.04771 3.60562,-5.3203z" fill="#723e0a" stroke="#723e0a" stroke-width="0.96" stroke-linecap="round" stroke-linejoin="round"/></g><g><path d="M236.92319,104.18211c-0.89506,0.29826 -1.81516,0.63196 -2.75871,1.00353l-0.36168,0.23772c-1.00094,-3.94992 -3.30208,-10.63449 -7.94807,-14.74028c-4.00302,-3.48737 -8.98867,-5.64349 -14.26709,-6.16736c6.78344,-2.18484 14.2223,-0.20476 19.03434,5.06772c3.88638,3.88515 6.14064,9.1089 6.30123,14.59867z" fill="#ffffff" stroke="none" stroke-width="1" stroke-linecap="butt" stroke-linejoin="miter"/><path d="M233.78833,105.43286c-4.97891,2.0778 -9.73973,4.6424 -14.2118,7.65943c-5.52865,3.47669 -10.57854,7.66076 -15.02176,12.44741c-4.99122,-2.34583 -8.90301,-6.50603 -10.93983,-11.63273c-4.79886,-11.08362 1.75946,-20.39563 9.673,-25.59695c2.3349,-1.54328 4.87327,-2.75072 7.54368,-3.58917l0.75601,-0.20513c5.27842,0.52387 10.26408,2.67999 14.26709,6.16736c4.646,4.10579 6.94713,10.79036 7.93361,14.74978z" fill="#ffecbb" stroke="none" stroke-width="1" stroke-linecap="butt" stroke-linejoin="miter"/><path d="M185.43243,82.13603c0.95363,-0.62679 2.17858,-0.64639 3.3875,-0.17033c1.20932,0.47407 2.40141,1.44459 3.28969,2.79607c0.88828,1.35148 1.30637,2.83072 1.26187,4.12889c-0.0425,1.29857 -0.54637,2.41528 -1.5,3.04206c-0.95363,0.62679 -2.17858,0.64639 -3.3875,0.17033c-1.20932,-0.47407 -2.40141,-1.44459 -3.28969,-2.79607c-0.88828,-1.35148 -1.30637,-2.83072 -1.26187,-4.12889c0.0425,-1.29857 0.54637,-2.41528 1.5,-3.04206z" fill="#723e0a" stroke="#723e0a" stroke-width="0.96" stroke-linecap="round" stroke-linejoin="round"/><path d="M185.90671,84.87488c0.39905,-0.26228 0.8677,-0.33725 1.30127,-0.24758c0.43557,0.09008 0.83484,0.34558 1.09791,0.74583c0.26307,0.40025 0.33925,0.86812 0.24917,1.30368c-0.08966,0.43356 -0.34437,0.83404 -0.74342,1.09633c-0.39905,0.26228 -0.8677,0.33725 -1.30127,0.24758c-0.43557,-0.09008 -0.83484,-0.34558 -1.09791,-0.74583c-0.26307,-0.40025 -0.33925,-0.86812 -0.24917,-1.30368c0.08966,-0.43356 0.34437,-0.83404 0.74342,-1.09633z" fill="#ffffff" stroke="#ffffff" stroke-width="0.5" stroke-linecap="butt" stroke-linejoin="miter"/><path d="M204.7027,69.47029c0.95363,-0.62679 2.17858,-0.64639 3.3875,-0.17033c1.20932,0.47407 2.40141,1.44459 3.28969,2.79607c0.88828,1.35148 1.30637,2.83072 1.26187,4.12889c-0.0425,1.29857 -0.54637,2.41528 -1.5,3.04206c-0.95363,0.62679 -2.17858,0.64639 -3.3875,0.17033c-1.20932,-0.47407 -2.40141,-1.44459 -3.28969,-2.79607c-0.88828,-1.35148 -1.30637,-2.83072 -1.26187,-4.12889c0.0425,-1.29857 0.54637,-2.41528 1.5,-3.04206z" fill="#723e0a" stroke="#723e0a" stroke-width="0.96" stroke-linecap="round" stroke-linejoin="round"/><path d="M205.17698,72.20915c0.39905,-0.26228 0.8677,-0.33725 1.30127,-0.24758c0.43557,0.09008 0.83484,0.34558 1.09791,0.74583c0.26307,0.40025 0.33925,0.86812 0.24917,1.30368c-0.08966,0.43356 -0.34437,0.83404 -0.74342,1.09633c-0.39905,0.26228 -0.8677,0.33725 -1.30127,0.24758c-0.43557,-0.09008 -0.83484,-0.34558 -1.09791,-0.74583c-0.26307,-0.40025 -0.33925,-0.86812 -0.24917,-1.30368c0.08966,-0.43356 0.34437,-0.83404 0.74342,-1.09633z" fill="#ffffff" stroke="#ffffff" stroke-width="0.5" stroke-linecap="butt" stroke-linejoin="miter"/><path d="M222.71608,99.36681c0,0 1.05274,5.69927 -5.55876,10.04479c-6.6115,4.34552 -11.40668,1.14748 -11.40668,1.14748" fill="none" stroke="#723e0a" stroke-width="0.96" stroke-linecap="round" stroke-linejoin="round"/><path d="M217.17634,109.44054l-5.2869,-8.04375" fill="none" stroke="#723e0a" stroke-width="0.96" stroke-linecap="round" stroke-linejoin="round"/><path d="M205.71744,92.00639c1.6806,-1.1046 3.54876,-1.57977 5.20932,-1.45408c1.66176,0.1249 3.11593,0.85065 3.96697,2.14547c0.85183,1.29602 0.94126,2.91877 0.39678,4.49376c-0.54327,1.5742 -1.72046,3.10064 -3.40106,4.20525c-1.6806,1.1046 -3.54876,1.57977 -5.20932,1.45408c-1.66176,-0.1249 -3.11593,-0.85065 -3.96776,-2.14667c-0.85104,-1.29481 -0.94047,-2.91756 -0.39599,-4.49256c0.54327,-1.5742 1.72046,-3.10064 3.40106,-4.20525z" fill="#5e154d" stroke="#5e154d" stroke-width="0.96" stroke-linecap="round" stroke-linejoin="round"/><path d="M212.87362,93.21756c0.29185,0.16036 0.42579,0.23807 0.64572,0.38355" fill="none" stroke="#ffffff" stroke-width="0.96" stroke-linecap="round" stroke-linejoin="round"/><path d="M206.75548,93.58573c1.17747,-0.71176 2.53584,-1.06421 3.9112,-1.0152" fill="none" stroke="#ffffff" stroke-width="0.96" stroke-linecap="round" stroke-linejoin="round"/></g><path d="M284.02844,120.34389c-4.94716,7.44508 -13.33529,4.0759 -17.94178,-3.62609c-3.22202,-5.37492 -5.89629,-9.82195 -12.75453,-12.78619c-4.58676,-1.90383 -10.11834,-1.65188 -16.33686,0.3602c-6.1556,2.18135 -11.99948,5.15741 -17.38391,8.85353c-5.51789,3.48517 -10.55663,7.67571 -14.98907,12.46563c-4.32805,4.91985 -6.77244,9.8688 -6.81062,14.85389c-0.03269,7.45198 2.9888,11.6708 6.60679,16.70259c5.24305,7.2836 4.98971,16.29108 -3.78791,17.90831c-12.60494,2.28725 -31.90329,-23.73311 -36.98468,-46.81436c-5.55774,-25.25593 3.90665,-47.95522 25.18787,-61.94268c21.28121,-13.98746 45.87254,-13.67189 66.85229,1.44765c19.17241,13.81968 35.40372,41.85591 28.3424,52.57752z" fill="none" stroke="#723e0a" stroke-width="0.96" stroke-linecap="round" stroke-linejoin="round"/></g></g></g></svg>