<svg version="1.1" xmlns="http://www.w3.org/2000/svg" xmlns:xlink="http://www.w3.org/1999/xlink" width="86.74864" height="110.25989" viewBox="0,0,86.74864,110.25989"><g transform="translate(-136.62568,-269.87008)"><g data-paper-data="{&quot;isPaintingLayer&quot;:true}" fill-rule="nonzero" stroke-linejoin="miter" stroke-miterlimit="10" stroke-dasharray="" stroke-dashoffset="0" style="mix-blend-mode: normal"><path d="M141.87568,378.87998c-2.20914,0 -4,-1.79086 -4,-4v-99.75989c0,-2.20914 1.79086,-4 4,-4h76.24864c2.20914,0 4,1.79086 4,4v99.75989c0,2.20914 -1.79086,4 -4,4z" fill="#00e6e6" stroke="#000000" stroke-width="2.5" stroke-linecap="butt"/><g><g data-paper-data="{&quot;index&quot;:null}" stroke="#000000" stroke-width="2" stroke-linecap="butt"><path d="M180.00003,348.55772c16.94767,0 30.68648,3.25564 30.68648,7.27167c0,4.01603 -13.7388,7.27167 -30.68648,7.27167c-16.94767,0 -30.68648,-3.25564 -30.68648,-7.27167c0,-4.01603 13.7388,-7.27167 30.68648,-7.27167z" fill="#3300ff"/><path d="M195.56141,372.8451c-3.05219,0 -5.52647,-2.47429 -5.52647,-5.52647c0,-3.05219 2.47429,-5.52647 5.52647,-5.52647c3.05219,0 5.52647,2.47429 5.52647,5.52647c0,3.05219 -2.47429,5.52647 -5.52647,5.52647z" fill="#000000"/><path d="M164.43863,372.8451c-3.05219,0 -5.52647,-2.47429 -5.52647,-5.52647c0,-3.05219 2.47429,-5.52647 5.52647,-5.52647c3.05219,0 5.52647,2.47429 5.52647,5.52647c0,3.05219 -2.47429,5.52647 -5.52647,5.52647z" fill="#000000"/></g><g fill="#ffc266" stroke="none" stroke-linecap="butt"><path d="M173.66499,354.32209v-11.79625h2.83984v11.79625z" stroke-width="NaN"/><path d="M180.21845,357.38038c0,0.96322 -2.72941,-1.66268 -3.60413,-1.04612c-0.82347,0.58044 -0.19164,3.12139 -1.42019,3.12139c-1.12052,0 -1.05496,-2.26256 -1.85164,-2.7551c-1.00466,-0.62112 -3.39114,1.50435 -3.39114,0.46138c0,-1.87001 2.70921,-4.47821 5.24278,-4.47821c2.53357,0 5.02433,2.82664 5.02433,4.69666z" stroke-width="0"/></g><g fill="#ffc266" stroke="none" stroke-linecap="butt"><path d="M183.4952,354.32209v-11.79625h2.83984v11.79625z" stroke-width="NaN"/><path d="M190.04867,357.38038c0,0.96322 -2.72941,-1.66268 -3.60413,-1.04612c-0.82347,0.58044 -0.19164,3.12139 -1.42019,3.12139c-1.12052,0 -1.05496,-2.26256 -1.85164,-2.7551c-1.00466,-0.62112 -3.39114,1.50435 -3.39114,0.46138c0,-1.87001 2.70921,-4.47821 5.24278,-4.47821c2.53357,0 5.02433,2.82664 5.02433,4.69666z" stroke-width="0"/></g><path d="M159.32017,328.81816l-13.17976,-29.70908c0,0 10.15081,5.62068 14.37864,6.21931c3.98618,0.56442 10.59737,-2.72412 10.59737,-2.72412c0,0 0.23983,7.67912 -1.48511,11.51231c-2.12364,4.7192 -10.31115,14.70158 -10.31115,14.70158z" fill="#e5e5e5" stroke="none" stroke-width="0" stroke-linecap="round"/><path d="M186.55349,302.38579c0,0 6.14522,3.24485 10.16895,2.72566c4.8502,-0.62583 17.13718,-6.22085 17.13718,-6.22085c0,0 -7.14808,15.01527 -9.75886,20.49948c-1.74992,3.67589 -4.38426,9.20959 -4.38426,9.20959c0,0 -8.36945,-11.61842 -10.62503,-16.18616c-2.03695,-4.12501 -2.53798,-10.02773 -2.53798,-10.02773z" fill="#e5e5e5" stroke="none" stroke-width="0" stroke-linecap="round"/><path d="M200.29529,332.75023c0,9.59137 -9.29128,17.3667 -20.75266,17.3667c-11.46138,0 -20.75266,-7.77534 -20.75266,-17.3667c0,-9.59137 9.29128,-17.3667 20.75266,-17.3667c11.46138,0 20.75266,7.77534 20.75266,17.3667z" fill="#f8f8f8" stroke="none" stroke-width="0" stroke-linecap="butt"/><path d="M188.30109,291.90026c0,0 -2.83117,6.4623 -1.23735,13.79384c1.67853,7.72126 9.64764,17.44438 9.64764,17.44438h-34.40573c0,0 6.60733,-9.17751 8.29586,-16.86968c1.58115,-7.20303 0.11443,-14.58699 0.11443,-14.58699z" fill="#ffffff" stroke="none" stroke-width="0" stroke-linecap="round"/><path d="M190.35587,286.43903c0,5.12746 -4.84125,9.28409 -10.81323,9.28409c-5.97198,0 -10.81323,-4.15663 -10.81323,-9.28409c0,-5.12746 4.84125,-9.28409 10.81323,-9.28409c5.97198,0 10.81323,4.15663 10.81323,9.28409z" fill="#f2f2f2" stroke="none" stroke-width="0" stroke-linecap="butt"/><path d="M177.16017,285.67445c0,1.50808 -1.02693,2.73061 -2.29372,2.73061c-1.26678,0 -2.29372,-1.22254 -2.29372,-2.73061c0,-1.50808 1.02693,-2.73061 2.29372,-2.73061c1.26678,0 2.29372,1.22254 2.29372,2.73061z" fill="#000000" stroke="none" stroke-width="0" stroke-linecap="butt"/><path d="M186.77192,285.89291c0,1.50808 -1.02693,2.73061 -2.29372,2.73061c-1.26678,0 -2.29372,-1.22254 -2.29372,-2.73061c0,-1.50808 1.02693,-2.73061 2.29372,-2.73061c1.26678,0 2.29372,1.22254 2.29372,2.73061z" fill="#000000" stroke="none" stroke-width="0" stroke-linecap="butt"/><path d="M179.34467,298.23526l-3.50543,-7.31805h7.31805z" fill="#ff9e00" stroke="none" stroke-width="0" stroke-linecap="round"/><g stroke="none" stroke-width="1.88565" stroke-linecap="butt"><g><g><path d="M162.06858,320.85477c-0.08749,-0.01387 -0.37346,-0.07143 -0.40582,-0.22867c-0.03162,-0.15675 0.20659,-0.24873 0.28453,-0.27906c0.07571,-0.01592 1.32914,-0.13874 2.59875,-0.74254c-0.12203,-0.07143 -0.23743,-0.14134 -0.34772,-0.21069c-0.53077,0.34942 -1.97905,0.71583 -3.10971,0.78674c-0.15291,-0.02107 -0.43373,-0.08942 -0.45431,-0.24666c-0.0191,-0.15776 0.22644,-0.24153 0.3073,-0.26928c0.07646,-0.01283 1.36076,-0.08838 2.68846,-0.65828c-0.13084,-0.09713 -0.25217,-0.19374 -0.36243,-0.28726c-0.48153,0.31297 -2.02536,0.64544 -3.20234,0.6737c-0.15072,-0.02722 -0.4264,-0.10535 -0.43373,-0.26412c-0.00737,-0.1588 0.2448,-0.23178 0.32713,-0.25592c0.07937,-0.01027 1.43503,-0.03494 2.84577,-0.59508c-0.0816,-0.08838 -0.15731,-0.17779 -0.22714,-0.2672c-0.51241,0.25592 -1.88715,0.48561 -3.01048,0.48561c-0.07279,0 -0.14484,-0.00101 -0.21466,-0.00308c-0.14702,-0.03494 -0.41314,-0.12847 -0.40359,-0.28726c0.00955,-0.15774 0.26835,-0.21788 0.35287,-0.23791l0.18967,-0.00515c0.33817,0 1.51663,-0.03287 2.76861,-0.45683c-0.05443,-0.11151 -0.09338,-0.21172 -0.12059,-0.29806c-0.59841,0.2441 -1.85479,0.44143 -2.89504,0.44143c-0.07279,0 -0.1441,-0.00104 -0.21466,-0.00308c-0.14702,-0.03494 -0.41388,-0.12847 -0.40433,-0.28726c0.00955,-0.15776 0.26835,-0.21787 0.35361,-0.23793l0.18745,-0.00409c0.34702,0 1.57838,-0.03597 2.86639,-0.49075l0.0338,-0.01183c0.07646,-0.14029 0.35801,-0.24202 0.48153,-0.2811l0.23233,-0.07244l0.02573,0.17676c0.25069,1.71841 3.03544,3.14855 3.06339,3.16345l0.25142,0.12743l-0.86749,0.28623l-0.08308,-0.04933c-0.50063,0.35818 -1.91433,0.77699 -3.03469,0.88902l-0.03385,0.00412z" fill="#871212"/><path d="M162.62289,316.45183c0,0 -0.5227,0.16444 -0.36247,0.2919c0,0 -0.0007,0.00564 -0.00144,0.01592c-0.06397,-0.0149 -0.13454,-0.01592 -0.14261,-0.01592c-0.00074,0 -0.00074,0 -0.00074,0c-1.31226,0.4635 -2.55394,0.50463 -2.94947,0.50463c-0.08379,0 -0.12936,-0.00207 -0.12936,-0.00207c-0.51315,0.11923 0,0.27391 0,0.27391c0.06834,0.00205 0.13747,0.00308 0.20729,0.00308c1.21814,0 2.71715,-0.28007 3.00826,-0.52673c0.00807,-0.00823 0.01029,-0.01182 0.01766,-0.01902c0.02277,0.14648 0.08452,0.35716 0.22935,0.61513c-0.02573,-0.00207 -0.04706,-0.00308 -0.05587,-0.00308c-0.00296,0 -0.0044,0 -0.0044,0c-1.31081,0.46247 -2.55103,0.50359 -2.94799,0.50359c-0.08526,0 -0.13158,-0.00207 -0.13158,-0.00207c-0.51315,0.12027 0,0.27495 0,0.27495c0.06834,0.00205 0.13746,0.00308 0.20729,0.00308c1.21814,0 2.71715,-0.28006 3.00826,-0.52672c0.02281,-0.01954 0.0338,-0.03546 0.0485,-0.0514c0.11252,0.16548 0.25806,0.34534 0.44921,0.537c-0.01544,0.00104 -0.02648,0.00104 -0.02648,0.00104c-1.52617,0.64441 -3.01633,0.66343 -3.01633,0.66343c-0.49845,0.14542 0.02939,0.27287 0.02939,0.27287c1.24976,-0.03033 2.87224,-0.41368 3.15088,-0.69169c0.02499,-0.02518 0.03824,-0.04524 0.0522,-0.06423c0.18231,0.167 0.40211,0.3412 0.65576,0.52106c-1.45194,0.67473 -2.89578,0.75077 -2.89578,0.75077c-0.48667,0.16548 0.05072,0.27287 0.05072,0.27287c1.24462,-0.0781 2.83477,-0.52362 3.0906,-0.81192c0.01103,-0.01234 0.01396,-0.02055 0.02206,-0.03134c0.19993,0.13155 0.42048,0.26464 0.66531,0.40134c-1.39094,0.71736 -2.81345,0.8479 -2.81345,0.8479c-0.47346,0.18346 0.07205,0.2698 0.07205,0.2698c1.2365,-0.12538 2.7899,-0.63054 3.0237,-0.92755c0.00585,-0.00823 0.00659,-0.01183 0.01174,-0.01902l0.13676,0.08119l0.4793,-0.15877c0,0 -2.87664,-1.45636 -3.13836,-3.25391M162.93678,316.07156l0.05146,0.35305c0.24187,1.66033 2.9612,3.05862 2.98842,3.07249l0.50285,0.25489l-0.56168,0.18551l-0.47931,0.15776l-0.21466,0.07143l-0.0434,-0.02622c-0.62632,0.36744 -2.01504,0.74102 -3.01926,0.84226l-0.0669,0.0072l-0.06616,-0.01079c-0.11618,-0.01799 -0.49845,-0.09609 -0.54694,-0.33504c-0.02281,-0.1105 0.02425,-0.27186 0.37786,-0.40957l0.03602,-0.01387c-0.27641,0.04213 -0.54476,0.07246 -0.78956,0.08838l-0.06764,0.0036l-0.06542,-0.01284c-0.1147,-0.02314 -0.48963,-0.11512 -0.52051,-0.3551c-0.01396,-0.11255 0.04487,-0.27236 0.40877,-0.3957l0.0632,-0.02106l0.06912,-0.00461c0.01247,-0.00104 1.13362,-0.06786 2.34736,-0.54782c-0.03384,-0.0267 -0.0669,-0.05292 -0.09926,-0.07911c-0.66383,0.32528 -2.1371,0.59917 -3.16998,0.62435l-0.06838,0.00207l-0.06468,-0.01747c-0.11174,-0.02725 -0.47934,-0.13465 -0.49038,-0.37463c-0.00514,-0.11203 0.0669,-0.2698 0.43965,-0.37821l0.06468,-0.01902l0.06983,-0.00104c0.01252,0 1.21963,-0.02362 2.52308,-0.50359c-0.01178,-0.01283 -0.02281,-0.02723 -0.03455,-0.04009c-0.66827,0.25797 -1.95772,0.43475 -2.94432,0.43475c-0.07497,0 -0.14924,-0.00104 -0.22199,-0.00308l-0.06838,-0.00207l-0.06249,-0.01899c-0.10951,-0.03289 -0.46461,-0.15828 -0.44991,-0.3993c0.00663,-0.11203 0.09556,-0.26464 0.47861,-0.35509l0.0669,-0.0149l0.06982,0.0031c0.00514,0 0.04409,0.00101 0.111,0.00101c0.3154,0 1.38208,-0.02979 2.54366,-0.39619c-0.00514,-0.01182 -0.0103,-0.02415 -0.0147,-0.03494c-0.70064,0.22456 -1.86657,0.37513 -2.77597,0.37513c-0.07497,0 -0.1492,-0.00104 -0.22199,-0.00308l-0.06839,-0.00207l-0.06249,-0.019c-0.10951,-0.03289 -0.4646,-0.15828 -0.44991,-0.3993c0.00663,-0.11203 0.0956,-0.26465 0.47934,-0.35406l0.0669,-0.0149l0.06982,0.00207c0.0044,0 0.04266,0.00205 0.10882,0.00205c0.33447,0 1.51807,-0.03393 2.76198,-0.46866c0.12054,-0.15161 0.38226,-0.25181 0.54546,-0.30318l0.46461,-0.14648zM162.01049,320.20266c0.15439,-0.01747 1.15568,-0.14185 2.23047,-0.61203c-0.01178,-0.00619 -0.02281,-0.01286 -0.03384,-0.02006c-0.46753,0.25284 -1.35487,0.49335 -2.19663,0.63209z" fill="#000000"/></g><path d="M184.09453,308.46615l-2.50174,0.25489c-2.29512,0.01131 -6.61638,1.95172 -8.20356,5.39832c-1.58719,3.44761 -7.9698,5.9317 -7.9698,5.9317c-3.73755,-1.99129 -3.15528,-3.57608 -3.15528,-3.57608c7.50446,-2.67681 6.21793,-5.01033 9.618,-7.34489c3.40008,-2.33352 7.88746,-2.09817 7.88746,-2.09817z" fill="#ba2915"/><g fill="#871212"><path d="M165.26577,315.23393c-0.12203,1.09199 3.15528,3.36131 3.15528,3.36131l-0.84617,0.48253c-3.528,-1.2328 -3.35232,-3.3464 -3.35232,-3.3464z"/><path d="M167.75278,313.55048c0.44625,1.6701 3.76179,2.94555 3.76179,2.94555l-1.01085,0.74976c-3.40008,-1.34895 -3.61474,-2.97588 -3.61474,-2.97588z"/><path d="M169.17899,311.96671c0.63592,1.07965 4.35725,1.89568 4.35725,1.89568l-0.49034,0.9214c-3.55372,-0.5781 -4.33595,-2.22508 -4.33595,-2.22508z"/><path d="M171.12346,309.71385c0.40508,0.58377 4.2514,1.79447 4.2514,1.79447l-0.77338,0.7626c-3.50004,-0.52109 -4.13229,-1.92705 -4.13229,-1.92705z"/><path d="M173.94572,308.04067c0.25583,-0.06167 4.4374,1.33609 4.4374,1.33609l-1.2321,0.76004l-4.43225,-1.51955c0,0 0.97113,-0.5149 1.22696,-0.57657z"/><path d="M176.62832,307.40036l1.73569,-0.36073l3.63973,1.63772l-1.72391,0.18706l-3.65151,-1.46404"/></g><path d="M165.40324,320.2037l-0.09556,-0.05036c-3.79049,-2.02058 -3.24721,-3.64238 -3.22148,-3.71073l0.02059,-0.05603l0.07352,-0.02619c4.79245,-1.70917 5.96062,-3.27701 7.08984,-4.79245c0.61826,-0.82991 1.25713,-1.6886 2.48334,-2.5293c2.89578,-1.98769 6.59727,-2.14185 7.66251,-2.14185c0.23598,0 0.3676,0.00719 0.3676,0.00719l4.93803,1.62848l-3.10237,0.31604c-2.36275,0.01232 -6.54873,2.03803 -8.0558,5.30991c-1.5916,3.45585 -7.79191,5.9024 -8.05511,6.0052zM162.43026,316.55924c-0.04924,0.28418 -0.09852,1.65625 3.00385,3.33713c0.82851,-0.33916 6.34366,-2.69684 7.78013,-5.81607c1.61881,-3.51495 5.98051,-5.47591 8.3771,-5.48773l1.87682,-0.19218l-3.76176,-1.24771c-0.00663,0.00515 -0.11911,0.00104 -0.29041,0.00052c-1.02996,0 -4.60941,0.14953 -7.40445,2.06786c-1.18434,0.81296 -1.78201,1.61561 -2.415,2.46454c-1.14976,1.54318 -2.3385,3.13828 -7.16628,4.87364z" fill="#000000"/></g><g><path d="M190.10809,304.09817c1.47031,0.54627 0.55139,1.86282 0.55139,1.86282c2.71048,0.77083 1.88345,1.8623 1.88345,1.8623c-1.51663,-0.611 -2.84872,0.12847 -6.9913,0.73897c-4.14188,0.61048 -8.40061,-0.73897 -8.40061,-0.73897c7.30449,-5.29964 12.95633,-3.72512 12.95707,-3.72512z" fill="#ba2915"/><g fill="#871212"><path d="M182.76609,304.81863c0,0 2.16065,1.07349 1.32844,3.9024h-0.66164c0,0 0.60726,-2.40031 -1.27253,-3.65933z"/><path d="M186.06328,303.98564c1.7923,1.6218 1.38872,4.12543 1.38872,4.12543l-0.82999,0.14902c0.35213,-3.04834 -1.52326,-4.09769 -1.52326,-4.09769z"/><path d="M180.27542,305.8649c0,0 1.37842,1.22045 1.01081,2.75388l-0.47416,-0.05192c0,0 -0.37641,-2.09302 -1.04246,-2.40546z"/><path d="M191.18658,307.54785h-0.77264c0.14702,-1.03084 -1.11966,-1.81502 -1.11966,-1.81502c0.24406,-1.17629 -0.81822,-1.85307 -0.81822,-1.85307l1.04832,0.1064c0.47271,0.33708 0.53299,1.72713 0.58297,1.8145c1.12555,0.54573 1.07997,1.74719 1.07923,1.74719z"/></g><path d="M192.70465,307.88342l-0.08892,0.11768l-0.16542,-0.06628c-0.90056,-0.36229 -1.8151,-0.19836 -3.50522,0.14749c-0.87116,0.17831 -1.9555,0.39979 -3.35525,0.60636c-0.72633,0.10688 -1.50411,0.16084 -2.31425,0.16084c-3.29274,0 -6.17162,-0.89978 -6.20031,-0.90905l-0.23743,-0.07503l0.18082,-0.13103c4.53814,-3.29192 8.45355,-3.98309 10.9406,-3.98309c1.38282,0 2.18267,0.2184 2.21722,0.22766c1.20418,0.44655 1.0307,1.38438 0.72633,1.91471c0.98656,0.30165 1.6056,0.68397 1.84084,1.1372c0.24406,0.47021 -0.02722,0.83711 -0.03899,0.85253zM192.39591,307.11258c-0.20145,-0.37924 -0.78297,-0.71736 -1.66735,-0.98664c-1.60485,-0.46402 -3.14721,0.07554 -3.14721,0.07554c1.47694,-0.63617 2.54217,-0.5185 2.98623,-0.41881c0.17494,-0.3186 0.52121,-1.17525 -0.5455,-1.57144c-0.00293,0 -0.76824,-0.20349 -2.06209,-0.20349c-2.38046,0 -6.12093,0.65879 -10.48847,3.76981c0.75132,0.21017 3.13985,0.81448 5.80479,0.81448c0.78367,0 1.53795,-0.0524 2.23854,-0.15569c1.38649,-0.20401 2.4635,-0.42448 3.32803,-0.60124c1.67542,-0.34278 2.65613,-0.51081 3.59934,-0.19425c0.04117,-0.11667 0.06983,-0.30629 -0.04631,-0.52828z" fill="#000000"/></g><g><path d="M170.12072,303.52007c0,0 -0.91896,-0.48203 -0.45946,-1.05962c0.45946,-0.57761 1.28653,-0.82583 1.28653,-0.76619c0,0.0596 7.94847,4.63054 16.9078,-0.20812v-0.65828c0,0 3.35377,1.08684 2.25106,3.27083c0,0 -2.01141,-0.44963 -3.8765,0.96353c-1.86653,1.41316 -3.52062,4.43221 -17.80983,1.57351c0,0 -1.14831,-0.25696 -0.55135,-1.02776c0.59693,-0.77083 2.38996,-1.50979 2.25176,-2.0879z" fill="#ba2915"/><g fill="#871212"><path d="M172.48718,302.4774c-0.98804,0.52981 -0.3448,1.30063 -0.40507,1.62284c-0.06027,0.3222 -0.16983,1.04316 -0.76676,1.54059c-0.59697,0.49746 -0.66605,1.38493 -0.66605,1.38493l-1.47031,-0.24514c0.16098,-0.25693 0.13821,-0.73845 1.05713,-1.41316c0.91896,-0.67473 0.96453,-1.4877 0.96453,-1.4877c-0.64325,-1.42343 0.61019,-1.73588 0.61019,-1.73588z"/><path d="M175.17415,303.3289c0,0 -0.23743,0.23434 -0.23743,0.76467c0,0.5303 0.2448,1.05343 -0.1963,1.58891c-0.4411,0.53545 -0.95054,1.83764 -0.95054,1.83764l-1.07112,-0.14337c0,0 0.04191,-0.25952 0.34109,-0.86232c0.29923,-0.60276 1.07993,-1.06681 0.92703,-1.97483c-0.15291,-0.90801 0.30437,-1.5997 0.29112,-1.46611z"/><path d="M177.94054,303.66038c-0.22051,0.71787 -0.17715,1.01645 -0.02425,1.97483c0.15291,0.95837 -0.46683,2.0478 -0.46683,2.0478l-1.02625,-0.04728c0,0 0.81896,-1.18241 0.51311,-2.12436c-0.30581,-0.94194 0.2147,-1.88388 0.2147,-1.92449z"/><path d="M179.97694,303.66549h0.96013c0.89467,2.05448 -0.04117,2.63569 -0.04117,2.63569c0.22936,0.90082 -0.57564,1.38234 -0.57564,1.38234h-0.55065c0.82707,-0.75128 0.32203,-1.46508 0.32203,-1.46508c0.57486,-1.20452 -0.1147,-2.55347 -0.1147,-2.55347z"/><path d="M184.04159,303.05706c1.32917,2.10588 0.42788,2.93887 0.47638,3.04319c0.04854,0.10432 -0.13821,0.39619 -0.13821,0.39619l-0.79689,0.37464c0.32199,-0.43887 0.15365,-0.68501 0.15365,-0.68501c0.65724,-1.6593 -0.7381,-2.88543 -0.7381,-2.88543z"/><path d="M186.89179,302.01079c1.11818,0.54575 1.11818,2.1624 1.11818,2.1624l-0.81163,0.32119c0.32129,-1.55244 -0.98067,-2.20557 -0.98067,-2.20557z"/><path d="M187.85633,300.87616c3.69119,1.4666 2.16798,3.20199 2.16798,3.20199l-0.01029,-0.19837c0.18082,-1.85715 -1.97465,-2.33095 -1.97465,-2.33095z"/></g><path d="M190.28014,304.14133l-0.05883,0.11716l-0.16909,-0.0375c-0.00293,-0.00052 -0.28819,-0.06219 -0.73073,-0.06219c-0.75206,0 -1.87612,0.17215 -2.95606,0.99026c-0.17938,0.13515 -0.35584,0.28572 -0.54254,0.444c-1.17039,0.99538 -2.7745,2.3587 -7.58828,2.3587c-2.58923,0 -5.90771,-0.40134 -9.86428,-1.19272c-0.02944,-0.00616 -0.58742,-0.13463 -0.78738,-0.48201c-0.12421,-0.21687 -0.08234,-0.46249 0.125,-0.73022c0.26612,-0.34278 0.73809,-0.66703 1.19463,-0.981c0.50652,-0.3479 1.027,-0.70659 1.04025,-0.97072c-0.00663,-0.0036 -0.014,-0.00567 -0.02059,-0.00926l0.00589,-0.01131c-0.35876,-0.21684 -0.82118,-0.6819 -0.42714,-1.17729c0.43373,-0.54624 1.20567,-0.84122 1.42473,-0.84122h0.18378l0.01252,0.07657c0.34184,0.1999 3.50152,1.94401 8.0999,1.94401c2.93473,0 5.77687,-0.72509 8.45063,-2.15469v-0.79601l0.26098,0.08478c0.03454,0.01182 3.49197,1.16241 2.34662,3.43066zM188.03937,301.04058v0.50771l-0.07056,0.03857c-2.76124,1.49075 -5.70482,2.24666 -8.74762,2.24666c-4.294,0 -7.61105,-1.54421 -8.31753,-2.01595c-0.14628,0.03445 -0.72706,0.25849 -1.08141,0.70504c-0.37493,0.47176 0.37716,0.87771 0.40948,0.89466l0.05883,0.03085l0.0044,0.02003c0.30656,0.15828 0.96305,0.41933 2.26136,0.64596c0,0 -1.24021,0.02518 -2.2812,-0.37464c-0.12425,0.32479 -0.60577,0.65931 -1.11522,1.00977c-0.43743,0.30013 -0.88956,0.61102 -1.12921,0.91987c-0.15216,0.19682 -0.18819,0.36845 -0.10733,0.51027c0.1338,0.23535 0.54991,0.33299 0.55432,0.33402c3.91763,0.78366 7.2023,1.18141 9.75695,1.18141c3.47727,0 5.17843,-0.70504 6.31131,-1.48306c-0.95498,0.17111 -3.89046,0.58069 -6.22382,-0.34738c0,0 3.30378,0.79908 6.65903,0.02518c0.19849,-0.15572 0.38226,-0.31037 0.55872,-0.45993c0.19115,-0.16237 0.37197,-0.31653 0.55576,-0.45527c1.5806,-1.19735 3.32955,-1.10793 3.8912,-1.0288c0.7278,-1.65006 -1.21448,-2.61 -1.94743,-2.90497z" fill="#000000"/></g></g></g><path d="M139.58844,376.03887v-48.49923h80.82313v48.49923z" fill-opacity="0.50196" fill="#ffffff" stroke="none" stroke-width="NaN" stroke-linecap="butt"/><path d="M207.50001,347.11627l-33,28l-22,-19" data-paper-data="{&quot;index&quot;:null}" fill="none" stroke="#000000" stroke-width="3.5" stroke-linecap="round"/><text transform="translate(180,342.70755) scale(0.33272,0.33272)" font-size="40" xml:space="preserve" fill="#000000" fill-rule="nonzero" stroke="none" stroke-width="1" stroke-linecap="butt" stroke-linejoin="miter" stroke-miterlimit="10" stroke-dasharray="" stroke-dashoffset="0" font-family="Playful" font-weight="normal" text-anchor="middle" style="mix-blend-mode: normal"><tspan x="0" dy="0">У шарфі</tspan></text></g></g></svg>