<svg version="1.1" xmlns="http://www.w3.org/2000/svg" xmlns:xlink="http://www.w3.org/1999/xlink" width="312.4085" height="423.33639" viewBox="0,0,312.4085,423.33639"><g transform="translate(-12.33875,-98.33185)"><g data-paper-data="{&quot;isPaintingLayer&quot;:true}" fill-rule="nonzero" stroke-linejoin="miter" stroke-miterlimit="10" stroke-dasharray="" stroke-dashoffset="0" style="mix-blend-mode: normal"><g data-paper-data="{&quot;index&quot;:null}" stroke="#000000" stroke-width="2" stroke-linecap="butt"><path d="M180.00006,409.48729c77.5818,0 140.47426,14.90342 140.47426,33.28773c0,18.38429 -62.89247,33.28773 -140.47426,33.28773c-77.5818,0 -140.47426,-14.90342 -140.47426,-33.28773c0,-18.38429 62.89247,-33.28773 140.47426,-33.28773z" fill="#3300ff"/><path d="M251.23582,520.66824c-13.97207,0 -25.29868,-11.32661 -25.29868,-25.29868c0,-13.97207 11.32661,-25.29868 25.29868,-25.29868c13.97207,0 25.29868,11.32661 25.29868,25.29868c0,13.97207 -11.32661,25.29868 -25.29868,25.29868z" fill="#000000"/><path d="M108.76429,520.66824c-13.97207,0 -25.29868,-11.32661 -25.29868,-25.29868c0,-13.97207 11.32661,-25.29868 25.29868,-25.29868c13.97207,0 25.29868,11.32661 25.29868,25.29868c0,13.97207 -11.32661,25.29868 -25.29868,25.29868z" fill="#000000"/></g><g fill="#ffc266" stroke="none" stroke-linecap="butt"><path d="M200.50002,413.75006v-54h13v54z" stroke-width="NaN"/><path d="M230.50002,427.75006c0,4.40937 -12.49451,-7.61129 -16.49874,-4.78885c-3.76963,2.65708 -0.87727,14.28885 -6.50126,14.28885c-5.12943,0 -4.82932,-10.3574 -8.47629,-12.61207c-4.59908,-2.8433 -15.52371,6.88648 -15.52371,2.11207c0,-8.56041 12.40202,-20.5 24,-20.5c11.59798,0 23,12.93959 23,21.5z" stroke-width="0"/></g><g fill="#ffc266" stroke="none" stroke-linecap="butt"><path d="M173.50002,432.75006v-54h13v54z" stroke-width="NaN"/><path d="M203.50002,446.75006c0,4.40937 -12.49451,-7.61129 -16.49874,-4.78885c-3.76963,2.65708 -0.87727,14.28885 -6.50126,14.28885c-5.12942,0 -4.82932,-10.35739 -8.47629,-12.61207c-4.59908,-2.8433 -15.52371,6.88648 -15.52371,2.11207c0,-8.56041 12.40202,-20.5 24,-20.5c11.59798,0 23,12.93959 23,21.5z" stroke-width="0"/></g><path d="M282.85294,222.64043c17.79814,0 41.89431,0 41.89431,0c0,0 -24.09617,64.45278 -41.89431,64.45278c-17.79814,0 -32.22639,-14.42825 -32.22639,-32.22639c0,-17.79814 14.42825,-32.22639 32.22639,-32.22639z" fill="#e5e5e5" stroke="none" stroke-width="NaN" stroke-linecap="butt"/><path d="M138.09273,302.90486c15.92438,-5.61046 73.80344,-52.84435 111.68638,-50.60764c42.94975,2.53587 65.33373,56.10359 65.33373,77.21215c0,18.25871 -24.16199,56.47541 -68.09069,69.27342c-51.65044,15.04762 -126.03802,2.60414 -153.00728,-6.07003c-13.14216,-4.22693 -43.42474,-21.98488 -58.70654,-52.99257c-7.73537,-15.69552 -4.94078,-32.67443 -8.40911,-48.70215c-5.33617,-24.65933 -14.56047,-45.69997 -14.56047,-45.69997c0,0 84.40814,72.15369 125.75398,57.58679z" fill="#f8f8f8" stroke="none" stroke-width="0" stroke-linecap="butt"/><path d="M244.71616,172.50136c0,0 12.92491,16.58399 19.47396,46.41855c6.99378,31.86055 36.36101,69.8733 36.36101,69.8733h-100.50672c0,0 12.44401,-49.15651 11.21855,-71.28603c-1.1592,-20.93295 -18.38357,-58.10103 -18.38357,-58.10103z" fill="#ffffff" stroke="none" stroke-width="0" stroke-linecap="round"/><path d="M229.15641,98.33185c24.73565,0 44.78783,17.21653 44.78783,38.45419c0,21.23766 -20.0522,38.45419 -44.78783,38.45419c-24.73565,0 -44.78783,-17.21653 -44.78783,-38.45419c0,-21.23766 20.0522,-38.45419 44.78783,-38.45419z" fill="#f2f2f2" stroke="none" stroke-width="0" stroke-linecap="butt"/><path d="M233.13831,166.34062l27.68581,-12.33897l-0.92285,33.5963z" fill="#ff9e00" stroke="none" stroke-width="0" stroke-linecap="round"/><path d="M115.76451,337.38466c-34.58949,-16.63474 -80.51173,-107.74068 -80.51173,-107.74068c0,0 33.534,8.1318 63.6645,0.90973c12.55998,-3.01055 61.82902,-23.4036 84.00653,-12.75079c30.82918,14.80856 58.47286,77.62004 49.31505,98.22419c-15.74564,35.42612 -81.88485,37.99229 -116.47434,21.35755z" fill="#ffffff" stroke="none" stroke-width="0" stroke-linecap="butt"/><path d="M105.99256,345.07748c-28.67277,-13.78928 -85.73978,-113.31108 -85.73978,-113.31108c0,0 46.79783,30.74081 71.77436,24.75412c10.41153,-2.49558 51.25284,-19.40029 69.63677,-10.5697c25.55569,12.27548 48.47077,64.34273 40.87945,81.42243c-13.05227,29.36629 -67.87802,31.49351 -96.55079,17.70423z" fill="#e5e5e5" stroke="none" stroke-width="0" stroke-linecap="butt"/><g stroke-linecap="butt"><path d="M217.00003,125.69c5.24695,0 9.50045,5.06368 9.50045,11.31006c0,6.24637 -4.2535,11.31006 -9.50045,11.31006c-5.24695,0 -9.50045,-5.06368 -9.50045,-11.31006c0,-6.24637 4.2535,-11.31006 9.50045,-11.31006z" fill="#00c0c0" stroke="none" stroke-width="0"/><path d="M216.65619,131.11881c2.93829,0 5.32025,2.83567 5.32025,6.33364c0,3.49798 -2.38197,6.33364 -5.32025,6.33364c-2.93829,0 -5.32025,-2.83567 -5.32025,-6.33364c0,-3.49798 2.38197,-6.33364 5.32025,-6.33364z" fill="#000000" stroke="#000000" stroke-width="2.5"/></g><g stroke-linecap="butt"><path d="M254.00003,125.69c5.24695,0 9.50045,5.06368 9.50045,11.31006c0,6.24637 -4.2535,11.31006 -9.50045,11.31006c-5.24695,0 -9.50045,-5.06368 -9.50045,-11.31006c0,-6.24637 4.2535,-11.31006 9.50045,-11.31006z" fill="#00c0c0" stroke="none" stroke-width="0"/><path d="M253.65619,131.11881c2.9383,0 5.32025,2.83567 5.32025,6.33364c0,3.49798 -2.38197,6.33364 -5.32025,6.33364c-2.9383,0 -5.32025,-2.83567 -5.32025,-6.33364c0,-3.49798 2.38197,-6.33364 5.32025,-6.33364z" fill="#000000" stroke="#000000" stroke-width="2.5"/></g><g stroke="none" stroke-width="1.88565" stroke-linecap="butt"><g><g><path d="M183.69412,268.4895c-0.23457,-0.0509 -1.00132,-0.2621 -1.08808,-0.8391c-0.08478,-0.5752 0.55392,-0.9127 0.76288,-1.024c0.203,-0.0584 3.56373,-0.5091 6.96783,-2.7247c-0.32719,-0.2621 -0.6366,-0.5186 -0.93233,-0.7731c-1.42311,1.2822 -5.30628,2.6267 -8.33783,2.8869c-0.40998,-0.0773 -1.16293,-0.3281 -1.21812,-0.9051c-0.05122,-0.5789 0.60713,-0.8863 0.82393,-0.9881c0.20499,-0.0471 3.6485,-0.3243 7.20836,-2.4155c-0.35081,-0.3564 -0.67612,-0.7109 -0.97174,-1.0541c-1.29108,1.1484 -5.43047,2.3684 -8.5862,2.4721c-0.40412,-0.0999 -1.14327,-0.3866 -1.16293,-0.9692c-0.01976,-0.5827 0.65636,-0.8505 0.87713,-0.9391c0.21283,-0.0377 3.84764,-0.1282 7.63015,-2.1836c-0.21879,-0.3243 -0.42179,-0.6524 -0.60901,-0.9805c-1.37387,0.9391 -5.0599,1.7819 -8.0718,1.7819c-0.19516,0 -0.38834,-0.0037 -0.57556,-0.0113c-0.39419,-0.1282 -1.10773,-0.4714 -1.08212,-1.0541c0.02561,-0.5788 0.7195,-0.7995 0.94612,-0.873l0.50855,-0.0189c0.90672,0 4.06642,-0.1206 7.42328,-1.6763c-0.14593,-0.4092 -0.25036,-0.7769 -0.32332,-1.0937c-1.60447,0.8957 -4.97314,1.6198 -7.76228,1.6198c-0.19516,0 -0.38635,-0.0038 -0.57556,-0.0113c-0.39419,-0.1282 -1.10972,-0.4714 -1.08411,-1.0541c0.02561,-0.5789 0.7195,-0.7995 0.94811,-0.8731l0.50259,-0.015c0.93044,0 4.232,-0.132 7.68545,-1.8008l0.09063,-0.0434c0.20499,-0.5148 0.95992,-0.8881 1.29108,-1.0315l0.62291,-0.2658l0.06899,0.6486c0.67214,6.3056 8.1387,11.5534 8.21365,11.6081l0.67413,0.4676l-2.32595,1.0503l-0.22276,-0.181c-1.3423,1.3143 -5.13276,2.8511 -8.13671,3.2622l-0.09073,0.0151z" fill="#871212"/><path d="M185.18037,252.3332c0,0 -1.40147,0.6034 -0.97184,1.0711c0,0 -0.00188,0.0207 -0.00387,0.0584c-0.17154,-0.0547 -0.36074,-0.0584 -0.38238,-0.0584c-0.00199,0 -0.00199,0 -0.00199,0c-3.51846,1.7008 -6.84772,1.8517 -7.9082,1.8517c-0.22464,0 -0.34684,-0.0076 -0.34684,-0.0076c-1.37586,0.4375 0,1.0051 0,1.0051c0.18325,0.0075 0.36858,0.0113 0.5558,0.0113c3.26612,0 7.28529,-1.0277 8.06584,-1.9328c0.02164,-0.0302 0.0276,-0.0434 0.04735,-0.0698c0.06105,0.5375 0.22663,1.3106 0.61497,2.2572c-0.06899,-0.0076 -0.12617,-0.0113 -0.1498,-0.0113c-0.00794,0 -0.01181,0 -0.01181,0c-3.51459,1.697 -6.83988,1.8479 -7.90423,1.8479c-0.22861,0 -0.3528,-0.0076 -0.3528,-0.0076c-1.37586,0.4413 0,1.0089 0,1.0089c0.18325,0.0075 0.36858,0.0113 0.5558,0.0113c3.26612,0 7.28529,-1.0277 8.06584,-1.9328c0.06115,-0.0717 0.09063,-0.1301 0.13004,-0.1886c0.30168,0.6072 0.6919,1.2672 1.20442,1.9705c-0.04139,0.0038 -0.07098,0.0038 -0.07098,0.0038c-4.09203,2.3646 -8.08748,2.4344 -8.08748,2.4344c-1.33645,0.5336 0.07882,1.0013 0.07882,1.0013c3.3509,-0.1113 7.70113,-1.518 8.44822,-2.5381c0.06701,-0.0924 0.10255,-0.166 0.13997,-0.2357c0.48879,0.6128 1.07815,1.252 1.75824,1.912c-3.893,2.4759 -7.76426,2.7549 -7.76426,2.7549c-1.30488,0.6072 0.136,1.0013 0.136,1.0013c3.3371,-0.2866 7.60067,-1.9214 8.28661,-2.9793c0.02958,-0.0453 0.03742,-0.0754 0.05917,-0.115c0.53604,0.4827 1.12738,0.9711 1.78385,1.4727c-3.72941,2.6323 -7.54349,3.1113 -7.54349,3.1113c-1.26944,0.6732 0.19318,0.99 0.19318,0.99c3.31536,-0.4601 7.48035,-2.3137 8.10723,-3.4036c0.01568,-0.0302 0.01767,-0.0434 0.03146,-0.0698l0.3667,0.2979l1.28512,-0.5826c0,0 -7.71294,-5.344 -8.41466,-11.94M186.02196,250.9378l0.13798,1.2955c0.64852,6.0925 7.93967,11.2234 8.01263,11.2743l1.34826,0.9353l-1.506,0.6807l-1.28512,0.5789l-0.57556,0.2621l-0.11634,-0.0962c-1.67932,1.3483 -5.40277,2.7191 -8.09532,3.0906l-0.17938,0.0264l-0.17739,-0.0396c-0.31151,-0.066 -1.33645,-0.3526 -1.46649,-1.2294c-0.06115,-0.4055 0.06502,-0.9976 1.01313,-1.5029l0.09659,-0.0509c-0.74114,0.1546 -1.46063,0.2659 -2.11699,0.3243l-0.18136,0.0132l-0.17541,-0.0471c-0.30753,-0.0849 -1.31282,-0.4224 -1.39561,-1.303c-0.03742,-0.413 0.12032,-0.9994 1.09602,-1.452l0.16945,-0.0773l0.18534,-0.0169c0.03345,-0.0038 3.03949,-0.249 6.2938,-2.0102c-0.09073,-0.098 -0.17938,-0.1942 -0.26614,-0.2903c-1.77988,1.1936 -5.73006,2.1986 -8.49944,2.291l-0.18335,0.0076l-0.17342,-0.0641c-0.29959,-0.1 -1.28523,-0.4941 -1.31481,-1.3747c-0.0138,-0.4111 0.17938,-0.99 1.17881,-1.3878l0.17342,-0.0698l0.18722,-0.0038c0.03355,0 3.27009,-0.0867 6.76493,-1.8479c-0.03157,-0.0471 -0.06115,-0.0999 -0.09262,-0.1471c-1.79179,0.9466 -5.2491,1.5953 -7.89441,1.5953c-0.20102,0 -0.40015,-0.0038 -0.59521,-0.0113l-0.18335,-0.0076l-0.16757,-0.0697c-0.29363,-0.1207 -1.24571,-0.5808 -1.20631,-1.4652c0.01777,-0.4111 0.25621,-0.9711 1.28324,-1.303l0.17938,-0.0547l0.18722,0.0114c0.0138,0 0.11823,0.0037 0.2976,0.0037c0.84567,0 3.70568,-0.1093 6.82012,-1.4538c-0.0138,-0.0434 -0.0276,-0.0886 -0.03941,-0.1282c-1.87856,0.824 -5.00471,1.3765 -7.44303,1.3765c-0.20102,0 -0.40005,-0.0038 -0.59521,-0.0113l-0.18335,-0.0076l-0.16757,-0.0697c-0.29363,-0.1207 -1.24571,-0.5808 -1.20631,-1.4652c0.01777,-0.4111 0.25631,-0.9711 1.28523,-1.2992l0.17938,-0.0547l0.18722,0.0076c0.01181,0 0.11436,0.0075 0.29175,0.0075c0.89679,0 4.07029,-0.1245 7.40551,-1.7197c0.32321,-0.5563 1.02494,-0.924 1.46252,-1.1125zM183.53837,266.0966c0.41395,-0.0641 3.09866,-0.5205 5.98041,-2.2458c-0.03157,-0.0227 -0.06115,-0.0472 -0.09073,-0.0736c-1.25355,0.9278 -3.63272,1.8103 -5.88968,2.3194z" fill="#000000"/></g><path d="M242.75075,223.0302l-6.70775,0.9353c-6.15373,0.0415 -17.74002,7.1617 -21.99564,19.8088c-4.25563,12.6508 -21.36887,21.766 -21.36887,21.766c-10.02123,-7.3069 -8.46003,-13.1222 -8.46003,-13.1222c20.12117,-9.8224 16.67169,-18.3851 25.78809,-26.9516c9.11639,-8.5627 21.14809,-7.6991 21.14809,-7.6991z" fill="#ba2915"/><g fill="#871212"><path d="M192.26653,247.8642c-0.32719,4.007 8.46003,12.3341 8.46003,12.3341l-2.26878,1.7706c-9.45936,-4.5237 -8.98834,-12.2794 -8.98834,-12.2794z"/><path d="M198.93477,241.6869c1.19648,6.1283 10.08625,10.8085 10.08625,10.8085l-2.71032,2.7512c-9.11639,-4.9499 -9.69195,-10.9198 -9.69195,-10.9198z"/><path d="M202.75878,235.8753c1.70503,3.9617 11.68277,6.9561 11.68277,6.9561l-1.31471,3.381c-9.52836,-2.1213 -11.6257,-8.1648 -11.6257,-8.1648z"/><path d="M207.97234,227.6086c1.08609,2.1421 11.39897,6.5847 11.39897,6.5847l-2.07361,2.7983c-9.38441,-1.9121 -11.07962,-7.0712 -11.07962,-7.0712z"/><path d="M215.53945,221.4689c0.68594,-0.2263 11.89769,4.9027 11.89769,4.9027l-3.30354,2.7889l-11.88389,-5.5759c0,0 2.6038,-1.8894 3.28975,-2.1157z"/><path d="M222.73213,219.1194l4.65379,-1.3237l9.75895,6.0095l-4.62222,0.6864l-9.79052,-5.3722"/></g><path d="M192.63511,266.1004l-0.25621,-0.1848c-10.16318,-7.4144 -8.70652,-13.3655 -8.63753,-13.6163l0.05519,-0.2056l0.19715,-0.0961c12.84967,-6.2717 15.98178,-12.0248 19.00946,-17.5856c1.65768,-3.0453 3.37065,-6.1962 6.65841,-9.2811c7.76426,-7.2937 17.6888,-7.8594 20.54494,-7.8594c0.63274,0 0.98564,0.0264 0.98564,0.0264l13.23999,5.9756l-8.31818,1.1597c-6.33509,0.0452 -17.55865,7.4784 -21.59947,19.4844c-4.26744,12.681 -20.89188,21.6585 -21.59758,22.0357zM184.66387,252.7273c-0.13202,1.0428 -0.26415,6.0775 8.05403,12.2454c2.22142,-1.2445 17.00881,-9.8959 20.86032,-21.3417c4.3404,-12.8979 16.03509,-20.0935 22.46092,-20.1369l5.0322,-0.7052l-10.08614,-4.5784c-0.01777,0.0189 -0.31935,0.0038 -0.77866,0.0019c-2.76154,0 -12.35889,0.5487 -19.85304,7.5879c-3.17549,2.9831 -4.77798,5.9284 -6.47517,9.0435c-3.08277,5.6626 -6.27007,11.5157 -19.21445,17.8835z" fill="#000000"/></g><g><path d="M258.87449,207.0022c3.94224,2.0045 1.4784,6.8355 1.4784,6.8355c7.26742,2.8285 5.04997,6.8336 5.04997,6.8336c-4.06642,-2.242 -7.63809,0.4714 -18.74531,2.7116c-11.10533,2.2401 -22.52395,-2.7116 -22.52395,-2.7116c19.58502,-19.4467 34.7389,-13.6691 34.74089,-13.6691z" fill="#ba2915"/><g fill="#871212"><path d="M239.18891,209.6459c0,0 5.7932,3.9391 3.56184,14.3196h-1.77402c0,0 1.6282,-8.8078 -3.41194,-13.4277z"/><path d="M248.02944,206.5893c4.80557,5.9511 3.72345,15.138 3.72345,15.138l-2.22539,0.5468c0.94414,-11.1857 -4.08419,-15.0362 -4.08419,-15.0362z"/><path d="M232.51084,213.4851c0,0 3.69585,4.4784 2.71022,10.1052l-1.27133,-0.1905c0,0 -1.00926,-7.6802 -2.7951,-8.8267z"/><path d="M261.76617,219.6606h-2.07163c0.39419,-3.7826 -3.00207,-6.6601 -3.00207,-6.6601c0.65437,-4.3163 -2.19383,-6.7997 -2.19383,-6.7997l2.81078,0.3904c1.26746,1.2369 1.42907,6.3376 1.56308,6.6582c3.01786,2.0025 2.89566,6.4112 2.89367,6.4112z"/></g><path d="M265.83646,220.8919l-0.23844,0.4318l-0.44353,-0.2432c-2.4146,-1.3294 -4.86672,-0.7279 -9.39832,0.5412c-2.33578,0.6543 -5.24315,1.467 -8.99618,2.225c-1.94744,0.3922 -4.03287,0.5902 -6.20505,0.5902c-8.82861,0 -16.54751,-3.3017 -16.62445,-3.3357l-0.6366,-0.2753l0.48482,-0.4808c12.1678,-12.0795 22.66591,-14.6157 29.33425,-14.6157c3.70767,0 5.85226,0.8014 5.94487,0.8354c3.2287,1.6386 2.76353,5.0799 1.94744,7.0259c2.6452,1.1069 4.30497,2.5098 4.93572,4.1729c0.65437,1.7254 -0.07296,3.0717 -0.10453,3.1283zM265.00867,218.0634c-0.54012,-1.3916 -2.09933,-2.6323 -4.47055,-3.6204c-4.30298,-1.7027 -8.43839,0.2772 -8.43839,0.2772c3.96001,-2.3344 6.81615,-1.9026 8.00678,-1.5368c0.46904,-1.1691 1.3975,-4.3125 -1.46262,-5.7663c-0.00784,0 -2.05981,-0.7467 -5.52894,-0.7467c-6.38255,0 -16.41162,2.4174 -28.12199,13.8331c2.01445,0.7712 8.41864,2.9887 15.56396,2.9887c2.10121,0 4.1236,-0.1923 6.00205,-0.5713c3.71749,-0.7486 6.60521,-1.5576 8.92322,-2.2062c4.49218,-1.2578 7.1217,-1.8744 9.65066,-0.7128c0.11039,-0.4281 0.18722,-1.1239 -0.12418,-1.9385z" fill="#000000"/></g><g><path d="M205.28376,204.8809c0,0 -2.46394,-1.7688 -1.23192,-3.8882c1.23192,-2.1195 3.44947,-3.0303 3.44947,-2.8115c0,0.2187 21.31169,16.9915 45.3337,-0.7637v-2.4155c0,0 8.99221,3.9881 6.03561,12.0021c0,0 -5.39305,-1.6499 -10.39378,3.5356c-5.0046,5.1855 -9.43961,16.2637 -47.75227,5.7739c0,0 -3.0789,-0.9429 -1.4783,-3.7713c1.6005,-2.8285 6.40806,-5.5401 6.03749,-7.6614z" fill="#ba2915"/><g fill="#871212"><path d="M211.62879,201.0549c-2.64917,1.9441 -0.92449,4.7726 -1.08609,5.9549c-0.16161,1.1823 -0.45534,3.8278 -2.05584,5.6531c-1.6006,1.8254 -1.78583,5.0819 -1.78583,5.0819l-3.94224,-0.8995c0.43162,-0.9428 0.37057,-2.7097 2.8344,-5.1855c2.46394,-2.4759 2.58614,-5.459 2.58614,-5.459c-1.72468,-5.2232 1.63604,-6.3697 1.63604,-6.3697z"/><path d="M218.83317,204.1794c0,0 -0.6366,0.8599 -0.6366,2.8059c0,1.9459 0.65636,3.8655 -0.52632,5.8304c-1.18268,1.9648 -2.54861,6.7431 -2.54861,6.7431l-2.87193,-0.5261c0,0 0.11237,-0.9523 0.91456,-3.1642c0.80229,-2.2118 2.89555,-3.9146 2.48558,-7.2465c-0.40998,-3.3319 0.81609,-5.87 0.78054,-5.3798z"/><path d="M226.25049,205.3957c-0.59124,2.6342 -0.475,3.7298 -0.06502,7.2465c0.40998,3.5167 -1.25167,7.5143 -1.25167,7.5143l-2.75161,-0.1735c0,0 2.19581,-4.3388 1.37575,-7.7952c-0.81995,-3.4564 0.57566,-6.9128 0.57566,-7.0618z"/><path d="M231.71054,205.4145h2.57432c2.39881,7.5388 -0.11039,9.6715 -0.11039,9.6715c0.61497,3.3055 -1.54342,5.0724 -1.54342,5.0724h-1.47642c2.21755,-2.7568 0.86344,-5.376 0.86344,-5.376c1.54133,-4.4199 -0.30753,-9.3698 -0.30753,-9.3698z"/><path d="M242.6088,203.1819c3.56383,7.7274 1.14725,10.784 1.27728,11.1668c0.13014,0.3828 -0.37057,1.4538 -0.37057,1.4538l-2.13665,1.3747c0.86333,-1.6104 0.41196,-2.5136 0.41196,-2.5136c1.76221,-6.0887 -1.97901,-10.5879 -1.97901,-10.5879z"/><path d="M250.25086,199.3427c2.9981,2.0026 2.9981,7.9348 2.9981,7.9348l-2.17616,1.1786c0.86145,-5.6966 -2.62941,-8.0932 -2.62941,-8.0932z"/><path d="M252.837,195.1792c9.89694,5.3816 5.81285,11.7495 5.81285,11.7495l-0.0276,-0.7279c0.48482,-6.8147 -5.29447,-8.5533 -5.29447,-8.5533z"/></g><path d="M259.33579,207.1606l-0.15774,0.4299l-0.45336,-0.1376c-0.00784,-0.0019 -0.7727,-0.2282 -1.95925,-0.2282c-2.01643,0 -5.03032,0.6317 -7.92587,3.6337c-0.48095,0.4959 -0.95407,1.0484 -1.45468,1.6292c-3.13807,3.6525 -7.43906,8.6551 -20.34591,8.6551c-6.94232,0 -15.83993,-1.4727 -26.44842,-4.3766c-0.07892,-0.0226 -1.57499,-0.494 -2.11114,-1.7687c-0.33304,-0.7958 -0.22077,-1.6971 0.33513,-2.6795c0.71354,-1.2578 1.97901,-2.4476 3.20309,-3.5997c1.35809,-1.2766 2.7536,-2.5928 2.78914,-3.562c-0.01777,-0.0132 -0.03753,-0.0208 -0.05519,-0.034l0.01578,-0.0415c-0.96191,-0.7957 -2.20177,-2.5022 -1.14526,-4.32c1.16293,-2.0044 3.23267,-3.0868 3.82004,-3.0868h0.49277l0.03355,0.281c0.91654,0.7335 9.38839,7.1334 21.71769,7.1334c7.86869,0 15.48912,-2.6607 22.65807,-7.9065v-2.9209l0.69974,0.3111c0.09262,0.0434 9.36278,4.2654 6.29182,12.5886zM253.32778,195.7826v1.863l-0.1892,0.1415c-7.40352,5.4702 -15.29594,8.244 -23.4544,8.244c-11.51322,0 -20.40696,-5.6664 -22.30119,-7.3974c-0.39221,0.1264 -1.94943,0.9485 -2.89953,2.5871c-1.00529,1.7311 1.01125,3.2207 1.09791,3.2829l0.15774,0.1132l0.01181,0.0735c0.82194,0.5808 2.58216,1.5387 6.0632,2.3703c0,0 -3.32529,0.0924 -6.11641,-1.3747c-0.33315,1.1918 -1.62423,2.4193 -2.99015,3.7053c-1.17286,1.1013 -2.38512,2.2421 -3.02768,3.3754c-0.40799,0.7222 -0.50458,1.352 -0.28778,1.8724c0.35876,0.8636 1.47443,1.2219 1.48624,1.2257c10.50406,2.8756 19.31104,4.3351 26.16064,4.3351c9.32337,0 13.88454,-2.5871 16.92205,-5.442c-2.56053,0.6279 -10.4312,2.1308 -16.68748,-1.2747c0,0 8.8582,2.9322 17.85438,0.0924c0.53218,-0.5714 1.02494,-1.1389 1.49806,-1.6877c0.51252,-0.5958 0.99735,-1.1615 1.49011,-1.6706c4.23796,-4.3936 8.92729,-4.0655 10.43319,-3.7751c1.95141,-6.0548 -3.25629,-9.5772 -5.22151,-10.6596z" fill="#000000"/></g></g></g></g></svg>