<svg version="1.1" xmlns="http://www.w3.org/2000/svg" xmlns:xlink="http://www.w3.org/1999/xlink" width="157.93619" height="181.36702" viewBox="0,0,157.93619,181.36702"><g transform="translate(-101.03194,-234.31649)"><g stroke-miterlimit="10"><path d="M106.03195,414.68351c-2.20914,0 -4,-1.79086 -4,-4v-171.36702c0,-2.20914 1.79086,-4 4,-4h147.93619c2.20914,0 4,1.79086 4,4v171.36702c0,2.20914 -1.79086,4 -4,4z" fill="#00e6e6" stroke="#000000" stroke-width="2"/><text transform="translate(180.00002,316.3024) scale(0.75386,0.75386)" font-size="40" xml:space="preserve" fill="#000000" stroke="none" stroke-width="1" font-family="Playful" font-weight="normal" text-anchor="middle"><tspan x="0" dy="0">Легкий</tspan><tspan x="0" dy="46.150000000000006px">режим</tspan></text><path d="M160.8416,263.35994c0,-10.58089 8.57751,-19.15839 19.1584,-19.15839c10.5809,0 19.1584,8.57751 19.1584,19.15839c0,10.58089 -8.57751,19.1584 -19.1584,19.1584c-10.5809,0 -19.1584,-8.57751 -19.1584,-19.1584zM179.90778,278.23298c13.17315,0.0652 14.5328,-12.32382 14.5328,-12.32382h-28.25177c0,0 1.0115,12.26092 13.71897,12.32382zM186.98812,259.98367c1.43102,0 2.59109,-1.16008 2.59109,-2.59109c0,-1.43102 -1.16008,-2.59109 -2.59109,-2.59109c-1.43102,0 -2.59109,1.16008 -2.59109,2.59109c0,1.43102 1.16008,2.59109 2.59109,2.59109zM173.01191,259.98367c1.43102,0 2.59109,-1.16008 2.59109,-2.59109c0,-1.43102 -1.16008,-2.59109 -2.59109,-2.59109c-1.43102,0 -2.59109,1.16008 -2.59109,2.59109c0,1.43102 1.16008,2.59109 2.59109,2.59109z" fill="none" stroke="#000000" stroke-width="3.5"/></g></g></svg>