<svg version="1.1" xmlns="http://www.w3.org/2000/svg" xmlns:xlink="http://www.w3.org/1999/xlink" width="157.93619" height="181.36702" viewBox="0,0,157.93619,181.36702"><g transform="translate(-101.0319,-234.31649)"><g stroke-miterlimit="10"><path d="M106.0319,414.68351c-2.20914,0 -4,-1.79086 -4,-4v-171.36702c0,-2.20914 1.79086,-4 4,-4h147.93619c2.20914,0 4,1.79086 4,4v171.36702c0,2.20914 -1.79086,4 -4,4z" fill="#00e6e6" stroke="#000000" stroke-width="2"/><text transform="translate(180,316.3024) scale(0.75386,0.75386)" font-size="40" xml:space="preserve" fill="#000000" stroke="none" stroke-width="1" font-family="Playful" font-weight="normal" text-anchor="middle"><tspan x="0" dy="0">Складний</tspan><tspan x="0" dy="46.150000000000006px">режим</tspan></text><path d="M160.8416,262.52697c0,-10.5809 8.57751,-19.1584 19.15839,-19.1584c10.58089,0 19.1584,8.57751 19.1584,19.1584c0,10.5809 -8.57751,19.1584 -19.1584,19.1584c-10.58088,0 -19.15839,-8.57751 -19.15839,-19.1584zM186.9881,259.15069c1.43102,0 2.5911,-1.16008 2.5911,-2.59109c0,-1.43102 -1.16007,-2.5911 -2.5911,-2.5911c-1.43102,0 -2.59109,1.16008 -2.59109,2.5911c0,1.43102 1.16007,2.59109 2.59109,2.59109zM173.0119,259.15069c1.43102,0 2.59109,-1.16008 2.59109,-2.59109c0,-1.43102 -1.16008,-2.5911 -2.59109,-2.5911c-1.43102,0 -2.59109,1.16008 -2.59109,2.5911c0,1.43102 1.16008,2.59109 2.59109,2.59109zM167.70021,274.60996h25.22894c0,0 -1.21417,-9.81776 -12.97785,-9.76609c-11.34782,0.04985 -12.25109,9.76609 -12.25109,9.76609z" fill="none" stroke="#000000" stroke-width="3.5"/></g></g></svg>