<svg version="1.1" xmlns="http://www.w3.org/2000/svg" xmlns:xlink="http://www.w3.org/1999/xlink" width="310" height="485.41824" viewBox="0,0,310,485.41824"><g transform="translate(-25,-36.25)"><g data-paper-data="{&quot;isPaintingLayer&quot;:true}" stroke-miterlimit="10" stroke-dasharray="" stroke-dashoffset="0" style="mix-blend-mode: normal"><g data-paper-data="{&quot;index&quot;:null}" fill-rule="nonzero" stroke="#000000" stroke-width="2" stroke-linecap="butt" stroke-linejoin="miter"><path d="M180.00006,409.48728c77.5818,0 140.47426,14.90342 140.47426,33.28773c0,18.38429 -62.89247,33.28773 -140.47426,33.28773c-77.5818,0 -140.47426,-14.90342 -140.47426,-33.28773c0,-18.38429 62.89247,-33.28773 140.47426,-33.28773z" fill="#85ff66"/><path d="M251.23582,520.66824c-13.97207,0 -25.29868,-11.32661 -25.29868,-25.29868c0,-13.97207 11.32661,-25.29868 25.29868,-25.29868c13.97207,0 25.29868,11.32661 25.29868,25.29868c0,13.97207 -11.32661,25.29868 -25.29868,25.29868z" fill="#000000"/><path d="M108.76429,520.66824c-13.97207,0 -25.29868,-11.32661 -25.29868,-25.29868c0,-13.97207 11.32661,-25.29868 25.29868,-25.29868c13.97207,0 25.29868,11.32661 25.29868,25.29868c0,13.97207 -11.32661,25.29868 -25.29868,25.29868z" fill="#000000"/></g><g fill-rule="nonzero" stroke-linejoin="miter"><g fill="#ffc266" stroke="none" stroke-linecap="butt"><g><path d="M150.99998,435.875v-54h13v54z" stroke-width="NaN"/><path d="M180.99998,449.875c0,4.40937 -12.49451,-7.61129 -16.49874,-4.78885c-3.76963,2.65708 -0.87727,14.28885 -6.50126,14.28885c-5.12943,0 -4.82932,-10.3574 -8.47629,-12.61207c-4.59908,-2.8433 -15.52371,6.88648 -15.52371,2.11207c0,-8.56041 12.40202,-20.5 24,-20.5c11.59798,0 23,12.93959 23,21.5z" stroke-width="0"/></g><g><path d="M195.99998,435.875v-54h13v54z" stroke-width="NaN"/><path d="M225.99998,449.875c0,4.40937 -12.49451,-7.61129 -16.49874,-4.78885c-3.76963,2.65708 -0.87727,14.28885 -6.50126,14.28885c-5.12942,0 -4.82932,-10.35739 -8.47629,-12.61207c-4.59908,-2.8433 -15.52371,6.88648 -15.52371,2.11207c0,-8.56041 12.40202,-20.5 24,-20.5c11.59798,0 23,12.93959 23,21.5z" stroke-width="0"/></g></g><g><path d="M85.33333,319.125l-60.33333,-136c0,0 46.46761,25.72992 65.82147,28.47029c18.24766,2.58374 48.51186,-12.47029 48.51186,-12.47029c0,0 1.09787,35.15291 -6.79841,52.70019c-9.72145,21.60322 -47.20159,67.29981 -47.20159,67.29981z" fill="#e5e5e5" stroke="none" stroke-width="0" stroke-linecap="round"/><path d="M210,198.125c0,0 28.13112,14.85404 46.55068,12.47733c22.2029,-2.86489 78.44932,-28.47733 78.44932,-28.47733c0,0 -32.72196,68.7358 -44.6734,93.84101c-8.01067,16.82723 -20.06996,42.15899 -20.06996,42.15899c0,0 -38.31306,-53.18594 -48.63845,-74.09579c-9.32461,-18.88318 -11.61819,-45.90421 -11.61819,-45.90421z" fill="#e5e5e5" stroke="none" stroke-width="0" stroke-linecap="round"/><path d="M272.90624,337.125c0,43.90664 -42.53295,79.5 -95,79.5c-52.46705,0 -95,-35.59336 -95,-79.5c0,-43.90664 42.53295,-79.5 95,-79.5c52.46705,0 95,35.59336 95,79.5z" fill="#f8f8f8" stroke="none" stroke-width="0" stroke-linecap="butt"/><path d="M218,150.125c0,0 -12.9603,29.58263 -5.66426,63.14441c7.68387,35.34579 44.16426,79.85559 44.16426,79.85559h-157.5c0,0 30.24656,-42.01211 37.97617,-77.22475c7.23808,-32.97348 0.52383,-66.77525 0.52383,-66.77525z" fill="#ffffff" stroke="none" stroke-width="0" stroke-linecap="round"/><path d="M227.40625,125.125c0,23.4721 -22.1619,42.5 -49.5,42.5c-27.3381,0 -49.5,-19.0279 -49.5,-42.5c0,-23.4721 22.1619,-42.5 49.5,-42.5c27.3381,0 49.5,19.0279 49.5,42.5z" fill="#f2f2f2" stroke="none" stroke-width="0" stroke-linecap="butt"/><path d="M166.99998,121.625c0,6.90356 -4.70101,12.5 -10.5,12.5c-5.79899,0 -10.5,-5.59644 -10.5,-12.5c0,-6.90356 4.70101,-12.5 10.5,-12.5c5.79899,0 10.5,5.59644 10.5,12.5z" fill="#00c0c0" stroke="none" stroke-width="0" stroke-linecap="butt"/><path d="M211,122.625c0,6.90356 -4.70101,12.5 -10.5,12.5c-5.79899,0 -10.5,-5.59644 -10.5,-12.5c0,-6.90356 4.70101,-12.5 10.5,-12.5c5.79899,0 10.5,5.59644 10.5,12.5z" fill="#00c0c0" stroke="none" stroke-width="0" stroke-linecap="butt"/><path d="M162.75999,122.125c0,3.86599 -2.63257,7 -5.88,7c-3.24743,0 -5.88,-3.13401 -5.88,-7c0,-3.86599 2.63257,-7 5.88,-7c3.24743,0 5.88,3.13401 5.88,7z" fill="#000000" stroke="#000000" stroke-width="2.5" stroke-linecap="butt"/><path d="M206.75998,123.125c0,3.86599 -2.63256,7 -5.88,7c-3.24743,0 -5.88,-3.13401 -5.88,-7c0,-3.86599 2.63256,-7 5.88,-7c3.24743,0 5.88,3.13401 5.88,7z" fill="#000000" stroke="#000000" stroke-width="2.5" stroke-linecap="butt"/><path d="M177.00001,179.125l-16.04688,-33.5h33.5z" fill="#ff9e00" stroke="none" stroke-width="0" stroke-linecap="round"/></g></g><g fill-rule="nonzero" stroke="#000000" stroke-width="1" stroke-linejoin="miter"><path d="M151,97.5c-0.178,-1.16 0.204,-4.247 1.25,-6c2.119,-3.551 4.602,-7.144 8,-9.5c4.166,-2.886 8.892,-4.737 13.75,-5.75c3.966,-0.827 8.235,-0.577 12.25,0.25c3.464,0.788 6.998,2.195 9.75,4.5c3.459,2.898 7.746,9.393 8.25,10.75c0.408,1.109 -3.965,-3.629 -6.25,-5c-2.841,-1.703 -5.663,-3.293 -8.75,-4c-3.349,-0.902 -6.938,-1.052 -10.25,-0.75c-3.741,0.341 -7.59,1.137 -11,2.5c-3.806,1.523 -7.402,3.635 -10.75,6c-1.756,1.24 -2.897,3.023 -4.25,4.5c-0.73,0.856 -1.903,3.095 -1.75,2.25z" fill="#009933" stroke-linecap="round"/><g stroke-linecap="round"><path d="M140.7469,45.793c0,0 -0.5689,0.3725 -0.3885,0.402c0.6918,0.1136 1.4465,-0.3033 2.1329,-0.1158c1.4551,0.3965 2.9989,0.8439 4.1431,1.8262c1.3521,1.1608 2.5818,2.6647 3.08,4.3747c0.4017,1.38 -0.2388,2.8778 -0.5588,4.2794c-0.149,0.6544 -0.5095,1.2476 -0.8381,1.833c-0.4655,0.8275 -0.9118,1.6872 -1.54,2.3986c-0.4737,0.5367 -1.0566,1.017 -1.7172,1.2947c-0.6861,0.2886 -1.4684,0.4431 -2.2078,0.3543c-0.6669,-0.0795 -1.4654,-0.277 -1.8331,-0.8381c-0.3907,-0.5945 -0.4574,-1.5096 -0.1158,-2.1329c0.7528,-1.3713 2.0122,-2.4168 3.1822,-3.4548c0.6617,-0.5876 1.4571,-1.0305 2.2692,-1.3833c0.7208,-0.3122 1.499,-0.5404 2.2828,-0.5928c0.8469,-0.0567 1.7139,0.0565 2.5348,0.2726c0.889,0.2332 1.7586,0.5914 2.5486,1.063c0.7695,0.4599 1.4648,1.0557 2.0851,1.7035c0.7022,0.7343 1.4195,1.5038 1.8603,2.4191c0.3717,0.7719 0.4905,1.6646 0.5179,2.5213c0.0293,0.9306 -0.1535,1.8626 -0.3475,2.7734c-0.1732,0.8145 -0.3855,1.6367 -0.7496,2.3849c-0.3809,0.7818 -0.8104,1.5881 -1.4651,2.1602c-0.7094,0.6198 -1.5781,1.1591 -2.5076,1.3083c-0.8257,0.1325 -1.7646,-0.0452 -2.4599,-0.5111c-0.6371,-0.4277 -1.3155,-1.1943 -1.2198,-1.9557c0.1688,-1.3442 0.9733,-2.6165 1.9148,-3.5911c0.5783,-0.5992 1.5304,-0.737 2.3577,-0.8313c0.8438,-0.0965 1.7036,0.0993 2.5349,0.2726c0.8148,0.169 1.6049,0.4603 2.385,0.7495c0.785,0.2908 1.6243,0.5084 2.3101,0.9881c0.702,0.4911 1.3752,1.1073 1.7717,1.8671c0.6626,1.2701 1.3789,2.6567 1.3355,4.0885c-0.0459,1.5003 -0.7812,2.9527 -1.5877,4.2181c-0.4471,0.7022 -1.2921,1.0729 -2.0306,1.4582c-0.6344,0.331 -1.3326,0.7447 -2.0443,0.6678c-0.6825,-0.073 -1.3869,-0.4998 -1.7581,-1.0767c-0.4026,-0.6265 -0.451,-1.4698 -0.3543,-2.2078c0.0975,-0.7471 0.404,-1.5156 0.9131,-2.0715c0.4771,-0.5209 1.1831,-0.8693 1.8807,-0.9812c0.6624,-0.1063 1.3549,0.1249 1.983,0.3611c0.7949,0.2991 1.5391,0.7395 2.2351,1.2266c0.6719,0.4701 1.3324,0.99 1.8466,1.6286c0.4434,0.5502 0.738,1.2172 0.9813,1.8807c0.2306,0.6302 0.4781,1.3002 0.4293,1.9693c-0.0607,0.83 -0.7496,2.385 -0.7496,2.385" fill="none"/><path d="M137.0433,39.6499c1.8097,0.5688 3.2062,1.8588 3.9993,3.4844c0.7943,1.6249 0.9853,3.5854 0.3857,5.4934c-0.5997,1.908 -1.8778,3.4067 -3.4589,4.285c-1.5805,0.8797 -3.4638,1.1389 -5.2736,0.5701c-1.8097,-0.5687 -3.2061,-1.8588 -3.9992,-3.4844c-0.7944,-1.6249 -0.9854,-3.5853 -0.3857,-5.4933c0.5996,-1.908 1.8778,-3.4067 3.4589,-4.2851c1.5804,-0.8796 3.4638,-1.1389 5.2735,-0.5701z" fill="#ffff00"/></g><g><path d="M190.75,81c0,0 0.287,-3.381 0.75,-5c0.216,-0.755 0.717,-1.423 1.25,-2c0.486,-0.526 1.118,-0.913 1.75,-1.25c0.628,-0.335 1.305,-0.899 2,-0.75c0.691,0.148 1.262,0.835 1.5,1.5c0.226,0.632 0.363,1.727 -0.25,2c-1.293,0.575 -2.887,0.382 -4.25,0c-0.852,-0.239 -1.477,-1.036 -2,-1.75c-0.421,-0.574 -0.577,-1.31 -0.75,-2c-0.163,-0.651 -0.292,-1.33 -0.25,-2c0.043,-0.685 0.193,-1.386 0.5,-2c0.372,-0.745 0.934,-1.39 1.5,-2c0.522,-0.562 1.131,-1.046 1.75,-1.5c0.633,-0.464 1.28,-0.935 2,-1.25c0.629,-0.275 1.315,-0.457 2,-0.5c0.67,-0.042 1.363,0.038 2,0.25c0.637,0.212 1.275,0.525 1.75,1c0.475,0.475 0.911,1.085 1,1.75c0.091,0.68 0.01,1.541 -0.5,2c-0.499,0.449 -1.333,0.328 -2,0.25c-0.784,-0.092 -1.58,-0.331 -2.25,-0.75c-0.699,-0.437 -1.369,-1.019 -1.75,-1.75c-0.646,-1.237 -1.25,-2.604 -1.25,-4c0,-1.636 0.57,-3.262 1.25,-4.75c0.672,-1.47 1.607,-2.857 2.75,-4c0.503,-0.503 1.3,-0.626 2,-0.75c0.738,-0.13 1.512,-0.13 2.25,0c0.7,0.124 1.476,0.269 2,0.75c0.549,0.503 0.954,1.257 1,2c0.044,0.71 -0.199,1.55 -0.75,2c-0.519,0.425 -1.329,0.25 -2,0.25c-0.754,0 -1.576,0.087 -2.25,-0.25c-0.737,-0.369 -1.293,-1.064 -1.75,-1.75c-0.395,-0.592 -0.626,-1.3 -0.75,-2c-0.13,-0.738 -0.13,-1.512 0,-2.25c0.124,-0.7 0.401,-1.38 0.75,-2c0.408,-0.726 0.934,-1.39 1.5,-2c0.522,-0.562 1.073,-1.139 1.75,-1.5c0.606,-0.323 1.355,-0.265 2,-0.5c0.282,-0.103 0.75,-0.5 0.75,-0.5" fill="none" stroke-linecap="round"/><path d="M207.25,36.75c1.793,0 3.418,0.742 4.595,1.942c1.177,1.199 1.905,2.855 1.905,4.683c0,1.828 -0.728,3.484 -1.905,4.683c-1.177,1.2 -2.802,1.942 -4.595,1.942c-1.793,0 -3.418,-0.742 -4.595,-1.942c-1.177,-1.199 -1.905,-2.855 -1.905,-4.683c0,-1.828 0.728,-3.484 1.905,-4.683c1.177,-1.2 2.802,-1.942 4.595,-1.942z" fill="#ffff00" stroke-linecap="butt"/></g></g><g fill-rule="evenodd"><g><path d="M204.26305,191.17351c0.70721,3.33199 1.05337,6.73301 1.03184,10.14189c0.18999,5.20367 -0.69272,10.39003 -2.59157,15.225c-8.20661,0 -16.60522,-8.38231 -17.8049,-9.62868c0.03643,-0.23466 0.03643,-0.47396 0,-0.70862v-7.47806c6.20874,-3.12852 12.692,-5.6567 19.36464,-7.55152z" fill="#14e148" stroke="none" stroke-width="1" stroke-linecap="butt" stroke-linejoin="miter"/><path d="M184.70641,196.37879c0.03643,-0.23466 0.03643,-0.47376 0,-0.70862c1.19969,-1.24638 9.62224,-9.62868 17.8049,-9.62868c0.71043,1.64668 1.24155,3.36761 1.58368,5.13202c-6.61508,1.90489 -13.04178,4.43286 -19.19659,7.55152z" fill="#acff74" stroke="none" stroke-width="1" stroke-linecap="butt" stroke-linejoin="miter"/><path d="M205.29489,201.31539c0.15879,5.22863 -0.76517,10.4329 -2.71152,15.27391c-8.8305,0 -17.97295,-9.7754 -17.97295,-9.7754v-10.99702c0,0 9.14245,-9.7754 17.97295,-9.7754c1.94635,4.84101 2.87031,10.04528 2.71152,15.27391z" fill="none" stroke="#149948" stroke-width="0.96" stroke-linecap="butt" stroke-linejoin="miter"/><g fill="none" stroke="#00b82b" stroke-width="0.768" stroke-linecap="round" stroke-linejoin="round"><path d="M195.00065,210.35761c-2.38066,-1.27777 -4.6311,-2.79222 -6.71893,-4.52121"/><path d="M199.58385,212.45913c0,0 -0.76779,-0.26868 -1.96768,-0.75753"/></g></g><g><path d="M167.93335,198.70047c-6.03868,-3.42034 -12.49296,-6.01674 -19.19679,-7.72239c0.36025,-1.67767 0.88271,-3.31488 1.55973,-4.8877c8.20661,0 16.60522,8.38231 17.8049,9.62868c-0.03643,0.23466 -0.03643,0.47396 0,0.70862z" fill="#acff74" stroke="none" stroke-width="1" stroke-linecap="butt" stroke-linejoin="miter"/><path d="M168.12515,206.252c-0.03623,0.23466 -0.03623,0.47376 0,0.70862c-1.19969,1.24638 -9.62224,9.62868 -17.8049,9.62868c-1.91354,-4.84825 -2.8047,-10.05213 -2.61552,-15.27391c0.02938,-3.47991 0.43169,-6.94635 1.19989,-10.3373c6.70363,1.70564 13.15791,4.30204 19.19659,7.72239z" fill="#14e148" stroke="none" stroke-width="1" stroke-linecap="butt" stroke-linejoin="miter"/><path d="M150.41624,186.04148c8.8305,0 17.97295,9.7754 17.97295,9.7754v10.99702c0,0 -9.14245,9.7754 -17.97295,9.7754c-1.94635,-4.84101 -2.87031,-10.04528 -2.71152,-15.27391c-0.15879,-5.22863 0.76517,-10.4329 2.71152,-15.27391z" fill="none" stroke="#149948" stroke-width="0.96" stroke-linecap="butt" stroke-linejoin="miter"/><g fill="none" stroke="#00b82b" stroke-width="0.768" stroke-linecap="round" stroke-linejoin="round"><path d="M164.18999,206.15418c-0.58827,0.54681 -1.20512,1.06062 -1.84773,1.53961"/><path d="M160.15864,209.16014c-2.20355,1.33755 -4.5351,2.44304 -6.95882,3.29899"/></g></g><g stroke-linecap="butt" stroke-linejoin="miter"><path d="M184.77846,206.96062c-0.29665,0.87627 -1.1057,1.46474 -2.01578,1.46635h-12.52576c-0.91008,-0.00161 -1.71913,-0.59008 -2.01578,-1.46635l0.16805,-0.14672v-7.94236h16.22122v7.94236z" fill="#14e148" stroke="none" stroke-width="1"/><path d="M168.22115,195.67016c0.29665,-0.87627 1.1057,-1.46474 2.01578,-1.46635h12.52576c0.91008,0.00161 1.71913,0.59008 2.01578,1.46635l-0.16805,0.14672v3.05466h-16.22122v-3.05466z" fill="#acff74" stroke="none" stroke-width="1"/><path d="M169.96085,208.42691c-1.02703,0 -1.8596,0 -1.8596,0v-14.22303c0,0 0.83258,0 1.8596,0h13.10191c1.02703,0 1.8596,0 1.8596,0v14.22303c0,0 -0.83258,0 -1.8596,0z" fill="none" stroke="#149948" stroke-width="0.96"/></g></g></g></g></svg>