<svg version="1.1" xmlns="http://www.w3.org/2000/svg" xmlns:xlink="http://www.w3.org/1999/xlink" width="339.01854" height="423.33641" viewBox="0,0,339.01854,423.33641"><g transform="translate(-12.33875,-98.33183)"><g data-paper-data="{&quot;isPaintingLayer&quot;:true}" fill-rule="nonzero" stroke-linejoin="miter" stroke-miterlimit="10" stroke-dasharray="" stroke-dashoffset="0" style="mix-blend-mode: normal"><g data-paper-data="{&quot;index&quot;:null}" stroke="#000000" stroke-width="2" stroke-linecap="butt"><path d="M180.00006,409.48729c77.5818,0 140.47426,14.90342 140.47426,33.28773c0,18.38429 -62.89247,33.28773 -140.47426,33.28773c-77.5818,0 -140.47426,-14.90342 -140.47426,-33.28773c0,-18.38429 62.89247,-33.28773 140.47426,-33.28773z" fill="#00ffff"/><path d="M251.23582,520.66824c-13.97207,0 -25.29868,-11.32661 -25.29868,-25.29868c0,-13.97207 11.32661,-25.29868 25.29868,-25.29868c13.97207,0 25.29868,11.32661 25.29868,25.29868c0,13.97207 -11.32661,25.29868 -25.29868,25.29868z" fill="#000000"/><path d="M108.76429,520.66824c-13.97207,0 -25.29868,-11.32661 -25.29868,-25.29868c0,-13.97207 11.32661,-25.29868 25.29868,-25.29868c13.97207,0 25.29868,11.32661 25.29868,25.29868c0,13.97207 -11.32661,25.29868 -25.29868,25.29868z" fill="#000000"/></g><g fill="#ffc266" stroke="none" stroke-linecap="butt"><path d="M200.50002,413.75006v-54h13v54z" stroke-width="NaN"/><path d="M230.50002,427.75006c0,4.40937 -12.49451,-7.61129 -16.49874,-4.78885c-3.76963,2.65708 -0.87727,14.28885 -6.50126,14.28885c-5.12943,0 -4.82932,-10.3574 -8.47629,-12.61207c-4.59908,-2.8433 -15.52371,6.88648 -15.52371,2.11207c0,-8.56041 12.40202,-20.5 24,-20.5c11.59798,0 23,12.93959 23,21.5z" stroke-width="0"/></g><g fill="#ffc266" stroke="none" stroke-linecap="butt"><path d="M173.50002,432.75006v-54h13v54z" stroke-width="NaN"/><path d="M203.50002,446.75006c0,4.40937 -12.49451,-7.61129 -16.49874,-4.78885c-3.76963,2.65708 -0.87727,14.28885 -6.50126,14.28885c-5.12942,0 -4.82932,-10.35739 -8.47629,-12.61207c-4.59908,-2.8433 -15.52371,6.88648 -15.52371,2.11207c0,-8.56041 12.40202,-20.5 24,-20.5c11.59798,0 23,12.93959 23,21.5z" stroke-width="0"/></g><path d="M282.85294,222.64045c17.79814,0 41.89431,0 41.89431,0c0,0 -24.09617,64.45278 -41.89431,64.45278c-17.79814,0 -32.22639,-14.42825 -32.22639,-32.22639c0,-17.79814 14.42825,-32.22639 32.22639,-32.22639z" fill="#e5e5e5" stroke="none" stroke-width="NaN" stroke-linecap="butt"/><path d="M138.09273,302.90486c15.92438,-5.61046 73.80344,-52.84435 111.68638,-50.60764c42.94975,2.53587 65.33373,56.10359 65.33373,77.21215c0,18.25871 -24.16199,56.47541 -68.09069,69.27342c-51.65044,15.04762 -126.03802,2.60414 -153.00728,-6.07003c-13.14216,-4.22693 -43.42474,-21.98488 -58.70654,-52.99257c-7.73537,-15.69552 -4.94078,-32.67443 -8.40911,-48.70215c-5.33617,-24.65933 -14.56047,-45.69997 -14.56047,-45.69997c0,0 84.40814,72.15369 125.75398,57.58679z" fill="#f8f8f8" stroke="none" stroke-width="0" stroke-linecap="butt"/><path d="M244.71616,172.50139c0,0 12.92491,16.58399 19.47396,46.41855c6.99378,31.86055 36.36101,69.8733 36.36101,69.8733h-100.50672c0,0 12.44401,-49.15651 11.21855,-71.28603c-1.1592,-20.93295 -18.38357,-58.10103 -18.38357,-58.10103z" fill="#ffffff" stroke="none" stroke-width="0" stroke-linecap="round"/><path d="M229.15641,98.33183c24.73565,0 44.78783,17.21653 44.78783,38.45419c0,21.23766 -20.0522,38.45419 -44.78783,38.45419c-24.73565,0 -44.78783,-17.21653 -44.78783,-38.45419c0,-21.23766 20.0522,-38.45419 44.78783,-38.45419z" fill="#f2f2f2" stroke="none" stroke-width="0" stroke-linecap="butt"/><path d="M249.32856,171.10446l22.07824,-20.76789l10.19215,32.02629z" fill="#ff9e00" stroke="none" stroke-width="0" stroke-linecap="round"/><path d="M115.76451,337.38469c-34.58949,-16.63474 -80.51173,-107.74068 -80.51173,-107.74068c0,0 33.534,8.1318 63.6645,0.90973c12.55998,-3.01055 61.82902,-23.4036 84.00653,-12.75079c30.82918,14.80856 58.47286,77.62004 49.31505,98.22419c-15.74564,35.42612 -81.88485,37.99229 -116.47434,21.35755z" fill="#ffffff" stroke="none" stroke-width="0" stroke-linecap="butt"/><path d="M105.99256,345.07752c-28.67277,-13.78928 -85.73978,-113.31108 -85.73978,-113.31108c0,0 46.79783,30.74081 71.77436,24.75412c10.41153,-2.49558 51.25284,-19.40029 69.63677,-10.5697c25.55569,12.27548 48.47077,64.34273 40.87945,81.42243c-13.05227,29.36629 -67.87802,31.49351 -96.55079,17.70423z" fill="#e5e5e5" stroke="none" stroke-width="0" stroke-linecap="butt"/><g stroke-linecap="butt"><path d="M241.00003,125.68999c5.24695,0 9.50045,5.06368 9.50045,11.31006c0,6.24637 -4.2535,11.31006 -9.50045,11.31006c-5.24695,0 -9.50045,-5.06368 -9.50045,-11.31006c0,-6.24637 4.2535,-11.31006 9.50045,-11.31006z" fill="#00c0c0" stroke="none" stroke-width="0"/><path d="M240.65619,131.1188c2.93829,0 5.32025,2.83567 5.32025,6.33364c0,3.49798 -2.38197,6.33364 -5.32025,6.33364c-2.93829,0 -5.32025,-2.83567 -5.32025,-6.33364c0,-3.49798 2.38197,-6.33364 5.32025,-6.33364z" fill="#000000" stroke="#000000" stroke-width="2.5"/></g><g><path d="M177.25272,211.97918c0,10.16874 3.75051,24.4167 -3.19086,31.2989c-7.57313,7.50856 -24.35043,13.20111 -36.30914,13.20111c-14.27137,0 -38.8602,0.317 -46.32864,-9.85964c-4.52588,-6.16705 2.82864,-26.6171 2.82864,-34.64036c0,-21.26297 18.58019,-38.5 41.5,-38.5c22.91982,0 41.5,17.23703 41.5,38.5z" fill="#f1b4f2" stroke="none" stroke-width="0" stroke-linecap="butt"/><path d="M170.75272,196.47918c-9.1127,0 -28.5,2.26956 -28.5,-8.5c0,-10.76955 19.3873,-30.5 28.5,-30.5c9.1127,0 9.1127,39 0,39z" fill="#f1b4f2" stroke="#000000" stroke-width="0" stroke-linecap="butt"/><path d="M132.43613,184.94219c-2.60806,5.67496 -32.75369,16.78755 -34.91189,15.46385c-4.91904,-3.01702 3.66807,-44.92687 12.22848,-44.92687c8.56041,0 23.8428,26.94027 22.68341,29.46302z" fill="#f1b4f2" stroke="#000000" stroke-width="0" stroke-linecap="butt"/><path d="M153.28532,210.47918c-4.39259,0 -13.0326,-2 -13.0326,-2c0,0 5.64698,-11 12,-11c6.35302,0 14,11 14,11c0,0 -8.69676,2 -12.9674,2z" fill="#ffffff" stroke="#000000" stroke-width="2.5" stroke-linecap="round"/><path d="M117.28532,209.81251c-4.22256,0 -12.0326,-3.33333 -12.0326,-3.33333c0,0 5.64698,-11 12,-11c6.35302,0 14,11 14,11c0,0 -9.53361,3.33333 -13.9674,3.33333z" fill="#ffffff" stroke="#000000" stroke-width="2.5" stroke-linecap="round"/><path d="M151.91938,232.81252c0,0 -9.86198,7.68433 -13.2121,6.53046c-0.78875,-0.27166 -2.51169,-3.81279 -3.48459,-7.90287c-1.40529,-5.9078 -1.96998,-12.96092 -1.96998,-12.96092c0,0 1.5356,11.17151 -1.7561,13.80487c-1.611,1.28879 -6.92092,6.55457 -10.98416,5.43578c-4.44408,-1.22366 -7.59307,-8.90733 -7.59307,-8.90733" fill="none" stroke="#000000" stroke-width="2.5" stroke-linecap="round"/><path d="M138.41668,219.65973c0,2.07107 -2.35051,3.75 -5.25,3.75c-2.89949,0 -5.25,-1.67893 -5.25,-3.75c0,-2.07107 2.35051,-3.75 5.25,-3.75c2.89949,0 5.25,1.67893 5.25,3.75z" fill="#000000" stroke="#000000" stroke-width="0" stroke-linecap="butt"/><path d="M127.14774,180.54015c-1.89382,4.12082 -23.7838,12.19013 -25.35097,11.22894c-3.57192,-2.19078 2.66353,-32.62325 8.8796,-32.62325c6.21607,0 17.31324,19.56244 16.47137,21.39431z" fill="#f2da00" stroke="#000000" stroke-width="0" stroke-linecap="butt"/><path d="M165.26838,161.14584c6.21607,0 12.45153,30.43248 8.87961,32.62326c-1.56716,0.96119 -23.45715,-7.10811 -25.35097,-11.22894c-0.84187,-1.83187 10.2553,-21.39432 16.47136,-21.39432z" data-paper-data="{&quot;index&quot;:null}" fill="#f2da00" stroke="#000000" stroke-width="0" stroke-linecap="butt"/><path d="M117.61865,203.8264c0,1.65685 -0.14924,3 -0.33333,3c-0.18409,0 -0.33333,-1.34315 -0.33333,-3c0,-1.65685 0.14924,-3 0.33333,-3c0.18409,0 0.33333,1.34315 0.33333,3z" fill="#ffffff" stroke="#000000" stroke-width="2.5" stroke-linecap="butt"/><path d="M153.0631,203.49306c0,1.84095 -0.49746,3.33333 -1.11111,3.33333c-0.61365,0 -1.11111,-1.49238 -1.11111,-3.33333c0,-1.84095 0.49746,-3.33333 1.11111,-3.33333c0.61365,0 1.11111,1.49238 1.11111,3.33333z" fill="#ffffff" stroke="#000000" stroke-width="2.5" stroke-linecap="butt"/><path d="M103.95198,206.15973l-3,-6" fill="none" stroke="#000000" stroke-width="1.5" stroke-linecap="round"/><path d="M104.95199,196.15973l2.66667,4.66667" fill="none" stroke="#000000" stroke-width="1.5" stroke-linecap="round"/><path d="M109.61865,193.49306l2.33333,3" fill="none" stroke="#000000" stroke-width="1.5" stroke-linecap="round"/><path d="M165.61864,207.49306l5.33333,-1.66667" fill="none" stroke="#000000" stroke-width="1.5" stroke-linecap="round"/><path d="M163.95198,204.15973l1.66667,-4.33333" fill="none" stroke="#000000" stroke-width="1.5" stroke-linecap="round"/><path d="M159.61865,201.49306l2,-4.66667" fill="none" stroke="#000000" stroke-width="1.5" stroke-linecap="round"/></g><g stroke="none" stroke-width="0.81451" stroke-linecap="butt"><path d="M327.81036,228.17231c-0.27208,0 -0.55418,-0.07538 -0.86145,-0.23073c-1.38484,-0.69828 -2.49828,-1.96303 -3.30719,-3.75911l-0.35027,-0.77709l0.78217,-0.33738c0.31111,-0.13354 0.62229,-0.27599 0.93683,-0.43127c2.51501,-1.25137 4.73895,-3.18929 6.60931,-5.75911l0.37599,-0.51619l0.59719,0.22517c1.94465,0.73292 3.70321,1.54074 5.22612,2.39993c0.95137,0.53683 1.49211,1.28882 1.52064,2.11673c0.02791,0.8072 -0.43073,1.56474 -1.29108,2.1312c-0.5251,0.34527 -1.14746,0.52064 -1.84856,0.52064c-0.77037,0 -1.55521,-0.21056 -2.29821,-0.49609c0.30555,0.34582 0.55974,0.70562 0.79828,1.05644c0.40946,0.6011 0.47092,1.27537 0.16756,1.84965c-0.33457,0.63127 -1.07256,1.03909 -1.88038,1.03909v0c-0.40892,0 -0.80555,-0.10562 -1.14856,-0.30672c-1.09883,-0.6441 -2.03909,-1.53511 -2.84073,-2.39821c0.28491,1.45356 0.34191,2.55294 -0.17709,3.1943c-0.24911,0.30892 -0.60837,0.47874 -1.01056,0.47874z" fill="#f7941e"/><path d="M332.29795,217.37151c-1.81673,2.49656 -4.13175,4.63168 -6.91603,6.01713c-0.32737,0.162 -0.65247,0.31063 -0.97647,0.45027c0.61564,1.36536 1.54684,2.66248 2.92112,3.3552c0.19218,0.09726 0.35199,0.14081 0.48381,0.14081c1.07147,0 0.30665,-2.87311 0.23573,-3.31556c-0.06701,-0.41673 0.2799,-0.83854 0.65583,-0.83854c0.14417,0 0.29273,0.062 0.42346,0.21008c0.9179,1.03793 1.93237,2.07757 3.13792,2.78484c0.22517,0.13237 0.47819,0.19163 0.72455,0.19163c0.8441,0 1.62064,-0.6978 1.02009,-1.5799c-0.47318,-0.69602 -0.92736,-1.2893 -1.6251,-1.76694c-0.5631,-0.38608 -0.23573,-1.14417 0.319,-1.14417c0.09664,0 0.2,0.02291 0.30672,0.0749c0.85919,0.41619 2.07421,0.96701 3.19265,0.96701c0.49383,0 0.96982,-0.10782 1.3871,-0.38265c1.26028,-0.83018 1.23628,-2.01954 -0.18045,-2.81837c-1.62064,-0.91454 -3.36083,-1.686 -5.10993,-2.34574M331.69404,215.35313l1.19499,0.44966c1.98429,0.74863 3.78202,1.57428 5.34176,2.45418c1.64074,0.9251 1.92393,2.16248 1.94629,2.81776c0.03855,1.09437 -0.56927,2.13683 -1.6681,2.86028c-0.66426,0.43745 -1.44019,0.65864 -2.30829,0.65864c-0.14863,0 -0.29554,-0.00672 -0.443,-0.01845c0.22119,0.66591 0.17483,1.36872 -0.14918,1.98209c-0.47764,0.90219 -1.50665,1.48546 -2.62119,1.48546c-0.55754,0 -1.10055,-0.14582 -1.57201,-0.42181c-0.48992,-0.2871 -0.94746,-0.61619 -1.37537,-0.9681c-0.04691,0.59218 -0.21173,1.12956 -0.56763,1.5692c-0.40665,0.50055 -1.01221,0.78827 -1.66248,0.78827c-0.4011,0 -0.8179,-0.10782 -1.23854,-0.3201c-1.56138,-0.78717 -2.80383,-2.18765 -3.6943,-4.16302l-0.7,-1.55301l1.56474,-0.67435c0.32346,-0.13909 0.61619,-0.27428 0.89382,-0.41111c2.39492,-1.19218 4.51666,-3.04355 6.30657,-5.50321l0.75192,-1.03237z" fill="#000000"/><path d="M298.32566,229.01812c-0.35418,-0.00055 -0.67654,-0.15027 -0.90782,-0.42119c-0.49835,-0.58546 -0.44746,-1.67091 -0.31673,-2.47928c0.03464,-0.21735 0.07929,-0.42963 0.12956,-0.63745c-1.0681,1.04691 -2.2692,2.00946 -3.73566,2.54073c-0.34972,0.12737 -0.65356,0.18882 -0.92791,0.18882c-0.53402,0 -0.97373,-0.24636 -1.20665,-0.67592c-0.66646,-1.23018 0.82901,-3.58765 0.8441,-3.6111c0.16255,-0.24808 0.33354,-0.48271 0.51282,-0.70391c-0.8692,0.33018 -1.99156,0.67709 -2.83902,0.67709c-0.63347,0 -1.11111,-0.18663 -1.42119,-0.55418c-0.19719,-0.23409 -0.40837,-0.64746 -0.29774,-1.28937c0.18601,-1.07874 1.25137,-1.94519 2.32674,-2.74012l0.18326,-0.1358c0.97147,-0.73011 2.02565,-1.3262 3.04512,-1.90329c0.39835,-0.2251 0.79719,-0.45137 1.19046,-0.68436l0.65926,-0.39101l0.44801,0.62174c1.6502,2.28991 3.77194,4.15356 6.30712,5.53901l0.61564,0.33683l-0.22291,0.66481c-0.59945,1.78655 -1.381,3.1882 -2.45864,4.41103c-0.76083,0.862 -1.35528,1.24691 -1.92784,1.24691z" fill="#f7941e"/><path d="M295.33239,217.31005c-1.39712,0.82846 -2.86248,1.56193 -4.15911,2.53676c-0.6251,0.47044 -2.02839,1.42791 -2.18765,2.3491c-0.11056,0.64081 0.28827,0.86317 0.89328,0.86317c1.31563,0 3.60493,-1.05199 3.73957,-1.13354c0.08717,-0.05363 0.17709,-0.07709 0.26481,-0.07709c0.45192,0 0.83909,0.62009 0.41728,0.96145c-0.5441,0.44074 -1.01001,0.98429 -1.39376,1.57146c-0.16927,0.25974 -1.67263,2.99101 -0.33971,2.99101c0.16653,0 0.37764,-0.04246 0.64191,-0.13855c1.63065,-0.59053 2.95466,-1.82235 4.1312,-3.06193c0.11283,-0.119 0.24856,-0.16989 0.38265,-0.16989c0.34355,0 0.67428,0.3358 0.57208,0.72517c-0.13189,0.50274 -0.28546,1.00946 -0.36708,1.52455c-0.04856,0.29938 -0.27483,1.92839 0.39719,1.92839c0.26763,0 0.67826,-0.25864 1.29945,-0.9631c1.07647,-1.22064 1.77983,-2.5932 2.29266,-4.12276c-2.5742,-1.40727 -4.83229,-3.35246 -6.58476,-5.78421M295.79612,215.08605l0.89719,1.24245c1.57592,2.1871 3.60493,3.96858 6.02886,5.29429l1.23127,0.67256l-0.44636,1.33072c-0.62736,1.8703 -1.48546,3.40658 -2.62448,4.69821c-0.66763,0.75638 -1.49327,1.53011 -2.55637,1.53011c-0.59499,0 -1.15864,-0.26145 -1.54581,-0.71564c-0.34575,-0.40665 -0.5441,-0.96083 -0.59328,-1.65466c-0.7251,0.53683 -1.52284,1.00329 -2.40548,1.32338c-0.44355,0.1609 -0.84081,0.23909 -1.21399,0.23909c-0.83848,0 -1.56529,-0.41673 -1.94348,-1.11502c-0.54808,-1.01118 -0.16646,-2.3491 0.25528,-3.30164c-0.34801,0.06481 -0.6871,0.10336 -1,0.10336c-1.11056,0 -1.73456,-0.46365 -2.06193,-0.85247c-0.25528,-0.30281 -0.65699,-0.96145 -0.48265,-1.97146c0.25864,-1.49938 1.75802,-2.60829 2.65356,-3.27084l0.17819,-0.13244c1.01447,-0.76255 2.09266,-1.37201 3.13566,-1.96248c0.39328,-0.22236 0.78717,-0.44527 1.17537,-0.67544l1.31845,-0.7821z" fill="#000000"/><g><path d="M315.1414,224.91093c-0.41673,0 -0.83518,-0.01111 -1.25356,-0.03347l-0.22908,-0.01228c-3.41666,-0.18272 -6.6434,-0.3559 -10.0176,-1.86364c-0.32737,-0.14636 -0.64136,-0.31228 -0.95473,-0.47764c-3.10383,-1.64355 -5.76185,-4.26137 -7.73503,-7.59367c-4.6825,-7.91095 -3.48086,-17.38281 3.29601,-25.98759l0.10117,-0.12798l0.19273,-0.10946c0.03738,-0.03299 0.02119,-0.09664 -0.02908,-0.15309c-0.03182,-0.03628 -0.07037,-0.06091 -0.09554,-0.06091c-0.01728,0 -0.04465,0.00898 -0.07373,0.02462c-3.42894,1.81611 -6.24676,4.45294 -8.86678,8.29813l-0.08326,0.12229c-1.2251,1.79718 -2.49266,3.65582 -4.03847,5.3122c-1.09883,1.17757 -3.15966,2.4301 -4.81439,2.4301c-0.71783,0 -1.33292,-0.23745 -1.77873,-0.68662c-0.54074,-0.5452 -0.81056,-1.37092 -0.80219,-2.45466c0.03354,-4.02674 3.09492,-8.23832 6.08531,-11.82761c2.41001,-2.89156 5.28421,-5.26247 8.06349,-7.55513c1.39273,-1.14911 2.83175,-2.33628 4.19039,-3.57201l-0.00281,-0.03402c-0.53121,-0.6989 -1.08765,-1.39437 -1.62729,-2.06872c-1.91172,-2.38984 -3.88819,-4.8613 -5.08812,-7.85005c-1.64801,-4.10438 -1.02064,-8.87913 1.76755,-13.44434c3.76467,-6.16411 11.69462,-9.84332 21.21449,-9.84332c0.19335,0 0.38608,0.00165 0.57881,0.00446c7.48976,0.12236 15.95655,1.181 21.96421,8.10876c3.3133,3.82057 4.65911,8.87961 3.60047,13.53371c-1.00782,4.43003 -4.29485,8.07742 -7.69648,11.35896c-0.06084,0.05919 -0.05809,0.08601 -0.05748,0.09993l0.01283,0.12353l-0.01454,0.07874c1.17874,0.83909 2.5061,1.70445 3.90994,2.61947c6.6624,4.34292 14.95326,9.7484 15.64098,17.94817c0.09047,1.07702 -0.14808,1.93175 -0.70837,2.54128c-0.54801,0.59602 -1.38491,0.91166 -2.41892,0.91166c0,0 0,0 -0.00055,0c-1.42009,0 -2.94691,-0.57702 -3.82393,-1.07147c-2.07427,-1.16982 -3.7301,-2.92283 -5.33174,-4.61885l-0.05919,-0.06255c-0.5011,-0.53073 -0.99828,-1.07544 -1.49828,-1.62236c-2.167,-2.37311 -4.40493,-4.82441 -7.2054,-6.29868c6.7065,8.52097 8.04168,16.99619 3.97811,25.21215c-1.76982,3.57928 -4.62338,6.4602 -8.25341,8.33222c-3.00665,1.55027 -6.47749,2.36975 -10.03777,2.36975z" fill="#898dc5"/><path d="M312.56211,146.18005c-7.64395,0 -16.29228,2.55356 -20.4983,9.44106c-2.33964,3.83175 -3.43737,8.38249 -1.705,12.69579c1.51948,3.78538 4.3384,6.71212 6.75622,9.92432c0.10055,0.13237 0.09328,0.28546 0.03128,0.41783c0.01289,0.1559 -0.03347,0.31509 -0.17874,0.44808c-4.0993,3.74684 -8.68914,6.83222 -12.27843,11.13824c-2.37709,2.85356 -5.85739,7.28476 -5.89093,11.29805c-0.01399,1.69602 0.7419,2.29602 1.74238,2.29602c1.39945,0 3.27818,-1.17373 4.20157,-2.16364c1.53573,-1.64519 2.77873,-3.48257 4.04183,-5.33449c2.45246,-3.59883 5.28421,-6.50993 9.16733,-8.56685c0.15981,-0.08491 0.3168,-0.12174 0.46536,-0.12174c0.87819,0 1.45809,1.29938 0.51228,1.79547c-0.00782,0.00281 -0.01564,0.00837 -0.02346,0.01283c-5.7183,7.26013 -8.25567,16.55716 -3.23339,25.04185c1.7871,3.01837 4.25122,5.60877 7.35842,7.25458c0.31289,0.16529 0.62572,0.33237 0.95199,0.47874c3.30376,1.47592 6.41713,1.61392 9.94943,1.80384c0.40391,0.02181 0.80672,0.03244 1.20891,0.03244c3.39992,0 6.73057,-0.76927 9.65395,-2.27647c3.32002,-1.71172 6.11549,-4.37701 7.8864,-7.95903c4.36858,-8.83386 1.77201,-17.26045 -4.09265,-24.58094c-0.44081,-0.54972 -0.06646,-1.27092 0.52956,-1.27146c0.119,0 0.24753,0.02901 0.37935,0.09383c3.76021,1.84746 6.44511,5.2742 9.27014,8.26404c1.55363,1.64519 3.20438,3.40548 5.19375,4.52729c0.8692,0.49047 2.23401,0.96365 3.4122,0.96365c1.34911,0 2.45411,-0.62064 2.29211,-2.54519c-0.79383,-9.47069 -12.4617,-15.1488 -19.24028,-19.98328c-0.28045,-0.19945 -0.35809,-0.49945 -0.30672,-0.76872c-0.02846,-0.26756 0.05645,-0.54691 0.30892,-0.79156c3.11392,-3.00383 6.46912,-6.5803 7.46075,-10.94161c1.02956,-4.52619 -0.38155,-9.29922 -3.41611,-12.7986c-5.57866,-6.43277 -13.2796,-7.68805 -21.34528,-7.81987c-0.18772,-0.00281 -0.37599,-0.00446 -0.56481,-0.00446M312.56211,144.50406v0c0.19835,0 0.39554,0.00171 0.59218,0.00508c7.67522,0.1251 16.3599,1.22064 22.58492,8.39751c3.48703,4.02111 4.9015,9.35567 3.78422,14.26835c-1.00384,4.4122 -4.10548,8.02721 -7.40869,11.26732c0.98875,0.6821 2.07085,1.38765 3.20322,2.12565c6.81494,4.44292 15.29626,9.97233 16.01807,18.57938c0.13855,1.64471 -0.42682,2.63628 -0.92572,3.17873c-0.49602,0.53964 -1.42565,1.18264 -3.03621,1.18264c-1.581,0 -3.22448,-0.60891 -4.23565,-1.17928c-2.18484,-1.23182 -3.96138,-3.11337 -5.52948,-4.77365l-0.05864,-0.062c-0.50782,-0.538 -1.01618,-1.09437 -1.50782,-1.63292c-0.99773,-1.09218 -2.00939,-2.20102 -3.08093,-3.21556c4.28319,7.36013 4.72111,14.86107 1.22291,21.93465c-1.84965,3.74121 -4.83113,6.75177 -8.62104,8.70588c-3.12503,1.61172 -6.72941,2.46309 -10.42206,2.46309c-0.43073,0 -0.86756,-0.01173 -1.29883,-0.03464l-0.22846,-0.01228c-3.49601,-0.18717 -6.79875,-0.36427 -10.31596,-1.93573c-0.3609,-0.16145 -0.68772,-0.33464 -1.00391,-0.50219l-0.04746,-0.02517c-3.1921,-1.69101 -5.96411,-4.41604 -8.01603,-7.88187c-4.33504,-7.32385 -3.83957,-15.90908 1.26536,-23.97985c-1.92791,1.53628 -3.66638,3.47084 -5.32722,5.90822l-0.08272,0.12181c-1.243,1.82338 -2.52839,3.70939 -4.11775,5.41158c-1.01118,1.08374 -3.29101,2.69656 -5.42722,2.69656c-0.94636,0 -1.76755,-0.32291 -2.37373,-0.93409c-0.70391,-0.71001 -1.05583,-1.73683 -1.0452,-3.05239c0.03573,-4.28984 3.1943,-8.65396 6.27968,-12.35724c2.45973,-2.9513 5.36466,-5.34793 8.17357,-7.66514c1.19437,-0.98491 2.42283,-1.99828 3.59931,-3.04183c-0.38374,-0.49218 -0.77592,-0.98265 -1.15974,-1.46255c-1.94965,-2.43737 -3.96577,-4.95794 -5.21158,-8.06123c-1.74965,-4.35575 -1.1,-9.39641 1.82956,-14.19352c3.91721,-6.41432 12.11479,-10.24332 21.92903,-10.24332v0z" fill="#000000"/></g><path d="M324.67801,182.66844c0,3.91391 6.8434,11.12768 6.8434,23.60611c0,8.19758 -3.98922,13.11307 -6.72605,15.52143c-3.26975,1.68594 -7.04786,2.44849 -10.86287,2.24458c-3.5323,-0.18937 -6.64559,-0.32737 -9.94943,-1.80384c-0.32627,-0.14582 -0.63854,-0.31283 -0.95199,-0.47874c-2.73566,-2.42174 -6.68359,-7.32776 -6.68359,-15.48288c0,-12.47843 6.8434,-19.6922 6.8434,-23.60605c0,-3.91391 -16.75936,-17.87334 -5.8373,-29.05514c7.33057,-7.5054 16.58062,0.54465 16.58062,0.54465c0,0 9.25059,-8.0495 16.58055,-0.54465c10.92261,11.1818 -5.83675,25.14068 -5.83675,29.05452z" fill="#ffffff"/><g><path d="M313.36321,182.95506c-5.41439,0 -11.44099,-7.20094 -11.44099,-12.0807c0,-4.1111 5.76521,-9.83105 11.44099,-9.83105c5.90438,0 11.46341,5.5384 11.46341,9.83105c0.00055,4.22448 -5.89203,12.0807 -11.46341,12.0807z" fill="#f7941e"/><path d="M313.36321,161.88132c-5.31768,0 -10.60251,5.5015 -10.60306,8.99305c0,4.29821 5.65575,11.2427 10.60306,11.2427c4.94738,0 10.62542,-7.29141 10.62542,-11.2427c0,-3.95129 -5.30767,-8.99305 -10.62542,-8.99305M313.36321,160.20532c5.97865,0 12.30196,5.48366 12.30141,10.66904c0,4.63058 -6.2004,12.91862 -12.30141,12.91862c-5.81103,0 -12.27898,-7.70032 -12.27898,-12.91862c0,-4.46192 6.18757,-10.66904 12.27898,-10.66904z" fill="#000000"/></g><path d="M307.19636,176.63958c-0.71173,-0.59218 0.324,-1.68209 0.98491,-1.2871c1.87421,1.12064 3.98031,3.53957 6.39813,2.7133c1.50336,-0.51337 2.63847,-1.73847 3.95692,-2.66639c0.74184,-0.52236 1.73292,0.66365 0.99938,1.29437c-1.53347,1.31893 -3.78758,2.98874 -5.93394,2.8491c-2.4502,-0.15926 -4.54402,-1.35528 -6.4054,-2.90329z" fill="#231f20"/><path d="M301.82942,158.28194c0.58436,0 1.11344,0.30281 1.49664,0.79101c0.38326,0.48882 0.62064,1.16426 0.62064,1.90891c0,0.74465 -0.23738,1.42009 -0.62064,1.90891c-0.3832,0.48827 -0.91227,0.79101 -1.49664,0.79101c-0.58429,0 -1.11337,-0.30274 -1.49657,-0.79101c-0.38326,-0.48882 -0.62064,-1.16426 -0.62064,-1.90891c0,-0.74465 0.23738,-1.42009 0.62064,-1.90891c0.3832,-0.4882 0.91227,-0.79101 1.49657,-0.79101z" fill="#231f20"/><path d="M324.48919,158.28194c0.58436,0 1.11399,0.30281 1.49773,0.79101c0.38326,0.48882 0.62071,1.16426 0.62071,1.90891c0,0.74465 -0.23745,1.42009 -0.62071,1.90891c-0.38374,0.48827 -0.91337,0.79101 -1.49773,0.79101c-0.58429,0 -1.11392,-0.30274 -1.49766,-0.79101c-0.38326,-0.48882 -0.62071,-1.16426 -0.62071,-1.90891c0,-0.74465 0.23745,-1.42009 0.62071,-1.90891c0.38374,-0.4882 0.91337,-0.79101 1.49766,-0.79101z" fill="#231f20"/></g></g></g></svg>