<svg version="1.1" xmlns="http://www.w3.org/2000/svg" xmlns:xlink="http://www.w3.org/1999/xlink" width="312.4085" height="461.82594" viewBox="0,0,312.4085,461.82594"><g transform="translate(-12.33875,-59.84231)"><g data-paper-data="{&quot;isPaintingLayer&quot;:true}" stroke-miterlimit="10" stroke-dasharray="" stroke-dashoffset="0" style="mix-blend-mode: normal"><g data-paper-data="{&quot;index&quot;:null}" fill-rule="nonzero" stroke="#000000" stroke-width="2" stroke-linecap="butt" stroke-linejoin="miter"><path d="M180.00006,409.48729c77.5818,0 140.47426,14.90342 140.47426,33.28773c0,18.38429 -62.89247,33.28773 -140.47426,33.28773c-77.5818,0 -140.47426,-14.90342 -140.47426,-33.28773c0,-18.38429 62.89247,-33.28773 140.47426,-33.28773z" fill="#ff0099"/><path d="M251.23582,520.66824c-13.97207,0 -25.29868,-11.32661 -25.29868,-25.29868c0,-13.97207 11.32661,-25.29868 25.29868,-25.29868c13.97207,0 25.29868,11.32661 25.29868,25.29868c0,13.97207 -11.32661,25.29868 -25.29868,25.29868z" fill="#000000"/><path d="M108.76429,520.66824c-13.97207,0 -25.29868,-11.32661 -25.29868,-25.29868c0,-13.97207 11.32661,-25.29868 25.29868,-25.29868c13.97207,0 25.29868,11.32661 25.29868,25.29868c0,13.97207 -11.32661,25.29868 -25.29868,25.29868z" fill="#000000"/></g><g fill="#ffc266" fill-rule="nonzero" stroke="none" stroke-linecap="butt" stroke-linejoin="miter"><path d="M200.50002,413.75006v-54h13v54z" stroke-width="NaN"/><path d="M230.50002,427.75006c0,4.40937 -12.49451,-7.61129 -16.49874,-4.78885c-3.76963,2.65708 -0.87727,14.28885 -6.50126,14.28885c-5.12943,0 -4.82932,-10.3574 -8.47629,-12.61207c-4.59908,-2.8433 -15.52371,6.88648 -15.52371,2.11207c0,-8.56041 12.40202,-20.5 24,-20.5c11.59798,0 23,12.93959 23,21.5z" stroke-width="0"/></g><g fill="#ffc266" fill-rule="nonzero" stroke="none" stroke-linecap="butt" stroke-linejoin="miter"><path d="M173.50002,432.75006v-54h13v54z" stroke-width="NaN"/><path d="M203.50002,446.75006c0,4.40937 -12.49451,-7.61129 -16.49874,-4.78885c-3.76963,2.65708 -0.87727,14.28885 -6.50126,14.28885c-5.12942,0 -4.82932,-10.35739 -8.47629,-12.61207c-4.59908,-2.8433 -15.52371,6.88648 -15.52371,2.11207c0,-8.56041 12.40202,-20.5 24,-20.5c11.59798,0 23,12.93959 23,21.5z" stroke-width="0"/></g><path d="M282.85294,222.64045c17.79814,0 41.89431,0 41.89431,0c0,0 -24.09617,64.45278 -41.89431,64.45278c-17.79814,0 -32.22639,-14.42825 -32.22639,-32.22639c0,-17.79814 14.42825,-32.22639 32.22639,-32.22639z" fill="#e5e5e5" fill-rule="nonzero" stroke="none" stroke-width="NaN" stroke-linecap="butt" stroke-linejoin="miter"/><path d="M138.09273,302.90486c15.92438,-5.61046 73.80344,-52.84435 111.68638,-50.60764c42.94975,2.53587 65.33373,56.10359 65.33373,77.21215c0,18.25871 -24.16199,56.47541 -68.09069,69.27342c-51.65044,15.04762 -126.03802,2.60414 -153.00728,-6.07003c-13.14216,-4.22693 -43.42474,-21.98488 -58.70654,-52.99257c-7.73537,-15.69552 -4.94078,-32.67443 -8.40911,-48.70215c-5.33617,-24.65933 -14.56047,-45.69997 -14.56047,-45.69997c0,0 84.40814,72.15369 125.75398,57.58679z" fill="#f8f8f8" fill-rule="nonzero" stroke="none" stroke-width="0" stroke-linecap="butt" stroke-linejoin="miter"/><path d="M244.71616,172.50139c0,0 12.92491,16.58399 19.47396,46.41855c6.99378,31.86055 36.36101,69.8733 36.36101,69.8733h-100.50672c0,0 12.44401,-49.15651 11.21855,-71.28603c-1.1592,-20.93295 -18.38357,-58.10103 -18.38357,-58.10103z" fill="#ffffff" fill-rule="nonzero" stroke="none" stroke-width="0" stroke-linecap="round" stroke-linejoin="miter"/><path d="M229.15641,98.33183c24.73565,0 44.78783,17.21653 44.78783,38.45419c0,21.23766 -20.0522,38.45419 -44.78783,38.45419c-24.73565,0 -44.78783,-17.21653 -44.78783,-38.45419c0,-21.23766 20.0522,-38.45419 44.78783,-38.45419z" fill="#f2f2f2" fill-rule="nonzero" stroke="none" stroke-width="0" stroke-linecap="butt" stroke-linejoin="miter"/><path d="M249.32856,171.10446l22.07824,-20.76789l10.19215,32.02629z" fill="#ff9e00" fill-rule="nonzero" stroke="none" stroke-width="0" stroke-linecap="round" stroke-linejoin="miter"/><path d="M115.76451,337.38469c-34.58949,-16.63474 -80.51173,-107.74068 -80.51173,-107.74068c0,0 33.534,8.1318 63.6645,0.90973c12.55998,-3.01055 61.82902,-23.4036 84.00653,-12.75079c30.82918,14.80856 58.47286,77.62004 49.31505,98.22419c-15.74564,35.42612 -81.88485,37.99229 -116.47434,21.35755z" fill="#ffffff" fill-rule="nonzero" stroke="none" stroke-width="0" stroke-linecap="butt" stroke-linejoin="miter"/><path d="M105.99256,345.07752c-28.67277,-13.78928 -85.73978,-113.31108 -85.73978,-113.31108c0,0 46.79783,30.74081 71.77436,24.75412c10.41153,-2.49558 51.25284,-19.40029 69.63677,-10.5697c25.55569,12.27548 48.47077,64.34273 40.87945,81.42243c-13.05227,29.36629 -67.87802,31.49351 -96.55079,17.70423z" fill="#e5e5e5" fill-rule="nonzero" stroke="none" stroke-width="0" stroke-linecap="butt" stroke-linejoin="miter"/><g fill-rule="nonzero" stroke-linecap="butt" stroke-linejoin="miter"><path d="M241.00003,125.68999c5.24695,0 9.50045,5.06368 9.50045,11.31006c0,6.24637 -4.2535,11.31006 -9.50045,11.31006c-5.24695,0 -9.50045,-5.06368 -9.50045,-11.31006c0,-6.24637 4.2535,-11.31006 9.50045,-11.31006z" fill="#00c0c0" stroke="none" stroke-width="0"/><path d="M240.65619,131.1188c2.93829,0 5.32025,2.83567 5.32025,6.33364c0,3.49798 -2.38197,6.33364 -5.32025,6.33364c-2.93829,0 -5.32025,-2.83567 -5.32025,-6.33364c0,-3.49798 2.38197,-6.33364 5.32025,-6.33364z" fill="#000000" stroke="#000000" stroke-width="2.5"/></g><g><path d="M229.43626,112.40209c-1.29716,0.24571 -2.61712,0.39701 -3.96092,0.55103c-21.40535,2.45348 -39.79666,-4.01046 -40.99001,-14.4218c-1.19336,-10.41143 15.25978,-20.85697 36.66513,-23.31045c11.08323,-1.27036 21.28672,-0.12422 28.83331,2.64815c4.98485,3.75699 7.58705,9.3269 5.09598,15.86862c-3.6342,9.49762 -16.19444,15.43544 -25.6435,18.66445z" fill="#fff2bb" fill-rule="nonzero" stroke="none" stroke-width="1" stroke-linecap="butt" stroke-linejoin="miter"/><g><path d="M262.1391,89.63065c1.12065,9.77709 -13.24001,19.55853 -32.70284,22.77144c-1.29716,0.24571 -2.61712,0.39701 -3.96092,0.55103c-21.40535,2.45348 -39.79666,-4.01046 -40.99001,-14.4218c-1.19336,-10.41143 15.25978,-20.85697 36.66513,-23.31045c11.08323,-1.27036 21.28672,-0.12422 28.83331,2.64815c7.00008,2.62877 11.57922,6.73544 12.15532,11.76163z" fill="none" fill-rule="evenodd" stroke="#5e154d" stroke-width="0.96" stroke-linecap="round" stroke-linejoin="round"/><path d="M228.41576,112.5554c9.71967,-3.29636 22.65032,-9.27664 26.41666,-18.78941c2.58174,-6.55211 -0.07266,-12.09178 -5.18766,-15.85811c7.22691,2.62703 11.91824,6.69658 12.49434,11.72276c1.11791,9.75314 -13.67313,19.60817 -33.72334,22.92475z" fill="#ffffff" fill-rule="nonzero" stroke="none" stroke-width="1" stroke-linecap="butt" stroke-linejoin="miter"/><path d="M210.96447,110.1182c-1.05737,-0.03643 -2.07118,-0.12636 -3.06194,-0.23102" fill="none" fill-rule="evenodd" stroke="#efdc8f" stroke-width="1.92" stroke-linecap="round" stroke-linejoin="round"/><path d="M203.73943,109.23681c-4.57663,-0.83024 -8.95984,-2.4591 -12.9408,-4.80926" fill="none" fill-rule="evenodd" stroke="#efdc8f" stroke-width="1.92" stroke-linecap="round" stroke-linejoin="round"/><path d="M245.39243,85.34247c1.11141,3.64334 1.78683,6.18476 1.78683,6.18476c-2.14147,2.53032 -4.83513,4.55885 -7.88098,5.93485c-5.11114,2.31962 -9.06465,3.28198 -16.24301,4.10476c-7.17835,0.82278 -11.24982,0.75599 -16.75327,-0.34698c-3.27514,-0.64433 -6.35676,-2.00245 -9.0167,-3.97378c0,0 0.08286,-2.62833 0.36549,-6.43146c3.92534,1.92644 12.18529,4.811 24.5609,3.39251c12.39875,-1.43333 19.79317,-6.10002 23.18072,-8.86466z" fill="#5e154d" fill-rule="nonzero" stroke="#5e154d" stroke-width="0.96" stroke-linecap="round" stroke-linejoin="round"/><path d="M208.74274,62.51817c1.72633,0.19408 3.35081,0.92304 4.64878,2.08599c1.91308,1.66005 4.20867,1.82128 6.71785,1.53368c2.50917,-0.2876 4.70875,-0.96408 6.1966,-3.01394c2.11,-2.82435 5.60675,-4.69218 8.64815,-1.91264c0,0 -4.4768,24.95572 -18.31926,23.59618c-9.67527,-0.95223 -9.02579,-14.2058 -7.89212,-22.28928z" fill="#ffffff" fill-rule="nonzero" stroke="none" stroke-width="1" stroke-linecap="butt" stroke-linejoin="miter"/><path d="M245.24154,83.48054c0.19024,0.60859 0.3672,1.20674 0.54141,1.78083c-3.28677,2.75309 -10.46409,7.40707 -22.49859,8.78647c-12.03598,1.36739 -20.06141,-1.48337 -23.90329,-3.46789c0.03567,-0.63459 0.07821,-1.20927 0.13635,-1.85851c0.58665,-8.02078 1.91208,-19.58172 5.01335,-24.0595c0.89487,-1.45205 2.51199,-2.28974 4.20786,-2.17964c-0.70654,9.39245 -1.82703,20.32365 7.81805,21.64301c11.4042,1.52991 15.25868,-15.0857 16.09742,-24.16598c5.47155,0.64593 12.15524,21.95816 12.58745,23.52121z" fill="#fff2bb" fill-rule="nonzero" stroke="none" stroke-width="1" stroke-linecap="butt" stroke-linejoin="miter"/></g></g></g></g></svg>