<svg version="1.1" xmlns="http://www.w3.org/2000/svg" xmlns:xlink="http://www.w3.org/1999/xlink" width="310" height="439.04324" viewBox="0,0,310,439.04324"><g transform="translate(-25,-82.625)"><g data-paper-data="{&quot;isPaintingLayer&quot;:true}" fill-rule="nonzero" stroke-linejoin="miter" stroke-miterlimit="10" stroke-dasharray="" stroke-dashoffset="0" style="mix-blend-mode: normal"><g data-paper-data="{&quot;index&quot;:null}" stroke="#000000" stroke-width="2" stroke-linecap="butt"><path d="M180.00006,409.48728c77.5818,0 140.47426,14.90342 140.47426,33.28773c0,18.38429 -62.89247,33.28773 -140.47426,33.28773c-77.5818,0 -140.47426,-14.90342 -140.47426,-33.28773c0,-18.38429 62.89247,-33.28773 140.47426,-33.28773z" fill="#3300ff"/><path d="M251.23582,520.66824c-13.97207,0 -25.29868,-11.32661 -25.29868,-25.29868c0,-13.97207 11.32661,-25.29868 25.29868,-25.29868c13.97207,0 25.29868,11.32661 25.29868,25.29868c0,13.97207 -11.32661,25.29868 -25.29868,25.29868z" fill="#000000"/><path d="M108.76429,520.66824c-13.97207,0 -25.29868,-11.32661 -25.29868,-25.29868c0,-13.97207 11.32661,-25.29868 25.29868,-25.29868c13.97207,0 25.29868,11.32661 25.29868,25.29868c0,13.97207 -11.32661,25.29868 -25.29868,25.29868z" fill="#000000"/></g><g><g fill="#ffc266" stroke="none" stroke-linecap="butt"><g><path d="M150.99998,435.875v-54h13v54z" stroke-width="NaN"/><path d="M180.99998,449.875c0,4.40937 -12.49451,-7.61129 -16.49874,-4.78885c-3.76963,2.65708 -0.87727,14.28885 -6.50126,14.28885c-5.12943,0 -4.82932,-10.3574 -8.47629,-12.61207c-4.59908,-2.8433 -15.52371,6.88648 -15.52371,2.11207c0,-8.56041 12.40202,-20.5 24,-20.5c11.59798,0 23,12.93959 23,21.5z" stroke-width="0"/></g><g><path d="M195.99998,435.875v-54h13v54z" stroke-width="NaN"/><path d="M225.99998,449.875c0,4.40937 -12.49451,-7.61129 -16.49874,-4.78885c-3.76963,2.65708 -0.87727,14.28885 -6.50126,14.28885c-5.12942,0 -4.82932,-10.35739 -8.47629,-12.61207c-4.59908,-2.8433 -15.52371,6.88648 -15.52371,2.11207c0,-8.56041 12.40202,-20.5 24,-20.5c11.59798,0 23,12.93959 23,21.5z" stroke-width="0"/></g></g><g><path d="M85.33333,319.125l-60.33333,-136c0,0 46.46761,25.72992 65.82147,28.47029c18.24766,2.58374 48.51186,-12.47029 48.51186,-12.47029c0,0 1.09787,35.15291 -6.79841,52.70019c-9.72145,21.60322 -47.20159,67.29981 -47.20159,67.29981z" fill="#e5e5e5" stroke="none" stroke-width="0" stroke-linecap="round"/><path d="M210,198.125c0,0 28.13112,14.85404 46.55068,12.47733c22.2029,-2.86489 78.44932,-28.47733 78.44932,-28.47733c0,0 -32.72196,68.7358 -44.6734,93.84101c-8.01067,16.82723 -20.06996,42.15899 -20.06996,42.15899c0,0 -38.31306,-53.18594 -48.63845,-74.09579c-9.32461,-18.88318 -11.61819,-45.90421 -11.61819,-45.90421z" fill="#e5e5e5" stroke="none" stroke-width="0" stroke-linecap="round"/><path d="M272.90624,337.125c0,43.90664 -42.53295,79.5 -95,79.5c-52.46705,0 -95,-35.59336 -95,-79.5c0,-43.90664 42.53295,-79.5 95,-79.5c52.46705,0 95,35.59336 95,79.5z" fill="#f8f8f8" stroke="none" stroke-width="0" stroke-linecap="butt"/><path d="M218,150.125c0,0 -12.9603,29.58263 -5.66426,63.14441c7.68387,35.34579 44.16426,79.85559 44.16426,79.85559h-157.5c0,0 30.24656,-42.01211 37.97617,-77.22475c7.23808,-32.97348 0.52383,-66.77525 0.52383,-66.77525z" fill="#ffffff" stroke="none" stroke-width="0" stroke-linecap="round"/><path d="M227.40625,125.125c0,23.4721 -22.1619,42.5 -49.5,42.5c-27.3381,0 -49.5,-19.0279 -49.5,-42.5c0,-23.4721 22.1619,-42.5 49.5,-42.5c27.3381,0 49.5,19.0279 49.5,42.5z" fill="#f2f2f2" stroke="none" stroke-width="0" stroke-linecap="butt"/><path d="M166.99998,121.625c0,6.90356 -4.70101,12.5 -10.5,12.5c-5.79899,0 -10.5,-5.59644 -10.5,-12.5c0,-6.90356 4.70101,-12.5 10.5,-12.5c5.79899,0 10.5,5.59644 10.5,12.5z" fill="#00c0c0" stroke="none" stroke-width="0" stroke-linecap="butt"/><path d="M211,122.625c0,6.90356 -4.70101,12.5 -10.5,12.5c-5.79899,0 -10.5,-5.59644 -10.5,-12.5c0,-6.90356 4.70101,-12.5 10.5,-12.5c5.79899,0 10.5,5.59644 10.5,12.5z" fill="#00c0c0" stroke="none" stroke-width="0" stroke-linecap="butt"/><path d="M162.75999,122.125c0,3.86599 -2.63257,7 -5.88,7c-3.24743,0 -5.88,-3.13401 -5.88,-7c0,-3.86599 2.63257,-7 5.88,-7c3.24743,0 5.88,3.13401 5.88,7z" fill="#000000" stroke="#000000" stroke-width="2.5" stroke-linecap="butt"/><path d="M206.75998,123.125c0,3.86599 -2.63256,7 -5.88,7c-3.24743,0 -5.88,-3.13401 -5.88,-7c0,-3.86599 2.63256,-7 5.88,-7c3.24743,0 5.88,3.13401 5.88,7z" fill="#000000" stroke="#000000" stroke-width="2.5" stroke-linecap="butt"/><path d="M177.00001,179.125l-16.04688,-33.5h33.5z" fill="#ff9e00" stroke="none" stroke-width="0" stroke-linecap="round"/></g></g><g stroke="none" stroke-width="1.88565" stroke-linecap="butt"><g><g><path d="M107.28051,258.4895c-0.32103,-0.0509 -1.37037,-0.2621 -1.48911,-0.8391c-0.11602,-0.5752 0.75807,-0.9127 1.04405,-1.024c0.27782,-0.0584 4.87719,-0.5091 9.53593,-2.7247c-0.44778,-0.2621 -0.87123,-0.5186 -1.27595,-0.7731c-1.94761,1.2822 -7.26199,2.6267 -11.41087,2.8869c-0.56108,-0.0773 -1.59154,-0.3281 -1.66707,-0.9051c-0.0701,-0.5789 0.83089,-0.8863 1.1276,-0.9881c0.28054,-0.0471 4.99321,-0.3243 9.86511,-2.4155c-0.48011,-0.3564 -0.92531,-0.7109 -1.32988,-1.0541c-1.76693,1.1484 -7.43195,2.3684 -11.75078,2.4721c-0.55307,-0.0999 -1.56464,-0.3866 -1.59154,-0.9692c-0.02704,-0.5827 0.89827,-0.8505 1.20041,-0.9391c0.29127,-0.0377 5.26574,-0.1282 10.44235,-2.1836c-0.29942,-0.3243 -0.57725,-0.6524 -0.83347,-0.9805c-1.88023,0.9391 -6.9248,1.7819 -11.04678,1.7819c-0.26709,0 -0.53147,-0.0037 -0.78769,-0.0113c-0.53948,-0.1282 -1.516,-0.4714 -1.48095,-1.0541c0.03505,-0.5788 0.98468,-0.7995 1.29483,-0.873l0.69599,-0.0189c1.2409,0 5.56516,-0.1206 10.15924,-1.6763c-0.19971,-0.4092 -0.34263,-0.7769 -0.44248,-1.0937c-2.19582,0.8957 -6.80606,1.6198 -10.62318,1.6198c-0.26709,0 -0.52875,-0.0038 -0.78769,-0.0113c-0.53948,-0.1282 -1.51872,-0.4714 -1.48367,-1.0541c0.03505,-0.5789 0.98468,-0.7995 1.29755,-0.8731l0.68783,-0.015c1.27337,0 5.79177,-0.132 10.51803,-1.8008l0.12403,-0.0434c0.28054,-0.5148 1.31372,-0.8881 1.76693,-1.0315l0.85249,-0.2658l0.09442,0.6486c0.91987,6.3056 11.13834,11.5534 11.24091,11.6081l0.92259,0.4676l-3.18322,1.0503l-0.30486,-0.181c-1.83703,1.3143 -7.02452,2.8511 -11.13562,3.2622l-0.12418,0.0151z" fill="#871212"/><path d="M109.31453,242.3332c0,0 -1.918,0.6034 -1.33003,1.0711c0,0 -0.00258,0.0207 -0.00529,0.0584c-0.23476,-0.0547 -0.4937,-0.0584 -0.52331,-0.0584c-0.00272,0 -0.00272,0 -0.00272,0c-4.81525,1.7008 -9.37155,1.8517 -10.82289,1.8517c-0.30744,0 -0.47467,-0.0076 -0.47467,-0.0076c-1.88295,0.4375 0,1.0051 0,1.0051c0.25078,0.0075 0.50443,0.0113 0.76065,0.0113c4.4699,0 9.9704,-1.0277 11.03863,-1.9328c0.02961,-0.0302 0.03777,-0.0434 0.06481,-0.0698c0.08355,0.5375 0.31015,1.3106 0.84162,2.2572c-0.09442,-0.0076 -0.17267,-0.0113 -0.205,-0.0113c-0.01087,0 -0.01617,0 -0.01617,0c-4.80995,1.697 -9.36082,1.8479 -10.81746,1.8479c-0.31287,0 -0.48283,-0.0076 -0.48283,-0.0076c-1.88295,0.4413 0,1.0089 0,1.0089c0.25078,0.0075 0.50443,0.0113 0.76065,0.0113c4.4699,0 9.9704,-1.0277 11.03863,-1.9328c0.08369,-0.0717 0.12403,-0.1301 0.17797,-0.1886c0.41287,0.6072 0.94691,1.2672 1.64833,1.9705c-0.05665,0.0038 -0.09714,0.0038 -0.09714,0.0038c-5.60021,2.3646 -11.06824,2.4344 -11.06824,2.4344c-1.82902,0.5336 0.10787,1.0013 0.10787,1.0013c4.58592,-0.1113 10.53949,-1.518 11.56194,-2.5381c0.0917,-0.0924 0.14034,-0.166 0.19156,-0.2357c0.66895,0.6128 1.47552,1.252 2.40626,1.912c-5.32783,2.4759 -10.6259,2.7549 -10.6259,2.7549c-1.78581,0.6072 0.18612,1.0013 0.18612,1.0013c4.56704,-0.2866 10.40201,-1.9214 11.34077,-2.9793c0.04049,-0.0453 0.05122,-0.0754 0.08097,-0.115c0.73361,0.4827 1.5429,0.9711 2.44131,1.4727c-5.10394,2.6323 -10.32376,3.1113 -10.32376,3.1113c-1.73732,0.6732 0.26437,0.99 0.26437,0.99c4.53728,-0.4601 10.23735,-2.3137 11.09528,-3.4036c0.02146,-0.0302 0.02418,-0.0434 0.04306,-0.0698l0.50185,0.2979l1.75878,-0.5826c0,0 -10.55566,-5.344 -11.51602,-11.94M110.46631,240.9378l0.18884,1.2955c0.88754,6.0925 10.86595,11.2234 10.96581,11.2743l1.84518,0.9353l-2.06106,0.6807l-1.75878,0.5789l-0.78769,0.2621l-0.15923,-0.0962c-2.29825,1.3483 -7.39404,2.7191 -11.07897,3.0906l-0.24549,0.0264l-0.24277,-0.0396c-0.42632,-0.066 -1.82902,-0.3526 -2.00698,-1.2294c-0.08369,-0.4055 0.08898,-0.9976 1.38653,-1.5029l0.13219,-0.0509c-1.01429,0.1546 -1.99897,0.2659 -2.89724,0.3243l-0.24821,0.0132l-0.24005,-0.0471c-0.42088,-0.0849 -1.79669,-0.4224 -1.90999,-1.303c-0.05122,-0.413 0.16466,-0.9994 1.49998,-1.452l0.2319,-0.0773l0.25364,-0.0169c0.04578,-0.0038 4.15975,-0.249 8.61348,-2.0102c-0.12418,-0.098 -0.24549,-0.1942 -0.36423,-0.2903c-2.43588,1.1936 -7.84196,2.1986 -11.63204,2.291l-0.25093,0.0076l-0.23734,-0.0641c-0.41001,-0.1 -1.75892,-0.4941 -1.7994,-1.3747c-0.01888,-0.4111 0.24549,-0.99 1.61328,-1.3878l0.23734,-0.0698l0.25622,-0.0038c0.04592,0 4.47534,-0.0867 9.25825,-1.8479c-0.0432,-0.0471 -0.08369,-0.0999 -0.12675,-0.1471c-2.45219,0.9466 -7.18374,1.5953 -10.80401,1.5953c-0.2751,0 -0.54763,-0.0038 -0.81458,-0.0113l-0.25093,-0.0076l-0.22932,-0.0697c-0.40185,-0.1207 -1.70484,-0.5808 -1.65091,-1.4652c0.02432,-0.4111 0.35064,-0.9711 1.7562,-1.303l0.24549,-0.0547l0.25622,0.0114c0.01888,0 0.1618,0.0037 0.40729,0.0037c1.15735,0 5.07146,-0.1093 9.33378,-1.4538c-0.01888,-0.0434 -0.03777,-0.0886 -0.05393,-0.1282c-2.57093,0.824 -6.84927,1.3765 -10.18628,1.3765c-0.2751,0 -0.54749,-0.0038 -0.81458,-0.0113l-0.25093,-0.0076l-0.22932,-0.0697c-0.40185,-0.1207 -1.70484,-0.5808 -1.65091,-1.4652c0.02432,-0.4111 0.35078,-0.9711 1.75892,-1.2992l0.24549,-0.0547l0.25622,0.0076c0.01617,0 0.15651,0.0075 0.39928,0.0075c1.22731,0 5.57046,-0.1245 10.13492,-1.7197c0.44234,-0.5563 1.4027,-0.924 2.00155,-1.1125l1.70484,-0.5375zM107.06735,256.0966c0.56652,-0.0641 4.24072,-0.5205 8.18459,-2.2458c-0.0432,-0.0227 -0.08369,-0.0472 -0.12418,-0.0736c-1.71557,0.9278 -4.97161,1.8103 -8.06041,2.3194z" fill="#000000"/></g><path d="M188.10335,213.0302l-9.18,0.9353c-8.42178,0.0415 -24.27837,7.1617 -30.10247,19.8088c-5.8241,12.6508 -29.24468,21.766 -29.24468,21.766c-13.7147,-7.3069 -11.5781,-13.1222 -11.5781,-13.1222c27.53712,-9.8224 22.8163,-18.3851 35.29267,-26.9516c12.47638,-8.5627 28.94254,-7.6991 28.94254,-7.6991z" fill="#ba2915"/><g fill="#871212"><path d="M119.0124,237.8642c-0.44778,4.007 11.5781,12.3341 11.5781,12.3341l-3.10497,1.7706c-12.94575,-4.5237 -12.30113,-12.2794 -12.30113,-12.2794z"/><path d="M128.13832,231.6869c1.63746,6.1283 13.80368,10.8085 13.80368,10.8085l-3.70925,2.7512c-12.47638,-4.9499 -13.26406,-10.9198 -13.26406,-10.9198z"/><path d="M133.37173,225.8753c2.33345,3.9617 15.98863,6.9561 15.98863,6.9561l-1.79926,3.381c-13.04017,-2.1213 -15.91052,-8.1648 -15.91052,-8.1648z"/><path d="M140.50683,217.6086c1.48639,2.1421 15.60023,6.5847 15.60023,6.5847l-2.83787,2.7983c-12.84318,-1.9121 -15.16318,-7.0712 -15.16318,-7.0712z"/><path d="M150.86292,211.4689c0.93876,-0.2263 16.28276,4.9027 16.28276,4.9027l-4.52111,2.7889l-16.26388,-5.5759c0,0 3.56347,-1.8894 4.50223,-2.1157z"/><path d="M160.70657,209.1194l6.36902,-1.3237l13.35576,6.0095l-6.32581,0.6864l-13.39897,-5.3722"/></g><path d="M119.51683,256.1004l-0.35064,-0.1848c-13.90898,-7.4144 -11.91544,-13.3655 -11.82102,-13.6163l0.07554,-0.2056l0.26981,-0.0961c17.58561,-6.2717 21.87211,-12.0248 26.01569,-17.5856c2.26864,-3.0453 4.61296,-6.1962 9.11247,-9.2811c10.6259,-7.2937 24.20827,-7.8594 28.11709,-7.8594c0.86594,0 1.34891,0.0264 1.34891,0.0264l18.11979,5.9756l-11.38397,1.1597c-8.66999,0.0452 -24.03016,7.4784 -29.56027,19.4844c-5.84027,12.681 -28.5919,21.6585 -29.5577,22.0357l-0.38569,0.1471zM108.60767,242.7273c-0.18068,1.0428 -0.36151,6.0775 11.02246,12.2454c3.04016,-1.2445 23.27767,-9.8959 28.5487,-21.3417c5.94012,-12.8979 21.94507,-20.0935 30.73923,-20.1369l6.88689,-0.7052l-13.80354,-4.5784c-0.02432,0.0189 -0.43705,0.0038 -1.06565,0.0019c-3.77935,0 -16.91394,0.5487 -27.17018,7.5879c-4.34587,2.9831 -6.53897,5.9284 -8.86169,9.0435c-4.21897,5.6626 -8.581,11.5157 -26.29622,17.8835z" fill="#000000"/></g><g><path d="M210.16973,197.0022c5.39521,2.0045 2.02329,6.8355 2.02329,6.8355c9.94594,2.8285 6.91121,6.8336 6.91121,6.8336c-5.56516,-2.242 -10.45323,0.4714 -25.65417,2.7116c-15.19837,2.2401 -30.82549,-2.7116 -30.82549,-2.7116c26.80337,-19.4467 47.54244,-13.6691 47.54516,-13.6691z" fill="#ba2915"/><g fill="#871212"><path d="M183.22874,199.6459c0,0 7.92837,3.9391 4.87461,14.3196h-2.42787c0,0 2.2283,-8.8078 -4.66947,-13.4277z"/><path d="M195.32758,196.5893c6.57674,5.9511 5.09579,15.138 5.09579,15.138l-3.0456,0.5468c1.29211,-11.1857 -5.58948,-15.0362 -5.58948,-15.0362z"/><path d="M174.08937,203.4851c0,0 5.05802,4.4784 3.70911,10.1052l-1.73989,-0.1905c0,0 -1.38124,-7.6802 -3.82527,-8.8267z"/><path d="M214.12719,209.6606h-2.83516c0.53948,-3.7826 -4.10853,-6.6601 -4.10853,-6.6601c0.89555,-4.3163 -3.00239,-6.7997 -3.00239,-6.7997l3.84673,0.3904c1.7346,1.2369 1.95577,6.3376 2.13917,6.6582c4.13013,2.0025 3.9629,6.4112 3.96018,6.4112z"/></g><path d="M219.69765,210.8919l-0.32632,0.4318l-0.607,-0.2432c-3.30454,-1.3294 -6.66043,-0.7279 -12.86221,0.5412c-3.19667,0.6543 -7.17559,1.467 -12.31186,2.225c-2.6652,0.3922 -5.51924,0.5902 -8.49202,0.5902c-12.08253,0 -22.64634,-3.3017 -22.75164,-3.3357l-0.87123,-0.2753l0.66351,-0.4808c16.65243,-12.0795 31.01977,-14.6157 40.14583,-14.6157c5.07418,0 8.00919,0.8014 8.13595,0.8354c4.41868,1.6386 3.78207,5.0799 2.6652,7.0259c3.62012,1.1069 5.89163,2.5098 6.75485,4.1729c0.89555,1.7254 -0.09986,3.0717 -0.14306,3.1283zM218.56476,208.0634c-0.73919,-1.3916 -2.87307,-2.6323 -6.11823,-3.6204c-5.88891,-1.7027 -11.54849,0.2772 -11.54849,0.2772c5.41953,-2.3344 9.32835,-1.9026 10.9578,-1.5368c0.64191,-1.1691 1.91256,-4.3125 -2.00169,-5.7663c-0.01073,0 -2.81899,-0.7467 -7.56671,-0.7467c-8.73494,0 -22.46037,2.4174 -38.48677,13.8331c2.7569,0.7712 11.52145,2.9887 21.3003,2.9887c2.87564,0 5.64342,-0.1923 8.2142,-0.5713c5.08763,-0.7486 9.03965,-1.5576 12.212,-2.2062c6.14785,-1.2578 9.74651,-1.8744 13.20755,-0.7128c0.15107,-0.4281 0.25622,-1.1239 -0.16995,-1.9385z" fill="#000000"/></g><g><path d="M136.82734,194.8809c0,0 -3.37206,-1.7688 -1.68596,-3.8882c1.68596,-2.1195 4.72083,-3.0303 4.72083,-2.8115c0,0.2187 29.16643,16.9915 62.04211,-0.7637v-2.4155c0,0 12.30642,3.9881 8.26012,12.0021c0,0 -7.38073,-1.6499 -14.22456,3.5356c-6.84912,5.1855 -12.91872,16.2637 -65.35208,5.7739c0,0 -4.21368,-0.9429 -2.02315,-3.7713c2.19039,-2.8285 8.76984,-5.5401 8.2627,-7.6614z" fill="#ba2915"/><g fill="#871212"><path d="M145.51091,191.0549c-3.62556,1.9441 -1.26522,4.7726 -1.48639,5.9549c-0.22117,1.1823 -0.62317,3.8278 -2.81355,5.6531c-2.19053,1.8254 -2.44403,5.0819 -2.44403,5.0819l-5.39521,-0.8995c0.59069,-0.9428 0.50715,-2.7097 3.87906,-5.1855c3.37206,-2.4759 3.5393,-5.459 3.5393,-5.459c-2.36034,-5.2232 2.23903,-6.3697 2.23903,-6.3697z"/><path d="M155.37059,194.1794c0,0 -0.87123,0.8599 -0.87123,2.8059c0,1.9459 0.89827,3.8655 -0.72031,5.8304c-1.61858,1.9648 -3.48794,6.7431 -3.48794,6.7431l-3.93042,-0.5261c0,0 0.15379,-0.9523 1.25163,-3.1642c1.09798,-2.2118 3.96275,-3.9146 3.40167,-7.2465c-0.56108,-3.3319 1.11687,-5.87 1.06823,-5.3798z"/><path d="M165.52167,195.3957c-0.80915,2.6342 -0.65006,3.7298 -0.08898,7.2465c0.56108,3.5167 -1.713,7.5143 -1.713,7.5143l-3.76576,-0.1735c0,0 3.00511,-4.3388 1.88281,-7.7952c-1.12216,-3.4564 0.78783,-6.9128 0.78783,-7.0618z"/><path d="M172.99411,195.4145h3.52313c3.28293,7.5388 -0.15107,9.6715 -0.15107,9.6715c0.84162,3.3055 -2.11228,5.0724 -2.11228,5.0724h-2.02057c3.03487,-2.7568 1.18167,-5.376 1.18167,-5.376c2.10941,-4.4199 -0.42088,-9.3698 -0.42088,-9.3698z"/><path d="M187.90908,193.1819c4.87733,7.7274 1.57008,10.784 1.74805,11.1668c0.17811,0.3828 -0.50715,1.4538 -0.50715,1.4538l-2.92414,1.3747c1.18153,-1.6104 0.5638,-2.5136 0.5638,-2.5136c2.4117,-6.0887 -2.70841,-10.5879 -2.70841,-10.5879z"/><path d="M198.36774,189.3427c4.10309,2.0026 4.10309,7.9348 4.10309,7.9348l-2.97822,1.1786c1.17895,-5.6966 -3.59852,-8.0932 -3.59852,-8.0932z"/><path d="M201.90704,185.1792c13.5446,5.3816 7.95526,11.7495 7.95526,11.7495l-0.03777,-0.7279c0.66351,-6.8147 -7.24583,-8.5533 -7.24583,-8.5533z"/></g><path d="M210.80105,197.1606l-0.21588,0.4299l-0.62045,-0.1376c-0.01073,-0.0019 -1.0575,-0.2282 -2.68137,-0.2282c-2.75962,0 -6.88432,0.6317 -10.84707,3.6337c-0.65822,0.4959 -1.30571,1.0484 -1.99082,1.6292c-4.29465,3.6525 -10.18084,8.6551 -27.8447,8.6551c-9.50102,0 -21.67797,-1.4727 -36.19638,-4.3766c-0.10801,-0.0226 -2.15548,-0.494 -2.88923,-1.7687c-0.45579,-0.7958 -0.30214,-1.6971 0.45865,-2.6795c0.97653,-1.2578 2.70841,-2.4476 4.38363,-3.5997c1.85863,-1.2766 3.76848,-2.5928 3.81712,-3.562c-0.02432,-0.0132 -0.05136,-0.0208 -0.07554,-0.034l0.0216,-0.0415c-1.31643,-0.7957 -3.01327,-2.5022 -1.56736,-4.32c1.59154,-2.0044 4.42412,-3.0868 5.22797,-3.0868h0.67438l0.04592,0.281c1.25435,0.7335 12.84862,7.1334 29.72207,7.1334c10.76882,0 21.19786,-2.6607 31.00904,-7.9065v-2.9209l0.95764,0.3111c0.12675,0.0434 12.81357,4.2654 8.61076,12.5886zM202.5787,185.7826v1.863l-0.25894,0.1415c-10.1322,5.4702 -20.93349,8.244 -32.09887,8.244c-15.75659,0 -27.92825,-5.6664 -30.52063,-7.3974c-0.53676,0.1264 -2.66792,0.9485 -3.96819,2.5871c-1.3758,1.7311 1.38396,3.2207 1.50256,3.2829l0.21588,0.1132l0.01617,0.0735c1.12488,0.5808 3.53386,1.5387 8.29789,2.3703c0,0 -4.55087,0.0924 -8.37071,-1.3747c-0.45593,1.1918 -2.22286,2.4193 -4.09222,3.7053c-1.60513,1.1013 -3.26419,2.2421 -4.14358,3.3754c-0.55836,0.7222 -0.69055,1.352 -0.39384,1.8724c0.49098,0.8636 2.01786,1.2219 2.03402,1.2257c14.37549,2.8756 26.42841,4.3351 35.80254,4.3351c12.75963,0 19.0019,-2.5871 23.15893,-5.442c-3.50425,0.6279 -14.27578,2.1308 -22.8379,-1.2747c0,0 12.12302,2.9322 24.43488,0.0924c0.72832,-0.5714 1.4027,-1.1389 2.05019,-1.6877c0.70142,-0.5958 1.36493,-1.1615 2.03932,-1.6706c5.79992,-4.3936 12.21758,-4.0655 14.2785,-3.7751c2.67064,-6.0548 -4.45645,-9.5772 -7.14597,-10.6596z" fill="#000000"/></g></g></g></g></svg>