<svg version="1.1" xmlns="http://www.w3.org/2000/svg" xmlns:xlink="http://www.w3.org/1999/xlink" width="360" height="649.4985" viewBox="0,0,360,649.4985"><defs><linearGradient x1="180" y1="0.72843" x2="180" y2="39.72843" gradientUnits="userSpaceOnUse" id="color-1"><stop offset="0" stop-color="#faff00"/><stop offset="1" stop-color="#fffce6"/></linearGradient><linearGradient x1="180" y1="610.72843" x2="180" y2="649.72843" gradientUnits="userSpaceOnUse" id="color-2"><stop offset="0" stop-color="#faff00"/><stop offset="1" stop-color="#fffce6"/></linearGradient><linearGradient x1="26.7258" y1="372.099" x2="26.7258" y2="456.9693" gradientUnits="userSpaceOnUse" id="color-3"><stop offset="0" stop-color="#ffffff"/><stop offset="1" stop-color="#cccccc"/></linearGradient><radialGradient cx="108.6461" cy="414.4481" r="80.0417" gradientUnits="userSpaceOnUse" id="color-4"><stop offset="0" stop-color="#ffffff"/><stop offset="1" stop-color="#cccccc"/></radialGradient><linearGradient x1="204.7258" y1="258.96926" x2="204.7258" y2="174.09896" gradientUnits="userSpaceOnUse" id="color-5"><stop offset="0" stop-color="#ffffff"/><stop offset="1" stop-color="#cccccc"/></linearGradient><radialGradient cx="286.6461" cy="216.62016" r="80.0417" gradientUnits="userSpaceOnUse" id="color-6"><stop offset="0" stop-color="#ffffff"/><stop offset="1" stop-color="#cccccc"/></radialGradient></defs><g transform="translate(0,-0.25075)"><g data-paper-data="{&quot;isPaintingLayer&quot;:true}" fill-rule="nonzero" stroke="none" stroke-linejoin="miter" stroke-miterlimit="10" stroke-dasharray="" stroke-dashoffset="0" style="mix-blend-mode: normal"><path d="M0.0015,649.74925v-649.4985h359.997v649.4985z" data-paper-data="{&quot;index&quot;:null}" fill="#00e0ff" stroke-width="0" stroke-linecap="butt"/><path d="M0,39.72843v-39h360v39z" fill="url(#color-1)" stroke-width="0" stroke-linecap="butt"/><path d="M0,649.72843v-39h360v39z" fill="url(#color-2)" stroke-width="0" stroke-linecap="butt"/><g stroke-linecap="round"><path d="M96.6173,374.7607c11.9314,-2.9624 25.5788,-4.3515 37.3805,0.6931c4.1469,2.0143 -1.3854,12.1991 1.4602,16.4965c1.5688,2.3677 5.5335,-3.7886 7.5345,-1.4556c8.0064,8.0625 19.5734,16.9401 19.6248,29.666c0.0537,13.078 -9.2541,26.5067 -19.3433,32.0947c-14.1275,7.8088 -31.2092,3.8163 -46.7736,2.7004c-14.5445,-1.0425 -28.6743,-6.1273 -43.046,-9.0107c-7.128,-1.1118 -15.1858,1.1492 -21.4938,-2.9804c-3.8397,-2.5133 -6.0334,-9.2298 -4.9646,-14.4865c1.5583,-6.1092 11.2259,-5.8333 12.9664,-11.9911c1.7791,-6.3033 -6.1222,-13.7836 -3.9717,-20.5166c1.6284,-4.5705 7.9854,-4.2143 12.4991,-4.9906c7.7355,-1.3183 15.9615,2.3788 23.4797,0c9.0542,-2.9042 15.4615,-13.9388 24.6478,-16.2192z" fill="url(#color-3)" stroke-width="1.28185"/><path d="M98.7814,381.6431c5.1579,-1.8207 10.8492,-2.0078 14.7291,1.2996c3.2744,2.3705 1.14,8.576 2.6283,12.476c1.1466,3.0112 2.7859,6.8294 5.366,9.0322c2.4049,1.5855 5.469,1.1813 8.4871,1.4945c4.8108,0.4614 10.34,-3.0085 14.5101,-0.4549c6.8784,4.0262 16.7234,9.821 16.1528,18.7141c-0.7972,12.411 -13.3811,19.1897 -19.6571,29.2407c-1.3382,2.5823 3.6774,0.6524 1.5233,0.8473c-8.6097,0.7759 -15.9119,2.5849 -24.0277,2.2067c-9.9907,-0.733 -19.5783,-2.1612 -30.0059,-5.5232c-7.5114,-2.5082 -13.2234,-10.5748 -20.9713,-12.4761c-7.8377,-1.9246 -16.8384,3.5596 -24.0376,0.4549c-3.3335,-1.4503 -6.4173,-7.9769 -4.4899,-11.5013c2.6775,-4.8033 11.6968,-0.6992 15.0029,-5.4583c2.1059,-3.1606 -2.3139,-7.5532 -1.9712,-11.5013c-0.4489,-4.6318 -1.9591,-11.708 1.6427,-13.6457c6.6692,-3.5947 14.9635,2.2301 22.0116,0c8.4882,-2.7226 14.6788,-12.2109 23.1068,-15.2052z" fill="url(#color-4)" stroke-width="1.20171"/></g><g data-paper-data="{&quot;index&quot;:null}" stroke-linecap="round"><path d="M249.9695,240.08836c-7.5182,-2.3788 -15.7442,1.3183 -23.4797,0c-4.5137,-0.7763 -10.8707,-0.4201 -12.4991,-4.9906c-2.1505,-6.733 5.7508,-14.2133 3.9717,-20.5166c-1.7405,-6.1578 -11.4081,-5.8819 -12.9664,-11.9911c-1.0688,-5.2567 1.1249,-11.9732 4.9646,-14.4865c6.308,-4.1296 14.3658,-1.8686 21.4938,-2.9804c14.3717,-2.8834 28.5015,-7.9682 43.046,-9.0107c15.5644,-1.1159 32.6461,-5.1084 46.7736,2.7004c10.0892,5.588 19.397,19.0167 19.3433,32.0947c-0.0514,12.7259 -11.6184,21.6035 -19.6248,29.666c-2.001,2.333 -5.9657,-3.8233 -7.5345,-1.4556c-2.8456,4.2974 2.6867,14.4822 -1.4602,16.4965c-11.8017,5.0446 -25.4491,3.6555 -37.3805,0.6931c-9.1863,-2.2804 -15.5936,-13.315 -24.6478,-16.2192z" fill="url(#color-5)" stroke-width="1.28185"/><path d="M253.6746,234.21996c-7.0481,-2.2301 -15.3424,3.5947 -22.0116,0c-3.6018,-1.9377 -2.0916,-9.0139 -1.6427,-13.6457c-0.3427,-3.9481 4.0771,-8.3407 1.9712,-11.5013c-3.3061,-4.7591 -12.3254,-0.655 -15.0029,-5.4583c-1.9274,-3.5244 1.1564,-10.051 4.4899,-11.5013c7.1992,-3.1047 16.1999,2.3795 24.0376,0.4549c7.7479,-1.9013 13.4599,-9.9679 20.9713,-12.4761c10.4276,-3.362 20.0152,-4.7902 30.0059,-5.5232c8.1158,-0.3782 15.418,1.4308 24.0277,2.2067c2.1541,0.1949 -2.8615,-1.735 -1.5233,0.8473c6.276,10.051 18.8599,16.8297 19.6571,29.2407c0.5706,8.8931 -9.2744,14.6879 -16.1528,18.7141c-4.1701,2.5536 -9.6993,-0.9163 -14.5101,-0.4549c-3.0181,0.3132 -6.0822,-0.091 -8.4871,1.4945c-2.5801,2.2028 -4.2194,6.021 -5.366,9.0322c-1.4883,3.9 0.6461,10.1055 -2.6283,12.476c-3.8799,3.3074 -9.5712,3.1203 -14.7291,1.2996c-8.428,-2.9943 -14.6186,-12.4826 -23.1068,-15.2052z" fill="url(#color-6)" stroke-width="1.20171"/></g></g></g></svg>