<svg version="1.1" xmlns="http://www.w3.org/2000/svg" xmlns:xlink="http://www.w3.org/1999/xlink" width="86.74864" height="110.25989" viewBox="0,0,86.74864,110.25989"><defs><linearGradient x1="180.00003" y1="273.59469" x2="180.00003" y2="325.4352" gradientUnits="userSpaceOnUse" id="color-1"><stop offset="0" stop-color="#d633ff"/><stop offset="1" stop-color="#f5ccff"/></linearGradient><linearGradient x1="180.00003" y1="325.51461" x2="180.00003" y2="376.40536" gradientUnits="userSpaceOnUse" id="color-2"><stop offset="0" stop-color="#f5ccff"/><stop offset="1" stop-color="#d633ff"/></linearGradient></defs><g transform="translate(-136.62568,-269.8701)"><g data-paper-data="{&quot;isPaintingLayer&quot;:true}" fill-rule="nonzero" stroke-linejoin="miter" stroke-miterlimit="10" stroke-dasharray="" stroke-dashoffset="0" style="mix-blend-mode: normal"><path d="M141.87568,378.87999c-2.20914,0 -4,-1.79086 -4,-4v-99.75989c0,-2.20914 1.79086,-4 4,-4h76.24864c2.20914,0 4,1.79086 4,4v99.75989c0,2.20914 -1.79086,4 -4,4z" fill="#00e6e6" stroke="#000000" stroke-width="2.5" stroke-linecap="butt"/><path d="M139.63862,325.4352v-51.84051h80.72276v51.84051z" data-paper-data="{&quot;index&quot;:null}" fill="url(#color-1)" stroke="none" stroke-width="0" stroke-linecap="butt"/><path d="M139.63862,376.40536v-50.89075h80.72276v50.89075z" data-paper-data="{&quot;index&quot;:null}" fill="url(#color-2)" stroke="none" stroke-width="0" stroke-linecap="butt"/><g stroke-linecap="butt"><path d="M163.34473,278.81803l19.11117,-7.43217l15.27107,8.25228v98.71976h-35.4539l1.07165,-99.53986" fill="#7aded4" stroke="none" stroke-width="1"/><path d="M182.23264,271.28334l0.17861,107.43334h-20.13817v-100.25744c0,0 17.54834,-6.04825 19.95956,-7.1759z" fill="#e7f5f5" stroke="none" stroke-width="1"/><path d="M164.14846,281.7909l15.49433,-4.92061" fill="none" stroke="#7aded4" stroke-width="4.4846"/><path d="M164.14846,291.42711l15.49433,-4.97187" fill="none" stroke="#7aded4" stroke-width="4.4846"/><path d="M179.64281,296.04016l-15.49433,4.97187" fill="none" stroke="#7aded4" stroke-width="4.4846"/><path d="M179.64281,305.62511l-15.49433,4.97187" fill="none" stroke="#7aded4" stroke-width="4.4846"/><path d="M164.14846,320.18191l15.49433,-4.97187" fill="none" stroke="#7aded4" stroke-width="4.4846"/><path d="M179.64279,324.79499l-15.49433,4.97187" fill="none" stroke="#7aded4" stroke-width="4.4846"/><path d="M179.64281,334.37994l-15.49433,4.97187" fill="none" stroke="#7aded4" stroke-width="4.4846"/><path d="M164.14848,348.93675l15.49433,-4.97187" fill="none" stroke="#7aded4" stroke-width="4.4846"/><path d="M179.64279,353.54981l-15.49433,4.97187" fill="none" stroke="#7aded4" stroke-width="4.4846"/><path d="M179.64279,363.13476l-15.49433,4.97187" fill="none" stroke="#7aded4" stroke-width="4.4846"/><path d="M179.64279,372.77097l-15.49433,4.92061" fill="none" stroke="#7aded4" stroke-width="4.4846"/></g><path d="M139.58845,376.03888v-48.49923h80.82313v48.49923z" fill-opacity="0.50196" fill="#ffffff" stroke="none" stroke-width="NaN" stroke-linecap="butt"/><path d="M207.50003,347.11627l-33,28l-22,-19" data-paper-data="{&quot;index&quot;:null}" fill="none" stroke="#000000" stroke-width="3.5" stroke-linecap="round"/><text transform="translate(146.52843,342.70756) scale(0.33272,0.33272)" font-size="40" xml:space="preserve" fill="#000000" fill-rule="nonzero" stroke="none" stroke-width="1" stroke-linecap="butt" stroke-linejoin="miter" stroke-miterlimit="10" stroke-dasharray="" stroke-dashoffset="0" font-family="Playful" font-weight="normal" text-anchor="start" style="mix-blend-mode: normal"><tspan x="0" dy="0">Місто Мрії</tspan></text></g></g></svg>