<svg version="1.1" xmlns="http://www.w3.org/2000/svg" xmlns:xlink="http://www.w3.org/1999/xlink" width="33.12891" height="39.39983" viewBox="0,0,33.12891,39.39983"><g transform="translate(-163.43554,-304.59341)"><g data-paper-data="{&quot;isPaintingLayer&quot;:true}" fill-rule="nonzero" stroke-linecap="butt" stroke-linejoin="miter" stroke-miterlimit="10" stroke-dasharray="" stroke-dashoffset="0" style="mix-blend-mode: normal"><path d="M186.28378,318.05003h5.41373c2.13566,0 3.86695,1.73129 3.86695,3.86695v0c0,2.13566 -1.73129,3.86695 -3.86695,3.86695v0h-5.41373v13.921c-0.05339,1.86869 -1.61155,3.34029 -3.48025,3.2869c-1.86869,-0.05339 -3.34029,-1.61155 -3.2869,-3.48025c-0.05339,-1.38818 -1.22201,-2.47023 -2.61019,-2.41684c-1.38818,0.05339 -2.47023,1.22201 -2.41684,2.61019c-0.05339,1.81531 -1.56827,3.24362 -3.38358,3.19023c-1.81531,-0.05339 -3.24362,-1.56827 -3.19023,-3.38358v-7.15385h-2.12682c-1.16009,0 -1.35343,-0.19335 -1.35343,-1.35343v-11.98753c0,-1.16009 0.19335,-1.35343 1.35343,-1.35343h2.12682c0.10678,-5.01879 4.26188,-9.00075 9.28067,-8.89398c5.01879,0.10678 9.00075,4.26188 8.89398,9.28067" fill="#9966ff" stroke="#000000" stroke-width="2"/><text transform="translate(173.86396,331.82967) scale(0.68953,0.68953)" font-size="40" xml:space="preserve" fill="#ffffff" fill-rule="nonzero" stroke="none" stroke-width="1" stroke-linecap="butt" stroke-linejoin="miter" stroke-miterlimit="10" stroke-dasharray="" stroke-dashoffset="0" font-family="Playful" font-weight="normal" text-anchor="start" style="mix-blend-mode: normal"><tspan x="0" dy="0">i</tspan></text></g></g></svg>