<svg version="1.1" xmlns="http://www.w3.org/2000/svg" xmlns:xlink="http://www.w3.org/1999/xlink" width="86.74864" height="110.25989" viewBox="0,0,86.74864,110.25989"><g transform="translate(-136.62568,-269.8701)"><g data-paper-data="{&quot;isPaintingLayer&quot;:true}" fill-rule="nonzero" stroke-linejoin="miter" stroke-miterlimit="10" stroke-dasharray="" stroke-dashoffset="0" style="mix-blend-mode: normal"><path d="M141.87568,378.87999c-2.20914,0 -4,-1.79086 -4,-4v-99.75989c0,-2.20914 1.79086,-4 4,-4h76.24864c2.20914,0 4,1.79086 4,4v99.75989c0,2.20914 -1.79086,4 -4,4z" fill="#00e6e6" stroke="#000000" stroke-width="2.5" stroke-linecap="butt"/><g><g data-paper-data="{&quot;index&quot;:null}" stroke="#000000" stroke-width="2" stroke-linecap="butt"><path d="M180.00003,348.55773c16.94767,0 30.68648,3.25564 30.68648,7.27167c0,4.01603 -13.7388,7.27167 -30.68648,7.27167c-16.94767,0 -30.68648,-3.25564 -30.68648,-7.27167c0,-4.01603 13.7388,-7.27167 30.68648,-7.27167z" fill="#3300ff"/><path d="M195.5614,372.84511c-3.05219,0 -5.52647,-2.47429 -5.52647,-5.52647c0,-3.05219 2.47429,-5.52647 5.52647,-5.52647c3.05219,0 5.52647,2.47429 5.52647,5.52647c0,3.05219 -2.47429,5.52647 -5.52647,5.52647z" fill="#000000"/><path d="M164.43862,372.84511c-3.05219,0 -5.52647,-2.47429 -5.52647,-5.52647c0,-3.05219 2.47429,-5.52647 5.52647,-5.52647c3.05219,0 5.52647,2.47429 5.52647,5.52647c0,3.05219 -2.47429,5.52647 -5.52647,5.52647z" fill="#000000"/></g><g fill="#ffc266" stroke="none" stroke-linecap="butt"><path d="M173.66499,354.3221v-11.79625h2.83984v11.79625z" stroke-width="NaN"/><path d="M180.21844,357.38039c0,0.96322 -2.72941,-1.66268 -3.60413,-1.04612c-0.82347,0.58044 -0.19164,3.12139 -1.42019,3.12139c-1.12052,0 -1.05496,-2.26256 -1.85164,-2.7551c-1.00466,-0.62112 -3.39114,1.50435 -3.39114,0.46138c0,-1.87001 2.70921,-4.47821 5.24278,-4.47821c2.53357,0 5.02433,2.82664 5.02433,4.69666z" stroke-width="0"/></g><g fill="#ffc266" stroke="none" stroke-linecap="butt"><path d="M183.4952,354.3221v-11.79625h2.83984v11.79625z" stroke-width="NaN"/><path d="M190.04867,357.38039c0,0.96322 -2.72941,-1.66268 -3.60413,-1.04612c-0.82347,0.58044 -0.19164,3.12139 -1.42019,3.12139c-1.12052,0 -1.05496,-2.26256 -1.85164,-2.7551c-1.00466,-0.62112 -3.39114,1.50435 -3.39114,0.46138c0,-1.87001 2.70921,-4.47821 5.24278,-4.47821c2.53357,0 5.02433,2.82664 5.02433,4.69666z" stroke-width="0"/></g><path d="M159.32016,328.81817l-13.17976,-29.70908c0,0 10.15081,5.62068 14.37864,6.21931c3.98618,0.56442 10.59737,-2.72412 10.59737,-2.72412c0,0 0.23983,7.67912 -1.48511,11.51231c-2.12364,4.7192 -10.31115,14.70158 -10.31115,14.70158z" fill="#e5e5e5" stroke="none" stroke-width="0" stroke-linecap="round"/><path d="M186.55349,302.3858c0,0 6.14522,3.24485 10.16895,2.72566c4.8502,-0.62583 17.13718,-6.22085 17.13718,-6.22085c0,0 -7.14808,15.01527 -9.75886,20.49948c-1.74992,3.67589 -4.38426,9.20959 -4.38426,9.20959c0,0 -8.36945,-11.61842 -10.62503,-16.18616c-2.03695,-4.12501 -2.53798,-10.02773 -2.53798,-10.02773z" fill="#e5e5e5" stroke="none" stroke-width="0" stroke-linecap="round"/><path d="M200.29528,332.75024c0,9.59137 -9.29128,17.3667 -20.75266,17.3667c-11.46138,0 -20.75266,-7.77534 -20.75266,-17.3667c0,-9.59137 9.29128,-17.3667 20.75266,-17.3667c11.46138,0 20.75266,7.77534 20.75266,17.3667z" fill="#f8f8f8" stroke="none" stroke-width="0" stroke-linecap="butt"/><path d="M188.30108,291.90027c0,0 -2.83117,6.4623 -1.23735,13.79384c1.67853,7.72126 9.64764,17.44438 9.64764,17.44438h-34.40573c0,0 6.60733,-9.17751 8.29586,-16.86968c1.58115,-7.20303 0.11443,-14.58699 0.11443,-14.58699z" fill="#ffffff" stroke="none" stroke-width="0" stroke-linecap="round"/><path d="M190.35586,286.43904c0,5.12746 -4.84125,9.28409 -10.81323,9.28409c-5.97198,0 -10.81323,-4.15663 -10.81323,-9.28409c0,-5.12746 4.84125,-9.28409 10.81323,-9.28409c5.97198,0 10.81323,4.15663 10.81323,9.28409z" fill="#f2f2f2" stroke="none" stroke-width="0" stroke-linecap="butt"/><path d="M177.16016,285.67446c0,1.50808 -1.02693,2.73061 -2.29372,2.73061c-1.26678,0 -2.29372,-1.22254 -2.29372,-2.73061c0,-1.50808 1.02693,-2.73061 2.29372,-2.73061c1.26678,0 2.29372,1.22254 2.29372,2.73061z" fill="#000000" stroke="none" stroke-width="0" stroke-linecap="butt"/><path d="M186.77191,285.89292c0,1.50808 -1.02693,2.73061 -2.29372,2.73061c-1.26678,0 -2.29372,-1.22254 -2.29372,-2.73061c0,-1.50808 1.02693,-2.73061 2.29372,-2.73061c1.26678,0 2.29372,1.22254 2.29372,2.73061z" fill="#000000" stroke="none" stroke-width="0" stroke-linecap="butt"/><path d="M179.34466,298.23527l-3.50543,-7.31805h7.31805z" fill="#ff9e00" stroke="none" stroke-width="0" stroke-linecap="round"/><g stroke="none" stroke-width="1.88565" stroke-linecap="butt"><g><g><path d="M162.06858,320.85478c-0.08749,-0.01387 -0.37346,-0.07143 -0.40581,-0.22867c-0.03162,-0.15675 0.20659,-0.24873 0.28453,-0.27906c0.07571,-0.01592 1.32914,-0.13874 2.59874,-0.74254c-0.12203,-0.07143 -0.23743,-0.14133 -0.34772,-0.21069c-0.53077,0.34943 -1.97905,0.71583 -3.10971,0.78674c-0.15291,-0.02107 -0.43373,-0.08941 -0.45431,-0.24666c-0.0191,-0.15776 0.22644,-0.24154 0.3073,-0.26928c0.07645,-0.01284 1.36076,-0.08838 2.68845,-0.65828c-0.13084,-0.09713 -0.25217,-0.19374 -0.36242,-0.28726c-0.48153,0.31296 -2.02537,0.64544 -3.20234,0.6737c-0.15072,-0.02722 -0.4264,-0.10536 -0.43373,-0.26413c-0.00737,-0.1588 0.2448,-0.23178 0.32714,-0.25592c0.07938,-0.01027 1.43503,-0.03494 2.84576,-0.59508c-0.0816,-0.08838 -0.15731,-0.17779 -0.22714,-0.26721c-0.5124,0.25592 -1.88716,0.48561 -3.01048,0.48561c-0.07279,0 -0.14484,-0.00101 -0.21466,-0.00308c-0.14702,-0.03494 -0.41314,-0.12847 -0.40359,-0.28726c0.00955,-0.15774 0.26835,-0.21788 0.35287,-0.23791l0.18967,-0.00515c0.33817,0 1.51662,-0.03287 2.76861,-0.45683c-0.05443,-0.11152 -0.09337,-0.21172 -0.12059,-0.29806c-0.59841,0.2441 -1.8548,0.44143 -2.89504,0.44143c-0.07279,0 -0.1441,-0.00104 -0.21466,-0.00308c-0.14702,-0.03494 -0.41388,-0.12847 -0.40433,-0.28726c0.00955,-0.15776 0.26835,-0.21788 0.35361,-0.23794l0.18745,-0.00409c0.34702,0 1.57838,-0.03597 2.86639,-0.49076l0.0338,-0.01183c0.07645,-0.14029 0.35802,-0.24203 0.48153,-0.28111l0.23232,-0.07244l0.02573,0.17676c0.25068,1.71841 3.03544,3.14855 3.06339,3.16346l0.25143,0.12743l-0.8675,0.28623l-0.08308,-0.04933c-0.50063,0.35817 -1.91433,0.77699 -3.03469,0.88902l-0.03384,0.00412z" fill="#871212"/><path d="M162.62289,316.45184c0,0 -0.5227,0.16444 -0.36246,0.2919c0,0 -0.0007,0.00564 -0.00144,0.01592c-0.06398,-0.01491 -0.13454,-0.01592 -0.14261,-0.01592c-0.00074,0 -0.00074,0 -0.00074,0c-1.31226,0.4635 -2.55395,0.50463 -2.94947,0.50463c-0.08378,0 -0.12936,-0.00207 -0.12936,-0.00207c-0.51314,0.11923 0,0.27391 0,0.27391c0.06834,0.00204 0.13747,0.00308 0.20729,0.00308c1.21814,0 2.71715,-0.28007 3.00826,-0.52673c0.00807,-0.00823 0.01029,-0.01183 0.01766,-0.01902c0.02277,0.14648 0.08452,0.35717 0.22936,0.61514c-0.02573,-0.00207 -0.04706,-0.00308 -0.05587,-0.00308c-0.00296,0 -0.00441,0 -0.00441,0c-1.31081,0.46247 -2.55102,0.50359 -2.94799,0.50359c-0.08526,0 -0.13158,-0.00207 -0.13158,-0.00207c-0.51314,0.12026 0,0.27495 0,0.27495c0.06834,0.00204 0.13747,0.00308 0.20729,0.00308c1.21814,0 2.71715,-0.28007 3.00826,-0.52673c0.02281,-0.01954 0.0338,-0.03546 0.0485,-0.0514c0.11252,0.16547 0.25805,0.34534 0.44921,0.537c-0.01544,0.00104 -0.02647,0.00104 -0.02647,0.00104c-1.52618,0.6444 -3.01633,0.66343 -3.01633,0.66343c-0.49845,0.14542 0.0294,0.27288 0.0294,0.27288c1.24976,-0.03033 2.87224,-0.41369 3.15088,-0.69169c0.02499,-0.02518 0.03825,-0.04524 0.0522,-0.06423c0.1823,0.167 0.40211,0.3412 0.65576,0.52106c-1.45195,0.67474 -2.89578,0.75077 -2.89578,0.75077c-0.48667,0.16547 0.05072,0.27288 0.05072,0.27288c1.24462,-0.0781 2.83477,-0.52362 3.0906,-0.81192c0.01103,-0.01235 0.01396,-0.02055 0.02207,-0.03134c0.19992,0.13155 0.42047,0.26465 0.66531,0.40134c-1.39093,0.71736 -2.81345,0.8479 -2.81345,0.8479c-0.47346,0.18346 0.07205,0.2698 0.07205,0.2698c1.23651,-0.12539 2.7899,-0.63053 3.0237,-0.92755c0.00585,-0.00823 0.00659,-0.01183 0.01173,-0.01902l0.13676,0.08118l0.47931,-0.15877c0,0 -2.87664,-1.45635 -3.13836,-3.25391M162.93677,316.07157l0.05146,0.35305c0.24187,1.66034 2.9612,3.05862 2.98842,3.07249l0.50285,0.25489l-0.56168,0.18551l-0.47931,0.15776l-0.21466,0.07143l-0.04339,-0.02622c-0.62632,0.36744 -2.01503,0.74101 -3.01926,0.84225l-0.0669,0.00719l-0.06616,-0.01079c-0.11618,-0.01799 -0.49845,-0.09609 -0.54694,-0.33504c-0.02281,-0.11051 0.02425,-0.27187 0.37786,-0.40957l0.03602,-0.01387c-0.27642,0.04213 -0.54476,0.07246 -0.78956,0.08838l-0.06764,0.0036l-0.06542,-0.01284c-0.1147,-0.02314 -0.48964,-0.11511 -0.52051,-0.3551c-0.01396,-0.11255 0.04487,-0.27236 0.40878,-0.3957l0.0632,-0.02107l0.06912,-0.00461c0.01248,-0.00104 1.13362,-0.06786 2.34736,-0.54782c-0.03384,-0.02671 -0.0669,-0.05292 -0.09926,-0.07911c-0.66383,0.32528 -2.1371,0.59917 -3.16998,0.62435l-0.06838,0.00207l-0.06468,-0.01747c-0.11174,-0.02725 -0.47934,-0.13465 -0.49037,-0.37464c-0.00515,-0.11203 0.0669,-0.2698 0.43965,-0.37821l0.06468,-0.01902l0.06983,-0.00104c0.01251,0 1.21963,-0.02363 2.52307,-0.50359c-0.01177,-0.01284 -0.02281,-0.02722 -0.03454,-0.04009c-0.66827,0.25797 -1.95772,0.43475 -2.94432,0.43475c-0.07497,0 -0.14924,-0.00104 -0.22199,-0.00308l-0.06838,-0.00207l-0.06249,-0.01899c-0.10951,-0.03289 -0.46461,-0.15828 -0.44991,-0.3993c0.00663,-0.11203 0.09556,-0.26465 0.4786,-0.3551l0.0669,-0.01491l0.06983,0.00311c0.00515,0 0.04409,0.00101 0.111,0.00101c0.3154,0 1.38208,-0.02979 2.54365,-0.39619c-0.00515,-0.01183 -0.01029,-0.02415 -0.0147,-0.03494c-0.70063,0.22456 -1.86657,0.37513 -2.77598,0.37513c-0.07497,0 -0.1492,-0.00104 -0.22199,-0.00308l-0.06838,-0.00207l-0.06249,-0.01899c-0.10951,-0.03289 -0.46461,-0.15828 -0.44991,-0.3993c0.00663,-0.11203 0.0956,-0.26465 0.47934,-0.35406l0.0669,-0.01491l0.06983,0.00207c0.00441,0 0.04265,0.00204 0.10881,0.00204c0.33447,0 1.51807,-0.03393 2.76198,-0.46865c0.12055,-0.1516 0.38227,-0.25181 0.54547,-0.30318l0.46461,-0.14648zM162.01048,320.20267c0.15439,-0.01747 1.15569,-0.14185 2.23048,-0.61203c-0.01177,-0.00619 -0.02281,-0.01286 -0.03384,-0.02006c-0.46753,0.25285 -1.35487,0.49335 -2.19663,0.63209z" fill="#000000"/></g><path d="M184.09453,308.46616l-2.50175,0.25489c-2.29511,0.01131 -6.61637,1.95172 -8.20357,5.39832c-1.58719,3.44761 -7.9698,5.9317 -7.9698,5.9317c-3.73755,-1.99129 -3.15528,-3.57608 -3.15528,-3.57608c7.50445,-2.67681 6.21793,-5.01033 9.61801,-7.34489c3.40008,-2.33352 7.88746,-2.09817 7.88746,-2.09817z" fill="#ba2915"/><g fill="#871212"><path d="M165.26577,315.23394c-0.12203,1.09199 3.15528,3.36131 3.15528,3.36131l-0.84617,0.48253c-3.52799,-1.2328 -3.35232,-3.3464 -3.35232,-3.3464z"/><path d="M167.75277,313.55049c0.44624,1.67009 3.7618,2.94555 3.7618,2.94555l-1.01085,0.74976c-3.40008,-1.34895 -3.61474,-2.97588 -3.61474,-2.97588z"/><path d="M169.17899,311.96672c0.63591,1.07965 4.35724,1.89569 4.35724,1.89569l-0.49034,0.92139c-3.55372,-0.5781 -4.33596,-2.22508 -4.33596,-2.22508z"/><path d="M171.12346,309.71386c0.40507,0.58377 4.2514,1.79447 4.2514,1.79447l-0.77338,0.7626c-3.50004,-0.52109 -4.13229,-1.92705 -4.13229,-1.92705z"/><path d="M173.94571,308.04067c0.25583,-0.06167 4.4374,1.33609 4.4374,1.33609l-1.2321,0.76003l-4.43225,-1.51955c0,0 0.97112,-0.5149 1.22695,-0.57657z"/><path d="M176.62832,307.40037l1.73569,-0.36074l3.63973,1.63772l-1.72392,0.18706l-3.65151,-1.46404"/></g><path d="M165.40323,320.20371l-0.09556,-0.05036c-3.79049,-2.02058 -3.24721,-3.64238 -3.22148,-3.71073l0.02059,-0.05603l0.07353,-0.02619c4.79245,-1.70917 5.96062,-3.27701 7.08983,-4.79245c0.61825,-0.82991 1.25713,-1.6886 2.48334,-2.5293c2.89578,-1.98769 6.59727,-2.14185 7.66251,-2.14185c0.23599,0 0.36761,0.00719 0.36761,0.00719l4.93803,1.62848l-3.10237,0.31604c-2.36276,0.01232 -6.54873,2.03802 -8.0558,5.30992c-1.5916,3.45584 -7.7919,5.9024 -8.0551,6.0052l-0.10511,0.04009zM162.43025,316.55925c-0.04924,0.28419 -0.09852,1.65625 3.00386,3.33713c0.82851,-0.33915 6.34366,-2.69684 7.78013,-5.81607c1.61881,-3.51495 5.9805,-5.47591 8.3771,-5.48774l1.87682,-0.19218l-3.76176,-1.24771c-0.00663,0.00515 -0.11911,0.00104 -0.29041,0.00052c-1.02995,0 -4.60941,0.14953 -7.40445,2.06786c-1.18434,0.81296 -1.78201,1.61562 -2.415,2.46455c-1.14976,1.54318 -2.33851,3.13827 -7.16628,4.87364z" fill="#000000"/></g><g><path d="M190.10809,304.09818c1.47031,0.54627 0.55139,1.86282 0.55139,1.86282c2.71048,0.77083 1.88345,1.8623 1.88345,1.8623c-1.51662,-0.61099 -2.84873,0.12847 -6.99131,0.73897c-4.14188,0.61048 -8.4006,-0.73897 -8.4006,-0.73897c7.30449,-5.29964 12.95633,-3.72512 12.95707,-3.72512z" fill="#ba2915"/><g fill="#871212"><path d="M182.76609,304.81864c0,0 2.16065,1.07349 1.32844,3.9024h-0.66165c0,0 0.60726,-2.40031 -1.27253,-3.65934z"/><path d="M186.06328,303.98565c1.7923,1.6218 1.38871,4.12543 1.38871,4.12543l-0.82999,0.14901c0.35213,-3.04834 -1.52325,-4.09769 -1.52325,-4.09769z"/><path d="M180.27542,305.86491c0,0 1.37842,1.22046 1.01081,2.75388l-0.47416,-0.05192c0,0 -0.37642,-2.09302 -1.04247,-2.40546z"/><path d="M191.18658,307.54786h-0.77264c0.14702,-1.03084 -1.11966,-1.81502 -1.11966,-1.81502c0.24406,-1.17628 -0.81822,-1.85306 -0.81822,-1.85306l1.04832,0.10639c0.47272,0.33708 0.53299,1.72713 0.58297,1.8145c1.12555,0.54572 1.07997,1.74719 1.07923,1.74719z"/></g><path d="M192.70465,307.88343l-0.08893,0.11767l-0.16542,-0.06628c-0.90056,-0.36229 -1.81511,-0.19837 -3.50523,0.14749c-0.87116,0.17831 -1.9555,0.39979 -3.35524,0.60636c-0.72632,0.10688 -1.50411,0.16084 -2.31426,0.16084c-3.29275,0 -6.17161,-0.89978 -6.20031,-0.90905l-0.23743,-0.07503l0.18082,-0.13103c4.53814,-3.29192 8.45355,-3.98309 10.9406,-3.98309c1.38282,0 2.18268,0.2184 2.21722,0.22766c1.20418,0.44655 1.03069,1.38438 0.72632,1.91471c0.98656,0.30165 1.6056,0.68397 1.84084,1.1372c0.24406,0.47021 -0.02721,0.8371 -0.03899,0.85253zM192.39591,307.11259c-0.20145,-0.37924 -0.78297,-0.71736 -1.66735,-0.98664c-1.60485,-0.46402 -3.14721,0.07554 -3.14721,0.07554c1.47694,-0.63617 2.54217,-0.5185 2.98623,-0.41881c0.17493,-0.3186 0.52121,-1.17525 -0.5455,-1.57144c-0.00292,0 -0.76823,-0.20349 -2.06209,-0.20349c-2.38046,0 -6.12093,0.65879 -10.48847,3.76982c0.75131,0.21017 3.13984,0.81448 5.80479,0.81448c0.78367,0 1.53795,-0.05241 2.23854,-0.15569c1.38649,-0.20401 2.4635,-0.42448 3.32803,-0.60124c1.67542,-0.34278 2.65613,-0.51081 3.59934,-0.19425c0.04117,-0.11667 0.06983,-0.30629 -0.04632,-0.52828z" fill="#000000"/></g><g><path d="M170.12072,303.52008c0,0 -0.91896,-0.48204 -0.45946,-1.05962c0.45946,-0.57761 1.28653,-0.82582 1.28653,-0.76619c0,0.0596 7.94848,4.63055 16.9078,-0.20812v-0.65828c0,0 3.35376,1.08684 2.25106,3.27083c0,0 -2.01141,-0.44963 -3.8765,0.96353c-1.86653,1.41316 -3.52063,4.43221 -17.80984,1.57351c0,0 -1.14832,-0.25696 -0.55135,-1.02776c0.59693,-0.77083 2.38997,-1.5098 2.25176,-2.0879z" fill="#ba2915"/><g fill="#871212"><path d="M172.48718,302.47741c-0.98804,0.52981 -0.3448,1.30064 -0.40507,1.62284c-0.06027,0.3222 -0.16983,1.04316 -0.76675,1.54059c-0.59697,0.49746 -0.66605,1.38493 -0.66605,1.38493l-1.47031,-0.24513c0.16098,-0.25693 0.13821,-0.73845 1.05713,-1.41316c0.91896,-0.67474 0.96453,-1.48769 0.96453,-1.48769c-0.64324,-1.42343 0.61018,-1.73588 0.61018,-1.73588z"/><path d="M175.17415,303.32891c0,0 -0.23743,0.23434 -0.23743,0.76467c0,0.5303 0.2448,1.05343 -0.1963,1.58891c-0.4411,0.53545 -0.95054,1.83764 -0.95054,1.83764l-1.07112,-0.14337c0,0 0.04191,-0.25952 0.3411,-0.86231c0.29922,-0.60276 1.07993,-1.06681 0.92703,-1.97483c-0.15291,-0.90801 0.30437,-1.5997 0.29112,-1.46611z"/><path d="M177.94054,303.66038c-0.22051,0.71788 -0.17716,1.01645 -0.02425,1.97483c0.15291,0.95838 -0.46683,2.04781 -0.46683,2.04781l-1.02625,-0.04728c0,0 0.81896,-1.18242 0.51311,-2.12436c-0.30581,-0.94194 0.2147,-1.88389 0.2147,-1.92449z"/><path d="M179.97693,303.6655h0.96013c0.89467,2.05448 -0.04117,2.63569 -0.04117,2.63569c0.22936,0.90082 -0.57564,1.38234 -0.57564,1.38234h-0.55065c0.82707,-0.75129 0.32203,-1.46507 0.32203,-1.46507c0.57486,-1.20452 -0.1147,-2.55347 -0.1147,-2.55347z"/><path d="M184.04158,303.05707c1.32918,2.10588 0.42788,2.93887 0.47638,3.04319c0.04854,0.10432 -0.13821,0.39619 -0.13821,0.39619l-0.79689,0.37464c0.32199,-0.43887 0.15365,-0.68501 0.15365,-0.68501c0.65724,-1.6593 -0.7381,-2.88543 -0.7381,-2.88543z"/><path d="M186.89179,302.0108c1.11818,0.54575 1.11818,2.1624 1.11818,2.1624l-0.81163,0.32119c0.32129,-1.55245 -0.98067,-2.20557 -0.98067,-2.20557z"/><path d="M187.85633,300.87617c3.69119,1.4666 2.16798,3.20199 2.16798,3.20199l-0.01029,-0.19837c0.18082,-1.85715 -1.97464,-2.33096 -1.97464,-2.33096z"/></g><path d="M190.28013,304.14134l-0.05883,0.11716l-0.16909,-0.0375c-0.00292,-0.00052 -0.28819,-0.06219 -0.73073,-0.06219c-0.75206,0 -1.87612,0.17215 -2.95606,0.99026c-0.17938,0.13514 -0.35583,0.28571 -0.54254,0.44399c-1.17038,0.99538 -2.7745,2.3587 -7.58828,2.3587c-2.58923,0 -5.90771,-0.40134 -9.86429,-1.19272c-0.02944,-0.00616 -0.58741,-0.13463 -0.78738,-0.48201c-0.12421,-0.21687 -0.08234,-0.4625 0.12499,-0.73022c0.26613,-0.34278 0.7381,-0.66702 1.19463,-0.981c0.50652,-0.3479 1.02699,-0.70659 1.04025,-0.97072c-0.00663,-0.0036 -0.014,-0.00567 -0.02059,-0.00927l0.00589,-0.01131c-0.35876,-0.21685 -0.82118,-0.6819 -0.42714,-1.17729c0.43373,-0.54624 1.20567,-0.84122 1.42473,-0.84122h0.18378l0.01251,0.07658c0.34184,0.19989 3.50152,1.944 8.0999,1.944c2.93473,0 5.77687,-0.7251 8.45063,-2.15469v-0.79601l0.26098,0.08478c0.03454,0.01183 3.49197,1.16241 2.34662,3.43066zM188.03937,301.04059v0.50771l-0.07057,0.03856c-2.76124,1.49075 -5.70482,2.24667 -8.74763,2.24667c-4.29401,0 -7.61104,-1.54422 -8.31752,-2.01595c-0.14628,0.03445 -0.72707,0.25849 -1.08142,0.70504c-0.37493,0.47176 0.37716,0.87771 0.40948,0.89466l0.05883,0.03085l0.00441,0.02003c0.30655,0.15828 0.96305,0.41933 2.26135,0.64596c0,0 -1.24021,0.02518 -2.2812,-0.37464c-0.12425,0.32479 -0.60578,0.65931 -1.11522,1.00977c-0.43743,0.30013 -0.88956,0.61102 -1.12921,0.91987c-0.15217,0.19681 -0.18819,0.36845 -0.10733,0.51027c0.1338,0.23535 0.54991,0.33299 0.55431,0.33403c3.91763,0.78366 7.20231,1.18141 9.75696,1.18141c3.47727,0 5.17842,-0.70504 6.3113,-1.48306c-0.95498,0.17112 -3.89045,0.58069 -6.22382,-0.34738c0,0 3.30378,0.79909 6.65903,0.02518c0.19848,-0.15572 0.38227,-0.31037 0.55872,-0.45993c0.19115,-0.16237 0.37197,-0.31653 0.55576,-0.45527c1.5806,-1.19735 3.32955,-1.10794 3.8912,-1.0288c0.72781,-1.65006 -1.21448,-2.60999 -1.94743,-2.90497z" fill="#000000"/></g></g></g><path d="M139.58845,376.03888v-48.49923h80.82313v48.49923z" fill-opacity="0.50196" fill="#ffffff" stroke="none" stroke-width="NaN" stroke-linecap="butt"/><path d="M177.11169,360.45806c0,-8.00458 6.48899,-14.49357 14.49357,-14.49357c8.00458,0 14.49357,6.48899 14.49357,14.49357c0,8.00458 -6.48899,14.49357 -14.49357,14.49357c-8.00458,0 -14.49357,-6.48899 -14.49357,-14.49357z" fill="#000000" stroke="none" stroke-width="0" stroke-linecap="butt"/><path d="M178.01754,360.2316c0,-7.37922 5.98204,-13.36126 13.36126,-13.36126c7.37922,0 13.36126,5.98204 13.36126,13.36126c0,7.37922 -5.98204,13.36126 -13.36126,13.36126c-7.37922,0 -13.36126,-5.98204 -13.36126,-13.36126z" fill="#ffe600" stroke="none" stroke-width="0" stroke-linecap="butt"/><text transform="translate(188.72907,365.05993) scale(0.38349,0.38349)" font-size="40" xml:space="preserve" fill="#000000" fill-rule="nonzero" stroke="none" stroke-width="1" stroke-linecap="butt" stroke-linejoin="miter" stroke-miterlimit="10" stroke-dasharray="" stroke-dashoffset="0" font-family="Pixel" font-weight="normal" text-anchor="start" style="mix-blend-mode: normal"><tspan x="0" dy="0">1</tspan></text><text transform="translate(180,342.70756) scale(0.33272,0.33272)" font-size="40" xml:space="preserve" fill="#000000" fill-rule="nonzero" stroke="none" stroke-width="1" stroke-linecap="butt" stroke-linejoin="miter" stroke-miterlimit="10" stroke-dasharray="" stroke-dashoffset="0" font-family="Playful" font-weight="normal" text-anchor="middle" style="mix-blend-mode: normal"><tspan x="0" dy="0">У шарфі</tspan></text><text transform="translate(153.46429,367.51265) scale(0.38141,0.38141)" font-size="40" xml:space="preserve" fill="#000000" fill-rule="nonzero" stroke="none" stroke-width="1" stroke-linecap="butt" stroke-linejoin="miter" stroke-miterlimit="10" stroke-dasharray="" stroke-dashoffset="0" font-family="Playful" font-weight="normal" text-anchor="start" style="mix-blend-mode: normal"><tspan x="0" dy="0">65</tspan></text></g></g></svg>