<svg version="1.1" xmlns="http://www.w3.org/2000/svg" xmlns:xlink="http://www.w3.org/1999/xlink" width="86.74864" height="110.25989" viewBox="0,0,86.74864,110.25989"><g transform="translate(-136.62568,-269.87008)"><g data-paper-data="{&quot;isPaintingLayer&quot;:true}" fill-rule="nonzero" stroke-linejoin="miter" stroke-miterlimit="10" stroke-dasharray="" stroke-dashoffset="0" style="mix-blend-mode: normal"><path d="M141.87568,378.87998c-2.20914,0 -4,-1.79086 -4,-4v-99.75989c0,-2.20914 1.79086,-4 4,-4h76.24864c2.20914,0 4,1.79086 4,4v99.75989c0,2.20914 -1.79086,4 -4,4z" fill="#00e6e6" stroke="#000000" stroke-width="2.5" stroke-linecap="butt"/><g><g data-paper-data="{&quot;index&quot;:null}" stroke="#000000" stroke-width="2" stroke-linecap="butt"><path d="M181.95492,348.55773c16.94767,0 30.68648,3.25564 30.68648,7.27167c0,4.01603 -13.7388,7.27167 -30.68648,7.27167c-16.94767,0 -30.68648,-3.25564 -30.68648,-7.27167c0,-4.01603 13.7388,-7.27167 30.68648,-7.27167z" fill="#00ffff"/><path d="M197.5163,372.84511c-3.05219,0 -5.52647,-2.47429 -5.52647,-5.52647c0,-3.05219 2.47429,-5.52647 5.52647,-5.52647c3.05219,0 5.52647,2.47429 5.52647,5.52647c0,3.05219 -2.47429,5.52647 -5.52647,5.52647z" fill="#000000"/><path d="M166.39352,372.84511c-3.05219,0 -5.52647,-2.47429 -5.52647,-5.52647c0,-3.05219 2.47429,-5.52647 5.52647,-5.52647c3.05219,0 5.52647,2.47429 5.52647,5.52647c0,3.05219 -2.47429,5.52647 -5.52647,5.52647z" fill="#000000"/></g><g fill="#ffc266" stroke="none" stroke-linecap="butt"><path d="M175.61988,354.3221v-11.79625h2.83984v11.79625z" stroke-width="NaN"/><path d="M182.17334,357.38039c0,0.96322 -2.72941,-1.66268 -3.60413,-1.04612c-0.82347,0.58044 -0.19164,3.12139 -1.42019,3.12139c-1.12052,0 -1.05496,-2.26256 -1.85164,-2.7551c-1.00466,-0.62112 -3.39114,1.50435 -3.39114,0.46138c0,-1.87001 2.70921,-4.47821 5.24278,-4.47821c2.53357,0 5.02433,2.82664 5.02433,4.69666z" stroke-width="0"/></g><g fill="#ffc266" stroke="none" stroke-linecap="butt"><path d="M185.45009,354.3221v-11.79625h2.83984v11.79625z" stroke-width="NaN"/><path d="M192.00356,357.38039c0,0.96322 -2.72941,-1.66268 -3.60413,-1.04612c-0.82347,0.58044 -0.19164,3.12139 -1.42019,3.12139c-1.12052,0 -1.05496,-2.26256 -1.85164,-2.7551c-1.00466,-0.62112 -3.39114,1.50435 -3.39114,0.46138c0,-1.87001 2.70921,-4.47821 5.24278,-4.47821c2.53357,0 5.02433,2.82664 5.02433,4.69666z" stroke-width="0"/></g><path d="M161.27506,328.81816l-13.17976,-29.70908c0,0 10.15081,5.62068 14.37864,6.21931c3.98618,0.56442 10.59737,-2.72412 10.59737,-2.72412c0,0 0.23983,7.67912 -1.48511,11.51231c-2.12364,4.7192 -10.31115,14.70158 -10.31115,14.70158z" fill="#e5e5e5" stroke="none" stroke-width="0" stroke-linecap="round"/><path d="M188.50838,302.38579c0,0 6.14522,3.24485 10.16895,2.72566c4.8502,-0.62583 17.13718,-6.22085 17.13718,-6.22085c0,0 -7.14808,15.01527 -9.75886,20.49948c-1.74992,3.67589 -4.38426,9.20959 -4.38426,9.20959c0,0 -8.36945,-11.61842 -10.62503,-16.18616c-2.03695,-4.12501 -2.53798,-10.02773 -2.53798,-10.02773z" fill="#e5e5e5" stroke="none" stroke-width="0" stroke-linecap="round"/><path d="M202.25018,332.75023c0,9.59137 -9.29128,17.3667 -20.75266,17.3667c-11.46138,0 -20.75266,-7.77534 -20.75266,-17.3667c0,-9.59137 9.29128,-17.3667 20.75266,-17.3667c11.46138,0 20.75266,7.77534 20.75266,17.3667z" fill="#f8f8f8" stroke="none" stroke-width="0" stroke-linecap="butt"/><path d="M190.25598,291.90027c0,0 -2.83117,6.4623 -1.23735,13.79384c1.67853,7.72126 9.64764,17.44438 9.64764,17.44438h-34.40573c0,0 6.60733,-9.17751 8.29586,-16.86968c1.58115,-7.20303 0.11443,-14.58699 0.11443,-14.58699z" fill="#ffffff" stroke="none" stroke-width="0" stroke-linecap="round"/><path d="M192.31076,286.43904c0,5.12746 -4.84125,9.28409 -10.81323,9.28409c-5.97198,0 -10.81323,-4.15663 -10.81323,-9.28409c0,-5.12746 4.84125,-9.28409 10.81323,-9.28409c5.97198,0 10.81323,4.15663 10.81323,9.28409z" fill="#f2f2f2" stroke="none" stroke-width="0" stroke-linecap="butt"/><path d="M179.11506,285.67445c0,1.50808 -1.02693,2.73061 -2.29372,2.73061c-1.26678,0 -2.29372,-1.22254 -2.29372,-2.73061c0,-1.50808 1.02693,-2.73061 2.29372,-2.73061c1.26678,0 2.29372,1.22254 2.29372,2.73061z" fill="#000000" stroke="none" stroke-width="0" stroke-linecap="butt"/><path d="M188.72682,285.89291c0,1.50808 -1.02693,2.73061 -2.29372,2.73061c-1.26678,0 -2.29372,-1.22254 -2.29372,-2.73061c0,-1.50808 1.02693,-2.73061 2.29372,-2.73061c1.26678,0 2.29372,1.22254 2.29372,2.73061z" fill="#000000" stroke="none" stroke-width="0" stroke-linecap="butt"/><path d="M181.29956,298.23526l-3.50543,-7.31805h7.31805z" fill="#ff9e00" stroke="none" stroke-width="0" stroke-linecap="round"/><g><path d="M169.48504,302.55481c0,3.29993 1.21711,7.92363 -1.03549,10.15703c-2.45761,2.43665 -7.90213,4.28399 -11.78294,4.28399c-4.6313,0 -12.6108,0.10287 -15.03445,-3.19962c-1.46873,-2.00131 0.91794,-8.63771 0.91794,-11.2414c0,-6.9002 6.0296,-12.49392 13.46747,-12.49392c7.43787,0 13.46747,5.59372 13.46747,12.49392z" fill="#f1b4f2" stroke="none" stroke-width="0" stroke-linecap="butt"/><path d="M167.37566,297.52477c-2.95723,0 -9.24874,0.73652 -9.24874,-2.75839c0,-3.49491 6.29151,-9.89778 9.24874,-9.89778c2.95723,0 2.95723,12.65617 0,12.65617z" fill="#f1b4f2" stroke="#000000" stroke-width="0" stroke-linecap="butt"/><path d="M154.94127,293.78083c-0.84636,1.84162 -10.62914,5.44785 -11.32951,5.01828c-1.59632,-0.97908 1.19036,-14.57954 3.96836,-14.57954c2.778,0 7.7374,8.74259 7.36116,9.56126z" fill="#f1b4f2" stroke="#000000" stroke-width="0" stroke-linecap="butt"/><path d="M161.70719,302.06802c-1.42547,0 -4.2293,-0.64904 -4.2293,-0.64904c0,0 1.83254,-3.56969 3.89421,-3.56969c2.06167,0 4.54324,3.56969 4.54324,3.56969c0,0 -2.82225,0.64904 -4.20815,0.64904z" fill="#ffffff" stroke="#000000" stroke-width="2.5" stroke-linecap="round"/><path d="M150.02457,301.85168c-1.37029,0 -3.90479,-1.08172 -3.90479,-1.08172c0,0 1.83254,-3.56969 3.89421,-3.56969c2.06167,0 4.54324,3.56969 4.54324,3.56969c0,0 -3.09382,1.08172 -4.53266,1.08172z" fill="#ffffff" stroke="#000000" stroke-width="2.5" stroke-linecap="round"/><path d="M161.26392,309.31557c0,0 -3.20039,2.4937 -4.28755,2.11925c-0.25597,-0.08816 -0.81509,-1.23732 -1.13081,-2.56462c-0.45604,-1.91719 -0.6393,-4.20604 -0.6393,-4.20604c0,0 0.49833,3.62534 -0.56988,4.47992c-0.5228,0.41823 -2.24596,2.12707 -3.56455,1.764c-1.44218,-0.3971 -2.46408,-2.89058 -2.46408,-2.89058" fill="none" stroke="#000000" stroke-width="2.5" stroke-linecap="round"/><path d="M156.88206,305.04729c0,0.6721 -0.76278,1.21694 -1.70371,1.21694c-0.94093,0 -1.70371,-0.54484 -1.70371,-1.21694c0,-0.6721 0.76278,-1.21694 1.70371,-1.21694c0.94093,0 1.70371,0.54484 1.70371,1.21694z" fill="#000000" stroke="#000000" stroke-width="0" stroke-linecap="butt"/><path d="M153.2251,292.35229c-0.61458,1.33727 -7.71825,3.95591 -8.22683,3.64398c-1.15915,-0.71094 0.86436,-10.58681 2.88159,-10.58681c2.01722,0 5.61845,6.34835 5.34525,6.94282z" fill="#f2da00" stroke="#000000" stroke-width="0" stroke-linecap="butt"/><path d="M165.5959,286.0585c2.01722,0 4.04074,9.87587 2.88159,10.58681c-0.50857,0.31192 -7.61225,-2.3067 -8.22682,-3.64398c-0.2732,-0.59447 3.32802,-6.94283 5.34524,-6.94283z" data-paper-data="{&quot;index&quot;:null}" fill="#f2da00" stroke="#000000" stroke-width="0" stroke-linecap="butt"/><path d="M150.13274,299.90907c0,0.53767 -0.04843,0.97355 -0.10817,0.97355c-0.05974,0 -0.10817,-0.43588 -0.10817,-0.97355c0,-0.53767 0.04843,-0.97355 0.10817,-0.97355c0.05974,0 0.10817,0.43588 0.10817,0.97355z" fill="#ffffff" stroke="#000000" stroke-width="2.5" stroke-linecap="butt"/><path d="M161.63508,299.80091c0,0.59742 -0.16143,1.08173 -0.36057,1.08173c-0.19914,0 -0.36058,-0.48431 -0.36058,-1.08173c0,-0.59742 0.16144,-1.08173 0.36058,-1.08173c0.19914,0 0.36057,0.48431 0.36057,1.08173z" fill="#ffffff" stroke="#000000" stroke-width="2.5" stroke-linecap="butt"/><path d="M144.72412,298.71921l0.97355,1.9471" fill="none" stroke="#000000" stroke-width="1.5" stroke-linecap="round"/><path d="M146.88758,298.93553l-0.86538,-1.51441" fill="none" stroke="#000000" stroke-width="1.5" stroke-linecap="round"/><path d="M148.29382,297.5293l-0.75721,-0.97355" fill="none" stroke="#000000" stroke-width="1.5" stroke-linecap="round"/><path d="M165.70957,301.09898l1.73075,-0.54086" fill="none" stroke="#000000" stroke-width="1.5" stroke-linecap="round"/><path d="M165.70957,298.61103l-0.54086,1.40624" fill="none" stroke="#000000" stroke-width="1.5" stroke-linecap="round"/><path d="M164.4115,297.63746l-0.64903,1.51441" fill="none" stroke="#000000" stroke-width="1.5" stroke-linecap="round"/></g><g stroke="none" stroke-width="0.81451" stroke-linecap="butt"><path d="M211.2042,316.24719c-0.08829,0 -0.17984,-0.02446 -0.27956,-0.07487c-0.44941,-0.22661 -0.81073,-0.63704 -1.07324,-1.2199l-0.11366,-0.25218l0.25383,-0.10949c0.10096,-0.04334 0.20194,-0.08956 0.30402,-0.13995c0.81617,-0.40609 1.53787,-1.03498 2.14484,-1.86893l0.12202,-0.16751l0.19379,0.07308c0.63107,0.23784 1.20176,0.5 1.69597,0.77882c0.30874,0.17421 0.48421,0.41825 0.49347,0.68691c0.00905,0.26195 -0.13977,0.50778 -0.41897,0.69161c-0.1704,0.11205 -0.37237,0.16896 -0.59989,0.16896c-0.25,0 -0.50469,-0.06833 -0.74581,-0.16099c0.09915,0.11223 0.18165,0.22899 0.25906,0.34283c0.13288,0.19506 0.15283,0.41388 0.05438,0.60024c-0.10858,0.20486 -0.34807,0.3372 -0.61022,0.3372v0c-0.1327,0 -0.26141,-0.03427 -0.37272,-0.09954c-0.35659,-0.20902 -0.66172,-0.49817 -0.92187,-0.77826c0.09246,0.4717 0.11096,0.82848 -0.05747,1.03661c-0.08084,0.10025 -0.19743,0.15536 -0.32794,0.15536z" fill="#f7941e"/><path d="M212.6605,312.74215c-0.58956,0.81018 -1.34082,1.50307 -2.24437,1.95267c-0.10623,0.05257 -0.21174,0.1008 -0.31689,0.14612c0.19978,0.44308 0.50198,0.86402 0.94796,1.08882c0.06236,0.03157 0.11423,0.04569 0.157,0.04569c0.34771,0 0.09951,-0.93237 0.0765,-1.07595c-0.02175,-0.13524 0.09083,-0.27213 0.21283,-0.27213c0.04678,0 0.09499,0.02012 0.13742,0.06817c0.29788,0.33682 0.62709,0.67421 1.01831,0.90373c0.07307,0.04296 0.15518,0.06219 0.23513,0.06219c0.27392,0 0.52593,-0.22645 0.33104,-0.5127c-0.15356,-0.22587 -0.30094,-0.41841 -0.52737,-0.5734c-0.18274,-0.12529 -0.0765,-0.37131 0.10352,-0.37131c0.03136,0 0.0649,0.00744 0.09953,0.02431c0.27882,0.13506 0.67312,0.31381 1.03607,0.31381c0.16026,0 0.31472,-0.03499 0.45014,-0.12418c0.40899,-0.26941 0.4012,-0.65537 -0.05856,-0.91461c-0.52593,-0.29678 -1.09064,-0.54714 -1.65826,-0.76123M212.46452,312.08716l0.38779,0.14592c0.64393,0.24295 1.22733,0.51088 1.7335,0.79642c0.53245,0.30021 0.62435,0.70176 0.63161,0.91441c0.01251,0.35514 -0.18474,0.69344 -0.54133,0.92821c-0.21556,0.14196 -0.46737,0.21374 -0.74908,0.21374c-0.04824,0 -0.0959,-0.00218 -0.14376,-0.00599c0.07178,0.2161 0.05673,0.44418 -0.04841,0.64323c-0.155,0.29278 -0.48894,0.48206 -0.85063,0.48206c-0.18093,0 -0.35714,-0.04732 -0.51014,-0.13688c-0.15899,-0.09317 -0.30747,-0.19997 -0.44634,-0.31417c-0.01522,0.19218 -0.06871,0.36656 -0.1842,0.50923c-0.13197,0.16244 -0.32848,0.25581 -0.53951,0.25581c-0.13017,0 -0.26542,-0.03499 -0.40193,-0.10388c-0.5067,-0.25545 -0.90989,-0.70994 -1.19886,-1.35098l-0.22716,-0.50397l0.50778,-0.21884c0.10497,-0.04514 0.19997,-0.08901 0.29006,-0.13341c0.7772,-0.38689 1.46573,-0.98769 2.04659,-1.78589l0.24401,-0.33502z" fill="#000000"/><path d="M201.63591,316.52167c-0.11494,-0.00018 -0.21955,-0.04876 -0.2946,-0.13668c-0.16172,-0.18999 -0.14521,-0.54224 -0.10278,-0.80457c0.01124,-0.07054 0.02573,-0.13943 0.04204,-0.20686c-0.34662,0.33974 -0.73639,0.6521 -1.21228,0.82451c-0.11349,0.04134 -0.2121,0.06128 -0.30113,0.06128c-0.1733,0 -0.316,-0.07995 -0.39158,-0.21935c-0.21628,-0.39922 0.26903,-1.16425 0.27393,-1.17186c0.05275,-0.08051 0.10824,-0.15665 0.16642,-0.22843c-0.28207,0.10715 -0.6463,0.21972 -0.92131,0.21972c-0.20557,0 -0.36057,-0.06056 -0.4612,-0.17984c-0.06399,-0.07596 -0.13252,-0.21011 -0.09662,-0.41842c0.06036,-0.35007 0.40609,-0.63125 0.75507,-0.88922l0.05947,-0.04407c0.31526,-0.23694 0.65736,-0.43038 0.98819,-0.61765c0.12927,-0.07305 0.2587,-0.14648 0.38632,-0.22208l0.21394,-0.12689l0.14539,0.20177c0.53552,0.74311 1.22405,1.34791 2.04676,1.79751l0.19979,0.10931l-0.07234,0.21574c-0.19453,0.57977 -0.44815,1.03463 -0.79787,1.43146c-0.2469,0.27974 -0.43982,0.40464 -0.62562,0.40464z" fill="#f7941e"/><path d="M200.66454,312.7222c-0.45339,0.26885 -0.92892,0.50688 -1.34971,0.82323c-0.20285,0.15267 -0.65825,0.46338 -0.70993,0.76232c-0.03588,0.20796 0.09355,0.28011 0.28988,0.28011c0.42694,0 1.16986,-0.34139 1.21356,-0.36785c0.02829,-0.0174 0.05747,-0.02501 0.08594,-0.02501c0.14666,0 0.2723,0.20123 0.13541,0.312c-0.17657,0.14303 -0.32776,0.31943 -0.45229,0.50997c-0.05493,0.08429 -0.5428,0.97063 -0.11025,0.97063c0.05404,0 0.12255,-0.01378 0.20831,-0.04496c0.52918,-0.19164 0.95884,-0.59139 1.34065,-0.99365c0.03662,-0.03862 0.08066,-0.05513 0.12418,-0.05513c0.11149,0 0.21882,0.10898 0.18565,0.23533c-0.0428,0.16315 -0.09264,0.32758 -0.11912,0.49474c-0.01576,0.09715 -0.08918,0.6258 0.12889,0.6258c0.08685,0 0.22011,-0.08393 0.42169,-0.31255c0.34933,-0.39612 0.57758,-0.84154 0.744,-1.33791c-0.83537,-0.45668 -1.56816,-1.08793 -2.13687,-1.87707M200.81503,312.00048l0.29116,0.40319c0.51141,0.70975 1.16986,1.28788 1.95647,1.71809l0.39956,0.21825l-0.14485,0.43185c-0.20359,0.60694 -0.48206,1.1055 -0.85169,1.52465c-0.21666,0.24546 -0.48459,0.49654 -0.82959,0.49654c-0.19308,0 -0.37599,-0.08485 -0.50164,-0.23224c-0.1122,-0.13196 -0.17657,-0.3118 -0.19253,-0.53696c-0.23531,0.17421 -0.49419,0.32558 -0.78062,0.42945c-0.14394,0.05221 -0.27285,0.07759 -0.39396,0.07759c-0.2721,0 -0.50797,-0.13523 -0.6307,-0.36184c-0.17786,-0.32815 -0.05402,-0.76232 0.08284,-1.07144c-0.11293,0.02103 -0.22298,0.03354 -0.32452,0.03354c-0.3604,0 -0.56289,-0.15046 -0.66913,-0.27664c-0.08284,-0.09827 -0.21321,-0.31201 -0.15663,-0.63977c0.08393,-0.48658 0.57051,-0.84643 0.86113,-1.06144l0.05783,-0.04298c0.32922,-0.24746 0.67911,-0.44524 1.01758,-0.63686c0.12762,-0.07216 0.25545,-0.14449 0.38143,-0.21919l0.42786,-0.2538z" fill="#000000"/><g><path d="M207.09291,315.18885c-0.13523,0 -0.27103,-0.00361 -0.4068,-0.01087l-0.07434,-0.00399c-1.10877,-0.0593 -2.1559,-0.11549 -3.25088,-0.60478c-0.10623,-0.0475 -0.20813,-0.10135 -0.30983,-0.15501c-1.00725,-0.53336 -1.86982,-1.38288 -2.51015,-2.46427c-1.51955,-2.56724 -1.1296,-5.64103 1.06961,-8.43342l0.03284,-0.04153l0.06254,-0.03552c0.01213,-0.0107 0.00688,-0.03136 -0.00943,-0.04968c-0.01032,-0.01178 -0.02283,-0.01977 -0.031,-0.01977c-0.00561,0 -0.01449,0.00292 -0.02392,0.00799c-1.11275,0.58936 -2.02719,1.44506 -2.87743,2.69289l-0.02702,0.03968c-0.39756,0.58321 -0.80891,1.18637 -1.31055,1.7239c-0.35659,0.38214 -1.02536,0.78861 -1.56235,0.78861c-0.23295,0 -0.43255,-0.07706 -0.57723,-0.22282c-0.17548,-0.17692 -0.26304,-0.44489 -0.26032,-0.79658c0.01089,-1.30674 1.00435,-2.67348 1.97479,-3.83826c0.78209,-0.93836 1.71481,-1.70776 2.61674,-2.45177c0.45197,-0.37291 0.91896,-0.75817 1.35986,-1.15918l-0.00091,-0.01104c-0.17238,-0.22681 -0.35297,-0.45249 -0.52809,-0.67133c-0.62038,-0.77555 -1.26178,-1.57757 -1.65118,-2.54747c-0.53481,-1.33194 -0.33122,-2.88143 0.5736,-4.36292c1.2217,-2.00036 3.79511,-3.19433 6.88447,-3.19433c0.06275,0 0.12529,0.00054 0.18783,0.00145c2.43055,0.03971 5.17818,0.38325 7.12777,2.63143c1.07522,1.23984 1.51196,2.88159 1.16842,4.39193c-0.32706,1.43762 -1.39375,2.62126 -2.49764,3.68617c-0.01975,0.01921 -0.01886,0.02791 -0.01865,0.03243l0.00417,0.04009l-0.00472,0.02555c0.38252,0.2723 0.81328,0.55312 1.26884,0.85006c2.16207,1.40936 4.8526,3.16353 5.07577,5.82449c0.02936,0.34951 -0.04806,0.62688 -0.22988,0.82469c-0.17784,0.19342 -0.44942,0.29585 -0.78498,0.29585c0,0 0,0 -0.00018,0c-0.46085,0 -0.95632,-0.18725 -1.24093,-0.34771c-0.67314,-0.37962 -1.21049,-0.94851 -1.73024,-1.4989l-0.0192,-0.0203c-0.16261,-0.17223 -0.32396,-0.349 -0.48622,-0.52648c-0.70323,-0.77011 -1.42947,-1.56561 -2.33827,-2.04403c2.17638,2.7652 2.60967,5.51556 1.29096,8.18178c-0.57433,1.16154 -1.50037,2.09645 -2.67838,2.70395c-0.97571,0.50309 -2.10206,0.76902 -3.25743,0.76902z" fill="#898dc5"/><path d="M206.25588,289.6393c-2.48059,0 -5.28713,0.82867 -6.65205,3.06378c-0.75925,1.24347 -1.11549,2.72026 -0.5533,4.12c0.4931,1.22842 1.40788,2.1782 2.19251,3.22061c0.03263,0.04296 0.03027,0.09264 0.01015,0.13559c0.00419,0.05059 -0.01086,0.10225 -0.05801,0.14541c-1.3303,1.21591 -2.81978,2.21717 -3.98457,3.61455c-0.7714,0.92603 -1.90082,2.36403 -1.9117,3.66641c-0.00454,0.55039 0.24075,0.7451 0.56543,0.7451c0.45415,0 1.06383,-0.3809 1.36348,-0.70214c0.49837,-0.53389 0.90174,-1.13015 1.31164,-1.73113c0.79586,-1.16788 1.71482,-2.11259 2.97496,-2.7801c0.05186,-0.02756 0.1028,-0.0395 0.15102,-0.0395c0.28499,0 0.47317,0.42167 0.16625,0.58266c-0.00254,0.00091 -0.00507,0.00272 -0.00761,0.00417c-1.85568,2.35604 -2.67911,5.37309 -1.04929,8.12651c0.57995,0.97951 1.37959,1.82014 2.38793,2.35424c0.10154,0.05364 0.20305,0.10786 0.30893,0.15536c1.07212,0.47896 2.08248,0.52375 3.22877,0.58537c0.13108,0.00708 0.26179,0.01053 0.39231,0.01053c1.10333,0 2.18419,-0.24964 3.13287,-0.73875c1.0774,-0.55548 1.98458,-1.42042 2.55927,-2.58285c1.41768,-2.86674 0.57505,-5.60131 -1.32814,-7.97694c-0.14305,-0.1784 -0.02156,-0.41243 0.17186,-0.41261c0.03862,0 0.08032,0.00941 0.1231,0.03045c1.22026,0.59954 2.09155,1.71157 3.00832,2.68183c0.50418,0.53389 1.03987,1.10514 1.68546,1.46919c0.28207,0.15916 0.72498,0.31272 1.10732,0.31272c0.43781,0 0.7964,-0.20141 0.74383,-0.82596c-0.25761,-3.0734 -4.04404,-4.91605 -6.24381,-6.48492c-0.09101,-0.06473 -0.11621,-0.16208 -0.09954,-0.24946c-0.00923,-0.08683 0.01832,-0.17748 0.10025,-0.25687c1.01052,-0.97479 2.09934,-2.13542 2.42114,-3.55074c0.33411,-1.46882 -0.12382,-3.01776 -1.10859,-4.15337c-1.81037,-2.08754 -4.30946,-2.4949 -6.92691,-2.53768c-0.06092,-0.00091 -0.12202,-0.00145 -0.18329,-0.00145M206.25588,289.0954v0c0.06437,0 0.12836,0.00056 0.19217,0.00165c2.49074,0.04059 5.30907,0.39611 7.32919,2.72513c1.1316,1.30492 1.59062,3.03608 1.22805,4.63033c-0.32576,1.43183 -1.3323,2.60497 -2.40425,3.65644c0.32086,0.22136 0.67202,0.45032 1.0395,0.68981c2.21157,1.4418 4.9639,3.23619 5.19814,6.02933c0.04496,0.53373 -0.13852,0.85552 -0.30042,1.03156c-0.16097,0.17512 -0.46265,0.38378 -0.9853,0.38378c-0.51306,0 -1.0464,-0.1976 -1.37454,-0.3827c-0.70902,-0.39974 -1.28554,-1.01034 -1.79441,-1.54913l-0.01903,-0.02012c-0.16479,-0.17459 -0.32977,-0.35514 -0.48932,-0.52991c-0.32378,-0.35443 -0.65208,-0.71427 -0.99981,-1.0435c1.38997,2.38849 1.53208,4.82267 0.39685,7.11817c-0.60025,1.21409 -1.56778,2.19107 -2.79767,2.82521c-1.01413,0.52303 -2.18381,0.79931 -3.38214,0.79931c-0.13978,0 -0.28154,-0.00381 -0.42149,-0.01124l-0.07414,-0.00399c-1.13451,-0.06074 -2.20631,-0.11821 -3.3477,-0.62817c-0.11712,-0.05239 -0.22317,-0.1086 -0.32578,-0.16297l-0.01541,-0.00817c-1.03589,-0.54876 -1.93545,-1.43308 -2.60134,-2.5578c-1.40679,-2.37671 -1.24601,-5.16277 0.41063,-7.78187c-0.62564,0.49855 -1.18981,1.12635 -1.72878,1.91732l-0.02684,0.03953c-0.40338,0.59172 -0.82051,1.20376 -1.33629,1.75615c-0.32815,0.35169 -1.06799,0.87508 -1.76122,0.87508c-0.30711,0 -0.5736,-0.10479 -0.77031,-0.30313c-0.22843,-0.23041 -0.34264,-0.56364 -0.33919,-0.99056c0.01159,-1.39213 1.03661,-2.80836 2.03787,-4.01013c0.79823,-0.95775 1.74092,-1.73549 2.65246,-2.48747c0.3876,-0.31962 0.78625,-0.64848 1.16804,-0.98712c-0.12453,-0.15972 -0.2518,-0.31889 -0.37635,-0.47463c-0.6327,-0.79097 -1.28696,-1.60894 -1.69125,-2.61601c-0.56779,-1.41352 -0.35697,-3.0493 0.59372,-4.60604c1.2712,-2.08156 3.93146,-3.32414 7.11635,-3.32414v0z" fill="#000000"/></g><path d="M210.1877,301.4804c0,1.27013 2.2208,3.61113 2.2208,7.66059c0,2.66026 -1.29457,4.25542 -2.18272,5.03697c-1.06109,0.54712 -2.28716,0.79458 -3.52519,0.72841c-1.14629,-0.06146 -2.1566,-0.10624 -3.22876,-0.58538c-0.10588,-0.04732 -0.20722,-0.10152 -0.30894,-0.15536c-0.88777,-0.78589 -2.16894,-2.37799 -2.16894,-5.02446c0,-4.04946 2.2208,-6.39046 2.2208,-7.66057c0,-1.27013 -5.4387,-5.80021 -1.8943,-9.42889c2.3789,-2.43563 5.38069,0.17674 5.38069,0.17674c0,0 3.00198,-2.6122 5.38068,-0.17674c3.54458,3.62869 -1.89413,8.15858 -1.89413,9.42869z" fill="#ffffff"/><g><path d="M206.51586,301.57343c-1.75707,0 -3.7128,-2.33683 -3.7128,-3.92039c0,-1.33412 1.87091,-3.19035 3.7128,-3.19035c1.91608,0 3.72007,1.79731 3.72007,3.19035c0.00018,1.37092 -1.91206,3.92039 -3.72007,3.92039z" fill="#f7941e"/><path d="M206.51586,294.73463c-1.72568,0 -3.4407,1.78533 -3.44088,2.9184c0,1.39484 1.83539,3.64845 3.44088,3.64845c1.60551,0 3.44813,-2.36619 3.44813,-3.64845c0,-1.28226 -1.72243,-2.9184 -3.44813,-2.9184M206.51586,294.19075c1.94018,0 3.9922,1.77954 3.99202,3.46229c0,1.5027 -2.01214,4.19231 -3.99202,4.19231c-1.88578,0 -3.98475,-2.49888 -3.98475,-4.19231c0,-1.44797 2.00798,-3.46229 3.98475,-3.46229z" fill="#000000"/></g><path d="M204.5146,299.52394c-0.23097,-0.19218 0.10515,-0.54586 0.31962,-0.41769c0.60822,0.36367 1.29168,1.14866 2.0763,0.88052c0.48786,-0.16659 0.85623,-0.56417 1.28409,-0.86529c0.24074,-0.16951 0.56236,0.21537 0.32432,0.42005c-0.49764,0.42802 -1.22914,0.9699 -1.92567,0.92458c-0.79513,-0.05169 -1.47461,-0.43981 -2.07867,-0.94216z" fill="#231f20"/><path d="M202.77294,293.56656c0.18964,0 0.36133,0.09827 0.48568,0.2567c0.12437,0.15863 0.20141,0.37782 0.20141,0.61947c0,0.24165 -0.07704,0.46085 -0.20141,0.61948c-0.12436,0.15845 -0.29604,0.25669 -0.48568,0.25669c-0.18961,0 -0.36131,-0.09824 -0.48566,-0.25669c-0.12437,-0.15863 -0.20141,-0.37783 -0.20141,-0.61948c0,-0.24165 0.07704,-0.46084 0.20141,-0.61947c0.12436,-0.15843 0.29605,-0.2567 0.48566,-0.2567z" fill="#231f20"/><path d="M210.12642,293.56656c0.18964,0 0.36151,0.09827 0.48604,0.2567c0.12437,0.15863 0.20143,0.37782 0.20143,0.61947c0,0.24165 -0.07706,0.46085 -0.20143,0.61948c-0.12453,0.15845 -0.2964,0.25669 -0.48604,0.25669c-0.18961,0 -0.36148,-0.09824 -0.48601,-0.25669c-0.12437,-0.15863 -0.20143,-0.37783 -0.20143,-0.61948c0,-0.24165 0.07706,-0.46084 0.20143,-0.61947c0.12453,-0.15843 0.2964,-0.2567 0.48601,-0.2567z" fill="#231f20"/></g></g><path d="M139.58845,376.03887v-48.49923h80.82313v48.49923z" fill-opacity="0.50196" fill="#ffffff" stroke="none" stroke-width="NaN" stroke-linecap="butt"/><path d="M177.11169,360.45806c0,-8.00458 6.48899,-14.49357 14.49357,-14.49357c8.00458,0 14.49357,6.48899 14.49357,14.49357c0,8.00458 -6.48899,14.49357 -14.49357,14.49357c-8.00458,0 -14.49357,-6.48899 -14.49357,-14.49357z" fill="#000000" stroke="none" stroke-width="0" stroke-linecap="butt"/><path d="M178.01754,360.2316c0,-7.37922 5.98204,-13.36126 13.36126,-13.36126c7.37922,0 13.36126,5.98204 13.36126,13.36126c0,7.37922 -5.98204,13.36126 -13.36126,13.36126c-7.37922,0 -13.36126,-5.98204 -13.36126,-13.36126z" fill="#ffe600" stroke="none" stroke-width="0" stroke-linecap="butt"/><text transform="translate(188.72907,365.05993) scale(0.38349,0.38349)" font-size="40" xml:space="preserve" fill="#000000" fill-rule="nonzero" stroke="none" stroke-width="1" stroke-linecap="butt" stroke-linejoin="miter" stroke-miterlimit="10" stroke-dasharray="" stroke-dashoffset="0" font-family="Pixel" font-weight="normal" text-anchor="start" style="mix-blend-mode: normal"><tspan x="0" dy="0">1</tspan></text><text transform="translate(180,342.70756) scale(0.33272,0.33272)" font-size="40" xml:space="preserve" fill="#000000" fill-rule="nonzero" stroke="none" stroke-width="1" stroke-linecap="butt" stroke-linejoin="miter" stroke-miterlimit="10" stroke-dasharray="" stroke-dashoffset="0" font-family="Playful" font-weight="normal" text-anchor="middle" style="mix-blend-mode: normal"><tspan x="0" dy="0">З друзями</tspan></text><text transform="translate(162.42166,367.51265) scale(0.38141,0.38141)" font-size="40" xml:space="preserve" fill="#000000" fill-rule="nonzero" stroke="none" stroke-width="1" stroke-linecap="butt" stroke-linejoin="miter" stroke-miterlimit="10" stroke-dasharray="" stroke-dashoffset="0" font-family="Playful" font-weight="normal" text-anchor="middle" style="mix-blend-mode: normal"><tspan x="0" dy="0">45</tspan></text></g></g></svg>