<svg version="1.1" xmlns="http://www.w3.org/2000/svg" xmlns:xlink="http://www.w3.org/1999/xlink" width="109.50527" height="89.15606" viewBox="0,0,109.50527,89.15606"><g transform="translate(-125.24737,-280.42197)"><g stroke="#000000" stroke-miterlimit="10"><path d="M130.24737,368.57803c-2.20914,0 -4,-1.79086 -4,-4v-79.15606c0,-2.20914 1.79086,-4 4,-4h99.50527c2.20914,0 4,1.79086 4,4v79.15606c0,2.20914 -1.79086,4 -4,4z" fill="#2ee600" stroke-width="2"/><path d="M205.3246,330.77806c-0.47647,0.03843 -0.88676,0.33971 -1.07057,0.77994l-2.46594,5.95126c-0.1838,0.44023 -0.10257,0.94666 0.20515,1.30784l4.88921,5.71836c0.80347,0.94023 0.75218,2.34202 -0.12609,3.22029l-4.00026,4.00024c-0.87609,0.87609 -2.28008,0.92956 -3.22031,0.1239l-5.71839,-4.88918c-0.359,-0.30771 -0.86761,-0.38895 -1.30566,-0.20514l-5.95334,2.46593c-0.44024,0.1838 -0.74152,0.59628 -0.77995,1.07275l-0.58342,7.49624c-0.09615,1.23522 -1.12609,2.19035 -2.36556,2.19035h-5.65849c-1.23947,0 -2.26941,-0.95527 -2.36556,-2.19035l-0.58547,-7.49624c-0.03638,-0.47661 -0.33766,-0.88895 -0.7779,-1.07275l-5.95334,-2.46593c-0.44024,-0.1838 -0.94461,-0.10257 -1.30784,0.20514l-5.7162,4.88918c-0.94024,0.80565 -2.34203,0.75218 -3.22031,-0.1239l-4.00026,-4.00024c-0.87609,-0.87828 -0.92956,-2.28006 -0.12609,-3.22029l4.88921,-5.71836c0.30771,-0.36118 0.38895,-0.8676 0.20515,-1.30784l-2.46594,-5.95126c-0.17956,-0.44023 -0.59628,-0.74151 -1.06852,-0.77994l-7.50053,-0.58342c-1.23509,-0.09628 -2.18818,-1.12827 -2.18818,-2.36773v-5.65627c0,-1.23946 0.95309,-2.2694 2.18818,-2.36773l7.50039,-0.5852c0.47237,-0.03638 0.88895,-0.33561 1.06852,-0.77789l2.46594,-5.95126c0.1838,-0.44023 0.10257,-0.94447 -0.20515,-1.30565l-4.88921,-5.71836c-0.80347,-0.94242 -0.74999,-2.34421 0.12609,-3.22029l4.00026,-4.00024c0.87828,-0.87609 2.28008,-0.93175 3.22031,-0.12609l5.7162,4.88918c0.36338,0.3099 0.86761,0.38895 1.30784,0.20733l5.95334,-2.46812c0.44024,-0.18162 0.74152,-0.59614 0.7779,-1.07056l0.58547,-7.49624c0.09615,-1.23727 1.12609,-2.19035 2.36556,-2.19035h5.65849c1.23933,0 2.26927,0.95308 2.36542,2.18994l0.58342,7.49624c0.03843,0.47223 0.33971,0.88895 0.77995,1.07056l5.95334,2.46812c0.43805,0.18162 0.94448,0.10257 1.30566,-0.20733l5.71839,-4.88918c0.94024,-0.80565 2.34423,-0.74999 3.22031,0.12609l4.00026,4.00024c0.87828,0.87609 0.92956,2.27788 0.12609,3.22029l-4.88921,5.71836c-0.31195,0.36118 -0.38895,0.86542 -0.20515,1.30565l2.46594,5.95126c0.1838,0.44242 0.5941,0.74151 1.07057,0.77789l7.49834,0.58547c1.23509,0.09833 2.18818,1.12827 2.18818,2.36773v5.65845c0,1.23727 -0.95309,2.2694 -2.18818,2.36554zM188.36813,333.36789c2.23523,-2.23726 3.46607,-5.20755 3.46607,-8.37013c0,-3.16039 -1.23085,-6.13288 -3.46607,-8.36589c-2.23523,-2.2374 -5.20553,-3.46605 -8.36814,-3.46605c-3.16055,0 -6.13292,1.22879 -8.36814,3.46605c-2.23523,2.23303 -3.46607,5.2055 -3.46607,8.36589c0,3.16258 1.23085,6.13288 3.46607,8.37013c2.23523,2.23303 5.20772,3.46386 8.36814,3.46386c3.1626,0 6.13292,-1.23084 8.36814,-3.46386z" fill="none" stroke-width="3.5"/></g></g></svg>